M48
; DRILL file {KiCad 7.0.1-0} date 2023 July 02, Sunday 14:27:44
; FORMAT={-:-/ absolute / inch / decimal}
; #@! TF.CreationDate,2023-07-02T14:27:44+03:00
; #@! TF.GenerationSoftware,Kicad,Pcbnew,7.0.1-0
; #@! TF.FileFunction,NonPlated,1,2,NPTH
FMAT,2
INCH
; #@! TA.AperFunction,NonPlated,NPTH,ComponentDrill
T1C0.0157
; #@! TA.AperFunction,NonPlated,NPTH,ComponentDrill
T2C0.0256
; #@! TA.AperFunction,NonPlated,NPTH,ComponentDrill
T3C0.0669
; #@! TA.AperFunction,NonPlated,NPTH,ComponentDrill
T4C0.1161
; #@! TA.AperFunction,NonPlated,NPTH,ComponentDrill
T5C0.1181
; #@! TA.AperFunction,NonPlated,NPTH,ComponentDrill
T6C0.1200
; #@! TA.AperFunction,NonPlated,NPTH,ComponentDrill
T7C0.1201
; #@! TA.AperFunction,NonPlated,NPTH,ComponentDrill
T8C0.1570
; #@! TA.AperFunction,NonPlated,NPTH,ComponentDrill
T9C0.1575
%
G90
G05
T1
X1.3159Y-1.5731
X1.3159Y-1.6519
X1.3455Y-1.5731
X1.3455Y-1.6519
X1.375Y-1.5731
X1.375Y-1.6519
X1.4045Y-1.5731
X1.4045Y-1.6519
X1.4341Y-1.5731
X1.4341Y-1.6519
X3.1019Y-3.8238
X3.1319Y-3.8238
X3.1614Y-3.814
X3.1909Y-1.5731
X3.1909Y-1.6519
X3.1909Y-3.8041
X3.2205Y-1.5731
X3.2205Y-1.6519
X3.2205Y-3.7943
X3.25Y-1.5731
X3.25Y-1.6519
X3.25Y-3.7943
X3.2795Y-1.5731
X3.2795Y-1.6519
X3.2795Y-3.7943
X3.3091Y-1.5731
X3.3091Y-1.6519
X3.3091Y-3.8041
X3.3386Y-3.814
X3.3681Y-3.8238
X3.5069Y-3.8238
X3.5364Y-3.814
X3.5659Y-3.8041
X3.5955Y-3.7943
X3.625Y-3.7943
X3.6545Y-3.7943
X3.6841Y-3.8041
X3.7136Y-3.814
X3.7431Y-3.8238
X3.7881Y-3.8238
X3.8177Y-3.814
X3.8472Y-3.8041
X3.8767Y-3.7943
X3.9062Y-3.7943
X3.9358Y-3.7943
X3.9653Y-3.8041
X3.9948Y-3.814
X4.0244Y-3.8238
X4.4444Y-3.8238
X4.4739Y-3.814
X4.5034Y-3.8041
X4.5317Y-3.7943
X4.5908Y-3.7943
X5.0659Y-1.5721
X5.0659Y-1.6519
X5.0955Y-1.5721
X5.0955Y-1.6519
X5.125Y-1.5721
X5.125Y-1.6519
X5.1545Y-1.5721
X5.1545Y-1.6519
X5.1841Y-1.5721
X5.1841Y-1.6519
X5.3819Y-3.8238
X5.4114Y-3.814
X5.4409Y-3.8041
X5.4705Y-3.7943
X5.5295Y-3.7943
X6.2205Y-3.7943
X6.2795Y-3.7943
X6.3091Y-3.8041
X6.3386Y-3.814
X6.3681Y-3.8238
X6.5659Y-1.5731
X6.5659Y-1.6519
X6.5955Y-1.5731
X6.5955Y-1.6519
X6.625Y-1.5731
X6.625Y-1.6519
X6.6545Y-1.5731
X6.6545Y-1.6519
X6.6841Y-1.5731
X6.6841Y-1.6519
X7.1592Y-3.7943
X7.217Y-3.7943
X7.2466Y-3.8041
X7.2761Y-3.814
X7.3056Y-3.8238
X7.7256Y-3.8238
X7.7552Y-3.814
X7.7847Y-3.8041
X7.8142Y-3.7943
X7.8438Y-3.7943
X7.8733Y-3.7943
X7.9028Y-3.8041
X7.9323Y-3.814
X7.9619Y-3.8238
X8.0069Y-3.8238
X8.0364Y-3.814
X8.0659Y-3.8041
X8.0955Y-3.7943
X8.125Y-3.7943
X8.1545Y-3.7943
X8.1841Y-3.8041
X8.2136Y-3.814
X8.2431Y-3.8238
X8.3819Y-3.8238
X8.4114Y-3.814
X8.4409Y-1.5731
X8.4409Y-1.6519
X8.4409Y-3.8041
X8.4705Y-1.5731
X8.4705Y-1.6519
X8.4705Y-3.7943
X8.5Y-1.5731
X8.5Y-1.6519
X8.5Y-3.7943
X8.5295Y-1.5731
X8.5295Y-1.6519
X8.5295Y-3.7943
X8.5591Y-1.5731
X8.5591Y-1.6519
X8.5591Y-3.8041
X8.5886Y-3.814
X8.6181Y-3.8238
X8.6481Y-3.8238
X10.3159Y-1.5731
X10.3159Y-1.6519
X10.3455Y-1.5731
X10.3455Y-1.6519
X10.375Y-1.5731
X10.375Y-1.6519
X10.4045Y-1.5731
X10.4045Y-1.6519
X10.4341Y-1.5731
X10.4341Y-1.6519
T2
X1.2612Y-1.8365
X1.4888Y-1.8365
T3
X0.8Y-1.2375
X0.8Y-1.9875
X0.8Y-2.7375
X0.8Y-3.4875
X1.2Y-1.2375
X1.2Y-1.9875
X1.2Y-2.7375
X1.2Y-3.4875
X1.55Y-1.9875
X1.55Y-2.7375
X1.55Y-3.4875
X1.925Y-1.2375
X1.95Y-1.9875
X1.95Y-2.7375
X1.95Y-3.4875
X2.3Y-1.9875
X2.3Y-2.7375
X2.3Y-3.4875
X2.325Y-1.2375
X2.675Y-1.2375
X2.7Y-1.9875
X2.7Y-2.7375
X2.7Y-3.4875
X3.05Y-1.9875
X3.05Y-2.7375
X3.05Y-3.4875
X3.075Y-1.2375
X3.425Y-1.2375
X3.425Y-4.2375
X3.45Y-1.9875
X3.45Y-2.7375
X3.45Y-3.4875
X3.8Y-1.9875
X3.8Y-2.7375
X3.8Y-3.4875
X3.825Y-1.2375
X3.825Y-4.2375
X4.175Y-1.2375
X4.2Y-1.9875
X4.2Y-2.7375
X4.2Y-3.4875
X4.55Y-1.9875
X4.55Y-2.7375
X4.55Y-3.4875
X4.575Y-1.2375
X4.8312Y-4.2375
X4.925Y-3.4875
X4.95Y-1.9875
X4.95Y-2.7375
X4.95Y-3.4875
X5.2313Y-4.2375
X5.3Y-1.9875
X5.3Y-2.7375
X5.3Y-3.4875
X5.325Y-3.4875
X5.675Y-4.2375
X5.7Y-1.9875
X5.7Y-2.7375
X5.7Y-3.4875
X6.05Y-1.9875
X6.05Y-2.7375
X6.05Y-3.4875
X6.075Y-4.2375
X6.425Y-3.4875
X6.45Y-1.9875
X6.45Y-2.7375
X6.45Y-3.4875
X6.5187Y-4.2375
X6.8Y-1.9875
X6.8Y-2.7375
X6.8Y-3.4875
X6.825Y-3.4875
X6.9188Y-4.2375
X7.175Y-1.2375
X7.2Y-1.9875
X7.2Y-2.7375
X7.2Y-3.4875
X7.55Y-1.9875
X7.55Y-2.7375
X7.55Y-3.4875
X7.575Y-1.2375
X7.925Y-1.2375
X7.925Y-4.2375
X7.95Y-1.9875
X7.95Y-2.7375
X7.95Y-3.4875
X8.3Y-1.9875
X8.3Y-2.7375
X8.3Y-3.4875
X8.325Y-1.2375
X8.325Y-4.2375
X8.675Y-1.2375
X8.7Y-1.9875
X8.7Y-2.7375
X8.7Y-3.4875
X9.05Y-1.9875
X9.05Y-2.7375
X9.05Y-3.4875
X9.075Y-1.2375
X9.425Y-1.2375
X9.45Y-1.9875
X9.45Y-2.7375
X9.45Y-3.4875
X9.8Y-1.9875
X9.8Y-2.7375
X9.8Y-3.4875
X9.825Y-1.2375
X10.2Y-1.9875
X10.2Y-2.7375
X10.2Y-3.4875
X10.55Y-1.2375
X10.55Y-1.9875
X10.55Y-2.7375
X10.55Y-3.4875
X10.95Y-1.2375
X10.95Y-1.9875
X10.95Y-2.7375
X10.95Y-3.4875
T4
X3.475Y-4.1375
X3.725Y-4.0375
X7.975Y-4.1375
X8.225Y-4.0375
T5
X0.9Y-1.4375
X0.9Y-2.1875
X0.9Y-2.9375
X0.9Y-3.6875
X1.15Y-1.3375
X1.15Y-2.0875
X1.15Y-2.8375
X1.15Y-3.5875
X1.65Y-2.1875
X1.65Y-2.9375
X1.65Y-3.6875
X1.9Y-2.0875
X1.9Y-2.8375
X1.9Y-3.5875
X2.025Y-1.4375
X2.275Y-1.3375
X2.4Y-2.1875
X2.4Y-2.9375
X2.4Y-3.6875
X2.65Y-2.0875
X2.65Y-2.8375
X2.65Y-3.5875
X2.775Y-1.4375
X3.025Y-1.3375
X3.15Y-2.1875
X3.15Y-2.9375
X3.15Y-3.6875
X3.4Y-2.0875
X3.4Y-2.8375
X3.4Y-3.5875
X3.525Y-1.4375
X3.775Y-1.3375
X3.9Y-2.1875
X3.9Y-2.9375
X3.9Y-3.6875
X4.15Y-2.0875
X4.15Y-2.8375
X4.15Y-3.5875
X4.275Y-1.4375
X4.525Y-1.3375
X4.6Y-3.3875
X4.65Y-2.1875
X4.65Y-2.9375
X4.85Y-3.2875
X4.8812Y-4.1375
X4.9Y-2.0875
X4.9Y-2.8375
X5.025Y-3.6875
X5.1312Y-4.0375
X5.275Y-3.5875
X5.35Y-3.3875
X5.4Y-2.1875
X5.4Y-2.9375
X5.6Y-3.2875
X5.65Y-2.0875
X5.65Y-2.8375
X5.725Y-4.1375
X5.975Y-4.0375
X6.1Y-3.3875
X6.15Y-2.1875
X6.15Y-2.9375
X6.35Y-3.2875
X6.4Y-2.0875
X6.4Y-2.8375
X6.525Y-3.6875
X6.5687Y-4.1375
X6.775Y-3.5875
X6.8187Y-4.0375
X6.85Y-3.3875
X6.9Y-2.1875
X6.9Y-2.9375
X7.1Y-3.2875
X7.15Y-2.0875
X7.15Y-2.8375
X7.275Y-1.4375
X7.525Y-1.3375
X7.65Y-2.1875
X7.65Y-2.9375
X7.65Y-3.6875
X7.9Y-2.0875
X7.9Y-2.8375
X7.9Y-3.5875
X8.025Y-1.4375
X8.275Y-1.3375
X8.4Y-2.1875
X8.4Y-2.9375
X8.4Y-3.6875
X8.65Y-2.0875
X8.65Y-2.8375
X8.65Y-3.5875
X8.775Y-1.4375
X9.025Y-1.3375
X9.15Y-2.1875
X9.15Y-2.9375
X9.15Y-3.6875
X9.4Y-2.0875
X9.4Y-2.8375
X9.4Y-3.5875
X9.525Y-1.4375
X9.775Y-1.3375
X9.9Y-2.1875
X9.9Y-2.9375
X9.9Y-3.6875
X10.15Y-2.0875
X10.15Y-2.8375
X10.15Y-3.5875
X10.65Y-1.4375
X10.65Y-2.1875
X10.65Y-2.9375
X10.65Y-3.6875
X10.9Y-1.3375
X10.9Y-2.0875
X10.9Y-2.8375
X10.9Y-3.5875
T6
X3.25Y-4.5131
X3.625Y-4.5131
X3.905Y-4.5125
X4.5613Y-4.5125
X4.655Y-3.7625
X5.5012Y-4.5125
X5.595Y-3.7625
X6.155Y-3.7625
X6.2488Y-4.5125
X7.095Y-3.7625
X7.1887Y-4.5125
X7.845Y-4.5125
T7
X3.25Y-4.5131
X8.125Y-4.5131
X8.5Y-4.5131
T8
X3.25Y-3.9131
X3.625Y-3.9131
X3.905Y-3.9125
X4.5613Y-3.9125
X4.655Y-3.1625
X5.5012Y-3.9125
X5.595Y-3.1625
X6.155Y-3.1625
X6.2488Y-3.9125
X7.095Y-3.1625
X7.1887Y-3.9125
X7.845Y-3.9125
T9
X1.0Y-1.2375
X1.0Y-1.9875
X1.0Y-2.7375
X1.0Y-3.4875
X1.75Y-1.9875
X1.75Y-2.7375
X1.75Y-3.4875
X2.125Y-1.2375
X2.5Y-1.9875
X2.5Y-2.7375
X2.5Y-3.4875
X2.875Y-1.2375
X3.25Y-1.9875
X3.25Y-2.7375
X3.25Y-3.4875
X3.25Y-3.9131
X3.625Y-1.2375
X3.625Y-4.2375
X4.0Y-1.9875
X4.0Y-2.7375
X4.0Y-3.4875
X4.375Y-1.2375
X4.75Y-1.9875
X4.75Y-2.7375
X4.75Y-3.4875
X5.0312Y-4.2375
X5.125Y-3.4875
X5.5Y-1.9875
X5.5Y-2.7375
X5.5Y-3.4875
X5.875Y-4.2375
X6.25Y-1.9875
X6.25Y-2.7375
X6.25Y-3.4875
X6.625Y-3.4875
X6.7188Y-4.2375
X7.0Y-1.9875
X7.0Y-2.7375
X7.0Y-3.4875
X7.375Y-1.2375
X7.75Y-1.9875
X7.75Y-2.7375
X7.75Y-3.4875
X8.125Y-1.2375
X8.125Y-3.9131
X8.125Y-4.2375
X8.5Y-1.9875
X8.5Y-2.7375
X8.5Y-3.4875
X8.5Y-3.9131
X8.875Y-1.2375
X9.25Y-1.9875
X9.25Y-2.7375
X9.25Y-3.4875
X9.625Y-1.2375
X10.0Y-1.9875
X10.0Y-2.7375
X10.0Y-3.4875
X10.75Y-1.2375
X10.75Y-1.9875
X10.75Y-2.7375
X10.75Y-3.4875
T0
M30
