%TF.GenerationSoftware,KiCad,Pcbnew,7.0.1-0*%
%TF.CreationDate,2023-07-02T14:27:38+03:00*%
%TF.ProjectId,30cent,33306365-6e74-42e6-9b69-6361645f7063,rev?*%
%TF.SameCoordinates,Original*%
%TF.FileFunction,Soldermask,Top*%
%TF.FilePolarity,Negative*%
%FSLAX46Y46*%
G04 Gerber Fmt 4.6, Leading zero omitted, Abs format (unit mm)*
G04 Created by KiCad (PCBNEW 7.0.1-0) date 2023-07-02 14:27:38*
%MOMM*%
%LPD*%
G01*
G04 APERTURE LIST*
G04 Aperture macros list*
%AMRoundRect*
0 Rectangle with rounded corners*
0 $1 Rounding radius*
0 $2 $3 $4 $5 $6 $7 $8 $9 X,Y pos of 4 corners*
0 Add a 4 corners polygon primitive as box body*
4,1,4,$2,$3,$4,$5,$6,$7,$8,$9,$2,$3,0*
0 Add four circle primitives for the rounded corners*
1,1,$1+$1,$2,$3*
1,1,$1+$1,$4,$5*
1,1,$1+$1,$6,$7*
1,1,$1+$1,$8,$9*
0 Add four rect primitives between the rounded corners*
20,1,$1+$1,$2,$3,$4,$5,0*
20,1,$1+$1,$4,$5,$6,$7,0*
20,1,$1+$1,$6,$7,$8,$9,0*
20,1,$1+$1,$8,$9,$2,$3,0*%
G04 Aperture macros list end*
%ADD10C,0.400000*%
%ADD11R,1.800000X1.800000*%
%ADD12C,1.800000*%
%ADD13C,3.048000*%
%ADD14C,3.987800*%
%ADD15RoundRect,0.250000X-0.250000X-0.500000X0.250000X-0.500000X0.250000X0.500000X-0.250000X0.500000X0*%
%ADD16C,3.050000*%
%ADD17C,4.000000*%
%ADD18R,1.700000X1.700000*%
%ADD19O,1.700000X1.700000*%
%ADD20C,1.500000*%
%ADD21C,1.600000*%
%ADD22O,2.000000X3.200000*%
%ADD23C,2.000000*%
%ADD24R,0.250000X1.100000*%
%ADD25R,1.700000X1.500000*%
%ADD26C,1.700000*%
%ADD27C,3.000000*%
%ADD28R,1.500000X1.500000*%
%ADD29C,2.950000*%
%ADD30C,0.650000*%
%ADD31O,1.000000X1.600000*%
%ADD32O,1.000000X2.100000*%
G04 APERTURE END LIST*
D10*
%TO.C,*%
X214400000Y-96625100D03*
%TD*%
D11*
%TO.C,D27*%
X102870000Y-64452500D03*
D12*
X100330000Y-64452500D03*
%TD*%
D10*
%TO.C,*%
X101468750Y-96875100D03*
%TD*%
%TO.C,*%
X81800000Y-39957500D03*
%TD*%
%TO.C,*%
X203375000Y-97125100D03*
%TD*%
%TO.C,*%
X218900000Y-97125100D03*
%TD*%
D11*
%TO.C,D13*%
X102870000Y-45402500D03*
D12*
X100330000Y-45402500D03*
%TD*%
D10*
%TO.C,*%
X197731250Y-96625100D03*
%TD*%
%TO.C,*%
X128675000Y-41957500D03*
%TD*%
D11*
%TO.C,D1*%
X26670000Y-26352500D03*
D12*
X24130000Y-26352500D03*
%TD*%
D13*
%TO.C,REF\u002A\u002A*%
X142113000Y-95567500D03*
D14*
X142113000Y-80327500D03*
D13*
X118237000Y-95567500D03*
D14*
X118237000Y-80327500D03*
%TD*%
D10*
%TO.C,*%
X205625000Y-96375100D03*
%TD*%
%TO.C,*%
X91325000Y-96375100D03*
%TD*%
%TO.C,*%
X265025000Y-39957500D03*
%TD*%
%TO.C,*%
X130175000Y-41957500D03*
%TD*%
%TO.C,*%
X168275000Y-39957500D03*
%TD*%
%TO.C,*%
X212900000Y-97125100D03*
%TD*%
%TO.C,*%
X185562500Y-97125100D03*
%TD*%
%TO.C,*%
X183312500Y-96375100D03*
%TD*%
D11*
%TO.C,D46*%
X198120000Y-83502500D03*
D12*
X195580000Y-83502500D03*
%TD*%
D11*
%TO.C,D25*%
X64770000Y-64452500D03*
D12*
X62230000Y-64452500D03*
%TD*%
D10*
%TO.C,*%
X112887500Y-97125100D03*
%TD*%
%TO.C,*%
X82550000Y-96375100D03*
%TD*%
D11*
%TO.C,D24*%
X45720000Y-64452500D03*
D12*
X43180000Y-64452500D03*
%TD*%
D10*
%TO.C,*%
X200731250Y-96625100D03*
%TD*%
D15*
%TO.C,REF\u002A\u002A*%
X201481250Y-96875100D03*
X201481250Y-96875100D03*
%TD*%
D11*
%TO.C,D20*%
X236220000Y-45402500D03*
D12*
X233680000Y-45402500D03*
%TD*%
D15*
%TO.C,REF\u002A\u002A*%
X204125000Y-96875100D03*
X204125000Y-96875100D03*
%TD*%
%TO.C,REF\u002A\u002A*%
X215900000Y-96375100D03*
X215900000Y-96375100D03*
%TD*%
D10*
%TO.C,*%
X204875000Y-96625100D03*
%TD*%
%TO.C,*%
X215150000Y-96375100D03*
%TD*%
D11*
%TO.C,D47*%
X217170000Y-83502500D03*
D12*
X214630000Y-83502500D03*
%TD*%
D11*
%TO.C,D31*%
X179070000Y-64452500D03*
D12*
X176530000Y-64452500D03*
%TD*%
D11*
%TO.C,D26*%
X83820000Y-64452500D03*
D12*
X81280000Y-64452500D03*
%TD*%
D11*
%TO.C,D14*%
X121920000Y-45402500D03*
D12*
X119380000Y-45402500D03*
%TD*%
D11*
%TO.C,D3*%
X74295000Y-26352500D03*
D12*
X71755000Y-26352500D03*
%TD*%
D10*
%TO.C,*%
X140450000Y-96375100D03*
%TD*%
%TO.C,*%
X131675000Y-39932500D03*
%TD*%
D11*
%TO.C,D23*%
X26670000Y-64452500D03*
D12*
X24130000Y-64452500D03*
%TD*%
D10*
%TO.C,*%
X217400000Y-39957500D03*
%TD*%
%TO.C,*%
X36425000Y-41957500D03*
%TD*%
%TO.C,*%
X262025000Y-41957500D03*
%TD*%
%TO.C,*%
X219662500Y-97125100D03*
%TD*%
D11*
%TO.C,D7*%
X207645000Y-26352500D03*
D12*
X205105000Y-26352500D03*
%TD*%
D10*
%TO.C,*%
X113637500Y-96875100D03*
%TD*%
%TO.C,*%
X99968750Y-96375100D03*
%TD*%
%TO.C,*%
X216650000Y-96375100D03*
%TD*%
%TO.C,*%
X204125000Y-96875100D03*
%TD*%
D15*
%TO.C,REF\u002A\u002A*%
X89825000Y-96875100D03*
X89825000Y-96875100D03*
%TD*%
D10*
%TO.C,*%
X81800000Y-41957500D03*
%TD*%
D15*
%TO.C,REF\u002A\u002A*%
X199231250Y-96375100D03*
X199231250Y-96375100D03*
%TD*%
D10*
%TO.C,*%
X94325000Y-96875100D03*
%TD*%
D13*
%TO.C,REF\u002A\u002A*%
X199263000Y-114617500D03*
D14*
X199263000Y-99377500D03*
D13*
X99187000Y-114617500D03*
D14*
X99187000Y-99377500D03*
%TD*%
D15*
%TO.C,REF\u002A\u002A*%
X82550000Y-96375100D03*
X82550000Y-96375100D03*
%TD*%
D10*
%TO.C,*%
X161750000Y-97125100D03*
%TD*%
%TO.C,*%
X98468750Y-96375100D03*
%TD*%
D11*
%TO.C,D49*%
X255270000Y-83502500D03*
D12*
X252730000Y-83502500D03*
%TD*%
D10*
%TO.C,*%
X34175000Y-39957500D03*
%TD*%
D11*
%TO.C,D5*%
X112395000Y-26352500D03*
D12*
X109855000Y-26352500D03*
%TD*%
D10*
%TO.C,*%
X158000000Y-96375100D03*
%TD*%
D11*
%TO.C,D39*%
X64770000Y-83502500D03*
D12*
X62230000Y-83502500D03*
%TD*%
D11*
%TO.C,D19*%
X217170000Y-45402500D03*
D12*
X214630000Y-45402500D03*
%TD*%
D10*
%TO.C,*%
X263525000Y-41957500D03*
%TD*%
D16*
%TO.C,REF\u002A\u002A*%
X206375000Y-114632500D03*
D17*
X206375000Y-99392500D03*
D13*
X92075000Y-114632500D03*
D14*
X92075000Y-99392500D03*
%TD*%
D11*
%TO.C,D12*%
X83820000Y-45402500D03*
D12*
X81280000Y-45402500D03*
%TD*%
D10*
%TO.C,*%
X90575000Y-96625100D03*
%TD*%
%TO.C,*%
X198481250Y-96375100D03*
%TD*%
D11*
%TO.C,D35*%
X255270000Y-64452500D03*
D12*
X252730000Y-64452500D03*
%TD*%
D11*
%TO.C,D41*%
X102870000Y-83502500D03*
D12*
X100330000Y-83502500D03*
%TD*%
D11*
%TO.C,D53*%
X26670000Y-45402500D03*
D12*
X24130000Y-45402500D03*
%TD*%
D15*
%TO.C,REF\u002A\u002A*%
X196981250Y-96875100D03*
X196981250Y-96875100D03*
%TD*%
D10*
%TO.C,*%
X33425000Y-39957500D03*
%TD*%
%TO.C,*%
X199981250Y-96375100D03*
%TD*%
%TO.C,*%
X82550000Y-39957500D03*
%TD*%
%TO.C,*%
X81050000Y-39957500D03*
%TD*%
%TO.C,*%
X215900000Y-39957500D03*
%TD*%
%TO.C,*%
X84050000Y-41957500D03*
%TD*%
%TO.C,*%
X166775000Y-39957500D03*
%TD*%
D18*
%TO.C,J5*%
X131725000Y-35242500D03*
D19*
X131725000Y-32702500D03*
X131725000Y-30162500D03*
X131725000Y-27622500D03*
%TD*%
D10*
%TO.C,*%
X35675000Y-41957500D03*
%TD*%
D11*
%TO.C,D52*%
X169545000Y-83502500D03*
D20*
X167005000Y-83502500D03*
%TD*%
D10*
%TO.C,*%
X161000000Y-96875100D03*
%TD*%
%TO.C,*%
X160250000Y-96625100D03*
%TD*%
%TO.C,*%
X263525000Y-39957500D03*
%TD*%
D11*
%TO.C,D28*%
X121920000Y-64452500D03*
D12*
X119380000Y-64452500D03*
%TD*%
D10*
%TO.C,*%
X80300000Y-96875100D03*
%TD*%
%TO.C,*%
X102218750Y-97125100D03*
%TD*%
%TO.C,*%
X33425000Y-41957500D03*
%TD*%
%TO.C,*%
X81050000Y-41957500D03*
%TD*%
D21*
%TO.C,RE2*%
X275550000Y-23932500D03*
X270550000Y-23932500D03*
X273050000Y-23932500D03*
D22*
X278650000Y-31432500D03*
X267450000Y-31432500D03*
D23*
X270550000Y-38432500D03*
X275550000Y-38432500D03*
%TD*%
D10*
%TO.C,*%
X137450000Y-96875100D03*
%TD*%
%TO.C,*%
X34925000Y-39957500D03*
%TD*%
%TO.C,*%
X34175000Y-41957500D03*
%TD*%
D24*
%TO.C,J2*%
X144475000Y-34347500D03*
X144975000Y-34347500D03*
X145475000Y-34347500D03*
X145975000Y-34347500D03*
X146475000Y-34347500D03*
X146975000Y-34347500D03*
X147475000Y-34347500D03*
X147975000Y-34347500D03*
X148475000Y-34347500D03*
X148975000Y-34347500D03*
X149475000Y-34347500D03*
X149975000Y-34347500D03*
X150475000Y-34347500D03*
X150975000Y-34347500D03*
X151475000Y-34347500D03*
X151975000Y-34347500D03*
X152475000Y-34347500D03*
X152975000Y-34347500D03*
X153475000Y-34347500D03*
X153975000Y-34347500D03*
D25*
X142825000Y-38247500D03*
X155625000Y-38247500D03*
%TD*%
D11*
%TO.C,D50*%
X274320000Y-83502500D03*
D12*
X271780000Y-83502500D03*
%TD*%
D10*
%TO.C,*%
X81800000Y-96375100D03*
%TD*%
D15*
%TO.C,REF\u002A\u002A*%
X96968750Y-96875100D03*
X96968750Y-96875100D03*
%TD*%
D10*
%TO.C,*%
X83300000Y-41957500D03*
%TD*%
%TO.C,*%
X79550000Y-97125100D03*
%TD*%
D11*
%TO.C,D9*%
X245745000Y-26352500D03*
D12*
X243205000Y-26352500D03*
%TD*%
D10*
%TO.C,*%
X196231250Y-97125100D03*
%TD*%
D11*
%TO.C,D22*%
X274320000Y-45402500D03*
D12*
X271780000Y-45402500D03*
%TD*%
D10*
%TO.C,*%
X34925000Y-41957500D03*
%TD*%
%TO.C,*%
X214400000Y-41957500D03*
%TD*%
D15*
%TO.C,REF\u002A\u002A*%
X213650000Y-96875100D03*
X213650000Y-96875100D03*
%TD*%
D10*
%TO.C,*%
X213650000Y-96875100D03*
%TD*%
%TO.C,*%
X138950000Y-96375100D03*
%TD*%
%TO.C,*%
X100718750Y-96625100D03*
%TD*%
%TO.C,*%
X215150000Y-39957500D03*
%TD*%
%TO.C,*%
X129425000Y-39932500D03*
%TD*%
%TO.C,*%
X83300000Y-96375100D03*
%TD*%
%TO.C,*%
X208625000Y-96875100D03*
%TD*%
%TO.C,*%
X167525000Y-39957500D03*
%TD*%
%TO.C,*%
X215900000Y-41957500D03*
%TD*%
%TO.C,*%
X217400000Y-96625100D03*
%TD*%
%TO.C,*%
X81050000Y-96625100D03*
%TD*%
%TO.C,*%
X138200000Y-96625100D03*
%TD*%
D13*
%TO.C,REF\u002A\u002A*%
X139731750Y-114617500D03*
D14*
X139731750Y-99377500D03*
D13*
X115855750Y-114617500D03*
D14*
X115855750Y-99377500D03*
%TD*%
D10*
%TO.C,*%
X95075000Y-97125100D03*
%TD*%
%TO.C,*%
X196981250Y-96875100D03*
%TD*%
%TO.C,*%
X184062500Y-96625100D03*
%TD*%
D11*
%TO.C,D29*%
X140970000Y-64452500D03*
D12*
X138430000Y-64452500D03*
%TD*%
D11*
%TO.C,D8*%
X226695000Y-26352500D03*
D12*
X224155000Y-26352500D03*
%TD*%
D10*
%TO.C,*%
X216650000Y-39957500D03*
%TD*%
%TO.C,*%
X96968750Y-96875100D03*
%TD*%
%TO.C,*%
X89075000Y-97125100D03*
%TD*%
D13*
%TO.C,REF\u002A\u002A*%
X182594250Y-114617500D03*
D14*
X182594250Y-99377500D03*
D13*
X158718250Y-114617500D03*
D14*
X158718250Y-99377500D03*
%TD*%
D10*
%TO.C,*%
X262775000Y-39957500D03*
%TD*%
%TO.C,*%
X85550000Y-97125100D03*
%TD*%
D16*
%TO.C,REF\u002A\u002A*%
X215900000Y-114632500D03*
D17*
X215900000Y-99392500D03*
D13*
X82550000Y-114632500D03*
D16*
X82550000Y-114632500D03*
D14*
X82550000Y-99392500D03*
D17*
X82550000Y-99392500D03*
%TD*%
D15*
%TO.C,REF\u002A\u002A*%
X84800000Y-96875100D03*
X84800000Y-96875100D03*
%TD*%
D10*
%TO.C,*%
X206375000Y-96375100D03*
%TD*%
%TO.C,*%
X264275000Y-39957500D03*
%TD*%
D11*
%TO.C,D18*%
X198120000Y-45402500D03*
D12*
X195580000Y-45402500D03*
%TD*%
D10*
%TO.C,*%
X262775000Y-41957500D03*
%TD*%
%TO.C,*%
X84050000Y-39957500D03*
%TD*%
D15*
%TO.C,REF\u002A\u002A*%
X218150000Y-96875100D03*
X218150000Y-96875100D03*
%TD*%
D10*
%TO.C,*%
X201481250Y-96875100D03*
%TD*%
D15*
%TO.C,REF\u002A\u002A*%
X208625000Y-96875100D03*
X208625000Y-96875100D03*
%TD*%
D10*
%TO.C,*%
X114387500Y-96625100D03*
%TD*%
%TO.C,*%
X262025000Y-39957500D03*
%TD*%
%TO.C,*%
X36425000Y-39957500D03*
%TD*%
%TO.C,*%
X97718750Y-96625100D03*
%TD*%
D11*
%TO.C,D54*%
X45720000Y-45402500D03*
D12*
X43180000Y-45402500D03*
%TD*%
D11*
%TO.C,D33*%
X217170000Y-64452500D03*
D12*
X214630000Y-64452500D03*
%TD*%
D10*
%TO.C,*%
X84050000Y-96625100D03*
%TD*%
%TO.C,*%
X184812500Y-96875100D03*
%TD*%
%TO.C,*%
X136700000Y-97125100D03*
%TD*%
D11*
%TO.C,D17*%
X179070000Y-45402500D03*
D12*
X176530000Y-45402500D03*
%TD*%
D10*
%TO.C,*%
X181844250Y-96375100D03*
%TD*%
%TO.C,*%
X215150000Y-41957500D03*
%TD*%
D11*
%TO.C,D11*%
X64770000Y-45402500D03*
D12*
X62230000Y-45402500D03*
%TD*%
D10*
%TO.C,*%
X130175000Y-39932500D03*
%TD*%
%TO.C,*%
X83300000Y-39957500D03*
%TD*%
%TO.C,*%
X35675000Y-39957500D03*
%TD*%
%TO.C,*%
X216650000Y-41957500D03*
%TD*%
D11*
%TO.C,D36*%
X274320000Y-64452500D03*
D12*
X271780000Y-64452500D03*
%TD*%
D15*
%TO.C,REF\u002A\u002A*%
X206375000Y-96375100D03*
X206375000Y-96375100D03*
%TD*%
D11*
%TO.C,D21*%
X255270000Y-45402500D03*
D12*
X252730000Y-45402500D03*
%TD*%
D10*
%TO.C,*%
X159500000Y-96375100D03*
%TD*%
%TO.C,*%
X115105750Y-96375100D03*
%TD*%
%TO.C,*%
X215900000Y-96375100D03*
%TD*%
%TO.C,*%
X99218750Y-96375100D03*
%TD*%
%TO.C,*%
X96218750Y-97125100D03*
%TD*%
%TO.C,*%
X169775000Y-41957500D03*
%TD*%
%TO.C,*%
X82550000Y-41957500D03*
%TD*%
D15*
%TO.C,REF\u002A\u002A*%
X101468750Y-96875100D03*
X101468750Y-96875100D03*
%TD*%
D11*
%TO.C,D51*%
X131445000Y-83502500D03*
D20*
X128905000Y-83502500D03*
%TD*%
D10*
%TO.C,*%
X131675000Y-41957500D03*
%TD*%
D11*
%TO.C,D6*%
X188595000Y-26352500D03*
D12*
X186055000Y-26352500D03*
%TD*%
D10*
%TO.C,*%
X78787499Y-97125100D03*
%TD*%
%TO.C,*%
X169025000Y-39957500D03*
%TD*%
%TO.C,*%
X199231250Y-96375100D03*
%TD*%
%TO.C,*%
X265025000Y-41957500D03*
%TD*%
%TO.C,*%
X169775000Y-39957500D03*
%TD*%
D11*
%TO.C,D10*%
X274320000Y-26352500D03*
D12*
X271780000Y-26352500D03*
%TD*%
D10*
%TO.C,*%
X116605750Y-96375100D03*
%TD*%
%TO.C,*%
X130925000Y-39932500D03*
%TD*%
%TO.C,*%
X92075000Y-96375100D03*
%TD*%
D15*
%TO.C,REF\u002A\u002A*%
X94325000Y-96875100D03*
X94325000Y-96875100D03*
%TD*%
%TO.C,REF\u002A\u002A*%
X80300000Y-96875100D03*
X80300000Y-96875100D03*
%TD*%
D11*
%TO.C,D38*%
X45720000Y-83502500D03*
D12*
X43180000Y-83502500D03*
%TD*%
D10*
%TO.C,*%
X209375000Y-97125100D03*
%TD*%
%TO.C,*%
X128675000Y-39932500D03*
%TD*%
D11*
%TO.C,D48*%
X236220000Y-83502500D03*
D12*
X233680000Y-83502500D03*
%TD*%
D15*
%TO.C,REF\u002A\u002A*%
X99218750Y-96375100D03*
X99218750Y-96375100D03*
%TD*%
D11*
%TO.C,D40*%
X83820000Y-83502500D03*
D12*
X81280000Y-83502500D03*
%TD*%
D10*
%TO.C,*%
X92825000Y-96375100D03*
%TD*%
%TO.C,*%
X217400000Y-41957500D03*
%TD*%
%TO.C,*%
X84800000Y-96875100D03*
%TD*%
%TO.C,*%
X214400000Y-39957500D03*
%TD*%
%TO.C,*%
X207125000Y-96375100D03*
%TD*%
%TO.C,*%
X264275000Y-41957500D03*
%TD*%
%TO.C,*%
X130925000Y-41957500D03*
%TD*%
D11*
%TO.C,D32*%
X198120000Y-64452500D03*
D12*
X195580000Y-64452500D03*
%TD*%
D11*
%TO.C,D15*%
X140970000Y-45402500D03*
D12*
X138430000Y-45402500D03*
%TD*%
D11*
%TO.C,D16*%
X160020000Y-45402500D03*
D12*
X157480000Y-45402500D03*
%TD*%
D11*
%TO.C,D30*%
X160020000Y-64452500D03*
D12*
X157480000Y-64452500D03*
%TD*%
D10*
%TO.C,*%
X129425000Y-41957500D03*
%TD*%
D11*
%TO.C,D2*%
X55245000Y-26352500D03*
D12*
X52705000Y-26352500D03*
%TD*%
D10*
%TO.C,*%
X168275000Y-41957500D03*
%TD*%
%TO.C,*%
X218150000Y-96875100D03*
%TD*%
D15*
%TO.C,REF\u002A\u002A*%
X92075000Y-96375100D03*
X92075000Y-96375100D03*
%TD*%
D11*
%TO.C,D37*%
X26670000Y-83502500D03*
D12*
X24130000Y-83502500D03*
%TD*%
D13*
%TO.C,REF\u002A\u002A*%
X180213000Y-95567500D03*
D14*
X180213000Y-80327500D03*
D13*
X156337000Y-95567500D03*
D14*
X156337000Y-80327500D03*
%TD*%
D10*
%TO.C,*%
X207875000Y-96625100D03*
%TD*%
D21*
%TO.C,RE1*%
X27900000Y-23932500D03*
X22900000Y-23932500D03*
X25400000Y-23932500D03*
D22*
X31000000Y-31432500D03*
X19800000Y-31432500D03*
D23*
X22900000Y-38432500D03*
X27900000Y-38432500D03*
%TD*%
D11*
%TO.C,D4*%
X93345000Y-26352500D03*
D12*
X90805000Y-26352500D03*
%TD*%
D10*
%TO.C,*%
X93575000Y-96625100D03*
%TD*%
%TO.C,*%
X169025000Y-41957500D03*
%TD*%
%TO.C,*%
X167525000Y-41957500D03*
%TD*%
%TO.C,*%
X166775000Y-41957500D03*
%TD*%
%TO.C,*%
X202231250Y-97125100D03*
%TD*%
%TO.C,*%
X89825000Y-96875100D03*
%TD*%
D11*
%TO.C,D34*%
X236220000Y-64452500D03*
D12*
X233680000Y-64452500D03*
%TD*%
D26*
%TO.C,K13*%
X58420000Y-50482500D03*
D27*
X60960000Y-55562500D03*
D17*
X63500000Y-50482500D03*
D27*
X67310000Y-53022500D03*
D26*
X68580000Y-50482500D03*
%TD*%
%TO.C,K11*%
X20320000Y-50482500D03*
D27*
X22860000Y-55562500D03*
D17*
X25400000Y-50482500D03*
D27*
X29210000Y-53022500D03*
D26*
X30480000Y-50482500D03*
%TD*%
%TO.C,K27*%
X58420000Y-69532500D03*
D27*
X60960000Y-74612500D03*
D17*
X63500000Y-69532500D03*
D27*
X67310000Y-72072500D03*
D26*
X68580000Y-69532500D03*
%TD*%
%TO.C,K5*%
X106045000Y-31432500D03*
D27*
X108585000Y-36512500D03*
D17*
X111125000Y-31432500D03*
D27*
X114935000Y-33972500D03*
D26*
X116205000Y-31432500D03*
%TD*%
%TO.C,K45A1*%
X125095000Y-88582500D03*
D27*
X127635000Y-93662500D03*
D17*
X130175000Y-88582500D03*
D27*
X133985000Y-91122500D03*
D26*
X135255000Y-88582500D03*
%TD*%
%TO.C,K42*%
X77470000Y-88582500D03*
D27*
X80010000Y-93662500D03*
D17*
X82550000Y-88582500D03*
D27*
X86360000Y-91122500D03*
D26*
X87630000Y-88582500D03*
%TD*%
D28*
%TO.C,D42*%
X121920000Y-93662500D03*
D12*
X119380000Y-93662500D03*
%TD*%
D26*
%TO.C,K14*%
X77470000Y-50482500D03*
D27*
X80010000Y-55562500D03*
D17*
X82550000Y-50482500D03*
D27*
X86360000Y-53022500D03*
D26*
X87630000Y-50482500D03*
%TD*%
%TO.C,K25*%
X20320000Y-69532500D03*
D27*
X22860000Y-74612500D03*
D17*
X25400000Y-69532500D03*
D27*
X29210000Y-72072500D03*
D26*
X30480000Y-69532500D03*
%TD*%
%TO.C,K36*%
X229870000Y-69532500D03*
D27*
X232410000Y-74612500D03*
D17*
X234950000Y-69532500D03*
D27*
X238760000Y-72072500D03*
D26*
X240030000Y-69532500D03*
%TD*%
%TO.C,K32*%
X153670000Y-69532500D03*
D27*
X156210000Y-74612500D03*
D17*
X158750000Y-69532500D03*
D27*
X162560000Y-72072500D03*
D26*
X163830000Y-69532500D03*
%TD*%
D18*
%TO.C,ISP1*%
X266150000Y-58882500D03*
D19*
X266150000Y-61422500D03*
X268690000Y-58882500D03*
X268690000Y-61422500D03*
X271230000Y-58882500D03*
X271230000Y-61422500D03*
%TD*%
D26*
%TO.C,K15*%
X96520000Y-50482500D03*
D27*
X99060000Y-55562500D03*
D17*
X101600000Y-50482500D03*
D27*
X105410000Y-53022500D03*
D26*
X106680000Y-50482500D03*
%TD*%
%TO.C,K21*%
X210820000Y-50482500D03*
D27*
X213360000Y-55562500D03*
D17*
X215900000Y-50482500D03*
D27*
X219710000Y-53022500D03*
D26*
X220980000Y-50482500D03*
%TD*%
%TO.C,K44*%
X125730000Y-88582500D03*
D27*
X123190000Y-83502500D03*
D17*
X120650000Y-88582500D03*
D27*
X116840000Y-86042500D03*
D26*
X115570000Y-88582500D03*
%TD*%
%TO.C,K7*%
X201295000Y-31432500D03*
D27*
X203835000Y-36512500D03*
D17*
X206375000Y-31432500D03*
D27*
X210185000Y-33972500D03*
D26*
X211455000Y-31432500D03*
%TD*%
%TO.C,K19*%
X172720000Y-50482500D03*
D27*
X175260000Y-55562500D03*
D17*
X177800000Y-50482500D03*
D27*
X181610000Y-53022500D03*
D26*
X182880000Y-50482500D03*
%TD*%
%TO.C,K40*%
X39370000Y-88582500D03*
D27*
X41910000Y-93662500D03*
D17*
X44450000Y-88582500D03*
D27*
X48260000Y-91122500D03*
D26*
X49530000Y-88582500D03*
%TD*%
%TO.C,K29*%
X96520000Y-69532500D03*
D27*
X99060000Y-74612500D03*
D17*
X101600000Y-69532500D03*
D27*
X105410000Y-72072500D03*
D26*
X106680000Y-69532500D03*
%TD*%
%TO.C,K48*%
X191770000Y-88582500D03*
D27*
X194310000Y-93662500D03*
D17*
X196850000Y-88582500D03*
D27*
X200660000Y-91122500D03*
D26*
X201930000Y-88582500D03*
%TD*%
%TO.C,K52*%
X267970000Y-88582500D03*
D27*
X270510000Y-93662500D03*
D17*
X273050000Y-88582500D03*
D27*
X276860000Y-91122500D03*
D26*
X278130000Y-88582500D03*
%TD*%
%TO.C,K45*%
X144780000Y-88582500D03*
D27*
X142240000Y-83502500D03*
D17*
X139700000Y-88582500D03*
D27*
X135890000Y-86042500D03*
D26*
X134620000Y-88582500D03*
%TD*%
%TO.C,K12*%
X39370000Y-50482500D03*
D27*
X41910000Y-55562500D03*
D17*
X44450000Y-50482500D03*
D27*
X48260000Y-53022500D03*
D26*
X49530000Y-50482500D03*
%TD*%
%TO.C,K10*%
X267970000Y-31432500D03*
D27*
X270510000Y-36512500D03*
D17*
X273050000Y-31432500D03*
D27*
X276860000Y-33972500D03*
D26*
X278130000Y-31432500D03*
%TD*%
D11*
%TO.C,D57*%
X150495000Y-112712500D03*
D12*
X147955000Y-112712500D03*
%TD*%
D26*
%TO.C,K55*%
X175736250Y-107632500D03*
D27*
X173196250Y-102552500D03*
D17*
X170656250Y-107632500D03*
D27*
X166846250Y-105092500D03*
D26*
X165576250Y-107632500D03*
%TD*%
%TO.C,K37*%
X248920000Y-69532500D03*
D27*
X251460000Y-74612500D03*
D17*
X254000000Y-69532500D03*
D27*
X257810000Y-72072500D03*
D26*
X259080000Y-69532500D03*
%TD*%
%TO.C,K51*%
X248920000Y-88582500D03*
D27*
X251460000Y-93662500D03*
D17*
X254000000Y-88582500D03*
D27*
X257810000Y-91122500D03*
D26*
X259080000Y-88582500D03*
%TD*%
%TO.C,K38*%
X267970000Y-69532500D03*
D27*
X270510000Y-74612500D03*
D17*
X273050000Y-69532500D03*
D27*
X276860000Y-72072500D03*
D26*
X278130000Y-69532500D03*
%TD*%
%TO.C,K8*%
X220345000Y-31432500D03*
D27*
X222885000Y-36512500D03*
D17*
X225425000Y-31432500D03*
D27*
X229235000Y-33972500D03*
D26*
X230505000Y-31432500D03*
%TD*%
D11*
%TO.C,D45*%
X179070000Y-93662500D03*
D12*
X176530000Y-93662500D03*
%TD*%
D26*
%TO.C,K22*%
X229870000Y-50482500D03*
D27*
X232410000Y-55562500D03*
D17*
X234950000Y-50482500D03*
D27*
X238760000Y-53022500D03*
D26*
X240030000Y-50482500D03*
%TD*%
%TO.C,K3*%
X67945000Y-31432500D03*
D27*
X70485000Y-36512500D03*
D17*
X73025000Y-31432500D03*
D27*
X76835000Y-33972500D03*
D26*
X78105000Y-31432500D03*
%TD*%
%TO.C,K41*%
X58420000Y-88582500D03*
D27*
X60960000Y-93662500D03*
D17*
X63500000Y-88582500D03*
D27*
X67310000Y-91122500D03*
D26*
X68580000Y-88582500D03*
%TD*%
%TO.C,K18*%
X153670000Y-50482500D03*
D27*
X156210000Y-55562500D03*
D17*
X158750000Y-50482500D03*
D27*
X162560000Y-53022500D03*
D26*
X163830000Y-50482500D03*
%TD*%
%TO.C,K26*%
X39370000Y-69532500D03*
D27*
X41910000Y-74612500D03*
D17*
X44450000Y-69532500D03*
D27*
X48260000Y-72072500D03*
D26*
X49530000Y-69532500D03*
%TD*%
%TO.C,K33*%
X172720000Y-69532500D03*
D27*
X175260000Y-74612500D03*
D17*
X177800000Y-69532500D03*
D27*
X181610000Y-72072500D03*
D26*
X182880000Y-69532500D03*
%TD*%
%TO.C,K43*%
X96520000Y-88582500D03*
D27*
X99060000Y-93662500D03*
D17*
X101600000Y-88582500D03*
D27*
X105410000Y-91122500D03*
D26*
X106680000Y-88582500D03*
%TD*%
%TO.C,K6*%
X182245000Y-31432500D03*
D27*
X184785000Y-36512500D03*
D17*
X187325000Y-31432500D03*
D27*
X191135000Y-33972500D03*
D26*
X192405000Y-31432500D03*
%TD*%
%TO.C,K47A1*%
X163195000Y-88582500D03*
D27*
X165735000Y-93662500D03*
D17*
X168275000Y-88582500D03*
D27*
X172085000Y-91122500D03*
D26*
X173355000Y-88582500D03*
%TD*%
%TO.C,K28*%
X77470000Y-69532500D03*
D27*
X80010000Y-74612500D03*
D17*
X82550000Y-69532500D03*
D27*
X86360000Y-72072500D03*
D26*
X87630000Y-69532500D03*
%TD*%
%TO.C,K34*%
X191770000Y-69532500D03*
D27*
X194310000Y-74612500D03*
D17*
X196850000Y-69532500D03*
D27*
X200660000Y-72072500D03*
D26*
X201930000Y-69532500D03*
%TD*%
%TO.C,K30*%
X115570000Y-69532500D03*
D27*
X118110000Y-74612500D03*
D17*
X120650000Y-69532500D03*
D27*
X124460000Y-72072500D03*
D26*
X125730000Y-69532500D03*
%TD*%
%TO.C,K47*%
X182880000Y-88582500D03*
D27*
X180340000Y-83502500D03*
D17*
X177800000Y-88582500D03*
D27*
X173990000Y-86042500D03*
D26*
X172720000Y-88582500D03*
%TD*%
D11*
%TO.C,D43*%
X140970000Y-93662500D03*
D12*
X138430000Y-93662500D03*
%TD*%
D26*
%TO.C,K23*%
X248920000Y-50482500D03*
D27*
X251460000Y-55562500D03*
D17*
X254000000Y-50482500D03*
D27*
X257810000Y-53022500D03*
D26*
X259080000Y-50482500D03*
%TD*%
D11*
%TO.C,D59*%
X207645000Y-112712500D03*
D12*
X205105000Y-112712500D03*
%TD*%
D11*
%TO.C,D55*%
X93345000Y-112712500D03*
D12*
X90805000Y-112712500D03*
%TD*%
D26*
%TO.C,K39*%
X20320000Y-88582500D03*
D27*
X22860000Y-93662500D03*
D17*
X25400000Y-88582500D03*
D27*
X29210000Y-91122500D03*
D26*
X30480000Y-88582500D03*
%TD*%
D11*
%TO.C,D58*%
X171926250Y-112712500D03*
D12*
X169386250Y-112712500D03*
%TD*%
D26*
%TO.C,K2*%
X48895000Y-31432500D03*
D27*
X51435000Y-36512500D03*
D17*
X53975000Y-31432500D03*
D27*
X57785000Y-33972500D03*
D26*
X59055000Y-31432500D03*
%TD*%
%TO.C,K16*%
X115570000Y-50482500D03*
D27*
X118110000Y-55562500D03*
D17*
X120650000Y-50482500D03*
D27*
X124460000Y-53022500D03*
D26*
X125730000Y-50482500D03*
%TD*%
%TO.C,K4*%
X86995000Y-31432500D03*
D27*
X89535000Y-36512500D03*
D17*
X92075000Y-31432500D03*
D27*
X95885000Y-33972500D03*
D26*
X97155000Y-31432500D03*
%TD*%
%TO.C,K24*%
X267970000Y-50482500D03*
D27*
X270510000Y-55562500D03*
D17*
X273050000Y-50482500D03*
D27*
X276860000Y-53022500D03*
D26*
X278130000Y-50482500D03*
%TD*%
%TO.C,K46*%
X163830000Y-88582500D03*
D27*
X161290000Y-83502500D03*
D17*
X158750000Y-88582500D03*
D27*
X154940000Y-86042500D03*
D26*
X153670000Y-88582500D03*
%TD*%
%TO.C,K49*%
X210820000Y-88582500D03*
D27*
X213360000Y-93662500D03*
D17*
X215900000Y-88582500D03*
D27*
X219710000Y-91122500D03*
D26*
X220980000Y-88582500D03*
%TD*%
%TO.C,K31*%
X134620000Y-69532500D03*
D27*
X137160000Y-74612500D03*
D17*
X139700000Y-69532500D03*
D27*
X143510000Y-72072500D03*
D26*
X144780000Y-69532500D03*
%TD*%
D11*
%TO.C,D56*%
X129063750Y-112712500D03*
D12*
X126523750Y-112712500D03*
%TD*%
D26*
%TO.C,K50*%
X229870000Y-88582500D03*
D27*
X232410000Y-93662500D03*
D17*
X234950000Y-88582500D03*
D27*
X238760000Y-91122500D03*
D26*
X240030000Y-88582500D03*
%TD*%
%TO.C,K55A1*%
X154305000Y-107632500D03*
D27*
X151765000Y-102552500D03*
D17*
X149225000Y-107632500D03*
D27*
X145415000Y-105092500D03*
D26*
X144145000Y-107632500D03*
%TD*%
%TO.C,K54*%
X132873750Y-107632500D03*
D27*
X130333750Y-102552500D03*
D17*
X127793750Y-107632500D03*
D27*
X123983750Y-105092500D03*
D26*
X122713750Y-107632500D03*
%TD*%
%TO.C,K20*%
X191770000Y-50482500D03*
D27*
X194310000Y-55562500D03*
D17*
X196850000Y-50482500D03*
D27*
X200660000Y-53022500D03*
D26*
X201930000Y-50482500D03*
%TD*%
%TO.C,K53*%
X97155000Y-107632500D03*
D29*
X94615000Y-102552500D03*
D17*
X92075000Y-107632500D03*
D29*
X88265000Y-105092500D03*
D26*
X86995000Y-107632500D03*
%TD*%
%TO.C,K9*%
X239395000Y-31432500D03*
D27*
X241935000Y-36512500D03*
D17*
X244475000Y-31432500D03*
D27*
X248285000Y-33972500D03*
D26*
X249555000Y-31432500D03*
%TD*%
%TO.C,K1*%
X20320000Y-31432500D03*
D27*
X22860000Y-36512500D03*
D17*
X25400000Y-31432500D03*
D27*
X29210000Y-33972500D03*
D26*
X30480000Y-31432500D03*
%TD*%
D28*
%TO.C,D44*%
X160020000Y-93662500D03*
D12*
X157480000Y-93662500D03*
%TD*%
D26*
%TO.C,K56*%
X211455000Y-107632500D03*
D29*
X208915000Y-102552500D03*
D17*
X206375000Y-107632500D03*
D29*
X202565000Y-105092500D03*
D26*
X201295000Y-107632500D03*
%TD*%
D30*
%TO.C,J1*%
X32035000Y-46647500D03*
X37815000Y-46647500D03*
D31*
X30605000Y-42997500D03*
D32*
X30605000Y-47177500D03*
D31*
X39245000Y-42997500D03*
D32*
X39245000Y-47177500D03*
%TD*%
D26*
%TO.C,K17*%
X134620000Y-50482500D03*
D27*
X137160000Y-55562500D03*
D17*
X139700000Y-50482500D03*
D27*
X143510000Y-53022500D03*
D26*
X144780000Y-50482500D03*
%TD*%
%TO.C,K35*%
X210820000Y-69532500D03*
D27*
X213360000Y-74612500D03*
D17*
X215900000Y-69532500D03*
D27*
X219710000Y-72072500D03*
D26*
X220980000Y-69532500D03*
%TD*%
M02*
