M48
; DRILL file {KiCad 7.0.1-0} date 2023 July 02, Sunday 14:27:44
; FORMAT={-:-/ absolute / inch / decimal}
; #@! TF.CreationDate,2023-07-02T14:27:44+03:00
; #@! TF.GenerationSoftware,Kicad,Pcbnew,7.0.1-0
; #@! TF.FileFunction,Plated,1,2,PTH
FMAT,2
INCH
; #@! TA.AperFunction,Plated,PTH,ViaDrill
T1C0.0118
; #@! TA.AperFunction,Plated,PTH,ViaDrill
T2C0.0157
; #@! TA.AperFunction,Plated,PTH,ComponentDrill
T3C0.0236
; #@! TA.AperFunction,Plated,PTH,ComponentDrill
T4C0.0354
; #@! TA.AperFunction,Plated,PTH,ComponentDrill
T5C0.0394
; #@! TA.AperFunction,Plated,PTH,ComponentDrill
T6C0.0591
%
G90
G05
T1
X0.7602Y-2.3625
X0.965Y-1.55
X1.035Y-1.55
X1.21Y-1.4
X1.2421Y-2.2877
X1.2421Y-2.3625
X1.247Y-1.9582
X1.28Y-1.505
X1.2955Y-1.9991
X1.3199Y-1.4117
X1.3624Y-2.0149
X1.4715Y-1.4117
X1.4841Y-2.009
X1.53Y-1.505
X1.7Y-2.4708
X1.7879Y-1.4718
X1.9931Y-2.3779
X2.0398Y-2.3625
X2.0797Y-2.4428
X2.125Y-1.925
X2.125Y-2.3621
X2.2602Y-2.3625
X2.2864Y-2.4271
X2.2864Y-2.4271
X2.4985Y-1.6735
X2.8765Y-1.6735
X3.5398Y-2.3625
X3.5896Y-2.368
X3.6245Y-1.6735
X3.7602Y-2.3625
X3.9985Y-1.6735
X4.2308Y-3.7926
X4.3765Y-1.6735
X4.378Y-3.1135
X4.378Y-3.641
X4.5128Y-1.4767
X4.7505Y-1.6735
X4.9656Y-1.4767
X5.0187Y-3.5682
X5.03Y-3.7926
X5.0398Y-2.3842
X5.285Y-2.3842
X5.4124Y-1.3281
X5.4744Y-3.7513
X5.4985Y-1.6735
X5.5394Y-3.0029
X5.5628Y-2.3363
X5.5984Y-2.9442
X5.6171Y-2.5412
X5.6762Y-2.62
X5.8002Y-1.0751
X5.835Y-2.5975
X5.835Y-3.0423
X5.87Y-2.5975
X5.8725Y-3.7926
X5.874Y-2.9442
X5.874Y-3.3379
X5.8765Y-1.6735
X5.905Y-2.5975
X5.9301Y-2.5712
X5.9321Y-2.9865
X5.9419Y-1.1814
X5.9596Y-2.8605
X5.997Y-2.5712
X6.0482Y-1.0751
X6.06Y-1.4097
X6.085Y-3.6125
X6.0955Y-1.3153
X6.0955Y-1.3979
X6.1033Y-1.3546
X6.1742Y-1.2365
X6.2078Y-2.3361
X6.2315Y-2.3599
X6.2323Y-2.9757
X6.2347Y-1.6735
X6.2552Y-4.1095
X6.2554Y-2.3837
X6.315Y-4.01
X6.4016Y-2.9757
X6.4321Y-3.5613
X6.4449Y-3.0781
X6.5Y-2.6644
X6.5Y-2.6959
X6.5398Y-2.5575
X6.5719Y-2.5325
X6.5827Y-2.9757
X6.5984Y-2.7355
X6.605Y-2.2125
X6.605Y-2.6275
X6.645Y-2.2125
X6.645Y-2.6475
X6.6693Y-2.9757
X6.7096Y-2.5325
X6.7151Y-3.7966
X6.7602Y-2.5325
X6.7848Y-2.6307
X6.7857Y-2.6632
X6.9749Y-1.6735
X7.11Y-3.015
X7.1112Y-2.6418
X7.1388Y-3.4009
X7.145Y-2.6418
X7.2756Y-3.1765
X7.3159Y-2.1647
X7.3489Y-3.7966
X7.374Y-3.4127
X7.375Y-2.915
X7.376Y-2.1027
X7.3765Y-1.6735
X7.4124Y-1.9964
X7.4163Y-2.9688
X7.4616Y-2.8448
X7.5876Y-2.7936
X7.6757Y-3.7966
X7.7229Y-1.6735
X7.747Y-2.9609
X8.001Y-4.4107
X8.0128Y-4.4777
X8.0398Y-2.3999
X8.0398Y-3.0118
X8.1245Y-1.6735
X8.135Y-2.6875
X8.2602Y-2.4157
X8.2602Y-3.0118
X8.3135Y-3.7966
X8.565Y-2.4157
X8.565Y-2.6425
X8.5985Y-2.6418
X8.6Y-2.4157
X8.63Y-2.6418
X8.635Y-2.4157
X8.7251Y-2.6612
X8.755Y-2.6775
X8.8117Y-2.937
X8.8117Y-2.9803
X8.855Y-2.9587
X8.8765Y-1.6735
X8.8765Y-3.7966
X8.895Y-2.5062
X8.8983Y-2.937
X8.8983Y-2.9803
X8.935Y-2.5062
X9.0Y-2.4775
X9.0128Y-2.5495
X9.045Y-2.3175
X9.064Y-2.4275
X9.1329Y-2.5554
X9.208Y-2.3175
X9.215Y-2.8375
X9.24Y-2.8625
X9.2505Y-1.6735
X9.378Y-2.3175
X9.393Y-2.4705
X9.422Y-2.5475
X9.4498Y-2.5298
X9.5001Y-2.7082
X9.505Y-2.3255
X9.5155Y-2.7375
X9.5294Y-2.2875
X9.565Y-3.209
X9.585Y-2.7686
X9.603Y-2.7285
X9.6036Y-1.9071
X9.6101Y-2.8299
X9.6109Y-2.8635
X9.6245Y-3.7966
X9.625Y-2.3546
X9.651Y-2.8335
X9.673Y-2.2095
X9.673Y-2.1379
X9.673Y-2.1718
X9.673Y-2.2445
X9.745Y-2.2895
X9.7534Y-2.0569
X9.766Y-2.8635
X9.771Y-2.6905
X9.775Y-2.3045
X9.7756Y-2.6575
X9.78Y-2.7935
X9.797Y-2.2681
X9.797Y-2.3764
X9.8071Y-2.5912
X9.812Y-2.8635
X9.8396Y-2.5357
X9.8514Y-2.8054
X9.8659Y-2.2681
X9.8826Y-2.6457
X9.9151Y-2.3173
X9.9219Y-2.3976
X9.9852Y-3.081
X10.0089Y-2.6302
X10.034Y-2.2021
X10.0561Y-2.9432
X10.0679Y-2.8527
X10.079Y-2.2265
X10.1309Y-2.9176
X10.2172Y-2.8888
X10.2526Y-2.4528
X10.2953Y-2.9127
X10.3747Y-2.7913
X10.375Y-3.4355
X10.3765Y-3.7966
X10.4035Y-2.8192
X10.459Y-1.8689
X10.623Y-2.5075
X10.7544Y-3.7966
X10.9552Y-3.7966
T2
X0.6954Y-1.7414
X0.6954Y-2.0485
X0.6954Y-3.0288
X0.6954Y-3.2926
X0.7032Y-2.6155
X0.7111Y-3.7808
X0.719Y-2.3359
X0.7544Y-1.6824
X0.8135Y-0.9304
X0.875Y-1.0121
X0.9828Y-1.6824
X1.1821Y-0.9412
X1.1914Y-3.7847
X1.2825Y-2.5373
X1.2958Y-1.0485
X1.3455Y-3.2893
X1.375Y-2.925
X1.375Y-3.675
X1.4434Y-0.9304
X1.4652Y-2.0889
X1.4852Y-1.3723
X1.5344Y-1.3723
X1.5418Y-1.3044
X1.5497Y-3.7847
X1.6048Y-1.6824
X1.6112Y-1.9901
X1.6112Y-2.0393
X1.6112Y-3.2893
X1.627Y-2.5373
X1.6506Y-2.0196
X1.6599Y-1.4225
X1.6698Y-1.2552
X1.7195Y-1.8818
X1.7288Y-1.1666
X1.7387Y-0.9304
X1.9946Y-1.019
X2.0576Y-1.7887
X2.0738Y-2.5353
X2.0935Y-3.2893
X2.1225Y-1.4718
X2.1245Y-1.6824
X2.1245Y-3.7887
X2.1324Y-0.9304
X2.1467Y-2.4094
X2.2018Y-2.3641
X2.3258Y-2.3621
X2.3489Y-1.7887
X2.3494Y-3.2893
X2.3711Y-2.5393
X2.3883Y-1.1666
X2.408Y-1.0485
X2.4966Y-0.9304
X2.5261Y-1.4718
X2.7525Y-1.019
X2.7859Y-1.7887
X2.7977Y-3.2887
X2.8199Y-2.5353
X2.8706Y-0.9304
X2.8725Y-3.7887
X2.875Y-2.175
X2.875Y-2.925
X3.0699Y-3.7847
X3.1048Y-1.7887
X3.1073Y-2.5412
X3.1206Y-3.2887
X3.1506Y-4.5288
X3.156Y-1.0485
X3.2446Y-0.9304
X3.3632Y-3.9304
X3.4341Y-3.7847
X3.4951Y-2.3975
X3.5005Y-1.019
X3.5089Y-3.9344
X3.5458Y-1.8241
X3.5797Y-2.5708
X3.5797Y-3.3286
X3.625Y-1.7867
X3.625Y-2.5387
X3.625Y-3.2875
X3.6284Y-0.9304
X3.6978Y-2.5511
X3.7032Y-3.2887
X3.7156Y-2.3838
X3.7648Y-3.9344
X3.7963Y-4.3871
X3.8219Y-2.368
X3.8253Y-1.7887
X3.8371Y-3.2887
X3.875Y-2.5216
X3.9006Y-4.4245
X3.9139Y-1.0485
X3.9892Y-4.5446
X4.0025Y-0.9304
X4.0167Y-3.9344
X4.0541Y-3.7847
X4.2485Y-1.019
X4.2707Y-1.1853
X4.2707Y-1.2936
X4.2884Y-2.5216
X4.3017Y-3.3674
X4.3095Y-1.7887
X4.3356Y-4.2966
X4.3666Y-0.9304
X4.3691Y-1.4708
X4.375Y-2.175
X4.375Y-2.925
X4.4183Y-3.7847
X4.4183Y-3.9344
X4.4434Y-3.2257
X4.4646Y-3.9934
X4.4774Y-1.1853
X4.4774Y-4.5446
X4.5719Y-4.2966
X4.6048Y-1.7887
X4.6329Y-2.5511
X4.6467Y-4.5446
X4.6619Y-1.0485
X4.6742Y-3.5781
X4.6742Y-3.9344
X4.721Y-0.9304
X4.7431Y-3.7847
X4.7628Y-1.0771
X4.8095Y-1.393
X4.8711Y-1.2345
X4.8765Y-2.9422
X4.8844Y-2.6509
X4.8907Y-1.3989
X4.9006Y-1.1558
X4.9006Y-1.1558
X4.938Y-4.2966
X4.9788Y-3.0525
X5.0758Y-2.5216
X5.0851Y-1.019
X5.0851Y-1.7887
X5.0969Y-3.0525
X5.1127Y-2.9422
X5.1206Y-2.6588
X5.123Y-4.2966
X5.1836Y-0.9304
X5.1959Y-3.6371
X5.2549Y-1.3822
X5.2844Y-1.333
X5.2963Y-1.4777
X5.3017Y-3.1391
X5.3238Y-3.9344
X5.3248Y-3.7857
X5.3332Y-2.8241
X5.3632Y-1.333
X5.3647Y-1.7887
X5.3671Y-4.2493
X5.3711Y-2.5511
X5.3962Y-2.6273
X5.3986Y-1.3753
X5.4016Y-4.0052
X5.4016Y-4.3517
X5.4062Y-1.5397
X5.4124Y-4.5426
X5.4459Y-4.0367
X5.4577Y-1.2542
X5.4906Y-2.958
X5.4911Y-0.9786
X5.4931Y-1.216
X5.5458Y-2.8635
X5.5896Y-4.5426
X5.5999Y-1.0372
X5.6112Y-3.9344
X5.6245Y-2.7218
X5.6299Y-1.3379
X5.6368Y-2.9842
X5.655Y-2.5225
X5.6781Y-1.0672
X5.6781Y-3.7847
X5.7569Y-1.0968
X5.7864Y-2.7175
X5.7943Y-2.9842
X5.795Y-2.5975
X5.7977Y-1.7887
X5.8233Y-0.9304
X5.8356Y-1.1263
X5.875Y-1.5188
X5.875Y-2.175
X5.8765Y-2.8792
X5.8848Y-1.1263
X5.9045Y-2.4166
X5.9341Y-1.1263
X5.9931Y-3.5584
X6.0655Y-2.8241
X6.0719Y-3.7946
X6.1014Y-2.5052
X6.1171Y-3.5741
X6.1171Y-3.6509
X6.1206Y-1.7887
X6.1211Y-2.5544
X6.1348Y-3.9344
X6.1442Y-2.6745
X6.1585Y-4.5426
X6.1764Y-4.2867
X6.206Y-4.08
X6.25Y-1.5188
X6.2749Y-4.2867
X6.2781Y-2.8714
X6.3337Y-4.5426
X6.3438Y-4.1391
X6.3804Y-2.6824
X6.3907Y-3.9934
X6.3947Y-3.9344
X6.4045Y-3.7946
X6.503Y-3.1219
X6.5187Y-3.3875
X6.5379Y-1.7887
X6.5915Y-3.1416
X6.6009Y-0.9304
X6.6193Y-4.2867
X6.6954Y-2.6351
X6.7028Y-1.2493
X6.7375Y-4.08
X6.8162Y-4.1784
X6.8162Y-4.2867
X6.8307Y-1.2001
X6.8494Y-3.6588
X6.8529Y-2.7926
X6.8602Y-1.3969
X6.8647Y-1.7887
X6.875Y-3.2552
X6.8907Y-1.4462
X6.9343Y-4.1292
X6.9498Y-3.3379
X6.9656Y-3.1023
X7.0Y-1.5188
X7.0044Y-0.9304
X7.0049Y-3.2597
X7.0069Y-3.7946
X7.0103Y-2.958
X7.0472Y-1.3969
X7.0482Y-3.9344
X7.0571Y-1.1804
X7.0659Y-1.0672
X7.0965Y-1.3477
X7.1033Y-4.5426
X7.1284Y-2.7218
X7.1496Y-3.6706
X7.2018Y-3.1908
X7.2111Y-1.0485
X7.2362Y-3.7375
X7.2746Y-4.5426
X7.2781Y-2.9895
X7.2835Y-1.1804
X7.2835Y-1.2985
X7.3017Y-1.7887
X7.3253Y-2.5406
X7.3378Y-3.9324
X7.3378Y-4.0899
X7.3396Y-3.181
X7.3784Y-0.9304
X7.3804Y-2.0525
X7.4067Y-4.2867
X7.4198Y-2.2257
X7.467Y-1.9107
X7.4756Y-4.1194
X7.5049Y-4.3399
X7.56Y-4.1863
X7.5694Y-2.5406
X7.6009Y-1.7887
X7.6639Y-1.0485
X7.7296Y-3.9304
X7.7414Y-4.0899
X7.7431Y-3.181
X7.7451Y-1.146
X7.7525Y-0.9304
X7.7584Y-2.2257
X7.7589Y-4.5426
X7.8595Y-4.2277
X7.8612Y-3.3286
X7.9321Y-4.5426
X7.971Y-2.2257
X7.9815Y-3.9304
X7.9887Y-1.0288
X7.9973Y-4.3399
X8.0404Y-4.5426
X8.0615Y-1.7887
X8.0682Y-4.08
X8.0778Y-3.2893
X8.0891Y-2.2257
X8.0891Y-2.5406
X8.1265Y-0.9304
X8.127Y-3.181
X8.1599Y-1.9029
X8.1757Y-2.2178
X8.1757Y-2.7139
X8.1757Y-2.8162
X8.1914Y-2.021
X8.2096Y-4.5426
X8.2886Y-4.3399
X8.3123Y-3.9383
X8.3258Y-2.4068
X8.3332Y-2.5406
X8.3607Y-1.7887
X8.3632Y-3.2893
X8.3652Y-2.6725
X8.3652Y-2.8005
X8.4119Y-1.0485
X8.4144Y-4.5426
X8.4833Y-2.2198
X8.5005Y-0.9304
X8.503Y-2.4068
X8.5423Y-2.8694
X8.5994Y-4.5308
X8.6166Y-4.0052
X8.6166Y-4.2414
X8.6166Y-4.4304
X8.6211Y-2.7414
X8.6969Y-3.208
X8.7Y-2.5625
X8.7096Y-2.3182
X8.7466Y-1.0288
X8.749Y-2.2493
X8.749Y-2.958
X8.7638Y-3.2749
X8.7754Y-1.825
X8.7982Y-2.7414
X8.8292Y-1.7887
X8.855Y-3.2717
X8.855Y-3.35
X8.8745Y-0.9304
X8.875Y-3.675
X8.8967Y-2.3182
X8.908Y-2.0603
X8.9183Y-2.1784
X8.9473Y-1.9107
X9.018Y-2.8095
X9.0551Y-3.1804
X9.0812Y-2.1076
X9.102Y-2.8555
X9.1132Y-2.3182
X9.1166Y-1.7887
X9.1599Y-1.0485
X9.1998Y-2.4158
X9.2485Y-0.9304
X9.251Y-1.146
X9.251Y-1.1952
X9.3095Y-2.2099
X9.31Y-2.8694
X9.3199Y-2.4658
X9.336Y-2.9555
X9.3541Y-2.7264
X9.387Y-2.4164
X9.4774Y-3.391
X9.494Y-2.9255
X9.4946Y-1.0288
X9.5182Y-1.8281
X9.5266Y-2.5295
X9.53Y-1.9107
X9.6053Y-3.0367
X9.6102Y-3.1844
X9.6132Y-3.2893
X9.6225Y-0.9304
X9.6245Y-1.6863
X9.625Y-2.4311
X9.625Y-2.5295
X9.625Y-2.6279
X9.6644Y-2.9777
X9.6841Y-1.9245
X9.6841Y-2.0426
X9.7234Y-2.5295
X9.7392Y-1.9875
X9.7899Y-1.8241
X9.8071Y-3.1844
X9.812Y-3.0367
X9.8396Y-3.2893
X9.8711Y-3.0269
X9.9178Y-1.0485
X9.9966Y-0.9403
X10.0418Y-2.2651
X10.0876Y-2.4068
X10.1073Y-1.9442
X10.1284Y-1.6824
X10.1614Y-2.9914
X10.186Y-2.1804
X10.2323Y-1.4911
X10.248Y-2.9127
X10.2756Y-2.9914
X10.2844Y-2.2001
X10.2899Y-1.7887
X10.2938Y-3.2887
X10.2943Y-1.1263
X10.2992Y-2.5859
X10.3041Y-2.4363
X10.3041Y-2.5347
X10.3214Y-0.9403
X10.375Y-3.675
X10.378Y-2.9334
X10.3829Y-2.3379
X10.3898Y-1.3337
X10.4198Y-2.0682
X10.4222Y-2.2001
X10.4434Y-3.2887
X10.4488Y-3.1883
X10.4616Y-2.6332
X10.4813Y-1.0377
X10.5236Y-3.1883
X10.5236Y-3.3379
X10.5305Y-2.5347
X10.5655Y-1.6824
X10.5679Y-0.9412
X10.6009Y-1.7847
X10.6009Y-2.8477
X10.6152Y-1.0436
X10.6166Y-3.2887
X10.626Y-1.1762
X10.6388Y-1.9442
X10.719Y-2.2414
X10.7372Y-2.3674
X10.7505Y-2.8477
X10.7505Y-3.2099
X10.8228Y-1.4124
X10.8652Y-1.9442
X10.9675Y-1.5397
X10.9734Y-2.3674
X10.9946Y-2.1784
X10.9946Y-2.5958
X10.9946Y-2.6824
X10.9946Y-2.9265
X10.9946Y-3.2257
X11.003Y-1.8556
X11.0312Y-0.9562
X11.034Y-1.6942
X11.0443Y-1.4786
X11.0497Y-3.7218
T3
X0.7602Y-1.4375
X0.7602Y-2.1875
X0.7602Y-2.9375
X0.7602Y-3.6875
X1.2898Y-1.3375
X1.2898Y-2.0875
X1.2898Y-2.8375
X1.2898Y-3.5875
X1.5102Y-2.1875
X1.5102Y-2.9375
X1.5102Y-3.6875
X1.8852Y-1.4375
X2.0398Y-2.0875
X2.0398Y-2.8375
X2.0398Y-3.5875
X2.2602Y-2.1875
X2.2602Y-2.9375
X2.2602Y-3.6875
X2.4148Y-1.3375
X2.6352Y-1.4375
X2.7898Y-2.0875
X2.7898Y-2.8375
X2.7898Y-3.5875
X3.0102Y-2.1875
X3.0102Y-2.9375
X3.0102Y-3.6875
X3.1648Y-1.3375
X3.3352Y-4.1375
X3.3852Y-1.4375
X3.5398Y-2.0875
X3.5398Y-2.8375
X3.5398Y-3.5875
X3.7602Y-2.1875
X3.7602Y-2.9375
X3.7602Y-3.6875
X3.8648Y-4.0375
X3.9148Y-1.3375
X4.1352Y-1.4375
X4.2898Y-2.0875
X4.2898Y-2.8375
X4.2898Y-3.5875
X4.4602Y-3.3875
X4.5102Y-2.1875
X4.5102Y-2.9375
X4.6648Y-1.3375
X4.7415Y-4.1375
X4.8852Y-3.6875
X4.9898Y-3.2875
X5.0398Y-2.0875
X5.0398Y-2.8375
X5.2102Y-3.3875
X5.2602Y-2.1875
X5.2602Y-2.9375
X5.271Y-4.0375
X5.4148Y-3.5875
X5.5852Y-4.1375
X5.7398Y-3.2875
X5.7898Y-2.0875
X5.7898Y-2.8375
X5.9602Y-3.3875
X6.0102Y-2.1875
X6.0102Y-2.9375
X6.1148Y-4.0375
X6.3852Y-3.6875
X6.429Y-4.1375
X6.4898Y-3.2875
X6.5398Y-2.0875
X6.5398Y-2.8375
X6.7102Y-3.3875
X6.7602Y-2.1875
X6.7602Y-2.9375
X6.9148Y-3.5875
X6.9585Y-4.0375
X7.1352Y-1.4375
X7.2398Y-3.2875
X7.2898Y-2.0875
X7.2898Y-2.8375
X7.5102Y-2.1875
X7.5102Y-2.9375
X7.5102Y-3.6875
X7.6648Y-1.3375
X7.8352Y-4.1375
X7.8852Y-1.4375
X8.0398Y-2.0875
X8.0398Y-2.8375
X8.0398Y-3.5875
X8.2602Y-2.1875
X8.2602Y-2.9375
X8.2602Y-3.6875
X8.3648Y-4.0375
X8.4148Y-1.3375
X8.6352Y-1.4375
X8.7898Y-2.0875
X8.7898Y-2.8375
X8.7898Y-3.5875
X9.0102Y-2.1875
X9.0102Y-2.9375
X9.0102Y-3.6875
X9.1648Y-1.3375
X9.3852Y-1.4375
X9.5398Y-2.0875
X9.5398Y-2.8375
X9.5398Y-3.5875
X9.7602Y-2.1875
X9.7602Y-2.9375
X9.7602Y-3.6875
X9.9148Y-1.3375
X10.2898Y-2.0875
X10.2898Y-2.8375
X10.2898Y-3.5875
X10.5102Y-1.4375
X10.5102Y-2.1875
X10.5102Y-2.9375
X10.5102Y-3.6875
X11.0398Y-1.3375
X11.0398Y-2.0875
X11.0398Y-2.8375
X11.0398Y-3.5875
T4
X0.95Y-1.0375
X0.95Y-1.7875
X0.95Y-2.5375
X0.95Y-3.2875
X1.05Y-1.0375
X1.05Y-1.7875
X1.05Y-2.5375
X1.05Y-3.2875
X1.7Y-1.7875
X1.7Y-2.5375
X1.7Y-3.2875
X1.8Y-1.7875
X1.8Y-2.5375
X1.8Y-3.2875
X2.075Y-1.0375
X2.175Y-1.0375
X2.45Y-1.7875
X2.45Y-2.5375
X2.45Y-3.2875
X2.55Y-1.7875
X2.55Y-2.5375
X2.55Y-3.2875
X2.825Y-1.0375
X2.925Y-1.0375
X3.2Y-1.7875
X3.2Y-2.5375
X3.2Y-3.2875
X3.3Y-1.7875
X3.3Y-2.5375
X3.3Y-3.2875
X3.575Y-1.0375
X3.575Y-4.4375
X3.675Y-1.0375
X3.675Y-4.4375
X3.95Y-1.7875
X3.95Y-2.5375
X3.95Y-3.2875
X4.05Y-1.7875
X4.05Y-2.5375
X4.05Y-3.2875
X4.325Y-1.0375
X4.425Y-1.0375
X4.7Y-1.7875
X4.7Y-2.5375
X4.7Y-3.6875
X4.8Y-1.7875
X4.8Y-2.5375
X4.8Y-3.6875
X4.9813Y-4.4375
X5.075Y-3.2875
X5.0812Y-4.4375
X5.175Y-3.2875
X5.45Y-1.7875
X5.45Y-2.5375
X5.45Y-3.6875
X5.55Y-1.7875
X5.55Y-2.5375
X5.55Y-3.6875
X5.825Y-4.4375
X5.925Y-4.4375
X6.2Y-1.7875
X6.2Y-2.5375
X6.2Y-3.6875
X6.3Y-1.7875
X6.3Y-2.5375
X6.3Y-3.6875
X6.575Y-3.2875
X6.6688Y-4.4375
X6.675Y-3.2875
X6.7687Y-4.4375
X6.95Y-1.7875
X6.95Y-2.5375
X6.95Y-3.6875
X7.05Y-1.7875
X7.05Y-2.5375
X7.05Y-3.6875
X7.325Y-1.0375
X7.425Y-1.0375
X7.7Y-1.7875
X7.7Y-2.5375
X7.7Y-3.2875
X7.8Y-1.7875
X7.8Y-2.5375
X7.8Y-3.2875
X8.075Y-1.0375
X8.075Y-4.4375
X8.175Y-1.0375
X8.175Y-4.4375
X8.45Y-1.7875
X8.45Y-2.5375
X8.45Y-3.2875
X8.55Y-1.7875
X8.55Y-2.5375
X8.55Y-3.2875
X8.825Y-1.0375
X8.925Y-1.0375
X9.2Y-1.7875
X9.2Y-2.5375
X9.2Y-3.2875
X9.3Y-1.7875
X9.3Y-2.5375
X9.3Y-3.2875
X9.575Y-1.0375
X9.675Y-1.0375
X9.95Y-1.7875
X9.95Y-2.5375
X9.95Y-3.2875
X10.05Y-1.7875
X10.05Y-2.5375
X10.05Y-3.2875
X10.7Y-1.0375
X10.7Y-1.7875
X10.7Y-2.5375
X10.7Y-3.2875
X10.8Y-1.0375
X10.8Y-1.7875
X10.8Y-2.5375
X10.8Y-3.2875
T5
X0.9016Y-0.9422
X0.9016Y-1.5131
X1.0Y-0.9422
X1.0984Y-0.9422
X1.0984Y-1.5131
X5.186Y-1.0875
X5.186Y-1.1875
X5.186Y-1.2875
X5.186Y-1.3875
X10.4783Y-2.3182
X10.4783Y-2.4182
X10.5783Y-2.3182
X10.5783Y-2.4182
X10.6516Y-0.9422
X10.6516Y-1.5131
X10.6783Y-2.3182
X10.6783Y-2.4182
X10.75Y-0.9422
X10.8484Y-0.9422
X10.8484Y-1.5131
T3
G00X1.2049Y-1.681
M15
G01X1.2049Y-1.7046
M16
G05
G00X1.2049Y-1.8357
M15
G01X1.2049Y-1.879
M16
G05
G00X1.5451Y-1.681
M15
G01X1.5451Y-1.7046
M16
G05
G00X1.5451Y-1.8357
M15
G01X1.5451Y-1.879
M16
G05
T6
G00X0.7795Y-1.2119
M15
G01X0.7795Y-1.2631
M16
G05
G00X1.2205Y-1.2119
M15
G01X1.2205Y-1.2631
M16
G05
G00X10.5295Y-1.2119
M15
G01X10.5295Y-1.2631
M16
G05
G00X10.9705Y-1.2119
M15
G01X10.9705Y-1.2631
M16
G05
T0
M30
