%TF.GenerationSoftware,KiCad,Pcbnew,7.0.1-0*%
%TF.CreationDate,2023-07-02T14:27:38+03:00*%
%TF.ProjectId,30cent,33306365-6e74-42e6-9b69-6361645f7063,rev?*%
%TF.SameCoordinates,Original*%
%TF.FileFunction,Paste,Bot*%
%TF.FilePolarity,Positive*%
%FSLAX46Y46*%
G04 Gerber Fmt 4.6, Leading zero omitted, Abs format (unit mm)*
G04 Created by KiCad (PCBNEW 7.0.1-0) date 2023-07-02 14:27:38*
%MOMM*%
%LPD*%
G01*
G04 APERTURE LIST*
G04 Aperture macros list*
%AMRoundRect*
0 Rectangle with rounded corners*
0 $1 Rounding radius*
0 $2 $3 $4 $5 $6 $7 $8 $9 X,Y pos of 4 corners*
0 Add a 4 corners polygon primitive as box body*
4,1,4,$2,$3,$4,$5,$6,$7,$8,$9,$2,$3,0*
0 Add four circle primitives for the rounded corners*
1,1,$1+$1,$2,$3*
1,1,$1+$1,$4,$5*
1,1,$1+$1,$6,$7*
1,1,$1+$1,$8,$9*
0 Add four rect primitives between the rounded corners*
20,1,$1+$1,$2,$3,$4,$5,0*
20,1,$1+$1,$4,$5,$6,$7,0*
20,1,$1+$1,$6,$7,$8,$9,0*
20,1,$1+$1,$8,$9,$2,$3,0*%
%AMRotRect*
0 Rectangle, with rotation*
0 The origin of the aperture is its center*
0 $1 length*
0 $2 width*
0 $3 Rotation angle, in degrees counterclockwise*
0 Add horizontal line*
21,1,$1,$2,0,0,$3*%
G04 Aperture macros list end*
%ADD10R,2.550000X2.500000*%
%ADD11RoundRect,0.150000X-0.150000X0.587500X-0.150000X-0.587500X0.150000X-0.587500X0.150000X0.587500X0*%
%ADD12RoundRect,0.140000X-0.021213X0.219203X-0.219203X0.021213X0.021213X-0.219203X0.219203X-0.021213X0*%
%ADD13RoundRect,0.200000X-0.200000X-0.275000X0.200000X-0.275000X0.200000X0.275000X-0.200000X0.275000X0*%
%ADD14R,2.300000X2.500000*%
%ADD15RoundRect,0.150000X0.587500X0.150000X-0.587500X0.150000X-0.587500X-0.150000X0.587500X-0.150000X0*%
%ADD16RoundRect,0.200000X0.200000X0.275000X-0.200000X0.275000X-0.200000X-0.275000X0.200000X-0.275000X0*%
%ADD17RoundRect,0.200000X-0.275000X0.200000X-0.275000X-0.200000X0.275000X-0.200000X0.275000X0.200000X0*%
%ADD18RoundRect,0.140000X0.219203X0.021213X0.021213X0.219203X-0.219203X-0.021213X-0.021213X-0.219203X0*%
%ADD19RoundRect,0.250000X-0.388909X0.000000X0.000000X-0.388909X0.388909X0.000000X0.000000X0.388909X0*%
%ADD20RoundRect,0.062500X-0.380070X0.291682X0.291682X-0.380070X0.380070X-0.291682X-0.291682X0.380070X0*%
%ADD21RoundRect,0.062500X-0.380070X-0.291682X-0.291682X-0.380070X0.380070X0.291682X0.291682X0.380070X0*%
%ADD22RoundRect,0.135000X-0.135000X-0.185000X0.135000X-0.185000X0.135000X0.185000X-0.135000X0.185000X0*%
%ADD23RoundRect,0.575000X-0.700000X-0.575000X0.700000X-0.575000X0.700000X0.575000X-0.700000X0.575000X0*%
%ADD24RoundRect,0.135000X0.185000X-0.135000X0.185000X0.135000X-0.185000X0.135000X-0.185000X-0.135000X0*%
%ADD25R,1.500000X2.000000*%
%ADD26R,3.800000X2.000000*%
%ADD27RoundRect,0.135000X-0.035355X0.226274X-0.226274X0.035355X0.035355X-0.226274X0.226274X-0.035355X0*%
%ADD28RoundRect,0.218750X0.381250X-0.218750X0.381250X0.218750X-0.381250X0.218750X-0.381250X-0.218750X0*%
%ADD29R,1.700000X1.000000*%
%ADD30RoundRect,0.243750X0.243750X0.456250X-0.243750X0.456250X-0.243750X-0.456250X0.243750X-0.456250X0*%
%ADD31RoundRect,0.150000X0.625000X-0.150000X0.625000X0.150000X-0.625000X0.150000X-0.625000X-0.150000X0*%
%ADD32RoundRect,0.250000X0.650000X-0.350000X0.650000X0.350000X-0.650000X0.350000X-0.650000X-0.350000X0*%
%ADD33RoundRect,0.140000X-0.219203X-0.021213X-0.021213X-0.219203X0.219203X0.021213X0.021213X0.219203X0*%
%ADD34R,0.250000X1.100000*%
%ADD35R,1.700000X1.500000*%
%ADD36RotRect,0.400000X1.900000X135.000000*%
%ADD37R,0.375000X0.500000*%
%ADD38R,0.300000X0.650000*%
%ADD39RoundRect,0.140000X0.021213X-0.219203X0.219203X-0.021213X-0.021213X0.219203X-0.219203X0.021213X0*%
%ADD40RoundRect,0.135000X0.135000X0.185000X-0.135000X0.185000X-0.135000X-0.185000X0.135000X-0.185000X0*%
%ADD41R,0.600000X1.450000*%
%ADD42R,0.300000X1.450000*%
G04 APERTURE END LIST*
D10*
%TO.C,K13*%
X70860000Y-53022500D03*
X57410000Y-55562500D03*
%TD*%
D11*
%TO.C,KD3*%
X119700000Y-29557500D03*
X121600000Y-29557500D03*
X120650000Y-31432500D03*
%TD*%
%TO.C,KD21*%
X72075000Y-86707500D03*
X73975000Y-86707500D03*
X73025000Y-88582500D03*
%TD*%
D12*
%TO.C,C4*%
X243056411Y-69438089D03*
X242377589Y-70116911D03*
%TD*%
D10*
%TO.C,K11*%
X32760000Y-53022500D03*
X19310000Y-55562500D03*
%TD*%
D11*
%TO.C,KD1*%
X38737500Y-29557500D03*
X40637500Y-29557500D03*
X39687500Y-31432500D03*
%TD*%
D13*
%TO.C,R23*%
X200915000Y-45402500D03*
X202565000Y-45402500D03*
%TD*%
D10*
%TO.C,K27*%
X70860000Y-72072500D03*
X57410000Y-74612500D03*
%TD*%
%TO.C,K5*%
X118485000Y-33972500D03*
X105035000Y-36512500D03*
%TD*%
%TO.C,K45A1*%
X137535000Y-91122500D03*
D14*
X124085000Y-93662500D03*
%TD*%
D13*
%TO.C,R15*%
X277115000Y-26352500D03*
X278765000Y-26352500D03*
%TD*%
D11*
%TO.C,KD12*%
X262575000Y-48607500D03*
X264475000Y-48607500D03*
X263525000Y-50482500D03*
%TD*%
%TO.C,KD7*%
X72075000Y-48607500D03*
X73975000Y-48607500D03*
X73025000Y-50482500D03*
%TD*%
D10*
%TO.C,K42*%
X89910000Y-91122500D03*
X76460000Y-93662500D03*
%TD*%
D13*
%TO.C,R42*%
X277115000Y-64452500D03*
X278765000Y-64452500D03*
%TD*%
%TO.C,R37*%
X181865000Y-64452500D03*
X183515000Y-64452500D03*
%TD*%
D11*
%TO.C,KD28*%
X188756250Y-106695000D03*
X190656250Y-106695000D03*
X189706250Y-108570000D03*
%TD*%
D13*
%TO.C,R43*%
X29465000Y-83502500D03*
X31115000Y-83502500D03*
%TD*%
D15*
%TO.C,KD6*%
X30237500Y-58107500D03*
X30237500Y-60007500D03*
X28362500Y-59057500D03*
%TD*%
D16*
%TO.C,R57*%
X129349000Y-85661500D03*
X127699000Y-85661500D03*
%TD*%
D13*
%TO.C,R63*%
X152718000Y-112712500D03*
X154368000Y-112712500D03*
%TD*%
D11*
%TO.C,KD13*%
X33975000Y-67657500D03*
X35875000Y-67657500D03*
X34925000Y-69532500D03*
%TD*%
D10*
%TO.C,K14*%
X89910000Y-53022500D03*
X76460000Y-55562500D03*
%TD*%
D11*
%TO.C,KD4*%
X214950000Y-29557500D03*
X216850000Y-29557500D03*
X215900000Y-31432500D03*
%TD*%
D13*
%TO.C,R31*%
X67565000Y-64452500D03*
X69215000Y-64452500D03*
%TD*%
D11*
%TO.C,KD2*%
X81600000Y-29557500D03*
X83500000Y-29557500D03*
X82550000Y-31432500D03*
%TD*%
D10*
%TO.C,K25*%
X32760000Y-72072500D03*
X19310000Y-74612500D03*
%TD*%
D17*
%TO.C,R35*%
X142925000Y-65732500D03*
X142925000Y-67382500D03*
%TD*%
D10*
%TO.C,K36*%
X242310000Y-72072500D03*
X228860000Y-74612500D03*
%TD*%
D13*
%TO.C,R55*%
X258065000Y-83502500D03*
X259715000Y-83502500D03*
%TD*%
D10*
%TO.C,K32*%
X166110000Y-72072500D03*
X152660000Y-74612500D03*
%TD*%
D13*
%TO.C,R28*%
X29465000Y-64452500D03*
X31115000Y-64452500D03*
%TD*%
D10*
%TO.C,K15*%
X108960000Y-53022500D03*
X95510000Y-55562500D03*
%TD*%
D18*
%TO.C,C6*%
X239834411Y-59726911D03*
X239155589Y-59048089D03*
%TD*%
D10*
%TO.C,K21*%
X223260000Y-53022500D03*
X209810000Y-55562500D03*
%TD*%
D11*
%TO.C,KD24*%
X186375000Y-89088750D03*
X188275000Y-89088750D03*
X187325000Y-90963750D03*
%TD*%
D10*
%TO.C,K44*%
X113290000Y-86042500D03*
D14*
X126740000Y-83502500D03*
%TD*%
D13*
%TO.C,R62*%
X131382000Y-112712500D03*
X133032000Y-112712500D03*
%TD*%
D10*
%TO.C,K7*%
X213735000Y-33972500D03*
X200285000Y-36512500D03*
%TD*%
D13*
%TO.C,R25*%
X239015000Y-45402500D03*
X240665000Y-45402500D03*
%TD*%
D10*
%TO.C,K19*%
X185160000Y-53022500D03*
X171710000Y-55562500D03*
%TD*%
%TO.C,K40*%
X51810000Y-91122500D03*
X38360000Y-93662500D03*
%TD*%
%TO.C,K29*%
X108960000Y-72072500D03*
X95510000Y-74612500D03*
%TD*%
%TO.C,K48*%
X204210000Y-91122500D03*
X190760000Y-93662500D03*
%TD*%
%TO.C,K52*%
X280410000Y-91122500D03*
X266960000Y-93662500D03*
%TD*%
D13*
%TO.C,R44*%
X48515000Y-83502500D03*
X50165000Y-83502500D03*
%TD*%
D10*
%TO.C,K45*%
X132340000Y-86042500D03*
X145790000Y-83502500D03*
%TD*%
D16*
%TO.C,R49*%
X141550000Y-91607500D03*
X139900000Y-91607500D03*
%TD*%
D13*
%TO.C,R56*%
X277115000Y-83502500D03*
X278765000Y-83502500D03*
%TD*%
D19*
%TO.C,U1*%
X244475000Y-61491623D03*
X243555761Y-62410861D03*
X242636522Y-63330100D03*
X241717284Y-64249339D03*
X245394239Y-62410861D03*
X244475000Y-63330100D03*
X243555761Y-64249339D03*
X242636522Y-65168578D03*
X246313478Y-63330100D03*
X245394239Y-64249339D03*
X244475000Y-65168578D03*
X243555761Y-66087817D03*
X247232716Y-64249339D03*
X246313478Y-65168578D03*
X245394239Y-66087817D03*
X244475000Y-67007055D03*
D20*
X240347264Y-63657137D03*
X240700818Y-63303584D03*
X241054371Y-62950030D03*
X241407924Y-62596477D03*
X241761478Y-62242924D03*
X242115031Y-61889370D03*
X242468585Y-61535817D03*
X242822138Y-61182263D03*
X243175691Y-60828710D03*
X243529245Y-60475157D03*
X243882798Y-60121603D03*
D21*
X245067202Y-60121603D03*
X245420755Y-60475157D03*
X245774309Y-60828710D03*
X246127862Y-61182263D03*
X246481415Y-61535817D03*
X246834969Y-61889370D03*
X247188522Y-62242924D03*
X247542076Y-62596477D03*
X247895629Y-62950030D03*
X248249182Y-63303584D03*
X248602736Y-63657137D03*
D20*
X248602736Y-64841541D03*
X248249182Y-65195094D03*
X247895629Y-65548648D03*
X247542076Y-65902201D03*
X247188522Y-66255754D03*
X246834969Y-66609308D03*
X246481415Y-66962861D03*
X246127862Y-67316415D03*
X245774309Y-67669968D03*
X245420755Y-68023521D03*
X245067202Y-68377075D03*
D21*
X243882798Y-68377075D03*
X243529245Y-68023521D03*
X243175691Y-67669968D03*
X242822138Y-67316415D03*
X242468585Y-66962861D03*
X242115031Y-66609308D03*
X241761478Y-66255754D03*
X241407924Y-65902201D03*
X241054371Y-65548648D03*
X240700818Y-65195094D03*
X240347264Y-64841541D03*
%TD*%
D13*
%TO.C,R52*%
X200915000Y-83502500D03*
X202565000Y-83502500D03*
%TD*%
D16*
%TO.C,R66*%
X230825000Y-82082500D03*
X229175000Y-82082500D03*
%TD*%
D22*
%TO.C,R2*%
X36675000Y-49827500D03*
X37695000Y-49827500D03*
%TD*%
D10*
%TO.C,K12*%
X51810000Y-53022500D03*
X38360000Y-55562500D03*
%TD*%
D23*
%TO.C,K10*%
X280410000Y-33972500D03*
D10*
X266960000Y-36512500D03*
%TD*%
D17*
%TO.C,R53*%
X219329000Y-83440000D03*
X219329000Y-85090000D03*
%TD*%
D11*
%TO.C,KD19*%
X262575000Y-67657500D03*
X264475000Y-67657500D03*
X263525000Y-69532500D03*
%TD*%
D18*
%TO.C,C1*%
X241414411Y-60736911D03*
X240735589Y-60058089D03*
%TD*%
D24*
%TO.C,R1*%
X33675000Y-50777500D03*
X33675000Y-49757500D03*
%TD*%
D11*
%TO.C,KD11*%
X223967000Y-48465500D03*
X225867000Y-48465500D03*
X224917000Y-50340500D03*
%TD*%
D25*
%TO.C,Q1*%
X227217000Y-81450000D03*
X224917000Y-81450000D03*
D26*
X224917000Y-75150000D03*
D25*
X222617000Y-81450000D03*
%TD*%
D27*
%TO.C,R3*%
X246585624Y-58346876D03*
X245864376Y-59068124D03*
%TD*%
D28*
%TO.C,FB1*%
X41300400Y-49055800D03*
X41300400Y-46930800D03*
%TD*%
D10*
%TO.C,K55*%
X163296250Y-105092500D03*
X176746250Y-102552500D03*
%TD*%
D11*
%TO.C,KD5*%
X257812500Y-29557500D03*
X259712500Y-29557500D03*
X258762500Y-31432500D03*
%TD*%
D29*
%TO.C,SW1*%
X273875000Y-62057500D03*
X280175000Y-62057500D03*
X273875000Y-58257500D03*
X280175000Y-58257500D03*
%TD*%
D10*
%TO.C,K37*%
X261360000Y-72072500D03*
X247910000Y-74612500D03*
%TD*%
D11*
%TO.C,KD16*%
X149550000Y-69545000D03*
X151450000Y-69545000D03*
X150500000Y-71420000D03*
%TD*%
D13*
%TO.C,R9*%
X96140000Y-26352500D03*
X97790000Y-26352500D03*
%TD*%
D10*
%TO.C,K51*%
X261360000Y-91122500D03*
X247910000Y-93662500D03*
%TD*%
D13*
%TO.C,R33*%
X105665000Y-64452500D03*
X107315000Y-64452500D03*
%TD*%
D11*
%TO.C,KD8*%
X110175000Y-48607500D03*
X112075000Y-48607500D03*
X111125000Y-50482500D03*
%TD*%
D13*
%TO.C,R10*%
X115190000Y-26352500D03*
X116840000Y-26352500D03*
%TD*%
D11*
%TO.C,KD27*%
X107793750Y-106695000D03*
X109693750Y-106695000D03*
X108743750Y-108570000D03*
%TD*%
D30*
%TO.C,F1*%
X34712500Y-55547500D03*
X32837500Y-55547500D03*
%TD*%
D10*
%TO.C,K38*%
X280410000Y-72072500D03*
X266960000Y-74612500D03*
%TD*%
D13*
%TO.C,R8*%
X77090000Y-26352500D03*
X78740000Y-26352500D03*
%TD*%
D10*
%TO.C,K8*%
X232785000Y-33972500D03*
X219335000Y-36512500D03*
%TD*%
D13*
%TO.C,R18*%
X105665000Y-45402500D03*
X107315000Y-45402500D03*
%TD*%
%TO.C,R17*%
X86615000Y-45402500D03*
X88265000Y-45402500D03*
%TD*%
D10*
%TO.C,K22*%
X242310000Y-53022500D03*
X228860000Y-55562500D03*
%TD*%
D13*
%TO.C,R27*%
X277115000Y-45402500D03*
X278765000Y-45402500D03*
%TD*%
%TO.C,R47*%
X105665000Y-83502500D03*
X107315000Y-83502500D03*
%TD*%
D11*
%TO.C,KD22*%
X110225000Y-93945000D03*
X112125000Y-93945000D03*
X111175000Y-95820000D03*
%TD*%
D13*
%TO.C,R24*%
X219965000Y-45402500D03*
X221615000Y-45402500D03*
%TD*%
D31*
%TO.C,J4*%
X227933000Y-61707500D03*
X227933000Y-60707500D03*
X227933000Y-59707500D03*
X227933000Y-58707500D03*
D32*
X224058000Y-63007500D03*
X224058000Y-57407500D03*
%TD*%
D10*
%TO.C,K3*%
X80385000Y-33972500D03*
X66935000Y-36512500D03*
%TD*%
%TO.C,K41*%
X70860000Y-91122500D03*
X57410000Y-93662500D03*
%TD*%
D11*
%TO.C,KD25*%
X225950000Y-87445000D03*
X227850000Y-87445000D03*
X226900000Y-89320000D03*
%TD*%
D13*
%TO.C,R32*%
X86615000Y-64452500D03*
X88265000Y-64452500D03*
%TD*%
%TO.C,R30*%
X48515000Y-64452500D03*
X50165000Y-64452500D03*
%TD*%
D10*
%TO.C,K18*%
X166110000Y-53022500D03*
X152660000Y-55562500D03*
%TD*%
D13*
%TO.C,R12*%
X210440000Y-26352500D03*
X212090000Y-26352500D03*
%TD*%
D10*
%TO.C,K26*%
X51810000Y-72072500D03*
X38360000Y-74612500D03*
%TD*%
D13*
%TO.C,R61*%
X95568000Y-112712500D03*
X97218000Y-112712500D03*
%TD*%
D10*
%TO.C,K33*%
X185160000Y-72072500D03*
X171710000Y-74612500D03*
%TD*%
D11*
%TO.C,KD23*%
X148275000Y-89088750D03*
X150175000Y-89088750D03*
X149225000Y-90963750D03*
%TD*%
D10*
%TO.C,K43*%
X108960000Y-91122500D03*
X95510000Y-93662500D03*
%TD*%
D33*
%TO.C,C3*%
X249477589Y-66160589D03*
X250156411Y-66839411D03*
%TD*%
D10*
%TO.C,K6*%
X194685000Y-33972500D03*
X181235000Y-36512500D03*
%TD*%
D13*
%TO.C,R59*%
X27075000Y-47482500D03*
X28725000Y-47482500D03*
%TD*%
D11*
%TO.C,KD17*%
X187550000Y-69045000D03*
X189450000Y-69045000D03*
X188500000Y-70920000D03*
%TD*%
D34*
%TO.C,J3*%
X144475000Y-64117500D03*
X144975000Y-64117500D03*
X145475000Y-64117500D03*
X145975000Y-64117500D03*
X146475000Y-64117500D03*
X146975000Y-64117500D03*
X147475000Y-64117500D03*
X147975000Y-64117500D03*
X148475000Y-64117500D03*
X148975000Y-64117500D03*
X149475000Y-64117500D03*
X149975000Y-64117500D03*
X150475000Y-64117500D03*
X150975000Y-64117500D03*
X151475000Y-64117500D03*
X151975000Y-64117500D03*
X152475000Y-64117500D03*
X152975000Y-64117500D03*
X153475000Y-64117500D03*
X153975000Y-64117500D03*
D35*
X142825000Y-60217500D03*
X155625000Y-60217500D03*
%TD*%
D36*
%TO.C,Y1*%
X250942778Y-60458628D03*
X250094250Y-59610100D03*
X249245722Y-58761572D03*
%TD*%
D10*
%TO.C,K47A1*%
X175635000Y-91122500D03*
D14*
X162185000Y-93662500D03*
%TD*%
D10*
%TO.C,K28*%
X89910000Y-72072500D03*
X76460000Y-74612500D03*
%TD*%
D16*
%TO.C,R58*%
X168338000Y-85598000D03*
X166688000Y-85598000D03*
%TD*%
D13*
%TO.C,R38*%
X200915000Y-64452500D03*
X202565000Y-64452500D03*
%TD*%
%TO.C,R26*%
X258065000Y-45402500D03*
X259715000Y-45402500D03*
%TD*%
D11*
%TO.C,KD10*%
X186375000Y-48465500D03*
X188275000Y-48465500D03*
X187325000Y-50340500D03*
%TD*%
D10*
%TO.C,K34*%
X204210000Y-72072500D03*
X190760000Y-74612500D03*
%TD*%
%TO.C,K30*%
X128010000Y-72072500D03*
X114560000Y-74612500D03*
%TD*%
D11*
%TO.C,KD9*%
X148275000Y-48465500D03*
X150175000Y-48465500D03*
X149225000Y-50340500D03*
%TD*%
D13*
%TO.C,R19*%
X124715000Y-45402500D03*
X126365000Y-45402500D03*
%TD*%
%TO.C,R36*%
X162815000Y-64452500D03*
X164465000Y-64452500D03*
%TD*%
D10*
%TO.C,K47*%
X170440000Y-86042500D03*
X183890000Y-83502500D03*
%TD*%
%TO.C,K23*%
X261360000Y-53022500D03*
X247910000Y-55562500D03*
%TD*%
D27*
%TO.C,R29*%
X245085624Y-70246876D03*
X244364376Y-70968124D03*
%TD*%
D11*
%TO.C,KD14*%
X72075000Y-67657500D03*
X73975000Y-67657500D03*
X73025000Y-69532500D03*
%TD*%
D13*
%TO.C,R34*%
X124690000Y-64452500D03*
X126340000Y-64452500D03*
%TD*%
%TO.C,R60*%
X48515000Y-45402500D03*
X50165000Y-45402500D03*
%TD*%
D10*
%TO.C,K39*%
X32760000Y-91122500D03*
X19310000Y-93662500D03*
%TD*%
D37*
%TO.C,U2*%
X35187500Y-52197500D03*
D38*
X35725000Y-52122500D03*
D37*
X36262500Y-52197500D03*
X36262500Y-53897500D03*
D38*
X35725000Y-53972500D03*
D37*
X35187500Y-53897500D03*
%TD*%
D13*
%TO.C,R65*%
X210122000Y-112712500D03*
X211772000Y-112712500D03*
%TD*%
D10*
%TO.C,K2*%
X61335000Y-33972500D03*
X47885000Y-36512500D03*
%TD*%
D13*
%TO.C,R46*%
X86615000Y-83502500D03*
X88265000Y-83502500D03*
%TD*%
%TO.C,R50*%
X160150000Y-91382500D03*
X161800000Y-91382500D03*
%TD*%
%TO.C,R20*%
X143740000Y-45402500D03*
X145390000Y-45402500D03*
%TD*%
D11*
%TO.C,KD18*%
X225491000Y-69420500D03*
X227391000Y-69420500D03*
X226441000Y-71295500D03*
%TD*%
D10*
%TO.C,K16*%
X128010000Y-53022500D03*
X114560000Y-55562500D03*
%TD*%
%TO.C,K4*%
X99435000Y-33972500D03*
X85985000Y-36512500D03*
%TD*%
D13*
%TO.C,R48*%
X122150000Y-91382500D03*
X123800000Y-91382500D03*
%TD*%
%TO.C,R14*%
X248540000Y-26352500D03*
X250190000Y-26352500D03*
%TD*%
%TO.C,R13*%
X229490000Y-26352500D03*
X231140000Y-26352500D03*
%TD*%
D10*
%TO.C,K24*%
X280410000Y-53022500D03*
X266960000Y-55562500D03*
%TD*%
D13*
%TO.C,R11*%
X191390000Y-26352500D03*
X193040000Y-26352500D03*
%TD*%
D10*
%TO.C,K46*%
X151390000Y-86042500D03*
D14*
X164840000Y-83502500D03*
%TD*%
D10*
%TO.C,K49*%
X223260000Y-91122500D03*
X209810000Y-93662500D03*
%TD*%
D39*
%TO.C,C2*%
X246585589Y-59805072D03*
X247264411Y-59126250D03*
%TD*%
D13*
%TO.C,R45*%
X67565000Y-83502500D03*
X69215000Y-83502500D03*
%TD*%
%TO.C,R41*%
X258065000Y-64452500D03*
X259715000Y-64452500D03*
%TD*%
D11*
%TO.C,KD26*%
X262575000Y-86707500D03*
X264475000Y-86707500D03*
X263525000Y-88582500D03*
%TD*%
%TO.C,KD20*%
X33975000Y-86707500D03*
X35875000Y-86707500D03*
X34925000Y-88582500D03*
%TD*%
D10*
%TO.C,K31*%
X147060000Y-72072500D03*
X133610000Y-74612500D03*
%TD*%
D13*
%TO.C,R16*%
X67565000Y-45402500D03*
X69215000Y-45402500D03*
%TD*%
D11*
%TO.C,KD15*%
X110175000Y-67657500D03*
X112075000Y-67657500D03*
X111125000Y-69532500D03*
%TD*%
D13*
%TO.C,R54*%
X239015000Y-83502500D03*
X240665000Y-83502500D03*
%TD*%
%TO.C,R51*%
X180150000Y-90487500D03*
X181800000Y-90487500D03*
%TD*%
D10*
%TO.C,K50*%
X242310000Y-91122500D03*
X228860000Y-93662500D03*
%TD*%
D22*
%TO.C,R4*%
X235000000Y-59682500D03*
X236020000Y-59682500D03*
%TD*%
D10*
%TO.C,K55A1*%
X141865000Y-105092500D03*
X155315000Y-102552500D03*
%TD*%
D40*
%TO.C,R5*%
X236020000Y-60732500D03*
X235000000Y-60732500D03*
%TD*%
D10*
%TO.C,K54*%
X120433750Y-105092500D03*
X133883750Y-102552500D03*
%TD*%
%TO.C,K20*%
X204210000Y-53022500D03*
X190760000Y-55562500D03*
%TD*%
%TO.C,K53*%
X84715000Y-105092500D03*
X98165000Y-102552500D03*
%TD*%
D13*
%TO.C,R22*%
X181865000Y-45402500D03*
X183515000Y-45402500D03*
%TD*%
D10*
%TO.C,K9*%
X251835000Y-33972500D03*
X238385000Y-36512500D03*
%TD*%
D12*
%TO.C,C5*%
X239314411Y-65608089D03*
X238635589Y-66286911D03*
%TD*%
D23*
%TO.C,K1*%
X32760000Y-33972500D03*
D10*
X19310000Y-36512500D03*
%TD*%
D13*
%TO.C,R6*%
X29465000Y-26352500D03*
X31115000Y-26352500D03*
%TD*%
%TO.C,R39*%
X219965000Y-64452500D03*
X221615000Y-64452500D03*
%TD*%
D10*
%TO.C,K56*%
X199015000Y-105092500D03*
X212465000Y-102552500D03*
%TD*%
D13*
%TO.C,R21*%
X162815000Y-45402500D03*
X164465000Y-45402500D03*
%TD*%
%TO.C,R64*%
X174308000Y-112712500D03*
X175958000Y-112712500D03*
%TD*%
D41*
%TO.C,J1*%
X31675000Y-48092500D03*
X32475000Y-48092500D03*
D42*
X33675000Y-48092500D03*
X34675000Y-48092500D03*
X35175000Y-48092500D03*
X36175000Y-48092500D03*
D41*
X37375000Y-48092500D03*
X38175000Y-48092500D03*
X38175000Y-48092500D03*
X37375000Y-48092500D03*
D42*
X36675000Y-48092500D03*
X35675000Y-48092500D03*
X34175000Y-48092500D03*
X33175000Y-48092500D03*
D41*
X32475000Y-48092500D03*
X31675000Y-48092500D03*
%TD*%
D16*
%TO.C,R40*%
X231838000Y-63563500D03*
X230188000Y-63563500D03*
%TD*%
D13*
%TO.C,R7*%
X58040000Y-26352500D03*
X59690000Y-26352500D03*
%TD*%
D10*
%TO.C,K17*%
X147060000Y-53022500D03*
X133610000Y-55562500D03*
%TD*%
%TO.C,K35*%
X223260000Y-72072500D03*
X209810000Y-74612500D03*
%TD*%
M02*
