%TF.GenerationSoftware,KiCad,Pcbnew,7.0.1-0*%
%TF.CreationDate,2023-07-02T14:27:39+03:00*%
%TF.ProjectId,30cent,33306365-6e74-42e6-9b69-6361645f7063,rev?*%
%TF.SameCoordinates,Original*%
%TF.FileFunction,Soldermask,Bot*%
%TF.FilePolarity,Negative*%
%FSLAX46Y46*%
G04 Gerber Fmt 4.6, Leading zero omitted, Abs format (unit mm)*
G04 Created by KiCad (PCBNEW 7.0.1-0) date 2023-07-02 14:27:39*
%MOMM*%
%LPD*%
G01*
G04 APERTURE LIST*
G04 Aperture macros list*
%AMRoundRect*
0 Rectangle with rounded corners*
0 $1 Rounding radius*
0 $2 $3 $4 $5 $6 $7 $8 $9 X,Y pos of 4 corners*
0 Add a 4 corners polygon primitive as box body*
4,1,4,$2,$3,$4,$5,$6,$7,$8,$9,$2,$3,0*
0 Add four circle primitives for the rounded corners*
1,1,$1+$1,$2,$3*
1,1,$1+$1,$4,$5*
1,1,$1+$1,$6,$7*
1,1,$1+$1,$8,$9*
0 Add four rect primitives between the rounded corners*
20,1,$1+$1,$2,$3,$4,$5,0*
20,1,$1+$1,$4,$5,$6,$7,0*
20,1,$1+$1,$6,$7,$8,$9,0*
20,1,$1+$1,$8,$9,$2,$3,0*%
%AMRotRect*
0 Rectangle, with rotation*
0 The origin of the aperture is its center*
0 $1 length*
0 $2 width*
0 $3 Rotation angle, in degrees counterclockwise*
0 Add horizontal line*
21,1,$1,$2,0,0,$3*%
G04 Aperture macros list end*
%ADD10C,0.300000*%
%ADD11C,0.400000*%
%ADD12R,1.800000X1.800000*%
%ADD13C,1.800000*%
%ADD14C,3.048000*%
%ADD15C,3.987800*%
%ADD16RoundRect,0.250000X-0.250000X-0.500000X0.250000X-0.500000X0.250000X0.500000X-0.250000X0.500000X0*%
%ADD17C,3.050000*%
%ADD18C,4.000000*%
%ADD19R,1.700000X1.700000*%
%ADD20O,1.700000X1.700000*%
%ADD21C,1.500000*%
%ADD22C,1.600000*%
%ADD23O,2.000000X3.200000*%
%ADD24C,2.000000*%
%ADD25C,1.700000*%
%ADD26C,3.000000*%
%ADD27C,1.200000*%
%ADD28R,2.550000X2.500000*%
%ADD29RoundRect,0.150000X-0.150000X0.587500X-0.150000X-0.587500X0.150000X-0.587500X0.150000X0.587500X0*%
%ADD30RoundRect,0.140000X-0.021213X0.219203X-0.219203X0.021213X0.021213X-0.219203X0.219203X-0.021213X0*%
%ADD31RoundRect,0.200000X-0.200000X-0.275000X0.200000X-0.275000X0.200000X0.275000X-0.200000X0.275000X0*%
%ADD32R,2.300000X2.500000*%
%ADD33R,1.500000X1.500000*%
%ADD34RoundRect,0.150000X0.587500X0.150000X-0.587500X0.150000X-0.587500X-0.150000X0.587500X-0.150000X0*%
%ADD35RoundRect,0.200000X0.200000X0.275000X-0.200000X0.275000X-0.200000X-0.275000X0.200000X-0.275000X0*%
%ADD36RoundRect,0.200000X-0.275000X0.200000X-0.275000X-0.200000X0.275000X-0.200000X0.275000X0.200000X0*%
%ADD37RoundRect,0.140000X0.219203X0.021213X0.021213X0.219203X-0.219203X-0.021213X-0.021213X-0.219203X0*%
%ADD38RoundRect,0.062500X-0.380070X0.291682X0.291682X-0.380070X0.380070X-0.291682X-0.291682X0.380070X0*%
%ADD39RoundRect,0.062500X-0.380070X-0.291682X-0.291682X-0.380070X0.380070X0.291682X0.291682X0.380070X0*%
%ADD40RotRect,5.200000X5.200000X315.000000*%
%ADD41RoundRect,0.135000X-0.135000X-0.185000X0.135000X-0.185000X0.135000X0.185000X-0.135000X0.185000X0*%
%ADD42RoundRect,0.575000X-0.700000X-0.575000X0.700000X-0.575000X0.700000X0.575000X-0.700000X0.575000X0*%
%ADD43RoundRect,0.135000X0.185000X-0.135000X0.185000X0.135000X-0.185000X0.135000X-0.185000X-0.135000X0*%
%ADD44R,1.500000X2.000000*%
%ADD45R,3.800000X2.000000*%
%ADD46RoundRect,0.135000X-0.035355X0.226274X-0.226274X0.035355X0.035355X-0.226274X0.226274X-0.035355X0*%
%ADD47RoundRect,0.218750X0.381250X-0.218750X0.381250X0.218750X-0.381250X0.218750X-0.381250X-0.218750X0*%
%ADD48R,1.700000X1.000000*%
%ADD49RoundRect,0.243750X0.243750X0.456250X-0.243750X0.456250X-0.243750X-0.456250X0.243750X-0.456250X0*%
%ADD50RoundRect,0.150000X0.625000X-0.150000X0.625000X0.150000X-0.625000X0.150000X-0.625000X-0.150000X0*%
%ADD51RoundRect,0.250000X0.650000X-0.350000X0.650000X0.350000X-0.650000X0.350000X-0.650000X-0.350000X0*%
%ADD52RoundRect,0.140000X-0.219203X-0.021213X-0.021213X-0.219203X0.219203X0.021213X0.021213X0.219203X0*%
%ADD53R,0.250000X1.100000*%
%ADD54R,1.700000X1.500000*%
%ADD55RotRect,0.400000X1.900000X135.000000*%
%ADD56R,0.375000X0.500000*%
%ADD57R,0.300000X0.650000*%
%ADD58RoundRect,0.140000X0.021213X-0.219203X0.219203X-0.021213X-0.021213X0.219203X-0.219203X0.021213X0*%
%ADD59RoundRect,0.135000X0.135000X0.185000X-0.135000X0.185000X-0.135000X-0.185000X0.135000X-0.185000X0*%
%ADD60C,2.950000*%
%ADD61C,0.650000*%
%ADD62R,0.600000X1.450000*%
%ADD63R,0.300000X1.450000*%
%ADD64O,1.000000X1.600000*%
%ADD65O,1.000000X2.100000*%
G04 APERTURE END LIST*
D10*
G36*
X36129918Y-76479586D02*
G01*
X36129918Y-76669607D01*
X36108790Y-76669607D01*
X36087233Y-76669607D01*
X36065247Y-76669607D01*
X36042831Y-76669607D01*
X36019985Y-76669607D01*
X35996711Y-76669607D01*
X35987281Y-76669607D01*
X35965123Y-76669973D01*
X35943347Y-76671072D01*
X35921953Y-76672904D01*
X35900941Y-76675469D01*
X35880310Y-76678766D01*
X35860061Y-76682796D01*
X35840193Y-76687559D01*
X35820707Y-76693054D01*
X35801748Y-76699305D01*
X35783460Y-76706335D01*
X35761545Y-76716217D01*
X35740679Y-76727315D01*
X35720863Y-76739630D01*
X35702097Y-76753161D01*
X35687839Y-76764862D01*
X35670973Y-76780370D01*
X35655181Y-76796976D01*
X35640462Y-76814679D01*
X35626816Y-76833479D01*
X35614244Y-76853376D01*
X35602745Y-76874370D01*
X35598446Y-76883075D01*
X35588736Y-76905405D01*
X35582153Y-76923991D01*
X35576623Y-76943217D01*
X35572146Y-76963085D01*
X35568723Y-76983594D01*
X35566353Y-77004743D01*
X35565037Y-77026534D01*
X35564740Y-77043299D01*
X35565290Y-77065006D01*
X35566939Y-77086163D01*
X35569686Y-77106771D01*
X35573533Y-77126830D01*
X35578479Y-77146338D01*
X35584524Y-77165298D01*
X35591668Y-77183708D01*
X35599911Y-77201568D01*
X35611346Y-77222872D01*
X35623973Y-77243127D01*
X35637793Y-77262333D01*
X35652805Y-77280489D01*
X35669010Y-77297595D01*
X35686408Y-77313652D01*
X35693701Y-77319781D01*
X35712508Y-77334217D01*
X35732293Y-77347602D01*
X35753056Y-77359938D01*
X35770370Y-77369052D01*
X35788311Y-77377493D01*
X35806877Y-77385263D01*
X35826069Y-77392362D01*
X35830965Y-77394031D01*
X35850642Y-77400099D01*
X35870594Y-77405358D01*
X35890820Y-77409808D01*
X35911321Y-77413449D01*
X35932097Y-77416280D01*
X35953148Y-77418303D01*
X35974473Y-77419516D01*
X35996073Y-77419921D01*
X36021215Y-77419446D01*
X36045594Y-77418020D01*
X36069209Y-77415645D01*
X36092061Y-77412319D01*
X36114149Y-77408043D01*
X36135475Y-77402816D01*
X36156037Y-77396640D01*
X36175836Y-77389513D01*
X36194872Y-77381436D01*
X36213144Y-77372408D01*
X36230653Y-77362430D01*
X36247399Y-77351502D01*
X36263382Y-77339624D01*
X36278601Y-77326796D01*
X36293057Y-77313017D01*
X36306750Y-77298288D01*
X36319666Y-77282746D01*
X36331793Y-77266651D01*
X36343129Y-77250002D01*
X36353675Y-77232800D01*
X36363432Y-77215045D01*
X36372398Y-77196736D01*
X36380575Y-77177874D01*
X36387961Y-77158459D01*
X36394557Y-77138490D01*
X36400364Y-77117968D01*
X36405380Y-77096893D01*
X36409607Y-77075264D01*
X36413044Y-77053082D01*
X36415690Y-77030346D01*
X36417547Y-77007057D01*
X36418613Y-76983215D01*
X36656506Y-76983215D01*
X36656626Y-77011774D01*
X36655888Y-77039749D01*
X36654291Y-77067141D01*
X36651835Y-77093948D01*
X36648520Y-77120172D01*
X36644347Y-77145812D01*
X36639315Y-77170868D01*
X36633425Y-77195340D01*
X36626676Y-77219228D01*
X36619068Y-77242532D01*
X36613519Y-77257744D01*
X36604462Y-77279975D01*
X36594692Y-77301604D01*
X36584209Y-77322633D01*
X36573013Y-77343061D01*
X36561105Y-77362887D01*
X36548484Y-77382113D01*
X36535150Y-77400737D01*
X36521104Y-77418761D01*
X36506345Y-77436183D01*
X36490873Y-77453004D01*
X36480163Y-77463885D01*
X36463542Y-77479640D01*
X36446285Y-77494665D01*
X36428394Y-77508960D01*
X36409866Y-77522526D01*
X36390704Y-77535362D01*
X36370906Y-77547467D01*
X36350473Y-77558843D01*
X36329404Y-77569489D01*
X36307700Y-77579405D01*
X36285360Y-77588592D01*
X36270114Y-77594310D01*
X36246784Y-77602254D01*
X36222956Y-77609417D01*
X36198630Y-77615799D01*
X36173806Y-77621398D01*
X36148484Y-77626217D01*
X36122664Y-77630254D01*
X36096345Y-77633510D01*
X36069529Y-77635984D01*
X36042215Y-77637677D01*
X36014403Y-77638589D01*
X35995585Y-77638763D01*
X35969523Y-77638432D01*
X35943727Y-77637440D01*
X35918198Y-77635787D01*
X35892934Y-77633473D01*
X35867937Y-77630498D01*
X35843206Y-77626861D01*
X35818741Y-77622564D01*
X35794542Y-77617605D01*
X35770610Y-77611985D01*
X35746944Y-77605704D01*
X35731314Y-77601149D01*
X35708242Y-77593766D01*
X35685736Y-77585722D01*
X35663797Y-77577016D01*
X35642425Y-77567650D01*
X35621619Y-77557622D01*
X35601381Y-77546933D01*
X35581709Y-77535583D01*
X35562603Y-77523572D01*
X35544065Y-77510899D01*
X35526093Y-77497565D01*
X35514426Y-77488309D01*
X35497446Y-77473873D01*
X35481127Y-77458777D01*
X35465470Y-77443019D01*
X35450473Y-77426600D01*
X35436138Y-77409519D01*
X35422463Y-77391778D01*
X35409450Y-77373375D01*
X35397098Y-77354311D01*
X35385408Y-77334586D01*
X35374378Y-77314200D01*
X35367392Y-77300242D01*
X35357615Y-77278688D01*
X35348799Y-77256524D01*
X35340945Y-77233751D01*
X35334053Y-77210368D01*
X35328123Y-77186376D01*
X35323154Y-77161773D01*
X35319147Y-77136562D01*
X35316101Y-77110740D01*
X35314018Y-77084309D01*
X35312896Y-77057268D01*
X35312682Y-77038902D01*
X35313027Y-77016800D01*
X35314063Y-76995068D01*
X35315790Y-76973706D01*
X35318208Y-76952715D01*
X35321316Y-76932094D01*
X35325115Y-76911842D01*
X35329605Y-76891961D01*
X35334786Y-76872451D01*
X35340657Y-76853310D01*
X35347219Y-76834540D01*
X35354472Y-76816139D01*
X35362416Y-76798109D01*
X35371050Y-76780449D01*
X35380375Y-76763160D01*
X35390391Y-76746240D01*
X35401098Y-76729691D01*
X35412455Y-76713626D01*
X35430865Y-76690881D01*
X35450923Y-76669760D01*
X35472630Y-76650261D01*
X35488018Y-76638163D01*
X35504138Y-76626787D01*
X35520990Y-76616132D01*
X35538576Y-76606198D01*
X35556894Y-76596985D01*
X35575945Y-76588494D01*
X35595729Y-76580724D01*
X35616245Y-76573675D01*
X35637494Y-76567348D01*
X35659476Y-76561742D01*
X35670742Y-76559209D01*
X35670742Y-76553836D01*
X35649103Y-76543214D01*
X35628152Y-76531682D01*
X35607887Y-76519240D01*
X35588310Y-76505888D01*
X35569419Y-76491625D01*
X35551215Y-76476453D01*
X35533699Y-76460370D01*
X35516869Y-76443377D01*
X35500726Y-76425474D01*
X35485270Y-76406660D01*
X35475348Y-76393613D01*
X35461293Y-76373463D01*
X35448620Y-76352763D01*
X35437330Y-76331514D01*
X35427423Y-76309715D01*
X35418897Y-76287367D01*
X35411755Y-76264469D01*
X35405995Y-76241022D01*
X35401617Y-76217025D01*
X35398621Y-76192479D01*
X35397009Y-76167383D01*
X35396701Y-76150347D01*
X35397109Y-76124386D01*
X35398333Y-76099079D01*
X35400372Y-76074423D01*
X35403227Y-76050421D01*
X35406898Y-76027071D01*
X35411385Y-76004373D01*
X35416687Y-75982329D01*
X35422805Y-75960936D01*
X35429739Y-75940197D01*
X35437488Y-75920110D01*
X35443107Y-75907081D01*
X35452030Y-75888086D01*
X35461580Y-75869752D01*
X35471757Y-75852079D01*
X35482560Y-75835067D01*
X35493991Y-75818717D01*
X35506048Y-75803028D01*
X35518732Y-75788000D01*
X35532042Y-75773633D01*
X35545980Y-75759927D01*
X35560544Y-75746882D01*
X35570602Y-75738553D01*
X35586064Y-75726480D01*
X35602041Y-75714991D01*
X35618533Y-75704086D01*
X35635540Y-75693765D01*
X35653063Y-75684028D01*
X35671101Y-75674875D01*
X35689653Y-75666305D01*
X35708722Y-75658319D01*
X35728305Y-75650918D01*
X35748403Y-75644100D01*
X35762089Y-75639879D01*
X35782951Y-75633943D01*
X35804140Y-75628591D01*
X35825656Y-75623822D01*
X35847497Y-75619637D01*
X35869665Y-75616037D01*
X35892159Y-75613020D01*
X35914980Y-75610587D01*
X35938127Y-75608738D01*
X35961600Y-75607473D01*
X35985399Y-75606792D01*
X36001447Y-75606662D01*
X36028981Y-75607100D01*
X36055898Y-75608414D01*
X36082196Y-75610603D01*
X36107875Y-75613669D01*
X36132937Y-75617610D01*
X36157380Y-75622427D01*
X36181206Y-75628120D01*
X36204412Y-75634689D01*
X36227001Y-75642134D01*
X36248972Y-75650454D01*
X36263275Y-75656488D01*
X36284194Y-75666065D01*
X36304451Y-75676294D01*
X36324047Y-75687176D01*
X36342982Y-75698711D01*
X36361256Y-75710898D01*
X36378869Y-75723738D01*
X36395820Y-75737231D01*
X36412110Y-75751376D01*
X36427740Y-75766174D01*
X36442708Y-75781624D01*
X36452319Y-75792287D01*
X36466123Y-75808773D01*
X36479327Y-75825809D01*
X36491929Y-75843394D01*
X36503931Y-75861530D01*
X36515331Y-75880214D01*
X36526130Y-75899448D01*
X36536328Y-75919232D01*
X36545925Y-75939565D01*
X36554921Y-75960448D01*
X36563316Y-75981880D01*
X36568579Y-75996474D01*
X36575871Y-76018683D01*
X36582546Y-76041348D01*
X36588603Y-76064467D01*
X36594041Y-76088042D01*
X36598861Y-76112072D01*
X36603063Y-76136556D01*
X36606646Y-76161496D01*
X36609611Y-76186892D01*
X36611958Y-76212742D01*
X36613687Y-76239047D01*
X36614496Y-76256837D01*
X36376604Y-76256837D01*
X36376253Y-76235236D01*
X36375199Y-76213911D01*
X36373444Y-76192860D01*
X36370986Y-76172084D01*
X36367826Y-76151583D01*
X36363964Y-76131357D01*
X36359400Y-76111405D01*
X36354133Y-76091728D01*
X36348149Y-76072380D01*
X36341433Y-76053657D01*
X36333983Y-76035560D01*
X36323641Y-76013819D01*
X36312154Y-75993056D01*
X36299522Y-75973271D01*
X36285745Y-75954464D01*
X36270635Y-75936589D01*
X36254309Y-75919907D01*
X36236766Y-75904418D01*
X36218006Y-75890121D01*
X36198030Y-75877017D01*
X36176838Y-75865105D01*
X36168020Y-75860675D01*
X36149817Y-75852431D01*
X36130865Y-75845287D01*
X36111165Y-75839242D01*
X36090717Y-75834296D01*
X36069522Y-75830450D01*
X36047578Y-75827702D01*
X36024886Y-75826053D01*
X36001447Y-75825504D01*
X35973587Y-75826221D01*
X35946612Y-75828372D01*
X35920522Y-75831957D01*
X35895315Y-75836975D01*
X35870994Y-75843428D01*
X35847556Y-75851315D01*
X35825004Y-75860636D01*
X35803335Y-75871391D01*
X35782551Y-75883580D01*
X35762652Y-75897202D01*
X35749877Y-75907081D01*
X35731806Y-75923002D01*
X35715513Y-75940357D01*
X35700997Y-75959146D01*
X35688259Y-75979369D01*
X35677298Y-76001026D01*
X35668114Y-76024117D01*
X35660708Y-76048642D01*
X35655080Y-76074601D01*
X35651229Y-76101994D01*
X35649155Y-76130821D01*
X35648760Y-76150835D01*
X35649241Y-76170596D01*
X35651194Y-76194546D01*
X35654650Y-76217660D01*
X35659609Y-76239940D01*
X35666071Y-76261386D01*
X35674035Y-76281996D01*
X35679535Y-76293961D01*
X35689664Y-76312988D01*
X35700820Y-76330989D01*
X35713001Y-76347964D01*
X35726208Y-76363914D01*
X35740440Y-76378838D01*
X35755698Y-76392737D01*
X35762089Y-76398009D01*
X35778687Y-76410355D01*
X35796120Y-76421746D01*
X35814389Y-76432184D01*
X35833492Y-76441667D01*
X35853429Y-76450197D01*
X35874202Y-76457772D01*
X35882745Y-76460535D01*
X35904283Y-76466727D01*
X35926155Y-76471869D01*
X35948361Y-76475962D01*
X35970901Y-76479006D01*
X35993775Y-76481000D01*
X36016983Y-76481945D01*
X36026359Y-76482028D01*
X36077162Y-76482028D01*
X36097076Y-76482028D01*
X36105006Y-76482028D01*
X36124875Y-76480416D01*
X36129918Y-76479586D01*
G37*
G36*
X34435498Y-75607061D02*
G01*
X34463203Y-75608259D01*
X34490144Y-75610256D01*
X34516320Y-75613051D01*
X34541733Y-75616644D01*
X34566381Y-75621036D01*
X34590264Y-75626227D01*
X34613384Y-75632216D01*
X34635739Y-75639004D01*
X34657331Y-75646590D01*
X34671300Y-75652091D01*
X34691669Y-75660792D01*
X34711377Y-75670043D01*
X34730424Y-75679843D01*
X34748809Y-75690193D01*
X34766533Y-75701092D01*
X34783596Y-75712541D01*
X34799998Y-75724540D01*
X34815739Y-75737088D01*
X34830819Y-75750185D01*
X34845237Y-75763832D01*
X34854482Y-75773236D01*
X34867859Y-75787747D01*
X34880694Y-75802705D01*
X34892989Y-75818110D01*
X34904743Y-75833961D01*
X34915956Y-75850258D01*
X34926627Y-75867002D01*
X34936758Y-75884193D01*
X34946348Y-75901830D01*
X34955397Y-75919913D01*
X34963905Y-75938443D01*
X34969276Y-75951045D01*
X34976981Y-75970194D01*
X34984343Y-75989541D01*
X34991361Y-76009086D01*
X34998036Y-76028828D01*
X35004367Y-76048768D01*
X35010355Y-76068905D01*
X35015999Y-76089240D01*
X35021300Y-76109772D01*
X35026257Y-76130501D01*
X35030871Y-76151429D01*
X35033756Y-76165490D01*
X35037824Y-76186699D01*
X35041599Y-76208011D01*
X35045082Y-76229426D01*
X35048274Y-76250944D01*
X35051173Y-76272565D01*
X35053781Y-76294290D01*
X35056096Y-76316117D01*
X35058120Y-76338047D01*
X35059851Y-76360081D01*
X35061291Y-76382217D01*
X35062089Y-76397032D01*
X35063049Y-76419128D01*
X35063915Y-76441087D01*
X35064686Y-76462909D01*
X35065363Y-76484593D01*
X35065945Y-76506140D01*
X35066434Y-76527549D01*
X35066827Y-76548821D01*
X35067126Y-76569956D01*
X35067331Y-76590953D01*
X35067441Y-76611813D01*
X35067462Y-76625643D01*
X35067415Y-76646329D01*
X35067273Y-76667168D01*
X35067037Y-76688163D01*
X35066706Y-76709312D01*
X35066281Y-76730615D01*
X35065762Y-76752073D01*
X35065148Y-76773686D01*
X35064439Y-76795453D01*
X35063637Y-76817375D01*
X35062739Y-76839451D01*
X35062089Y-76854255D01*
X35060844Y-76876377D01*
X35059307Y-76898413D01*
X35057478Y-76920363D01*
X35055357Y-76942228D01*
X35052944Y-76964006D01*
X35050239Y-76985699D01*
X35047242Y-77007306D01*
X35043954Y-77028827D01*
X35040373Y-77050262D01*
X35036500Y-77071612D01*
X35033756Y-77085797D01*
X35029372Y-77106843D01*
X35024643Y-77127665D01*
X35019571Y-77148265D01*
X35014156Y-77168641D01*
X35008397Y-77188794D01*
X35002295Y-77208723D01*
X34995849Y-77228430D01*
X34989060Y-77247913D01*
X34981927Y-77267173D01*
X34974451Y-77286209D01*
X34969276Y-77298777D01*
X34961129Y-77317342D01*
X34952441Y-77335487D01*
X34943212Y-77353212D01*
X34933441Y-77370515D01*
X34923130Y-77387398D01*
X34912278Y-77403860D01*
X34900885Y-77419901D01*
X34888951Y-77435522D01*
X34876476Y-77450722D01*
X34863460Y-77465501D01*
X34854482Y-77475120D01*
X34840505Y-77489125D01*
X34825866Y-77502563D01*
X34810566Y-77515434D01*
X34794605Y-77527739D01*
X34777982Y-77539477D01*
X34760699Y-77550648D01*
X34742754Y-77561253D01*
X34724148Y-77571290D01*
X34704881Y-77580762D01*
X34684953Y-77589666D01*
X34671300Y-77595287D01*
X34650218Y-77603057D01*
X34628373Y-77610062D01*
X34605762Y-77616303D01*
X34582388Y-77621780D01*
X34558250Y-77626493D01*
X34533347Y-77630441D01*
X34507680Y-77633625D01*
X34481249Y-77636045D01*
X34454053Y-77637701D01*
X34426094Y-77638593D01*
X34407029Y-77638763D01*
X34378049Y-77638380D01*
X34349911Y-77637234D01*
X34322614Y-77635324D01*
X34296158Y-77632649D01*
X34270544Y-77629210D01*
X34245772Y-77625007D01*
X34221841Y-77620039D01*
X34198751Y-77614308D01*
X34176503Y-77607812D01*
X34155097Y-77600552D01*
X34141293Y-77595287D01*
X34121099Y-77586761D01*
X34101548Y-77577668D01*
X34082642Y-77568008D01*
X34064380Y-77557781D01*
X34046761Y-77546987D01*
X34029787Y-77535627D01*
X34013456Y-77523700D01*
X33997770Y-77511207D01*
X33982728Y-77498146D01*
X33968329Y-77484519D01*
X33959088Y-77475120D01*
X33945711Y-77460621D01*
X33932876Y-77445702D01*
X33920581Y-77430362D01*
X33908827Y-77414601D01*
X33897615Y-77398420D01*
X33886943Y-77381817D01*
X33876812Y-77364794D01*
X33867222Y-77347350D01*
X33858173Y-77329486D01*
X33849665Y-77311200D01*
X33844294Y-77298777D01*
X33836589Y-77279889D01*
X33829227Y-77260778D01*
X33822209Y-77241443D01*
X33815534Y-77221886D01*
X33809203Y-77202105D01*
X33803215Y-77182101D01*
X33797571Y-77161874D01*
X33792270Y-77141423D01*
X33787313Y-77120749D01*
X33782699Y-77099852D01*
X33779814Y-77085797D01*
X33775751Y-77064505D01*
X33771988Y-77043127D01*
X33768527Y-77021663D01*
X33765365Y-77000113D01*
X33762504Y-76978478D01*
X33759944Y-76956756D01*
X33757684Y-76934949D01*
X33755725Y-76913056D01*
X33754067Y-76891077D01*
X33752708Y-76869012D01*
X33751970Y-76854255D01*
X33750922Y-76832075D01*
X33749978Y-76810050D01*
X33749136Y-76788180D01*
X33748398Y-76766465D01*
X33747763Y-76744903D01*
X33747230Y-76723497D01*
X33746801Y-76702245D01*
X33746475Y-76681147D01*
X33746251Y-76660205D01*
X33746131Y-76639416D01*
X33746108Y-76625643D01*
X33746119Y-76621247D01*
X33998167Y-76621247D01*
X33998231Y-76642453D01*
X33998424Y-76664123D01*
X33998746Y-76686257D01*
X33999197Y-76708854D01*
X33999777Y-76731915D01*
X34000485Y-76755439D01*
X34001322Y-76779428D01*
X34002288Y-76803879D01*
X34003383Y-76828795D01*
X34004607Y-76854174D01*
X34005494Y-76871352D01*
X34007047Y-76897126D01*
X34009141Y-76922608D01*
X34011775Y-76947799D01*
X34014951Y-76972697D01*
X34018667Y-76997304D01*
X34022925Y-77021618D01*
X34027724Y-77045641D01*
X34033063Y-77069371D01*
X34038943Y-77092810D01*
X34045365Y-77115957D01*
X34049946Y-77131226D01*
X34057407Y-77153614D01*
X34065683Y-77175350D01*
X34074775Y-77196433D01*
X34084682Y-77216864D01*
X34095406Y-77236642D01*
X34106945Y-77255767D01*
X34119299Y-77274240D01*
X34132470Y-77292060D01*
X34146456Y-77309227D01*
X34161258Y-77325742D01*
X34171579Y-77336390D01*
X34187925Y-77351318D01*
X34205456Y-77364777D01*
X34224173Y-77376769D01*
X34244074Y-77387292D01*
X34265160Y-77396346D01*
X34287430Y-77403933D01*
X34310886Y-77410051D01*
X34335527Y-77414700D01*
X34361353Y-77417882D01*
X34388364Y-77419595D01*
X34407029Y-77419921D01*
X34434743Y-77419187D01*
X34461280Y-77416984D01*
X34486641Y-77413314D01*
X34510825Y-77408174D01*
X34533833Y-77401567D01*
X34555664Y-77393491D01*
X34576320Y-77383947D01*
X34595799Y-77372935D01*
X34614101Y-77360454D01*
X34631227Y-77346505D01*
X34641991Y-77336390D01*
X34657337Y-77320310D01*
X34671867Y-77303577D01*
X34685581Y-77286192D01*
X34698480Y-77268155D01*
X34710563Y-77249464D01*
X34721830Y-77230121D01*
X34732281Y-77210126D01*
X34741917Y-77189478D01*
X34750737Y-77168177D01*
X34758741Y-77146224D01*
X34763624Y-77131226D01*
X34770410Y-77108274D01*
X34776664Y-77085030D01*
X34782386Y-77061494D01*
X34787575Y-77037666D01*
X34792232Y-77013546D01*
X34796356Y-76989134D01*
X34799948Y-76964430D01*
X34803008Y-76939434D01*
X34805535Y-76914147D01*
X34807530Y-76888567D01*
X34808565Y-76871352D01*
X34809787Y-76845663D01*
X34810889Y-76820438D01*
X34811870Y-76795677D01*
X34812732Y-76771380D01*
X34813473Y-76747546D01*
X34814094Y-76724176D01*
X34814595Y-76701270D01*
X34814976Y-76678827D01*
X34815236Y-76656848D01*
X34815377Y-76635333D01*
X34815403Y-76621247D01*
X34815368Y-76598273D01*
X34815260Y-76574535D01*
X34815123Y-76554996D01*
X34814940Y-76534968D01*
X34814711Y-76514452D01*
X34814436Y-76493447D01*
X34814115Y-76471953D01*
X34813938Y-76461024D01*
X34813404Y-76438927D01*
X34812534Y-76416846D01*
X34811328Y-76394780D01*
X34809786Y-76372730D01*
X34807908Y-76350695D01*
X34805695Y-76328674D01*
X34803145Y-76306670D01*
X34800260Y-76284680D01*
X34796910Y-76262767D01*
X34793208Y-76240991D01*
X34789155Y-76219353D01*
X34784751Y-76197852D01*
X34779996Y-76176488D01*
X34774890Y-76155262D01*
X34769432Y-76134173D01*
X34763624Y-76113222D01*
X34757296Y-76092553D01*
X34750282Y-76072555D01*
X34742581Y-76053230D01*
X34734193Y-76034576D01*
X34725117Y-76016593D01*
X34715355Y-75999282D01*
X34704906Y-75982643D01*
X34693770Y-75966676D01*
X34678696Y-75947568D01*
X34662477Y-75929629D01*
X34645113Y-75912859D01*
X34626604Y-75897258D01*
X34606950Y-75882825D01*
X34590402Y-75872120D01*
X34577511Y-75864583D01*
X34559567Y-75855423D01*
X34540661Y-75847486D01*
X34520793Y-75840769D01*
X34499964Y-75835273D01*
X34478173Y-75830999D01*
X34455420Y-75827946D01*
X34431705Y-75826114D01*
X34407029Y-75825504D01*
X34382239Y-75826114D01*
X34358425Y-75827946D01*
X34335588Y-75830999D01*
X34313729Y-75835273D01*
X34292846Y-75840769D01*
X34272940Y-75847486D01*
X34254011Y-75855423D01*
X34236059Y-75864583D01*
X34218970Y-75874726D01*
X34202629Y-75885618D01*
X34183254Y-75900284D01*
X34165048Y-75916120D01*
X34148010Y-75933124D01*
X34132142Y-75951296D01*
X34120288Y-75966676D01*
X34106335Y-75986740D01*
X34095962Y-76003547D01*
X34086292Y-76021026D01*
X34077323Y-76039176D01*
X34069057Y-76057998D01*
X34061493Y-76077492D01*
X34054632Y-76097657D01*
X34049946Y-76113222D01*
X34044146Y-76134173D01*
X34038711Y-76155262D01*
X34033643Y-76176488D01*
X34028941Y-76197852D01*
X34024606Y-76219353D01*
X34020637Y-76240991D01*
X34017035Y-76262767D01*
X34013798Y-76284680D01*
X34010799Y-76306670D01*
X34008150Y-76328674D01*
X34005853Y-76350695D01*
X34003907Y-76372730D01*
X34002311Y-76394780D01*
X34001067Y-76416846D01*
X34000174Y-76438927D01*
X33999632Y-76461024D01*
X33999289Y-76482761D01*
X33998991Y-76504010D01*
X33998739Y-76524771D01*
X33998533Y-76545043D01*
X33998373Y-76564827D01*
X33998237Y-76588869D01*
X33998173Y-76612149D01*
X33998167Y-76621247D01*
X33746119Y-76621247D01*
X33746160Y-76604875D01*
X33746314Y-76583969D01*
X33746572Y-76562926D01*
X33746933Y-76541746D01*
X33747396Y-76520428D01*
X33747963Y-76498973D01*
X33748633Y-76477380D01*
X33749405Y-76455650D01*
X33750281Y-76433783D01*
X33751260Y-76411778D01*
X33751970Y-76397032D01*
X33753128Y-76374827D01*
X33754586Y-76352725D01*
X33756345Y-76330726D01*
X33758404Y-76308830D01*
X33760764Y-76287037D01*
X33763425Y-76265347D01*
X33766386Y-76243760D01*
X33769647Y-76222276D01*
X33773209Y-76200895D01*
X33777072Y-76179618D01*
X33779814Y-76165490D01*
X33784199Y-76144431D01*
X33788927Y-76123570D01*
X33793999Y-76102906D01*
X33799414Y-76082440D01*
X33805173Y-76062171D01*
X33811275Y-76042099D01*
X33817721Y-76022226D01*
X33824510Y-76002549D01*
X33831643Y-75983070D01*
X33839119Y-75963789D01*
X33844294Y-75951045D01*
X33852441Y-75932217D01*
X33861129Y-75913836D01*
X33870359Y-75895901D01*
X33880129Y-75878413D01*
X33890440Y-75861371D01*
X33901292Y-75844776D01*
X33912685Y-75828627D01*
X33924619Y-75812925D01*
X33937094Y-75797670D01*
X33950110Y-75782860D01*
X33959088Y-75773236D01*
X33973066Y-75759222D01*
X33987704Y-75745758D01*
X34003004Y-75732844D01*
X34018966Y-75720479D01*
X34035588Y-75708664D01*
X34052871Y-75697398D01*
X34070816Y-75686682D01*
X34089422Y-75676516D01*
X34108689Y-75666898D01*
X34128617Y-75657831D01*
X34142270Y-75652091D01*
X34163356Y-75643973D01*
X34185215Y-75636652D01*
X34207846Y-75630131D01*
X34231251Y-75624408D01*
X34255428Y-75619483D01*
X34280378Y-75615358D01*
X34306101Y-75612030D01*
X34332596Y-75609501D01*
X34359865Y-75607771D01*
X34387906Y-75606840D01*
X34407029Y-75606662D01*
X34435498Y-75607061D01*
G37*
G36*
X32145829Y-75630598D02*
G01*
X32171364Y-75618929D01*
X32197595Y-75608101D01*
X32224522Y-75598115D01*
X32252143Y-75588970D01*
X32270944Y-75583341D01*
X32290054Y-75578086D01*
X32309474Y-75573205D01*
X32329202Y-75568698D01*
X32349239Y-75564565D01*
X32369586Y-75560806D01*
X32390242Y-75557420D01*
X32411207Y-75554409D01*
X32432480Y-75551772D01*
X32454064Y-75549509D01*
X32375417Y-75325294D01*
X32582535Y-75325294D01*
X32661181Y-75549998D01*
X32684995Y-75551982D01*
X32708502Y-75554455D01*
X32731702Y-75557417D01*
X32754597Y-75560867D01*
X32777185Y-75564805D01*
X32799467Y-75569232D01*
X32821442Y-75574147D01*
X32843112Y-75579551D01*
X32864475Y-75585443D01*
X32885532Y-75591824D01*
X32906283Y-75598694D01*
X32926727Y-75606051D01*
X32946865Y-75613898D01*
X32966697Y-75622233D01*
X32986222Y-75631056D01*
X33005442Y-75640368D01*
X33024355Y-75650168D01*
X33042962Y-75660457D01*
X33061262Y-75671234D01*
X33079257Y-75682500D01*
X33096945Y-75694254D01*
X33114326Y-75706496D01*
X33131402Y-75719228D01*
X33148171Y-75732447D01*
X33164634Y-75746155D01*
X33180791Y-75760352D01*
X33196641Y-75775037D01*
X33212186Y-75790211D01*
X33227424Y-75805873D01*
X33242355Y-75822023D01*
X33256981Y-75838662D01*
X33271300Y-75855790D01*
X33285786Y-75873687D01*
X33299812Y-75891901D01*
X33313378Y-75910434D01*
X33326484Y-75929284D01*
X33339130Y-75948452D01*
X33351316Y-75967937D01*
X33363043Y-75987741D01*
X33374310Y-76007862D01*
X33385116Y-76028300D01*
X33395463Y-76049056D01*
X33405350Y-76070131D01*
X33414778Y-76091522D01*
X33423745Y-76113232D01*
X33432252Y-76135259D01*
X33440300Y-76157604D01*
X33447888Y-76180266D01*
X33455016Y-76203247D01*
X33461684Y-76226545D01*
X33467892Y-76250160D01*
X33473640Y-76274094D01*
X33478928Y-76298345D01*
X33483757Y-76322914D01*
X33488126Y-76347800D01*
X33492035Y-76373005D01*
X33495484Y-76398527D01*
X33498473Y-76424366D01*
X33501002Y-76450524D01*
X33503071Y-76476999D01*
X33504681Y-76503791D01*
X33505830Y-76530902D01*
X33506520Y-76558330D01*
X33506750Y-76586076D01*
X33506548Y-76615887D01*
X33505941Y-76645297D01*
X33504930Y-76674307D01*
X33503514Y-76702916D01*
X33501694Y-76731124D01*
X33499469Y-76758931D01*
X33496839Y-76786338D01*
X33493805Y-76813344D01*
X33490367Y-76839949D01*
X33486524Y-76866154D01*
X33482276Y-76891958D01*
X33477624Y-76917361D01*
X33472568Y-76942363D01*
X33467107Y-76966965D01*
X33461241Y-76991166D01*
X33454971Y-77014966D01*
X33448296Y-77038366D01*
X33441217Y-77061365D01*
X33433733Y-77083963D01*
X33425845Y-77106161D01*
X33417552Y-77127957D01*
X33408855Y-77149353D01*
X33399753Y-77170349D01*
X33390246Y-77190943D01*
X33380335Y-77211137D01*
X33370020Y-77230930D01*
X33359300Y-77250323D01*
X33348176Y-77269315D01*
X33336647Y-77287906D01*
X33324713Y-77306096D01*
X33312375Y-77323886D01*
X33299632Y-77341275D01*
X33492584Y-77888867D01*
X33285466Y-77888867D01*
X33145271Y-77514687D01*
X33129090Y-77526132D01*
X33112664Y-77537142D01*
X33095995Y-77547717D01*
X33079081Y-77557857D01*
X33061923Y-77567562D01*
X33044521Y-77576832D01*
X33026874Y-77585666D01*
X33008983Y-77594066D01*
X32990848Y-77602031D01*
X32972469Y-77609560D01*
X32953845Y-77616655D01*
X32934978Y-77623314D01*
X32915866Y-77629539D01*
X32896509Y-77635328D01*
X32876909Y-77640682D01*
X32857064Y-77645601D01*
X32946457Y-77888867D01*
X32739339Y-77888867D01*
X32658251Y-77670026D01*
X32645397Y-77670026D01*
X32625545Y-77670026D01*
X32605006Y-77670026D01*
X32579799Y-77669793D01*
X32554921Y-77669094D01*
X32530370Y-77667931D01*
X32506148Y-77666301D01*
X32482254Y-77664206D01*
X32458689Y-77661645D01*
X32435451Y-77658619D01*
X32412542Y-77655127D01*
X32389961Y-77651169D01*
X32367708Y-77646746D01*
X32345784Y-77641858D01*
X32324187Y-77636503D01*
X32302919Y-77630683D01*
X32281979Y-77624398D01*
X32261367Y-77617647D01*
X32241084Y-77610430D01*
X32221128Y-77602748D01*
X32201501Y-77594600D01*
X32182202Y-77585987D01*
X32163231Y-77576908D01*
X32144589Y-77567364D01*
X32126274Y-77557353D01*
X32108288Y-77546878D01*
X32090630Y-77535936D01*
X32073300Y-77524529D01*
X32056299Y-77512657D01*
X32039625Y-77500319D01*
X32023280Y-77487515D01*
X32007263Y-77474246D01*
X31991574Y-77460511D01*
X31976214Y-77446311D01*
X31961181Y-77431645D01*
X31948914Y-77418230D01*
X31925329Y-77390779D01*
X31903012Y-77362501D01*
X31881961Y-77333394D01*
X31862177Y-77303459D01*
X31843661Y-77272696D01*
X31826411Y-77241104D01*
X31810428Y-77208685D01*
X31795713Y-77175437D01*
X31782264Y-77141362D01*
X31770082Y-77106458D01*
X31759168Y-77070726D01*
X31749520Y-77034166D01*
X31741140Y-76996777D01*
X31734026Y-76958561D01*
X31730944Y-76939142D01*
X31728180Y-76919517D01*
X31725731Y-76899684D01*
X31991956Y-76899684D01*
X31997016Y-76924240D01*
X32002428Y-76948204D01*
X32008191Y-76971577D01*
X32014304Y-76994358D01*
X32020769Y-77016548D01*
X32027585Y-77038147D01*
X32034752Y-77059153D01*
X32042270Y-77079569D01*
X32050139Y-77099392D01*
X32058360Y-77118625D01*
X32066931Y-77137265D01*
X32075853Y-77155314D01*
X32085127Y-77172772D01*
X32099696Y-77197849D01*
X32115054Y-77221596D01*
X32135224Y-77249398D01*
X32156530Y-77275406D01*
X32178974Y-77299620D01*
X32202554Y-77322041D01*
X32227273Y-77342668D01*
X32253128Y-77361501D01*
X32280121Y-77378541D01*
X32308251Y-77393787D01*
X32337518Y-77407239D01*
X32367922Y-77418898D01*
X32399464Y-77428763D01*
X32432143Y-77436835D01*
X32465959Y-77443113D01*
X32500912Y-77447597D01*
X32537003Y-77450287D01*
X32574231Y-77451184D01*
X32078418Y-76030179D01*
X32067603Y-76049459D01*
X32057383Y-76069441D01*
X32047758Y-76090126D01*
X32038729Y-76111512D01*
X32030295Y-76133601D01*
X32022456Y-76156392D01*
X32015213Y-76179885D01*
X32008565Y-76204080D01*
X31745271Y-76204080D01*
X31748812Y-76172353D01*
X31753819Y-76141043D01*
X31760292Y-76110148D01*
X31768230Y-76079669D01*
X31777633Y-76049606D01*
X31788502Y-76019959D01*
X31800836Y-75990728D01*
X31814636Y-75961913D01*
X31829901Y-75933514D01*
X31846632Y-75905531D01*
X31864828Y-75877964D01*
X31873457Y-75866048D01*
X32229849Y-75866048D01*
X32773045Y-77394520D01*
X32793819Y-77388633D01*
X32814131Y-77382086D01*
X32833981Y-77374879D01*
X32853370Y-77367012D01*
X32872297Y-77358484D01*
X32890762Y-77349297D01*
X32908765Y-77339449D01*
X32926307Y-77328941D01*
X32943387Y-77317772D01*
X32960005Y-77305944D01*
X32976161Y-77293455D01*
X32991856Y-77280306D01*
X33007088Y-77266496D01*
X33021859Y-77252027D01*
X33036169Y-77236897D01*
X33050016Y-77221107D01*
X32546424Y-75805476D01*
X32753505Y-75805476D01*
X33176045Y-76992984D01*
X33182493Y-76973138D01*
X33188525Y-76952921D01*
X33194140Y-76932334D01*
X33199340Y-76911377D01*
X33204124Y-76890049D01*
X33208492Y-76868352D01*
X33212443Y-76846284D01*
X33215979Y-76823846D01*
X33219099Y-76801038D01*
X33221803Y-76777860D01*
X33224091Y-76754312D01*
X33225963Y-76730393D01*
X33227418Y-76706104D01*
X33228458Y-76681445D01*
X33229082Y-76656416D01*
X33229290Y-76631017D01*
X33229113Y-76604364D01*
X33228580Y-76578140D01*
X33227693Y-76552344D01*
X33226451Y-76526977D01*
X33224854Y-76502038D01*
X33222902Y-76477527D01*
X33220595Y-76453445D01*
X33217933Y-76429791D01*
X33214916Y-76406566D01*
X33211545Y-76383768D01*
X33207818Y-76361400D01*
X33203736Y-76339459D01*
X33199300Y-76317947D01*
X33194509Y-76296864D01*
X33189362Y-76276209D01*
X33183861Y-76255982D01*
X33178005Y-76236183D01*
X33171794Y-76216813D01*
X33165228Y-76197871D01*
X33158307Y-76179358D01*
X33143401Y-76143617D01*
X33127075Y-76109589D01*
X33109329Y-76077274D01*
X33090163Y-76046673D01*
X33069578Y-76017786D01*
X33047574Y-75990612D01*
X33032286Y-75973803D01*
X33016585Y-75957692D01*
X33000473Y-75942280D01*
X32983948Y-75927567D01*
X32967012Y-75913551D01*
X32949663Y-75900234D01*
X32931902Y-75887616D01*
X32913729Y-75875696D01*
X32895143Y-75864474D01*
X32876146Y-75853950D01*
X32856736Y-75844125D01*
X32836914Y-75834999D01*
X32816680Y-75826570D01*
X32796034Y-75818840D01*
X32774976Y-75811809D01*
X32753505Y-75805476D01*
X32546424Y-75805476D01*
X32538083Y-75782028D01*
X32526247Y-75782436D01*
X32503002Y-75783680D01*
X32480326Y-75785497D01*
X32458218Y-75787886D01*
X32436679Y-75790847D01*
X32415708Y-75794381D01*
X32395306Y-75798487D01*
X32375473Y-75803166D01*
X32356208Y-75808417D01*
X32328378Y-75817367D01*
X32301826Y-75827606D01*
X32276554Y-75839132D01*
X32252562Y-75851946D01*
X32229849Y-75866048D01*
X31873457Y-75866048D01*
X31884489Y-75850813D01*
X31905616Y-75824078D01*
X31928209Y-75797759D01*
X31952267Y-75771856D01*
X31977790Y-75746369D01*
X31826848Y-75325294D01*
X32036408Y-75325294D01*
X32145829Y-75630598D01*
G37*
G36*
X47173114Y-80967500D02*
G01*
X46486792Y-80967500D01*
X46455914Y-80967227D01*
X46425563Y-80966408D01*
X46395739Y-80965044D01*
X46366441Y-80963134D01*
X46337670Y-80960678D01*
X46309426Y-80957676D01*
X46281708Y-80954129D01*
X46254517Y-80950036D01*
X46227853Y-80945397D01*
X46201715Y-80940213D01*
X46176104Y-80934483D01*
X46151019Y-80928207D01*
X46126461Y-80921385D01*
X46102430Y-80914018D01*
X46078926Y-80906105D01*
X46055948Y-80897646D01*
X46033424Y-80888609D01*
X46011404Y-80879084D01*
X45989888Y-80869070D01*
X45968875Y-80858567D01*
X45948366Y-80847576D01*
X45928361Y-80836097D01*
X45908860Y-80824129D01*
X45889862Y-80811673D01*
X45871369Y-80798728D01*
X45853379Y-80785294D01*
X45835892Y-80771372D01*
X45818910Y-80756962D01*
X45802431Y-80742063D01*
X45786456Y-80726676D01*
X45770985Y-80710800D01*
X45756017Y-80694436D01*
X45741544Y-80677528D01*
X45727555Y-80660143D01*
X45714052Y-80642281D01*
X45701032Y-80623941D01*
X45688498Y-80605125D01*
X45676448Y-80585832D01*
X45664882Y-80566062D01*
X45653802Y-80545814D01*
X45643206Y-80525090D01*
X45633095Y-80503888D01*
X45623468Y-80482210D01*
X45614326Y-80460054D01*
X45605669Y-80437422D01*
X45597496Y-80414312D01*
X45589808Y-80390726D01*
X45582605Y-80366662D01*
X45575802Y-80342074D01*
X45569439Y-80317035D01*
X45563514Y-80291546D01*
X45558028Y-80265607D01*
X45552981Y-80239217D01*
X45548373Y-80212377D01*
X45544204Y-80185087D01*
X45540473Y-80157346D01*
X45537182Y-80129155D01*
X45534329Y-80100514D01*
X45531915Y-80071422D01*
X45529940Y-80041880D01*
X45528404Y-80011888D01*
X45527307Y-79981445D01*
X45526762Y-79955846D01*
X45792654Y-79955846D01*
X45792803Y-79978896D01*
X45793249Y-80001519D01*
X45793993Y-80023715D01*
X45795035Y-80045483D01*
X45796375Y-80066823D01*
X45798012Y-80087737D01*
X45799947Y-80108223D01*
X45802179Y-80128281D01*
X45804709Y-80147912D01*
X45809063Y-80176557D01*
X45814086Y-80204241D01*
X45819779Y-80230962D01*
X45826142Y-80256722D01*
X45830756Y-80273361D01*
X45837993Y-80297526D01*
X45845599Y-80320926D01*
X45853575Y-80343562D01*
X45861920Y-80365433D01*
X45870634Y-80386541D01*
X45879717Y-80406884D01*
X45889169Y-80426463D01*
X45898991Y-80445278D01*
X45909182Y-80463328D01*
X45919742Y-80480615D01*
X45926987Y-80491714D01*
X45938116Y-80507787D01*
X45953381Y-80528216D01*
X45969135Y-80547500D01*
X45985377Y-80565638D01*
X46002107Y-80582632D01*
X46019326Y-80598481D01*
X46037034Y-80613186D01*
X46055230Y-80626745D01*
X46059855Y-80629956D01*
X46078441Y-80642283D01*
X46097072Y-80653861D01*
X46115749Y-80664692D01*
X46134472Y-80674774D01*
X46153240Y-80684109D01*
X46172055Y-80692696D01*
X46190915Y-80700534D01*
X46209821Y-80707625D01*
X46228620Y-80714036D01*
X46251754Y-80721192D01*
X46274482Y-80727394D01*
X46296805Y-80732641D01*
X46318722Y-80736934D01*
X46340234Y-80740274D01*
X46352947Y-80741819D01*
X46373312Y-80743789D01*
X46396301Y-80745713D01*
X46417710Y-80747155D01*
X46437540Y-80748117D01*
X46458677Y-80748631D01*
X46464322Y-80748658D01*
X46906890Y-80748658D01*
X46906890Y-79185504D01*
X46458948Y-79185504D01*
X46436096Y-79185708D01*
X46413702Y-79186320D01*
X46391766Y-79187341D01*
X46370288Y-79188770D01*
X46349268Y-79190608D01*
X46328706Y-79192854D01*
X46308602Y-79195508D01*
X46288955Y-79198571D01*
X46260345Y-79203930D01*
X46232764Y-79210208D01*
X46206214Y-79217406D01*
X46180695Y-79225521D01*
X46156205Y-79234556D01*
X46148271Y-79237772D01*
X46125049Y-79247993D01*
X46102642Y-79259055D01*
X46081051Y-79270959D01*
X46060275Y-79283705D01*
X46040316Y-79297292D01*
X46021172Y-79311720D01*
X46002843Y-79326990D01*
X45985331Y-79343101D01*
X45968634Y-79360054D01*
X45952753Y-79377849D01*
X45942619Y-79390179D01*
X45927997Y-79409329D01*
X45914174Y-79429226D01*
X45901150Y-79449869D01*
X45888924Y-79471260D01*
X45877496Y-79493398D01*
X45866867Y-79516283D01*
X45857037Y-79539915D01*
X45848005Y-79564294D01*
X45839772Y-79589420D01*
X45832338Y-79615293D01*
X45827825Y-79632957D01*
X45821539Y-79659949D01*
X45815872Y-79687619D01*
X45810823Y-79715968D01*
X45806392Y-79744995D01*
X45803782Y-79764724D01*
X45801447Y-79784754D01*
X45799386Y-79805085D01*
X45797600Y-79825718D01*
X45796088Y-79846652D01*
X45794852Y-79867888D01*
X45793890Y-79889425D01*
X45793203Y-79911264D01*
X45792791Y-79933404D01*
X45792654Y-79955846D01*
X45526762Y-79955846D01*
X45526649Y-79950552D01*
X45526429Y-79919209D01*
X45526672Y-79889347D01*
X45527402Y-79859965D01*
X45528619Y-79831064D01*
X45530322Y-79802644D01*
X45532511Y-79774705D01*
X45535188Y-79747247D01*
X45538350Y-79720270D01*
X45542000Y-79693773D01*
X45546136Y-79667757D01*
X45550758Y-79642223D01*
X45555867Y-79617169D01*
X45561463Y-79592595D01*
X45567545Y-79568503D01*
X45574114Y-79544892D01*
X45581169Y-79521761D01*
X45588711Y-79499112D01*
X45596740Y-79476943D01*
X45605255Y-79455255D01*
X45614256Y-79434047D01*
X45623745Y-79413321D01*
X45633719Y-79393076D01*
X45644181Y-79373311D01*
X45655129Y-79354027D01*
X45666563Y-79335225D01*
X45678485Y-79316903D01*
X45690892Y-79299061D01*
X45703787Y-79281701D01*
X45717168Y-79264822D01*
X45731035Y-79248423D01*
X45745389Y-79232505D01*
X45760230Y-79217068D01*
X45775557Y-79202112D01*
X45791335Y-79187627D01*
X45807530Y-79173601D01*
X45824140Y-79160035D01*
X45841167Y-79146929D01*
X45858609Y-79134282D01*
X45876467Y-79122096D01*
X45894742Y-79110369D01*
X45913432Y-79099103D01*
X45932538Y-79088296D01*
X45952060Y-79077949D01*
X45971999Y-79068062D01*
X45992353Y-79058635D01*
X46013123Y-79049667D01*
X46034309Y-79041160D01*
X46055911Y-79033112D01*
X46077929Y-79025525D01*
X46100364Y-79018397D01*
X46123214Y-79011729D01*
X46146480Y-79005521D01*
X46170162Y-78999772D01*
X46194260Y-78994484D01*
X46218774Y-78989655D01*
X46243704Y-78985287D01*
X46269049Y-78981378D01*
X46294811Y-78977929D01*
X46320989Y-78974940D01*
X46347583Y-78972410D01*
X46374593Y-78970341D01*
X46402019Y-78968731D01*
X46429861Y-78967582D01*
X46458118Y-78966892D01*
X46486792Y-78966662D01*
X47173114Y-78966662D01*
X47173114Y-80967500D01*
G37*
G36*
X44668438Y-79467369D02*
G01*
X44695650Y-79468864D01*
X44722442Y-79471354D01*
X44748813Y-79474840D01*
X44774764Y-79479322D01*
X44800293Y-79484800D01*
X44825402Y-79491275D01*
X44850090Y-79498745D01*
X44874357Y-79507212D01*
X44898204Y-79516674D01*
X44913868Y-79523536D01*
X44936932Y-79534560D01*
X44959412Y-79546382D01*
X44981308Y-79559003D01*
X45002620Y-79572423D01*
X45023348Y-79586641D01*
X45043492Y-79601657D01*
X45063053Y-79617472D01*
X45082029Y-79634086D01*
X45100422Y-79651499D01*
X45118231Y-79669709D01*
X45129779Y-79682294D01*
X45146458Y-79701762D01*
X45162425Y-79721884D01*
X45177679Y-79742658D01*
X45192221Y-79764084D01*
X45206050Y-79786164D01*
X45219166Y-79808895D01*
X45231569Y-79832280D01*
X45243260Y-79856317D01*
X45254238Y-79881006D01*
X45264503Y-79906348D01*
X45270951Y-79923606D01*
X45279943Y-79949954D01*
X45288050Y-79976791D01*
X45295273Y-80004118D01*
X45301611Y-80031935D01*
X45307065Y-80060241D01*
X45311635Y-80089036D01*
X45314190Y-80108505D01*
X45316352Y-80128191D01*
X45318121Y-80148095D01*
X45319496Y-80168217D01*
X45320479Y-80188556D01*
X45321069Y-80209112D01*
X45321265Y-80229886D01*
X45320445Y-80250731D01*
X45319326Y-80271377D01*
X45317911Y-80291825D01*
X45316197Y-80312074D01*
X45314186Y-80332125D01*
X45311877Y-80351977D01*
X45309271Y-80371631D01*
X45306366Y-80391086D01*
X45301452Y-80419897D01*
X45295868Y-80448262D01*
X45289614Y-80476180D01*
X45282690Y-80503652D01*
X45275097Y-80530677D01*
X45272417Y-80539586D01*
X45263883Y-80565800D01*
X45254585Y-80591318D01*
X45244523Y-80616140D01*
X45233696Y-80640268D01*
X45222106Y-80663699D01*
X45209751Y-80686435D01*
X45196632Y-80708476D01*
X45182749Y-80729821D01*
X45168101Y-80750470D01*
X45152690Y-80770424D01*
X45141991Y-80783340D01*
X45125336Y-80802084D01*
X45107976Y-80820028D01*
X45089913Y-80837174D01*
X45071145Y-80853522D01*
X45051673Y-80869071D01*
X45031498Y-80883822D01*
X45010618Y-80897773D01*
X44989034Y-80910927D01*
X44966746Y-80923282D01*
X44943753Y-80934838D01*
X44928034Y-80942098D01*
X44903721Y-80952225D01*
X44878592Y-80961355D01*
X44852648Y-80969490D01*
X44825887Y-80976628D01*
X44798311Y-80982770D01*
X44769919Y-80987917D01*
X44750538Y-80990794D01*
X44730795Y-80993229D01*
X44710689Y-80995221D01*
X44690220Y-80996770D01*
X44669389Y-80997877D01*
X44648195Y-80998541D01*
X44626638Y-80998763D01*
X44596192Y-80998272D01*
X44566402Y-80996801D01*
X44537268Y-80994349D01*
X44508791Y-80990916D01*
X44480971Y-80986503D01*
X44453806Y-80981108D01*
X44427298Y-80974733D01*
X44401447Y-80967377D01*
X44376251Y-80959041D01*
X44351713Y-80949723D01*
X44327830Y-80939425D01*
X44304604Y-80928146D01*
X44282035Y-80915886D01*
X44260122Y-80902645D01*
X44238865Y-80888424D01*
X44218264Y-80873222D01*
X44198380Y-80856989D01*
X44179392Y-80839799D01*
X44161301Y-80821650D01*
X44144106Y-80802544D01*
X44127809Y-80782480D01*
X44112408Y-80761458D01*
X44097904Y-80739478D01*
X44084297Y-80716540D01*
X44071587Y-80692644D01*
X44059774Y-80667791D01*
X44048857Y-80641979D01*
X44038838Y-80615210D01*
X44029715Y-80587482D01*
X44021489Y-80558797D01*
X44014159Y-80529154D01*
X44007727Y-80498553D01*
X44243177Y-80498553D01*
X44249527Y-80524571D01*
X44257036Y-80549318D01*
X44265704Y-80572794D01*
X44275532Y-80594999D01*
X44286518Y-80615933D01*
X44298664Y-80635596D01*
X44311969Y-80653989D01*
X44326433Y-80671111D01*
X44342057Y-80686962D01*
X44358840Y-80701542D01*
X44370672Y-80710556D01*
X44389284Y-80722952D01*
X44408848Y-80734129D01*
X44429366Y-80744087D01*
X44450837Y-80752825D01*
X44473261Y-80760344D01*
X44496638Y-80766644D01*
X44520969Y-80771725D01*
X44546252Y-80775586D01*
X44572489Y-80778228D01*
X44599678Y-80779650D01*
X44618334Y-80779921D01*
X44640137Y-80779582D01*
X44661399Y-80778564D01*
X44682120Y-80776868D01*
X44702300Y-80774494D01*
X44721939Y-80771442D01*
X44747283Y-80766316D01*
X44771666Y-80759985D01*
X44795086Y-80752448D01*
X44817545Y-80743705D01*
X44823010Y-80741331D01*
X44844152Y-80731271D01*
X44864348Y-80720387D01*
X44883597Y-80708678D01*
X44901900Y-80696146D01*
X44919257Y-80682789D01*
X44935667Y-80668607D01*
X44951130Y-80653602D01*
X44965648Y-80637772D01*
X44979211Y-80621232D01*
X44991812Y-80604097D01*
X45003452Y-80586366D01*
X45014130Y-80568040D01*
X45023846Y-80549119D01*
X45032601Y-80529603D01*
X45040393Y-80509491D01*
X45047225Y-80488784D01*
X45053018Y-80467626D01*
X45057941Y-80446163D01*
X45061994Y-80424395D01*
X45065177Y-80402322D01*
X45067489Y-80379943D01*
X45068932Y-80357259D01*
X45069504Y-80334269D01*
X45069207Y-80310975D01*
X43985257Y-80310975D01*
X43984554Y-80285750D01*
X43984461Y-80260268D01*
X43984978Y-80234528D01*
X43986104Y-80208530D01*
X43987840Y-80182275D01*
X43990185Y-80155762D01*
X43993141Y-80128992D01*
X43996706Y-80101964D01*
X43998210Y-80092133D01*
X44237315Y-80092133D01*
X45069207Y-80092133D01*
X45067466Y-80071403D01*
X45064932Y-80050978D01*
X45061604Y-80030859D01*
X45057483Y-80011045D01*
X45052567Y-79991536D01*
X45046858Y-79972332D01*
X45040355Y-79953434D01*
X45033059Y-79934841D01*
X45024899Y-79916683D01*
X45016053Y-79899090D01*
X45004029Y-79877893D01*
X44990932Y-79857578D01*
X44976762Y-79838146D01*
X44961518Y-79819596D01*
X44948551Y-79805392D01*
X44931411Y-79788574D01*
X44913269Y-79772925D01*
X44894125Y-79758444D01*
X44873980Y-79745133D01*
X44852833Y-79732990D01*
X44835194Y-79724117D01*
X44821544Y-79717953D01*
X44802692Y-79710397D01*
X44783259Y-79703848D01*
X44763247Y-79698307D01*
X44742654Y-79693773D01*
X44721481Y-79690247D01*
X44699728Y-79687728D01*
X44677395Y-79686217D01*
X44654482Y-79685713D01*
X44632371Y-79686217D01*
X44610732Y-79687728D01*
X44589567Y-79690247D01*
X44568875Y-79693773D01*
X44548656Y-79698307D01*
X44528911Y-79703848D01*
X44509639Y-79710397D01*
X44490839Y-79717953D01*
X44472582Y-79726242D01*
X44454936Y-79735233D01*
X44437900Y-79744927D01*
X44417464Y-79758031D01*
X44397981Y-79772232D01*
X44379453Y-79787531D01*
X44361879Y-79803927D01*
X44345331Y-79821384D01*
X44329880Y-79839867D01*
X44315526Y-79859375D01*
X44302269Y-79879909D01*
X44292453Y-79897075D01*
X44283340Y-79914897D01*
X44274929Y-79933375D01*
X44267289Y-79952312D01*
X44260488Y-79971508D01*
X44254527Y-79990963D01*
X44249405Y-80010678D01*
X44245124Y-80030653D01*
X44241681Y-80050887D01*
X44239078Y-80071380D01*
X44237315Y-80092133D01*
X43998210Y-80092133D01*
X44000880Y-80074678D01*
X44005664Y-80047135D01*
X44009193Y-80028630D01*
X44015109Y-80000992D01*
X44021866Y-79973767D01*
X44029466Y-79946954D01*
X44037906Y-79920553D01*
X44047189Y-79894564D01*
X44057312Y-79868987D01*
X44068277Y-79843822D01*
X44080084Y-79819070D01*
X44092732Y-79794729D01*
X44106222Y-79770801D01*
X44115682Y-79755078D01*
X44130509Y-79731930D01*
X44146228Y-79709563D01*
X44162840Y-79687978D01*
X44180346Y-79667173D01*
X44198744Y-79647151D01*
X44218035Y-79627910D01*
X44238220Y-79609450D01*
X44259297Y-79591771D01*
X44281268Y-79574874D01*
X44304131Y-79558758D01*
X44319869Y-79548449D01*
X44344354Y-79533870D01*
X44369998Y-79520725D01*
X44396802Y-79509014D01*
X44415315Y-79502004D01*
X44434343Y-79495631D01*
X44453886Y-79489895D01*
X44473944Y-79484796D01*
X44494518Y-79480335D01*
X44515607Y-79476511D01*
X44537211Y-79473324D01*
X44559330Y-79470775D01*
X44581964Y-79468863D01*
X44605114Y-79467588D01*
X44628779Y-79466951D01*
X44640805Y-79466871D01*
X44668438Y-79467369D01*
G37*
G36*
X43594468Y-80498553D02*
G01*
X43832361Y-80498553D01*
X43830958Y-80524021D01*
X43828766Y-80548768D01*
X43825783Y-80572794D01*
X43822011Y-80596098D01*
X43817449Y-80618681D01*
X43812096Y-80640542D01*
X43805954Y-80661683D01*
X43799022Y-80682102D01*
X43791299Y-80701800D01*
X43782787Y-80720776D01*
X43776673Y-80733026D01*
X43766856Y-80750744D01*
X43756455Y-80767808D01*
X43745469Y-80784220D01*
X43733900Y-80799979D01*
X43717567Y-80819977D01*
X43700195Y-80838814D01*
X43681785Y-80856491D01*
X43662337Y-80873008D01*
X43641851Y-80888365D01*
X43620457Y-80902508D01*
X43598284Y-80915628D01*
X43575333Y-80927726D01*
X43557609Y-80936128D01*
X43539447Y-80943955D01*
X43520847Y-80951206D01*
X43501809Y-80957882D01*
X43482333Y-80963983D01*
X43462419Y-80969509D01*
X43448899Y-80972873D01*
X43428289Y-80977500D01*
X43407489Y-80981671D01*
X43386500Y-80985388D01*
X43365323Y-80988649D01*
X43343956Y-80991456D01*
X43322401Y-80993807D01*
X43300656Y-80995703D01*
X43278723Y-80997144D01*
X43256601Y-80998131D01*
X43234290Y-80998661D01*
X43219311Y-80998763D01*
X43198786Y-80998574D01*
X43178244Y-80998007D01*
X43157685Y-80997062D01*
X43137108Y-80995740D01*
X43116515Y-80994040D01*
X43095904Y-80991962D01*
X43075276Y-80989506D01*
X43054630Y-80986673D01*
X43033968Y-80983461D01*
X43013289Y-80979872D01*
X42999493Y-80977269D01*
X42978991Y-80973047D01*
X42958883Y-80968259D01*
X42939171Y-80962904D01*
X42919854Y-80956982D01*
X42900932Y-80950493D01*
X42882405Y-80943438D01*
X42864273Y-80935816D01*
X42840711Y-80924771D01*
X42817851Y-80912719D01*
X42801167Y-80903019D01*
X42779590Y-80889059D01*
X42759066Y-80874046D01*
X42739595Y-80857979D01*
X42721178Y-80840860D01*
X42703814Y-80822686D01*
X42687503Y-80803460D01*
X42672245Y-80783180D01*
X42658041Y-80761847D01*
X42645218Y-80739171D01*
X42636723Y-80721252D01*
X42629190Y-80702551D01*
X42622618Y-80683070D01*
X42617008Y-80662807D01*
X42612360Y-80641762D01*
X42608674Y-80619936D01*
X42605949Y-80597329D01*
X42604186Y-80573940D01*
X42603384Y-80549770D01*
X42603331Y-80541540D01*
X42603964Y-80515940D01*
X42605865Y-80491409D01*
X42609032Y-80467947D01*
X42613467Y-80445553D01*
X42619168Y-80424227D01*
X42626137Y-80403970D01*
X42634372Y-80384782D01*
X42643875Y-80366662D01*
X42654408Y-80349336D01*
X42665735Y-80332773D01*
X42677855Y-80316974D01*
X42690770Y-80301938D01*
X42704478Y-80287665D01*
X42718980Y-80274155D01*
X42734275Y-80261409D01*
X42750365Y-80249426D01*
X42767157Y-80237992D01*
X42784559Y-80227138D01*
X42802572Y-80216865D01*
X42821195Y-80207172D01*
X42840429Y-80198058D01*
X42860274Y-80189525D01*
X42880730Y-80181572D01*
X42901795Y-80174199D01*
X42923113Y-80167253D01*
X42944569Y-80160582D01*
X42966161Y-80154186D01*
X42987891Y-80148065D01*
X43009758Y-80142218D01*
X43031763Y-80136646D01*
X43053905Y-80131349D01*
X43076185Y-80126327D01*
X43097190Y-80121351D01*
X43118195Y-80116435D01*
X43139200Y-80111581D01*
X43160204Y-80106788D01*
X43181209Y-80102056D01*
X43202214Y-80097384D01*
X43223219Y-80092774D01*
X43244224Y-80088225D01*
X43264969Y-80083455D01*
X43285196Y-80078425D01*
X43304903Y-80073136D01*
X43324091Y-80067587D01*
X43342761Y-80061778D01*
X43365367Y-80054153D01*
X43387163Y-80046122D01*
X43395655Y-80042796D01*
X43415995Y-80034066D01*
X43435191Y-80024669D01*
X43453242Y-80014603D01*
X43470149Y-80003870D01*
X43488925Y-79990108D01*
X43506052Y-79975385D01*
X43520827Y-79959259D01*
X43532545Y-79941657D01*
X43541206Y-79922577D01*
X43546810Y-79902021D01*
X43549358Y-79879987D01*
X43549528Y-79872315D01*
X43548549Y-79851821D01*
X43544932Y-79829822D01*
X43538651Y-79809880D01*
X43529705Y-79791995D01*
X43521684Y-79780479D01*
X43508517Y-79765579D01*
X43493808Y-79752082D01*
X43477556Y-79739987D01*
X43459761Y-79729295D01*
X43448899Y-79723815D01*
X43428794Y-79715233D01*
X43407800Y-79707867D01*
X43385918Y-79701716D01*
X43366455Y-79697411D01*
X43349737Y-79694506D01*
X43329272Y-79691518D01*
X43308910Y-79689148D01*
X43288651Y-79687396D01*
X43268496Y-79686263D01*
X43248443Y-79685747D01*
X43241782Y-79685713D01*
X43219685Y-79686177D01*
X43197726Y-79687568D01*
X43175905Y-79689886D01*
X43154220Y-79693132D01*
X43132674Y-79697305D01*
X43125522Y-79698902D01*
X43104267Y-79704232D01*
X43083734Y-79710695D01*
X43063921Y-79718291D01*
X43044830Y-79727021D01*
X43026460Y-79736884D01*
X43020498Y-79740423D01*
X43003313Y-79751884D01*
X42987296Y-79764649D01*
X42972447Y-79778720D01*
X42958765Y-79794096D01*
X42946251Y-79810777D01*
X42942340Y-79816627D01*
X42931526Y-79835255D01*
X42922533Y-79855599D01*
X42915361Y-79877661D01*
X42910774Y-79897358D01*
X42907451Y-79918247D01*
X42905703Y-79935818D01*
X42667811Y-79935818D01*
X42669716Y-79910663D01*
X42672316Y-79886307D01*
X42675612Y-79862750D01*
X42679603Y-79839991D01*
X42684290Y-79818030D01*
X42689672Y-79796868D01*
X42695750Y-79776505D01*
X42702524Y-79756940D01*
X42709993Y-79738174D01*
X42718157Y-79720207D01*
X42723987Y-79708672D01*
X42736344Y-79686431D01*
X42749724Y-79665380D01*
X42764126Y-79645520D01*
X42779552Y-79626851D01*
X42796000Y-79609372D01*
X42813471Y-79593084D01*
X42831965Y-79577987D01*
X42851481Y-79564080D01*
X42871761Y-79551150D01*
X42892789Y-79539228D01*
X42914565Y-79528314D01*
X42937089Y-79518407D01*
X42960360Y-79509507D01*
X42984380Y-79501615D01*
X43009148Y-79494730D01*
X43028215Y-79490228D01*
X43034664Y-79488853D01*
X43054253Y-79484925D01*
X43074185Y-79481383D01*
X43094461Y-79478227D01*
X43115081Y-79475458D01*
X43136043Y-79473075D01*
X43157350Y-79471079D01*
X43179000Y-79469469D01*
X43200993Y-79468245D01*
X43223330Y-79467408D01*
X43246010Y-79466957D01*
X43261321Y-79466871D01*
X43285158Y-79467245D01*
X43309040Y-79468367D01*
X43332968Y-79470237D01*
X43356942Y-79472855D01*
X43380962Y-79476221D01*
X43405027Y-79480335D01*
X43429139Y-79485197D01*
X43453296Y-79490807D01*
X43477056Y-79497188D01*
X43500221Y-79504363D01*
X43522791Y-79512331D01*
X43544765Y-79521093D01*
X43566144Y-79530649D01*
X43586927Y-79540999D01*
X43607115Y-79552143D01*
X43626708Y-79564080D01*
X43645454Y-79576880D01*
X43663345Y-79590611D01*
X43680381Y-79605273D01*
X43696562Y-79620867D01*
X43711888Y-79637391D01*
X43726359Y-79654847D01*
X43739976Y-79673234D01*
X43752738Y-79692552D01*
X43764186Y-79712702D01*
X43774109Y-79733829D01*
X43782505Y-79755933D01*
X43789374Y-79779014D01*
X43794717Y-79803072D01*
X43798533Y-79828107D01*
X43800823Y-79854118D01*
X43801538Y-79874269D01*
X43801586Y-79881107D01*
X43800972Y-79906945D01*
X43799130Y-79931700D01*
X43796061Y-79955373D01*
X43791763Y-79977965D01*
X43786237Y-79999474D01*
X43779484Y-80019902D01*
X43771503Y-80039248D01*
X43762294Y-80057512D01*
X43751856Y-80074694D01*
X43740191Y-80090794D01*
X43731733Y-80100926D01*
X43718243Y-80115367D01*
X43704152Y-80129199D01*
X43689461Y-80142421D01*
X43674168Y-80155033D01*
X43658274Y-80167036D01*
X43641779Y-80178429D01*
X43624683Y-80189213D01*
X43606986Y-80199386D01*
X43588687Y-80208950D01*
X43569788Y-80217905D01*
X43556855Y-80223536D01*
X43537004Y-80231516D01*
X43516835Y-80239152D01*
X43496349Y-80246445D01*
X43475545Y-80253394D01*
X43454423Y-80260000D01*
X43432984Y-80266263D01*
X43411226Y-80272182D01*
X43389152Y-80277758D01*
X43366759Y-80282990D01*
X43344049Y-80287879D01*
X43328732Y-80290947D01*
X43305727Y-80295486D01*
X43283057Y-80300129D01*
X43260721Y-80304874D01*
X43238721Y-80309723D01*
X43217055Y-80314675D01*
X43195725Y-80319729D01*
X43174729Y-80324887D01*
X43154068Y-80330148D01*
X43133742Y-80335512D01*
X43113751Y-80340978D01*
X43100609Y-80344680D01*
X43081226Y-80350339D01*
X43062461Y-80356324D01*
X43038404Y-80364811D01*
X43015445Y-80373879D01*
X42993585Y-80383526D01*
X42972824Y-80393754D01*
X42953163Y-80404562D01*
X42934600Y-80415950D01*
X42925731Y-80421861D01*
X42909245Y-80434539D01*
X42894957Y-80448636D01*
X42882867Y-80464153D01*
X42872975Y-80481090D01*
X42865281Y-80499446D01*
X42859786Y-80519222D01*
X42856488Y-80540418D01*
X42855389Y-80563033D01*
X42856212Y-80583527D01*
X42859372Y-80606608D01*
X42864902Y-80628040D01*
X42872802Y-80647824D01*
X42883071Y-80665959D01*
X42889095Y-80674408D01*
X42902370Y-80689973D01*
X42916916Y-80704061D01*
X42932732Y-80716672D01*
X42949820Y-80727806D01*
X42968178Y-80737463D01*
X42974580Y-80740354D01*
X42994341Y-80748299D01*
X43014788Y-80755283D01*
X43035923Y-80761305D01*
X43057745Y-80766366D01*
X43080253Y-80770464D01*
X43087909Y-80771617D01*
X43110783Y-80774439D01*
X43133246Y-80776677D01*
X43155297Y-80778332D01*
X43176935Y-80779402D01*
X43198161Y-80779889D01*
X43205145Y-80779921D01*
X43227795Y-80779575D01*
X43250254Y-80778538D01*
X43272522Y-80776808D01*
X43294599Y-80774387D01*
X43316485Y-80771275D01*
X43338181Y-80767470D01*
X43346806Y-80765755D01*
X43367843Y-80760887D01*
X43388213Y-80755136D01*
X43407914Y-80748503D01*
X43426948Y-80740987D01*
X43445314Y-80732589D01*
X43463012Y-80723308D01*
X43469904Y-80719349D01*
X43486489Y-80708725D01*
X43505036Y-80694529D01*
X43522106Y-80678752D01*
X43537699Y-80661395D01*
X43549566Y-80645725D01*
X43558320Y-80632398D01*
X43567961Y-80614576D01*
X43576123Y-80595609D01*
X43582807Y-80575497D01*
X43588011Y-80554241D01*
X43591737Y-80531839D01*
X43593984Y-80508292D01*
X43594468Y-80498553D01*
G37*
G36*
X42088955Y-79248030D02*
G01*
X42088955Y-78966662D01*
X42326848Y-78966662D01*
X42326848Y-79248030D01*
X42088955Y-79248030D01*
G37*
G36*
X42326848Y-79520116D02*
G01*
X42326848Y-80967500D01*
X42088955Y-80967500D01*
X42088955Y-79520116D01*
X42326848Y-79520116D01*
G37*
G36*
X41152299Y-79467158D02*
G01*
X41175060Y-79468016D01*
X41197362Y-79469447D01*
X41219207Y-79471451D01*
X41240593Y-79474027D01*
X41261522Y-79477175D01*
X41281992Y-79480896D01*
X41302005Y-79485190D01*
X41321560Y-79490055D01*
X41340656Y-79495494D01*
X41359295Y-79501504D01*
X41386395Y-79511594D01*
X41412464Y-79522971D01*
X41437502Y-79535636D01*
X41445620Y-79540144D01*
X41469270Y-79554235D01*
X41492045Y-79569030D01*
X41513944Y-79584529D01*
X41534967Y-79600732D01*
X41555114Y-79617639D01*
X41574385Y-79635250D01*
X41592781Y-79653566D01*
X41610300Y-79672585D01*
X41626944Y-79692309D01*
X41642712Y-79712736D01*
X41652738Y-79726746D01*
X41667001Y-79748135D01*
X41680484Y-79769988D01*
X41693185Y-79792305D01*
X41705105Y-79815085D01*
X41716243Y-79838330D01*
X41726600Y-79862037D01*
X41736176Y-79886209D01*
X41744970Y-79910844D01*
X41752983Y-79935943D01*
X41760214Y-79961505D01*
X41764601Y-79978804D01*
X41770624Y-80004844D01*
X41776055Y-80030754D01*
X41780894Y-80056535D01*
X41785140Y-80082188D01*
X41788794Y-80107712D01*
X41791855Y-80133107D01*
X41794324Y-80158373D01*
X41796200Y-80183510D01*
X41797483Y-80208519D01*
X41798175Y-80233399D01*
X41798306Y-80249914D01*
X41797950Y-80278261D01*
X41796881Y-80306334D01*
X41795099Y-80334132D01*
X41792605Y-80361655D01*
X41789398Y-80388903D01*
X41785478Y-80415877D01*
X41780845Y-80442576D01*
X41775500Y-80469000D01*
X41769442Y-80495149D01*
X41762672Y-80521024D01*
X41757762Y-80538121D01*
X41749804Y-80563374D01*
X41741132Y-80588026D01*
X41731749Y-80612077D01*
X41721652Y-80635528D01*
X41710843Y-80658377D01*
X41699321Y-80680625D01*
X41687087Y-80702272D01*
X41674139Y-80723318D01*
X41660479Y-80743763D01*
X41646107Y-80763606D01*
X41636129Y-80776502D01*
X41620494Y-80795192D01*
X41604181Y-80813161D01*
X41587189Y-80830409D01*
X41569519Y-80846935D01*
X41551171Y-80862740D01*
X41532145Y-80877824D01*
X41512440Y-80892187D01*
X41492056Y-80905828D01*
X41470995Y-80918748D01*
X41449255Y-80930947D01*
X41434384Y-80938679D01*
X41411397Y-80949416D01*
X41387679Y-80959098D01*
X41363231Y-80967723D01*
X41338054Y-80975292D01*
X41312146Y-80981805D01*
X41285509Y-80987262D01*
X41258142Y-80991663D01*
X41230045Y-80995007D01*
X41201218Y-80997296D01*
X41181595Y-80998235D01*
X41161647Y-80998704D01*
X41151551Y-80998763D01*
X41125402Y-80998209D01*
X41099528Y-80996547D01*
X41073928Y-80993778D01*
X41048603Y-80989901D01*
X41023553Y-80984917D01*
X40998777Y-80978824D01*
X40974277Y-80971624D01*
X40950051Y-80963317D01*
X40926100Y-80953902D01*
X40902424Y-80943379D01*
X40886792Y-80935748D01*
X40863986Y-80923306D01*
X40842279Y-80909610D01*
X40821671Y-80894661D01*
X40802162Y-80878458D01*
X40783752Y-80861001D01*
X40766441Y-80842291D01*
X40750230Y-80822327D01*
X40735117Y-80801109D01*
X40721104Y-80778638D01*
X40708189Y-80754913D01*
X40700190Y-80738400D01*
X40694817Y-80738400D01*
X40694817Y-80833166D01*
X40695027Y-80855604D01*
X40695659Y-80877673D01*
X40696710Y-80899373D01*
X40698183Y-80920704D01*
X40700076Y-80941666D01*
X40702391Y-80962258D01*
X40705125Y-80982481D01*
X40708281Y-81002335D01*
X40711857Y-81021819D01*
X40717280Y-81047224D01*
X40718753Y-81053473D01*
X40725080Y-81077928D01*
X40732339Y-81101467D01*
X40740529Y-81124090D01*
X40749650Y-81145797D01*
X40759702Y-81166588D01*
X40770685Y-81186463D01*
X40782600Y-81205423D01*
X40795445Y-81223466D01*
X40809199Y-81240578D01*
X40823838Y-81256744D01*
X40839363Y-81271963D01*
X40855773Y-81286236D01*
X40873069Y-81299563D01*
X40891249Y-81311943D01*
X40910316Y-81323377D01*
X40930267Y-81333864D01*
X40951112Y-81343252D01*
X40973101Y-81351388D01*
X40996236Y-81358273D01*
X41020515Y-81363906D01*
X41045939Y-81368287D01*
X41065759Y-81370751D01*
X41086222Y-81372511D01*
X41107329Y-81373568D01*
X41129081Y-81373920D01*
X41151269Y-81373473D01*
X41173869Y-81372134D01*
X41196881Y-81369901D01*
X41216373Y-81367358D01*
X41236151Y-81364196D01*
X41252179Y-81361219D01*
X41272091Y-81357009D01*
X41291525Y-81352012D01*
X41310483Y-81346228D01*
X41328963Y-81339657D01*
X41350510Y-81330733D01*
X41371370Y-81320675D01*
X41391136Y-81309632D01*
X41409769Y-81297388D01*
X41427269Y-81283941D01*
X41443635Y-81269292D01*
X41458868Y-81253441D01*
X41463694Y-81247890D01*
X41476579Y-81230517D01*
X41487026Y-81211735D01*
X41495035Y-81191545D01*
X41500605Y-81169946D01*
X41503736Y-81146940D01*
X41504238Y-81138958D01*
X41742130Y-81138958D01*
X41740676Y-81160618D01*
X41738329Y-81181634D01*
X41735089Y-81202006D01*
X41730956Y-81221733D01*
X41725930Y-81240817D01*
X41717840Y-81265261D01*
X41708162Y-81288559D01*
X41696896Y-81310713D01*
X41684043Y-81331721D01*
X41680581Y-81336795D01*
X41666087Y-81356578D01*
X41650692Y-81375385D01*
X41634396Y-81393215D01*
X41617200Y-81410068D01*
X41599103Y-81425943D01*
X41580106Y-81440842D01*
X41560208Y-81454764D01*
X41539409Y-81467709D01*
X41517732Y-81479730D01*
X41495445Y-81490881D01*
X41472547Y-81501162D01*
X41449039Y-81510573D01*
X41424920Y-81519114D01*
X41400190Y-81526785D01*
X41381243Y-81531967D01*
X41361951Y-81536660D01*
X41348899Y-81539516D01*
X41329246Y-81543445D01*
X41309670Y-81546987D01*
X41290171Y-81550142D01*
X41270749Y-81552911D01*
X41244974Y-81556003D01*
X41219336Y-81558407D01*
X41193836Y-81560124D01*
X41168473Y-81561155D01*
X41143247Y-81561498D01*
X41121721Y-81561324D01*
X41100556Y-81560800D01*
X41079753Y-81559927D01*
X41059311Y-81558705D01*
X41039231Y-81557133D01*
X41019513Y-81555213D01*
X40981161Y-81550324D01*
X40944256Y-81544039D01*
X40908797Y-81536356D01*
X40874784Y-81527277D01*
X40842218Y-81516802D01*
X40811098Y-81504929D01*
X40781424Y-81491660D01*
X40753197Y-81476994D01*
X40726416Y-81460931D01*
X40701082Y-81443472D01*
X40677193Y-81424615D01*
X40654752Y-81404362D01*
X40633756Y-81382712D01*
X40614059Y-81359654D01*
X40595632Y-81335177D01*
X40578475Y-81309279D01*
X40562590Y-81281962D01*
X40547976Y-81253225D01*
X40534632Y-81223069D01*
X40522559Y-81191493D01*
X40511757Y-81158497D01*
X40502226Y-81124082D01*
X40493966Y-81088247D01*
X40486976Y-81050992D01*
X40481257Y-81012318D01*
X40478874Y-80992449D01*
X40476809Y-80972224D01*
X40475062Y-80951645D01*
X40473632Y-80930710D01*
X40472520Y-80909421D01*
X40471726Y-80887777D01*
X40471250Y-80865778D01*
X40471091Y-80843424D01*
X40471091Y-80211324D01*
X40706052Y-80211324D01*
X40706426Y-80236969D01*
X40707548Y-80262615D01*
X40709418Y-80288260D01*
X40712036Y-80313906D01*
X40715402Y-80339551D01*
X40719516Y-80365197D01*
X40723093Y-80384431D01*
X40727090Y-80403665D01*
X40729988Y-80416488D01*
X40736277Y-80441683D01*
X40743421Y-80466222D01*
X40751420Y-80490104D01*
X40760274Y-80513330D01*
X40769983Y-80535899D01*
X40780546Y-80557813D01*
X40791965Y-80579069D01*
X40804238Y-80599670D01*
X40817320Y-80619339D01*
X40831410Y-80638046D01*
X40846507Y-80655792D01*
X40862612Y-80672576D01*
X40879724Y-80688399D01*
X40897844Y-80703259D01*
X40916971Y-80717158D01*
X40937106Y-80730095D01*
X40958294Y-80741773D01*
X40980581Y-80751894D01*
X41003968Y-80760458D01*
X41028453Y-80767465D01*
X41047538Y-80771698D01*
X41067242Y-80775055D01*
X41087563Y-80777537D01*
X41108503Y-80779142D01*
X41130062Y-80779872D01*
X41137385Y-80779921D01*
X41159115Y-80779483D01*
X41180158Y-80778169D01*
X41200514Y-80775980D01*
X41220183Y-80772914D01*
X41245340Y-80767465D01*
X41269276Y-80760458D01*
X41291991Y-80751894D01*
X41313484Y-80741773D01*
X41333756Y-80730095D01*
X41352823Y-80717158D01*
X41370942Y-80703259D01*
X41388116Y-80688399D01*
X41404343Y-80672576D01*
X41419623Y-80655792D01*
X41433957Y-80638046D01*
X41447345Y-80619339D01*
X41459786Y-80599670D01*
X41471196Y-80579108D01*
X41481737Y-80557965D01*
X41491408Y-80536243D01*
X41500208Y-80513941D01*
X41508138Y-80491058D01*
X41515198Y-80467595D01*
X41521388Y-80443553D01*
X41526708Y-80418930D01*
X41531288Y-80394025D01*
X41535257Y-80369135D01*
X41538615Y-80344260D01*
X41541363Y-80319401D01*
X41543500Y-80294557D01*
X41545026Y-80269728D01*
X41545942Y-80244915D01*
X41546248Y-80220116D01*
X41546042Y-80200497D01*
X41545126Y-80174566D01*
X41543477Y-80148893D01*
X41541096Y-80123481D01*
X41537982Y-80098327D01*
X41534135Y-80073434D01*
X41529555Y-80048800D01*
X41524243Y-80024425D01*
X41522800Y-80018372D01*
X41516381Y-79994550D01*
X41509092Y-79971447D01*
X41500933Y-79949060D01*
X41491904Y-79927391D01*
X41482004Y-79906440D01*
X41471235Y-79886206D01*
X41459595Y-79866689D01*
X41447085Y-79847890D01*
X41433568Y-79829801D01*
X41419150Y-79812658D01*
X41403831Y-79796462D01*
X41387612Y-79781212D01*
X41370492Y-79766909D01*
X41352472Y-79753551D01*
X41333550Y-79741141D01*
X41313728Y-79729677D01*
X41292930Y-79719373D01*
X41271078Y-79710443D01*
X41248172Y-79702886D01*
X41224213Y-79696704D01*
X41199201Y-79691895D01*
X41179751Y-79689191D01*
X41159709Y-79687259D01*
X41139073Y-79686099D01*
X41117846Y-79685713D01*
X41097080Y-79686112D01*
X41076916Y-79687310D01*
X41057353Y-79689307D01*
X41032203Y-79693211D01*
X41008122Y-79698534D01*
X40985110Y-79705278D01*
X40963167Y-79713441D01*
X40942291Y-79723024D01*
X40927336Y-79731142D01*
X40908140Y-79742973D01*
X40889876Y-79755750D01*
X40872542Y-79769473D01*
X40856140Y-79784143D01*
X40840668Y-79799759D01*
X40826128Y-79816322D01*
X40812519Y-79833831D01*
X40799842Y-79852287D01*
X40788042Y-79871383D01*
X40777066Y-79891060D01*
X40766915Y-79911317D01*
X40757588Y-79932154D01*
X40749085Y-79953571D01*
X40741406Y-79975568D01*
X40734552Y-79998145D01*
X40728523Y-80021303D01*
X40723256Y-80044788D01*
X40718692Y-80068350D01*
X40714830Y-80091988D01*
X40711670Y-80115703D01*
X40709212Y-80139493D01*
X40707457Y-80163360D01*
X40706403Y-80187304D01*
X40706052Y-80211324D01*
X40471091Y-80211324D01*
X40471091Y-79501065D01*
X40694817Y-79501065D01*
X40694817Y-79711114D01*
X40697748Y-79711114D01*
X40710280Y-79688753D01*
X40723697Y-79667465D01*
X40737998Y-79647251D01*
X40753184Y-79628110D01*
X40769253Y-79610042D01*
X40786208Y-79593048D01*
X40804047Y-79577127D01*
X40822770Y-79562279D01*
X40842377Y-79548504D01*
X40862870Y-79535803D01*
X40877022Y-79527932D01*
X40898744Y-79517020D01*
X40920860Y-79507181D01*
X40943371Y-79498416D01*
X40966278Y-79490723D01*
X40989579Y-79484104D01*
X41013275Y-79478559D01*
X41037367Y-79474087D01*
X41061853Y-79470688D01*
X41086734Y-79468362D01*
X41112011Y-79467110D01*
X41129081Y-79466871D01*
X41152299Y-79467158D01*
G37*
G36*
X40113519Y-79501065D02*
G01*
X40113519Y-80967500D01*
X39875627Y-80967500D01*
X39875627Y-80142936D01*
X39875214Y-80118511D01*
X39873978Y-80094576D01*
X39871917Y-80071128D01*
X39869032Y-80048169D01*
X39865323Y-80025699D01*
X39860789Y-80003717D01*
X39855431Y-79982224D01*
X39849248Y-79961219D01*
X39842120Y-79940672D01*
X39834166Y-79920797D01*
X39825389Y-79901593D01*
X39815787Y-79883061D01*
X39805361Y-79865201D01*
X39794111Y-79848012D01*
X39782036Y-79831495D01*
X39769137Y-79815650D01*
X39755413Y-79800584D01*
X39740866Y-79786402D01*
X39725494Y-79773106D01*
X39709297Y-79760696D01*
X39692277Y-79749170D01*
X39674432Y-79738531D01*
X39655762Y-79728776D01*
X39636269Y-79719907D01*
X39615790Y-79711893D01*
X39594411Y-79704947D01*
X39572132Y-79699070D01*
X39548952Y-79694262D01*
X39524871Y-79690522D01*
X39499890Y-79687850D01*
X39474007Y-79686247D01*
X39454005Y-79685746D01*
X39447225Y-79685713D01*
X39422007Y-79686409D01*
X39397828Y-79688495D01*
X39374689Y-79691973D01*
X39352588Y-79696841D01*
X39331527Y-79703101D01*
X39311504Y-79710752D01*
X39292520Y-79719794D01*
X39274575Y-79730226D01*
X39257670Y-79742050D01*
X39241803Y-79755265D01*
X39231802Y-79764848D01*
X39217748Y-79780179D01*
X39205075Y-79796498D01*
X39193785Y-79813805D01*
X39183877Y-79832098D01*
X39175352Y-79851380D01*
X39168210Y-79871649D01*
X39162449Y-79892905D01*
X39158072Y-79915149D01*
X39155076Y-79938380D01*
X39153463Y-79962599D01*
X39153156Y-79979293D01*
X39153156Y-80967500D01*
X38915264Y-80967500D01*
X38915264Y-80003229D01*
X38915474Y-79981069D01*
X38916105Y-79959288D01*
X38917157Y-79937884D01*
X38918630Y-79916858D01*
X38920523Y-79896210D01*
X38922837Y-79875940D01*
X38925572Y-79856048D01*
X38928728Y-79836533D01*
X38933590Y-79811101D01*
X38939200Y-79786341D01*
X38945619Y-79762222D01*
X38953152Y-79738958D01*
X38961800Y-79716549D01*
X38971562Y-79694994D01*
X38982438Y-79674295D01*
X38994429Y-79654450D01*
X39007534Y-79635460D01*
X39021754Y-79617325D01*
X39036981Y-79600106D01*
X39053353Y-79583864D01*
X39070869Y-79568599D01*
X39089531Y-79554310D01*
X39109338Y-79540999D01*
X39130289Y-79528665D01*
X39152385Y-79517308D01*
X39175627Y-79506927D01*
X39193903Y-79499769D01*
X39213013Y-79493315D01*
X39232955Y-79487564D01*
X39253731Y-79482518D01*
X39275339Y-79478176D01*
X39297780Y-79474538D01*
X39321055Y-79471605D01*
X39345162Y-79469375D01*
X39370102Y-79467849D01*
X39395875Y-79467028D01*
X39413519Y-79466871D01*
X39433469Y-79467132D01*
X39453081Y-79467913D01*
X39491288Y-79471039D01*
X39528140Y-79476248D01*
X39563637Y-79483541D01*
X39597779Y-79492918D01*
X39630567Y-79504378D01*
X39662000Y-79517922D01*
X39692078Y-79533550D01*
X39720801Y-79551261D01*
X39748170Y-79571056D01*
X39774184Y-79592935D01*
X39798843Y-79616898D01*
X39822147Y-79642944D01*
X39844096Y-79671074D01*
X39864691Y-79701287D01*
X39883931Y-79733585D01*
X39889793Y-79733585D01*
X39889793Y-79501065D01*
X40113519Y-79501065D01*
G37*
G36*
X37984000Y-79467369D02*
G01*
X38011212Y-79468864D01*
X38038004Y-79471354D01*
X38064375Y-79474840D01*
X38090325Y-79479322D01*
X38115855Y-79484800D01*
X38140964Y-79491275D01*
X38165652Y-79498745D01*
X38189919Y-79507212D01*
X38213766Y-79516674D01*
X38229430Y-79523536D01*
X38252494Y-79534560D01*
X38274973Y-79546382D01*
X38296869Y-79559003D01*
X38318182Y-79572423D01*
X38338910Y-79586641D01*
X38359054Y-79601657D01*
X38378614Y-79617472D01*
X38397591Y-79634086D01*
X38415984Y-79651499D01*
X38433792Y-79669709D01*
X38445340Y-79682294D01*
X38462020Y-79701762D01*
X38477987Y-79721884D01*
X38493241Y-79742658D01*
X38507783Y-79764084D01*
X38521612Y-79786164D01*
X38534728Y-79808895D01*
X38547131Y-79832280D01*
X38558822Y-79856317D01*
X38569800Y-79881006D01*
X38580065Y-79906348D01*
X38586513Y-79923606D01*
X38595505Y-79949954D01*
X38603612Y-79976791D01*
X38610835Y-80004118D01*
X38617173Y-80031935D01*
X38622627Y-80060241D01*
X38627196Y-80089036D01*
X38629751Y-80108505D01*
X38631913Y-80128191D01*
X38633682Y-80148095D01*
X38635058Y-80168217D01*
X38636041Y-80188556D01*
X38636630Y-80209112D01*
X38636827Y-80229886D01*
X38636006Y-80250731D01*
X38634888Y-80271377D01*
X38633472Y-80291825D01*
X38631759Y-80312074D01*
X38629748Y-80332125D01*
X38627439Y-80351977D01*
X38624832Y-80371631D01*
X38621928Y-80391086D01*
X38617014Y-80419897D01*
X38611429Y-80448262D01*
X38605175Y-80476180D01*
X38598252Y-80503652D01*
X38590658Y-80530677D01*
X38587978Y-80539586D01*
X38579445Y-80565800D01*
X38570147Y-80591318D01*
X38560085Y-80616140D01*
X38549258Y-80640268D01*
X38537668Y-80663699D01*
X38525313Y-80686435D01*
X38512194Y-80708476D01*
X38498311Y-80729821D01*
X38483663Y-80750470D01*
X38468252Y-80770424D01*
X38457553Y-80783340D01*
X38440897Y-80802084D01*
X38423538Y-80820028D01*
X38405475Y-80837174D01*
X38386707Y-80853522D01*
X38367235Y-80869071D01*
X38347059Y-80883822D01*
X38326180Y-80897773D01*
X38304596Y-80910927D01*
X38282307Y-80923282D01*
X38259315Y-80934838D01*
X38243596Y-80942098D01*
X38219283Y-80952225D01*
X38194154Y-80961355D01*
X38168209Y-80969490D01*
X38141449Y-80976628D01*
X38113873Y-80982770D01*
X38085481Y-80987917D01*
X38066100Y-80990794D01*
X38046356Y-80993229D01*
X38026250Y-80995221D01*
X38005782Y-80996770D01*
X37984950Y-80997877D01*
X37963757Y-80998541D01*
X37942200Y-80998763D01*
X37911754Y-80998272D01*
X37881964Y-80996801D01*
X37852830Y-80994349D01*
X37824353Y-80990916D01*
X37796532Y-80986503D01*
X37769368Y-80981108D01*
X37742860Y-80974733D01*
X37717008Y-80967377D01*
X37691813Y-80959041D01*
X37667274Y-80949723D01*
X37643392Y-80939425D01*
X37620166Y-80928146D01*
X37597596Y-80915886D01*
X37575683Y-80902645D01*
X37554427Y-80888424D01*
X37533826Y-80873222D01*
X37513941Y-80856989D01*
X37494953Y-80839799D01*
X37476862Y-80821650D01*
X37459668Y-80802544D01*
X37443370Y-80782480D01*
X37427970Y-80761458D01*
X37413466Y-80739478D01*
X37399859Y-80716540D01*
X37387149Y-80692644D01*
X37375335Y-80667791D01*
X37364419Y-80641979D01*
X37354399Y-80615210D01*
X37345276Y-80587482D01*
X37337050Y-80558797D01*
X37329721Y-80529154D01*
X37323289Y-80498553D01*
X37558739Y-80498553D01*
X37565089Y-80524571D01*
X37572598Y-80549318D01*
X37581266Y-80572794D01*
X37591094Y-80594999D01*
X37602080Y-80615933D01*
X37614226Y-80635596D01*
X37627531Y-80653989D01*
X37641995Y-80671111D01*
X37657619Y-80686962D01*
X37674401Y-80701542D01*
X37686234Y-80710556D01*
X37704845Y-80722952D01*
X37724410Y-80734129D01*
X37744928Y-80744087D01*
X37766399Y-80752825D01*
X37788823Y-80760344D01*
X37812200Y-80766644D01*
X37836530Y-80771725D01*
X37861814Y-80775586D01*
X37888050Y-80778228D01*
X37915240Y-80779650D01*
X37933896Y-80779921D01*
X37955699Y-80779582D01*
X37976961Y-80778564D01*
X37997682Y-80776868D01*
X38017862Y-80774494D01*
X38037501Y-80771442D01*
X38062845Y-80766316D01*
X38087228Y-80759985D01*
X38110648Y-80752448D01*
X38133107Y-80743705D01*
X38138571Y-80741331D01*
X38159714Y-80731271D01*
X38179910Y-80720387D01*
X38199159Y-80708678D01*
X38217462Y-80696146D01*
X38234818Y-80682789D01*
X38251228Y-80668607D01*
X38266692Y-80653602D01*
X38281209Y-80637772D01*
X38294772Y-80621232D01*
X38307374Y-80604097D01*
X38319014Y-80586366D01*
X38329692Y-80568040D01*
X38339408Y-80549119D01*
X38348162Y-80529603D01*
X38355955Y-80509491D01*
X38362786Y-80488784D01*
X38368580Y-80467626D01*
X38373503Y-80446163D01*
X38377555Y-80424395D01*
X38380738Y-80402322D01*
X38383051Y-80379943D01*
X38384493Y-80357259D01*
X38385066Y-80334269D01*
X38384768Y-80310975D01*
X37300819Y-80310975D01*
X37300116Y-80285750D01*
X37300023Y-80260268D01*
X37300539Y-80234528D01*
X37301666Y-80208530D01*
X37303402Y-80182275D01*
X37305747Y-80155762D01*
X37308702Y-80128992D01*
X37312267Y-80101964D01*
X37313771Y-80092133D01*
X37552877Y-80092133D01*
X38384768Y-80092133D01*
X38383028Y-80071403D01*
X38380494Y-80050978D01*
X38377166Y-80030859D01*
X38373045Y-80011045D01*
X38368129Y-79991536D01*
X38362420Y-79972332D01*
X38355917Y-79953434D01*
X38348620Y-79934841D01*
X38340461Y-79916683D01*
X38331615Y-79899090D01*
X38319591Y-79877893D01*
X38306494Y-79857578D01*
X38292324Y-79838146D01*
X38277080Y-79819596D01*
X38264112Y-79805392D01*
X38246972Y-79788574D01*
X38228831Y-79772925D01*
X38209687Y-79758444D01*
X38189542Y-79745133D01*
X38168395Y-79732990D01*
X38150756Y-79724117D01*
X38137106Y-79717953D01*
X38118254Y-79710397D01*
X38098821Y-79703848D01*
X38078808Y-79698307D01*
X38058216Y-79693773D01*
X38037043Y-79690247D01*
X38015290Y-79687728D01*
X37992957Y-79686217D01*
X37970044Y-79685713D01*
X37947932Y-79686217D01*
X37926294Y-79687728D01*
X37905129Y-79690247D01*
X37884437Y-79693773D01*
X37864218Y-79698307D01*
X37844473Y-79703848D01*
X37825200Y-79710397D01*
X37806401Y-79717953D01*
X37788144Y-79726242D01*
X37770498Y-79735233D01*
X37753462Y-79744927D01*
X37733025Y-79758031D01*
X37713543Y-79772232D01*
X37695015Y-79787531D01*
X37677441Y-79803927D01*
X37660893Y-79821384D01*
X37645441Y-79839867D01*
X37631087Y-79859375D01*
X37617830Y-79879909D01*
X37608015Y-79897075D01*
X37598902Y-79914897D01*
X37590491Y-79933375D01*
X37582850Y-79952312D01*
X37576050Y-79971508D01*
X37570089Y-79990963D01*
X37564967Y-80010678D01*
X37560685Y-80030653D01*
X37557243Y-80050887D01*
X37554640Y-80071380D01*
X37552877Y-80092133D01*
X37313771Y-80092133D01*
X37316442Y-80074678D01*
X37321226Y-80047135D01*
X37324754Y-80028630D01*
X37330671Y-80000992D01*
X37337428Y-79973767D01*
X37345027Y-79946954D01*
X37353468Y-79920553D01*
X37362750Y-79894564D01*
X37372874Y-79868987D01*
X37383839Y-79843822D01*
X37395646Y-79819070D01*
X37408294Y-79794729D01*
X37421784Y-79770801D01*
X37431244Y-79755078D01*
X37446070Y-79731930D01*
X37461790Y-79709563D01*
X37478402Y-79687978D01*
X37495907Y-79667173D01*
X37514306Y-79647151D01*
X37533597Y-79627910D01*
X37553782Y-79609450D01*
X37574859Y-79591771D01*
X37596829Y-79574874D01*
X37619693Y-79558758D01*
X37635431Y-79548449D01*
X37659916Y-79533870D01*
X37685560Y-79520725D01*
X37712363Y-79509014D01*
X37730876Y-79502004D01*
X37749904Y-79495631D01*
X37769448Y-79489895D01*
X37789506Y-79484796D01*
X37810080Y-79480335D01*
X37831168Y-79476511D01*
X37852773Y-79473324D01*
X37874892Y-79470775D01*
X37897526Y-79468863D01*
X37920676Y-79467588D01*
X37944341Y-79466951D01*
X37956366Y-79466871D01*
X37984000Y-79467369D01*
G37*
G36*
X35999981Y-79693529D02*
G01*
X36005843Y-79693529D01*
X36018508Y-79673904D01*
X36032080Y-79655328D01*
X36046558Y-79637801D01*
X36061942Y-79621325D01*
X36078233Y-79605897D01*
X36095430Y-79591519D01*
X36102563Y-79586062D01*
X36120602Y-79572893D01*
X36138999Y-79560560D01*
X36157754Y-79549061D01*
X36176866Y-79538396D01*
X36196337Y-79528567D01*
X36216165Y-79519573D01*
X36224196Y-79516209D01*
X36244346Y-79508194D01*
X36264496Y-79500943D01*
X36284646Y-79494456D01*
X36304796Y-79488731D01*
X36324946Y-79483770D01*
X36345096Y-79479572D01*
X36353156Y-79478107D01*
X36373092Y-79474870D01*
X36392598Y-79472182D01*
X36415438Y-79469680D01*
X36437660Y-79467969D01*
X36459265Y-79467047D01*
X36473324Y-79466871D01*
X36493806Y-79467110D01*
X36513975Y-79467826D01*
X36533831Y-79469018D01*
X36553374Y-79470688D01*
X36582102Y-79474087D01*
X36610126Y-79478559D01*
X36637446Y-79484104D01*
X36664062Y-79490723D01*
X36689974Y-79498416D01*
X36715181Y-79507181D01*
X36739685Y-79517020D01*
X36763484Y-79527932D01*
X36786471Y-79539755D01*
X36808719Y-79552324D01*
X36830228Y-79565640D01*
X36851000Y-79579704D01*
X36871032Y-79594515D01*
X36890326Y-79610072D01*
X36908882Y-79626377D01*
X36926700Y-79643428D01*
X36943778Y-79661227D01*
X36960119Y-79679773D01*
X36970602Y-79692552D01*
X36985712Y-79712283D01*
X37000083Y-79732640D01*
X37013716Y-79753624D01*
X37026610Y-79775236D01*
X37038766Y-79797474D01*
X37050183Y-79820339D01*
X37060862Y-79843830D01*
X37070803Y-79867949D01*
X37080005Y-79892694D01*
X37088468Y-79918066D01*
X37093701Y-79935329D01*
X37100946Y-79961491D01*
X37107479Y-79987954D01*
X37113300Y-80014717D01*
X37118407Y-80041781D01*
X37122802Y-80069145D01*
X37126484Y-80096810D01*
X37129454Y-80124775D01*
X37131711Y-80153041D01*
X37133255Y-80181608D01*
X37134087Y-80210475D01*
X37134245Y-80229886D01*
X37133876Y-80259045D01*
X37132768Y-80287903D01*
X37130922Y-80316461D01*
X37128337Y-80344718D01*
X37125014Y-80372675D01*
X37120953Y-80400331D01*
X37116153Y-80427687D01*
X37110614Y-80454742D01*
X37104338Y-80481497D01*
X37097322Y-80507951D01*
X37092235Y-80525420D01*
X37084002Y-80551136D01*
X37075056Y-80576259D01*
X37065398Y-80600789D01*
X37055026Y-80624728D01*
X37043942Y-80648073D01*
X37032146Y-80670826D01*
X37019636Y-80692987D01*
X37006414Y-80714556D01*
X36992480Y-80735531D01*
X36977832Y-80755915D01*
X36967671Y-80769174D01*
X36951823Y-80788406D01*
X36935237Y-80806898D01*
X36917912Y-80824653D01*
X36899848Y-80841669D01*
X36881046Y-80857946D01*
X36861506Y-80873485D01*
X36841227Y-80888286D01*
X36820210Y-80902348D01*
X36798454Y-80915671D01*
X36775960Y-80928257D01*
X36760553Y-80936236D01*
X36736816Y-80947411D01*
X36712313Y-80957486D01*
X36687047Y-80966461D01*
X36661017Y-80974338D01*
X36634222Y-80981116D01*
X36606663Y-80986795D01*
X36578340Y-80991374D01*
X36549253Y-80994855D01*
X36529437Y-80996564D01*
X36509281Y-80997786D01*
X36488785Y-80998518D01*
X36467950Y-80998763D01*
X36439780Y-80998295D01*
X36412057Y-80996891D01*
X36384780Y-80994551D01*
X36357950Y-80991275D01*
X36331566Y-80987063D01*
X36305628Y-80981916D01*
X36280137Y-80975832D01*
X36255093Y-80968812D01*
X36230495Y-80960857D01*
X36206343Y-80951965D01*
X36190491Y-80945518D01*
X36167453Y-80934942D01*
X36145599Y-80923181D01*
X36124931Y-80910235D01*
X36105448Y-80896104D01*
X36087150Y-80880789D01*
X36070037Y-80864288D01*
X36054109Y-80846602D01*
X36039365Y-80827732D01*
X36025807Y-80807676D01*
X36013434Y-80786435D01*
X36005843Y-80771617D01*
X35999981Y-80771617D01*
X35999981Y-80967988D01*
X35762089Y-80967988D01*
X35762089Y-80234282D01*
X35991677Y-80234282D01*
X35992051Y-80259401D01*
X35993173Y-80284444D01*
X35995043Y-80309410D01*
X35997661Y-80334300D01*
X36001027Y-80359113D01*
X36005141Y-80383851D01*
X36010003Y-80408512D01*
X36015613Y-80433096D01*
X36021940Y-80457200D01*
X36029199Y-80480662D01*
X36037388Y-80503484D01*
X36046509Y-80525664D01*
X36056561Y-80547203D01*
X36067545Y-80568101D01*
X36079459Y-80588358D01*
X36092305Y-80607974D01*
X36106097Y-80626697D01*
X36120851Y-80644519D01*
X36136566Y-80661440D01*
X36153243Y-80677461D01*
X36170882Y-80692581D01*
X36189483Y-80706801D01*
X36209045Y-80720120D01*
X36229569Y-80732538D01*
X36251147Y-80743643D01*
X36273869Y-80753268D01*
X36297736Y-80761412D01*
X36322748Y-80768075D01*
X36342258Y-80772101D01*
X36362413Y-80775294D01*
X36383211Y-80777654D01*
X36404653Y-80779181D01*
X36426740Y-80779875D01*
X36434245Y-80779921D01*
X36455511Y-80779530D01*
X36476262Y-80778358D01*
X36496498Y-80776405D01*
X36516219Y-80773670D01*
X36541712Y-80768808D01*
X36566289Y-80762557D01*
X36589950Y-80754917D01*
X36612695Y-80745887D01*
X36634524Y-80735469D01*
X36655414Y-80723753D01*
X36675343Y-80711075D01*
X36694310Y-80697436D01*
X36712315Y-80682834D01*
X36729359Y-80667272D01*
X36745441Y-80650747D01*
X36760561Y-80633261D01*
X36774719Y-80614813D01*
X36787847Y-80595563D01*
X36800121Y-80575673D01*
X36811539Y-80555141D01*
X36822103Y-80533968D01*
X36831811Y-80512155D01*
X36840665Y-80489699D01*
X36848664Y-80466603D01*
X36855808Y-80442866D01*
X36861990Y-80418625D01*
X36867349Y-80394262D01*
X36871882Y-80369776D01*
X36875592Y-80345169D01*
X36878477Y-80320439D01*
X36880538Y-80295587D01*
X36881774Y-80270614D01*
X36882186Y-80245518D01*
X36881989Y-80225602D01*
X36881396Y-80205790D01*
X36880409Y-80186081D01*
X36879026Y-80166475D01*
X36877249Y-80146971D01*
X36874265Y-80121127D01*
X36870578Y-80095467D01*
X36866189Y-80069989D01*
X36861098Y-80044695D01*
X36859716Y-80038400D01*
X36853663Y-80013594D01*
X36846741Y-79989490D01*
X36838948Y-79966089D01*
X36830285Y-79943389D01*
X36820752Y-79921392D01*
X36810348Y-79900097D01*
X36799075Y-79879504D01*
X36786932Y-79859614D01*
X36773826Y-79840441D01*
X36759668Y-79822245D01*
X36744456Y-79805026D01*
X36728191Y-79788784D01*
X36710873Y-79773518D01*
X36692501Y-79759230D01*
X36673076Y-79745919D01*
X36652598Y-79733585D01*
X36631021Y-79722365D01*
X36608298Y-79712641D01*
X36584431Y-79704413D01*
X36559419Y-79697681D01*
X36539909Y-79693614D01*
X36519755Y-79690388D01*
X36498956Y-79688004D01*
X36477514Y-79686461D01*
X36455428Y-79685760D01*
X36447922Y-79685713D01*
X36425164Y-79686121D01*
X36403049Y-79687345D01*
X36381578Y-79689384D01*
X36360751Y-79692239D01*
X36340568Y-79695910D01*
X36321029Y-79700396D01*
X36302134Y-79705698D01*
X36277942Y-79714037D01*
X36254896Y-79723826D01*
X36238362Y-79732119D01*
X36217128Y-79744064D01*
X36196902Y-79756940D01*
X36177683Y-79770748D01*
X36159472Y-79785486D01*
X36142268Y-79801156D01*
X36126071Y-79817757D01*
X36110883Y-79835289D01*
X36096701Y-79853752D01*
X36083489Y-79872940D01*
X36071208Y-79892892D01*
X36059859Y-79913607D01*
X36049440Y-79935085D01*
X36039953Y-79957326D01*
X36031397Y-79980331D01*
X36023772Y-80004099D01*
X36017078Y-80028630D01*
X36011125Y-80053535D01*
X36005965Y-80078669D01*
X36001599Y-80104032D01*
X35998027Y-80129624D01*
X35995249Y-80155445D01*
X35993686Y-80174962D01*
X35992570Y-80194606D01*
X35991900Y-80214380D01*
X35991677Y-80234282D01*
X35762089Y-80234282D01*
X35762089Y-78966662D01*
X35999981Y-78966662D01*
X35999981Y-79693529D01*
G37*
G36*
X34610728Y-80967988D02*
G01*
X34372835Y-80967988D01*
X34372835Y-80774548D01*
X34366973Y-80774548D01*
X34354320Y-80794185D01*
X34340784Y-80812796D01*
X34326366Y-80830382D01*
X34311065Y-80846943D01*
X34294881Y-80862477D01*
X34277815Y-80876987D01*
X34270742Y-80882503D01*
X34252562Y-80895648D01*
X34234048Y-80907910D01*
X34215200Y-80919290D01*
X34196019Y-80929787D01*
X34176503Y-80939402D01*
X34156654Y-80948134D01*
X34148620Y-80951379D01*
X34128446Y-80958831D01*
X34108225Y-80965614D01*
X34087956Y-80971730D01*
X34067639Y-80977178D01*
X34047274Y-80981958D01*
X34026861Y-80986070D01*
X34018683Y-80987527D01*
X33998385Y-80990764D01*
X33978707Y-80993452D01*
X33955913Y-80995954D01*
X33934011Y-80997665D01*
X33913002Y-80998587D01*
X33899493Y-80998763D01*
X33879012Y-80998530D01*
X33858849Y-80997831D01*
X33839002Y-80996667D01*
X33819473Y-80995038D01*
X33790772Y-80991721D01*
X33762783Y-80987356D01*
X33735508Y-80981943D01*
X33708945Y-80975483D01*
X33683095Y-80967976D01*
X33657957Y-80959420D01*
X33633533Y-80949818D01*
X33609821Y-80939167D01*
X33586747Y-80927607D01*
X33564420Y-80915274D01*
X33542840Y-80902167D01*
X33522008Y-80888288D01*
X33501922Y-80873637D01*
X33482583Y-80858212D01*
X33463992Y-80842015D01*
X33446147Y-80825045D01*
X33429050Y-80807302D01*
X33412699Y-80788786D01*
X33402214Y-80776013D01*
X33387105Y-80756287D01*
X33372733Y-80735942D01*
X33359101Y-80714979D01*
X33346206Y-80693398D01*
X33334050Y-80671199D01*
X33322633Y-80648381D01*
X33311954Y-80624945D01*
X33302014Y-80600891D01*
X33292812Y-80576219D01*
X33284348Y-80550928D01*
X33279116Y-80533724D01*
X33271870Y-80507475D01*
X33265337Y-80480933D01*
X33259517Y-80454100D01*
X33254409Y-80426975D01*
X33250014Y-80399558D01*
X33246332Y-80371848D01*
X33243362Y-80343847D01*
X33241105Y-80315554D01*
X33239561Y-80286969D01*
X33238730Y-80258092D01*
X33238571Y-80238679D01*
X33238807Y-80220116D01*
X33490630Y-80220116D01*
X33490828Y-80240032D01*
X33491420Y-80259844D01*
X33492408Y-80279553D01*
X33493790Y-80299159D01*
X33495567Y-80318663D01*
X33498552Y-80344507D01*
X33502238Y-80370167D01*
X33506627Y-80395645D01*
X33511718Y-80420939D01*
X33513100Y-80427234D01*
X33519153Y-80452048D01*
X33526076Y-80476174D01*
X33533869Y-80499614D01*
X33542532Y-80522367D01*
X33552065Y-80544433D01*
X33562468Y-80565812D01*
X33573741Y-80586504D01*
X33585885Y-80606509D01*
X33598967Y-80625575D01*
X33613057Y-80643695D01*
X33628154Y-80660868D01*
X33644259Y-80677095D01*
X33661371Y-80692375D01*
X33679491Y-80706709D01*
X33698618Y-80720097D01*
X33718753Y-80732538D01*
X33740033Y-80743643D01*
X33762595Y-80753268D01*
X33786439Y-80761412D01*
X33811565Y-80768075D01*
X33831252Y-80772101D01*
X33851659Y-80775294D01*
X33872788Y-80777654D01*
X33894638Y-80779181D01*
X33917210Y-80779875D01*
X33924894Y-80779921D01*
X33947657Y-80779517D01*
X33969785Y-80778307D01*
X33991277Y-80776289D01*
X34012134Y-80773464D01*
X34032356Y-80769832D01*
X34051942Y-80765392D01*
X34070893Y-80760146D01*
X34095172Y-80751895D01*
X34118322Y-80742209D01*
X34134943Y-80734003D01*
X34156062Y-80721951D01*
X34176189Y-80708999D01*
X34195324Y-80695146D01*
X34213467Y-80680392D01*
X34230617Y-80664738D01*
X34246775Y-80648183D01*
X34261941Y-80630727D01*
X34276115Y-80612370D01*
X34289335Y-80593075D01*
X34301638Y-80573047D01*
X34313026Y-80552287D01*
X34323498Y-80530793D01*
X34333054Y-80508567D01*
X34341694Y-80485608D01*
X34349418Y-80461917D01*
X34356227Y-80437493D01*
X34362066Y-80412473D01*
X34367126Y-80387240D01*
X34371408Y-80361793D01*
X34374911Y-80336132D01*
X34377636Y-80310257D01*
X34379169Y-80290711D01*
X34380264Y-80271045D01*
X34380921Y-80251258D01*
X34381140Y-80231352D01*
X34380773Y-80206240D01*
X34379674Y-80181221D01*
X34377842Y-80156293D01*
X34375278Y-80131456D01*
X34371980Y-80106711D01*
X34367950Y-80082058D01*
X34363188Y-80057496D01*
X34357692Y-80033026D01*
X34351250Y-80008816D01*
X34343892Y-79985277D01*
X34335619Y-79962410D01*
X34326429Y-79940214D01*
X34316324Y-79918690D01*
X34305302Y-79897838D01*
X34293365Y-79877657D01*
X34280511Y-79858148D01*
X34266719Y-79839319D01*
X34251966Y-79821420D01*
X34236250Y-79804453D01*
X34219573Y-79788417D01*
X34201934Y-79773312D01*
X34183333Y-79759139D01*
X34163771Y-79745896D01*
X34143247Y-79733585D01*
X34121670Y-79722365D01*
X34098947Y-79712641D01*
X34075080Y-79704413D01*
X34050068Y-79697681D01*
X34030558Y-79693614D01*
X34010404Y-79690388D01*
X33989605Y-79688004D01*
X33968163Y-79686461D01*
X33946077Y-79685760D01*
X33938571Y-79685713D01*
X33917305Y-79686108D01*
X33896554Y-79687293D01*
X33876318Y-79689268D01*
X33856597Y-79692033D01*
X33831105Y-79696948D01*
X33806528Y-79703268D01*
X33782867Y-79710992D01*
X33760122Y-79720121D01*
X33738292Y-79730654D01*
X33717410Y-79742255D01*
X33697504Y-79754834D01*
X33678575Y-79768389D01*
X33660623Y-79782922D01*
X33643648Y-79798431D01*
X33627650Y-79814918D01*
X33612629Y-79832381D01*
X33598585Y-79850821D01*
X33585351Y-79870078D01*
X33573001Y-79889992D01*
X33561537Y-79910561D01*
X33550958Y-79931788D01*
X33541265Y-79953670D01*
X33532457Y-79976209D01*
X33524534Y-79999405D01*
X33517497Y-80023257D01*
X33511200Y-80047383D01*
X33505743Y-80071647D01*
X33501125Y-80096049D01*
X33497347Y-80120587D01*
X33494408Y-80145264D01*
X33492309Y-80170077D01*
X33491050Y-80195028D01*
X33490630Y-80220116D01*
X33238807Y-80220116D01*
X33238941Y-80209524D01*
X33240048Y-80180679D01*
X33241895Y-80152142D01*
X33244479Y-80123915D01*
X33247802Y-80095997D01*
X33251864Y-80068388D01*
X33256664Y-80041088D01*
X33262202Y-80014098D01*
X33268479Y-79987416D01*
X33275494Y-79961043D01*
X33280581Y-79943633D01*
X33288814Y-79917822D01*
X33297760Y-79892594D01*
X33307419Y-79867951D01*
X33317790Y-79843891D01*
X33328874Y-79820415D01*
X33340671Y-79797523D01*
X33353180Y-79775215D01*
X33366402Y-79753490D01*
X33380337Y-79732350D01*
X33394984Y-79711794D01*
X33405145Y-79698414D01*
X33420993Y-79678833D01*
X33437580Y-79660026D01*
X33454905Y-79641991D01*
X33472968Y-79624729D01*
X33491770Y-79608239D01*
X33511311Y-79592523D01*
X33531589Y-79577579D01*
X33552607Y-79563408D01*
X33574362Y-79550010D01*
X33596857Y-79537385D01*
X33612263Y-79529398D01*
X33636001Y-79518224D01*
X33660503Y-79508148D01*
X33685769Y-79499173D01*
X33711800Y-79491296D01*
X33738594Y-79484518D01*
X33766153Y-79478839D01*
X33794476Y-79474260D01*
X33823564Y-79470779D01*
X33843380Y-79469070D01*
X33863535Y-79467848D01*
X33884031Y-79467116D01*
X33904866Y-79466871D01*
X33933036Y-79467352D01*
X33960759Y-79468795D01*
X33988036Y-79471199D01*
X34014867Y-79474565D01*
X34041251Y-79478893D01*
X34067188Y-79484182D01*
X34092679Y-79490433D01*
X34117724Y-79497646D01*
X34142322Y-79505821D01*
X34166473Y-79514957D01*
X34182326Y-79521582D01*
X34205364Y-79532332D01*
X34227217Y-79544251D01*
X34247885Y-79557337D01*
X34267368Y-79571591D01*
X34285666Y-79587012D01*
X34302780Y-79603602D01*
X34318708Y-79621359D01*
X34333451Y-79640284D01*
X34347009Y-79660377D01*
X34359383Y-79681637D01*
X34366973Y-79696460D01*
X34372835Y-79696460D01*
X34372835Y-78966662D01*
X34610728Y-78966662D01*
X34610728Y-80967988D01*
G37*
G36*
X32392026Y-81174129D02*
G01*
X32399890Y-81193800D01*
X32407728Y-81212878D01*
X32415540Y-81231363D01*
X32425917Y-81255089D01*
X32436248Y-81277762D01*
X32446532Y-81299381D01*
X32456772Y-81319947D01*
X32466965Y-81339460D01*
X32474580Y-81353403D01*
X32484846Y-81371302D01*
X32495371Y-81388360D01*
X32508893Y-81408503D01*
X32522820Y-81427334D01*
X32537152Y-81444854D01*
X32551890Y-81461061D01*
X32563973Y-81473082D01*
X32579524Y-81486964D01*
X32595648Y-81499605D01*
X32612344Y-81511007D01*
X32629613Y-81521168D01*
X32647454Y-81530088D01*
X32665868Y-81537768D01*
X32673394Y-81540493D01*
X32692611Y-81546544D01*
X32712711Y-81551570D01*
X32733693Y-81555570D01*
X32755558Y-81558544D01*
X32778306Y-81560493D01*
X32801936Y-81561416D01*
X32811635Y-81561498D01*
X32832640Y-81561132D01*
X32853645Y-81560033D01*
X32874650Y-81558201D01*
X32895655Y-81555636D01*
X32916507Y-81552400D01*
X32937054Y-81548065D01*
X32957295Y-81542630D01*
X32977232Y-81536097D01*
X32977232Y-81317255D01*
X32956786Y-81323638D01*
X32936835Y-81328811D01*
X32915415Y-81333444D01*
X32905424Y-81335329D01*
X32885946Y-81338535D01*
X32865930Y-81341047D01*
X32846047Y-81342478D01*
X32837036Y-81342657D01*
X32814875Y-81341798D01*
X32793883Y-81339222D01*
X32774060Y-81334929D01*
X32755406Y-81328918D01*
X32734563Y-81319438D01*
X32715403Y-81307486D01*
X32697761Y-81293432D01*
X32681835Y-81277283D01*
X32667627Y-81259040D01*
X32657099Y-81242236D01*
X32647763Y-81223977D01*
X32641153Y-81208323D01*
X32542968Y-80965546D01*
X33116939Y-79529398D01*
X32848271Y-79529398D01*
X32425243Y-80716418D01*
X32419869Y-80716418D01*
X32013938Y-79529398D01*
X31761879Y-79529398D01*
X32392026Y-81174129D01*
G37*
G36*
X30733128Y-78966662D02*
G01*
X30733128Y-80967500D01*
X30466904Y-80967500D01*
X30466904Y-78966662D01*
X30733128Y-78966662D01*
G37*
G36*
X30019451Y-78966662D02*
G01*
X30019451Y-80967500D01*
X28695166Y-80967500D01*
X28695166Y-80748658D01*
X29753226Y-80748658D01*
X29753226Y-78966662D01*
X30019451Y-78966662D01*
G37*
G36*
X26734384Y-80967500D02*
G01*
X26199493Y-78966662D01*
X26465229Y-78966662D01*
X26871649Y-80631421D01*
X26877022Y-80631421D01*
X27319590Y-78966662D01*
X27607797Y-78966662D01*
X28055738Y-80631421D01*
X28061600Y-80631421D01*
X28453366Y-78966662D01*
X28724964Y-78966662D01*
X28212542Y-80967500D01*
X27935571Y-80967500D01*
X27473463Y-79286132D01*
X27468090Y-79286132D01*
X27011356Y-80967500D01*
X26734384Y-80967500D01*
G37*
G36*
X26098376Y-79531352D02*
G01*
X26098376Y-80967500D01*
X25860484Y-80967500D01*
X25860484Y-80328560D01*
X25860239Y-80302827D01*
X25859505Y-80277653D01*
X25858281Y-80253036D01*
X25856568Y-80228978D01*
X25854366Y-80205478D01*
X25851674Y-80182535D01*
X25848492Y-80160151D01*
X25844821Y-80138326D01*
X25840661Y-80117058D01*
X25836012Y-80096348D01*
X25832640Y-80082852D01*
X25827036Y-80063077D01*
X25820848Y-80043868D01*
X25814076Y-80025227D01*
X25804138Y-80001253D01*
X25793162Y-79978286D01*
X25781149Y-79956327D01*
X25768097Y-79935376D01*
X25754007Y-79915432D01*
X25742758Y-79901135D01*
X25726761Y-79882901D01*
X25709541Y-79865812D01*
X25691101Y-79849867D01*
X25671440Y-79835068D01*
X25650557Y-79821413D01*
X25628453Y-79808903D01*
X25605128Y-79797538D01*
X25586832Y-79789766D01*
X25580581Y-79787318D01*
X25561340Y-79780334D01*
X25541352Y-79774037D01*
X25520616Y-79768427D01*
X25499134Y-79763504D01*
X25476904Y-79759268D01*
X25453928Y-79755719D01*
X25430204Y-79752857D01*
X25405734Y-79750682D01*
X25380516Y-79749193D01*
X25354552Y-79748392D01*
X25336827Y-79748239D01*
X25336827Y-79498135D01*
X25360744Y-79497751D01*
X25384134Y-79498066D01*
X25406997Y-79499079D01*
X25429334Y-79500791D01*
X25451144Y-79503201D01*
X25472427Y-79506309D01*
X25493184Y-79510116D01*
X25513414Y-79514621D01*
X25533118Y-79519824D01*
X25552295Y-79525726D01*
X25570945Y-79532327D01*
X25597933Y-79543537D01*
X25623736Y-79556318D01*
X25648354Y-79570670D01*
X25656297Y-79575804D01*
X25679579Y-79592269D01*
X25702166Y-79610339D01*
X25716838Y-79623278D01*
X25731201Y-79636931D01*
X25745254Y-79651298D01*
X25758999Y-79666378D01*
X25772434Y-79682172D01*
X25785560Y-79698679D01*
X25798377Y-79715900D01*
X25810885Y-79733835D01*
X25823084Y-79752483D01*
X25834974Y-79771845D01*
X25846554Y-79791921D01*
X25857826Y-79812710D01*
X25868788Y-79834213D01*
X25874650Y-79834213D01*
X25874650Y-79531352D01*
X26098376Y-79531352D01*
G37*
G36*
X24931384Y-79248030D02*
G01*
X24931384Y-78966662D01*
X25169276Y-78966662D01*
X25169276Y-79248030D01*
X24931384Y-79248030D01*
G37*
G36*
X25169276Y-79520116D02*
G01*
X25169276Y-80967500D01*
X24931384Y-80967500D01*
X24931384Y-79520116D01*
X25169276Y-79520116D01*
G37*
G36*
X24231872Y-79529398D02*
G01*
X24231872Y-79091714D01*
X24469765Y-79091714D01*
X24469765Y-79529398D01*
X24715962Y-79529398D01*
X24715962Y-79748239D01*
X24469765Y-79748239D01*
X24469765Y-80655846D01*
X24469459Y-80680041D01*
X24468544Y-80703046D01*
X24467017Y-80724859D01*
X24464880Y-80745483D01*
X24462132Y-80764915D01*
X24457839Y-80787532D01*
X24452591Y-80808288D01*
X24450225Y-80816069D01*
X24442160Y-80837822D01*
X24432617Y-80857651D01*
X24421597Y-80875557D01*
X24409101Y-80891540D01*
X24395128Y-80905599D01*
X24390142Y-80909858D01*
X24373896Y-80921427D01*
X24355932Y-80931588D01*
X24336252Y-80940341D01*
X24314854Y-80947685D01*
X24295710Y-80952730D01*
X24283652Y-80955287D01*
X24262400Y-80958806D01*
X24239860Y-80961727D01*
X24216032Y-80964053D01*
X24196042Y-80965484D01*
X24175228Y-80966534D01*
X24153590Y-80967201D01*
X24131127Y-80967488D01*
X24125382Y-80967500D01*
X23943177Y-80967500D01*
X23943177Y-80748658D01*
X24052598Y-80748658D01*
X24072925Y-80748521D01*
X24094774Y-80748013D01*
X24114613Y-80747131D01*
X24134824Y-80745666D01*
X24143945Y-80744750D01*
X24164143Y-80741096D01*
X24182944Y-80734983D01*
X24198167Y-80726676D01*
X24212926Y-80712651D01*
X24223011Y-80694512D01*
X24225033Y-80688574D01*
X24229201Y-80667920D01*
X24231204Y-80647141D01*
X24231866Y-80625665D01*
X24231872Y-80623117D01*
X24231872Y-79748239D01*
X23943177Y-79748239D01*
X23943177Y-79529398D01*
X24231872Y-79529398D01*
G37*
G36*
X23106679Y-79467369D02*
G01*
X23133892Y-79468864D01*
X23160684Y-79471354D01*
X23187055Y-79474840D01*
X23213005Y-79479322D01*
X23238535Y-79484800D01*
X23263644Y-79491275D01*
X23288332Y-79498745D01*
X23312599Y-79507212D01*
X23336446Y-79516674D01*
X23352110Y-79523536D01*
X23375173Y-79534560D01*
X23397653Y-79546382D01*
X23419549Y-79559003D01*
X23440861Y-79572423D01*
X23461589Y-79586641D01*
X23481734Y-79601657D01*
X23501294Y-79617472D01*
X23520271Y-79634086D01*
X23538663Y-79651499D01*
X23556472Y-79669709D01*
X23568020Y-79682294D01*
X23584700Y-79701762D01*
X23600667Y-79721884D01*
X23615921Y-79742658D01*
X23630462Y-79764084D01*
X23644291Y-79786164D01*
X23657407Y-79808895D01*
X23669811Y-79832280D01*
X23681502Y-79856317D01*
X23692480Y-79881006D01*
X23702745Y-79906348D01*
X23709193Y-79923606D01*
X23718184Y-79949954D01*
X23726291Y-79976791D01*
X23733514Y-80004118D01*
X23739853Y-80031935D01*
X23745307Y-80060241D01*
X23749876Y-80089036D01*
X23752431Y-80108505D01*
X23754593Y-80128191D01*
X23756362Y-80148095D01*
X23757738Y-80168217D01*
X23758720Y-80188556D01*
X23759310Y-80209112D01*
X23759507Y-80229886D01*
X23758686Y-80250731D01*
X23757568Y-80271377D01*
X23756152Y-80291825D01*
X23754439Y-80312074D01*
X23752427Y-80332125D01*
X23750118Y-80351977D01*
X23747512Y-80371631D01*
X23744608Y-80391086D01*
X23739693Y-80419897D01*
X23734109Y-80448262D01*
X23727855Y-80476180D01*
X23720931Y-80503652D01*
X23713338Y-80530677D01*
X23710658Y-80539586D01*
X23702124Y-80565800D01*
X23692826Y-80591318D01*
X23682764Y-80616140D01*
X23671938Y-80640268D01*
X23660347Y-80663699D01*
X23647993Y-80686435D01*
X23634874Y-80708476D01*
X23620990Y-80729821D01*
X23606343Y-80750470D01*
X23590931Y-80770424D01*
X23580232Y-80783340D01*
X23563577Y-80802084D01*
X23546218Y-80820028D01*
X23528154Y-80837174D01*
X23509387Y-80853522D01*
X23489915Y-80869071D01*
X23469739Y-80883822D01*
X23448859Y-80897773D01*
X23427275Y-80910927D01*
X23404987Y-80923282D01*
X23381995Y-80934838D01*
X23366276Y-80942098D01*
X23341962Y-80952225D01*
X23316834Y-80961355D01*
X23290889Y-80969490D01*
X23264129Y-80976628D01*
X23236553Y-80982770D01*
X23208161Y-80987917D01*
X23188780Y-80990794D01*
X23169036Y-80993229D01*
X23148930Y-80995221D01*
X23128461Y-80996770D01*
X23107630Y-80997877D01*
X23086436Y-80998541D01*
X23064880Y-80998763D01*
X23034434Y-80998272D01*
X23004644Y-80996801D01*
X22975510Y-80994349D01*
X22947033Y-80990916D01*
X22919212Y-80986503D01*
X22892048Y-80981108D01*
X22865540Y-80974733D01*
X22839688Y-80967377D01*
X22814493Y-80959041D01*
X22789954Y-80949723D01*
X22766072Y-80939425D01*
X22742846Y-80928146D01*
X22720276Y-80915886D01*
X22698363Y-80902645D01*
X22677106Y-80888424D01*
X22656506Y-80873222D01*
X22636621Y-80856989D01*
X22617633Y-80839799D01*
X22599542Y-80821650D01*
X22582348Y-80802544D01*
X22566050Y-80782480D01*
X22550650Y-80761458D01*
X22536146Y-80739478D01*
X22522539Y-80716540D01*
X22509829Y-80692644D01*
X22498015Y-80667791D01*
X22487099Y-80641979D01*
X22477079Y-80615210D01*
X22467956Y-80587482D01*
X22459730Y-80558797D01*
X22452401Y-80529154D01*
X22445969Y-80498553D01*
X22681419Y-80498553D01*
X22687768Y-80524571D01*
X22695278Y-80549318D01*
X22703946Y-80572794D01*
X22713773Y-80594999D01*
X22724760Y-80615933D01*
X22736906Y-80635596D01*
X22750211Y-80653989D01*
X22764675Y-80671111D01*
X22780298Y-80686962D01*
X22797081Y-80701542D01*
X22808913Y-80710556D01*
X22827525Y-80722952D01*
X22847090Y-80734129D01*
X22867608Y-80744087D01*
X22889078Y-80752825D01*
X22911503Y-80760344D01*
X22934880Y-80766644D01*
X22959210Y-80771725D01*
X22984493Y-80775586D01*
X23010730Y-80778228D01*
X23037920Y-80779650D01*
X23056576Y-80779921D01*
X23078379Y-80779582D01*
X23099641Y-80778564D01*
X23120362Y-80776868D01*
X23140542Y-80774494D01*
X23160181Y-80771442D01*
X23185525Y-80766316D01*
X23209907Y-80759985D01*
X23233328Y-80752448D01*
X23255787Y-80743705D01*
X23261251Y-80741331D01*
X23282393Y-80731271D01*
X23302589Y-80720387D01*
X23321839Y-80708678D01*
X23340142Y-80696146D01*
X23357498Y-80682789D01*
X23373908Y-80668607D01*
X23389372Y-80653602D01*
X23403889Y-80637772D01*
X23417452Y-80621232D01*
X23430054Y-80604097D01*
X23441693Y-80586366D01*
X23452371Y-80568040D01*
X23462087Y-80549119D01*
X23470842Y-80529603D01*
X23478635Y-80509491D01*
X23485466Y-80488784D01*
X23491259Y-80467626D01*
X23496182Y-80446163D01*
X23500235Y-80424395D01*
X23503418Y-80402322D01*
X23505731Y-80379943D01*
X23507173Y-80357259D01*
X23507746Y-80334269D01*
X23507448Y-80310975D01*
X22423498Y-80310975D01*
X22422796Y-80285750D01*
X22422703Y-80260268D01*
X22423219Y-80234528D01*
X22424345Y-80208530D01*
X22426081Y-80182275D01*
X22428427Y-80155762D01*
X22431382Y-80128992D01*
X22434947Y-80101964D01*
X22436451Y-80092133D01*
X22675557Y-80092133D01*
X23507448Y-80092133D01*
X23505708Y-80071403D01*
X23503174Y-80050978D01*
X23499846Y-80030859D01*
X23495724Y-80011045D01*
X23490809Y-79991536D01*
X23485100Y-79972332D01*
X23478597Y-79953434D01*
X23471300Y-79934841D01*
X23463141Y-79916683D01*
X23454295Y-79899090D01*
X23442271Y-79877893D01*
X23429174Y-79857578D01*
X23415003Y-79838146D01*
X23399760Y-79819596D01*
X23386792Y-79805392D01*
X23369652Y-79788574D01*
X23351510Y-79772925D01*
X23332367Y-79758444D01*
X23312222Y-79745133D01*
X23291075Y-79732990D01*
X23273436Y-79724117D01*
X23259786Y-79717953D01*
X23240933Y-79710397D01*
X23221501Y-79703848D01*
X23201488Y-79698307D01*
X23180895Y-79693773D01*
X23159722Y-79690247D01*
X23137970Y-79687728D01*
X23115637Y-79686217D01*
X23092724Y-79685713D01*
X23070612Y-79686217D01*
X23048974Y-79687728D01*
X23027808Y-79690247D01*
X23007116Y-79693773D01*
X22986898Y-79698307D01*
X22967152Y-79703848D01*
X22947880Y-79710397D01*
X22929081Y-79717953D01*
X22910824Y-79726242D01*
X22893177Y-79735233D01*
X22876141Y-79744927D01*
X22855705Y-79758031D01*
X22836223Y-79772232D01*
X22817695Y-79787531D01*
X22800121Y-79803927D01*
X22783572Y-79821384D01*
X22768121Y-79839867D01*
X22753767Y-79859375D01*
X22740510Y-79879909D01*
X22730695Y-79897075D01*
X22721581Y-79914897D01*
X22713170Y-79933375D01*
X22705530Y-79952312D01*
X22698729Y-79971508D01*
X22692768Y-79990963D01*
X22687647Y-80010678D01*
X22683365Y-80030653D01*
X22679923Y-80050887D01*
X22677320Y-80071380D01*
X22675557Y-80092133D01*
X22436451Y-80092133D01*
X22439122Y-80074678D01*
X22443906Y-80047135D01*
X22447434Y-80028630D01*
X22453350Y-80000992D01*
X22460108Y-79973767D01*
X22467707Y-79946954D01*
X22476148Y-79920553D01*
X22485430Y-79894564D01*
X22495554Y-79868987D01*
X22506519Y-79843822D01*
X22518325Y-79819070D01*
X22530974Y-79794729D01*
X22544463Y-79770801D01*
X22553924Y-79755078D01*
X22568750Y-79731930D01*
X22584470Y-79709563D01*
X22601082Y-79687978D01*
X22618587Y-79667173D01*
X22636986Y-79647151D01*
X22656277Y-79627910D01*
X22676461Y-79609450D01*
X22697539Y-79591771D01*
X22719509Y-79574874D01*
X22742373Y-79558758D01*
X22758111Y-79548449D01*
X22782596Y-79533870D01*
X22808240Y-79520725D01*
X22835043Y-79509014D01*
X22853556Y-79502004D01*
X22872584Y-79495631D01*
X22892127Y-79489895D01*
X22912186Y-79484796D01*
X22932759Y-79480335D01*
X22953848Y-79476511D01*
X22975452Y-79473324D01*
X22997571Y-79470775D01*
X23020206Y-79468863D01*
X23043356Y-79467588D01*
X23067020Y-79466951D01*
X23079046Y-79466871D01*
X23106679Y-79467369D01*
G37*
G36*
X22032710Y-80498553D02*
G01*
X22270602Y-80498553D01*
X22269200Y-80524021D01*
X22267007Y-80548768D01*
X22264025Y-80572794D01*
X22260252Y-80596098D01*
X22255690Y-80618681D01*
X22250338Y-80640542D01*
X22244195Y-80661683D01*
X22237263Y-80682102D01*
X22229541Y-80701800D01*
X22221029Y-80720776D01*
X22214915Y-80733026D01*
X22205097Y-80750744D01*
X22194696Y-80767808D01*
X22183711Y-80784220D01*
X22172142Y-80799979D01*
X22155808Y-80819977D01*
X22138436Y-80838814D01*
X22120026Y-80856491D01*
X22100579Y-80873008D01*
X22080093Y-80888365D01*
X22058699Y-80902508D01*
X22036526Y-80915628D01*
X22013575Y-80927726D01*
X21995850Y-80936128D01*
X21977688Y-80943955D01*
X21959088Y-80951206D01*
X21940050Y-80957882D01*
X21920574Y-80963983D01*
X21900660Y-80969509D01*
X21887141Y-80972873D01*
X21866530Y-80977500D01*
X21845730Y-80981671D01*
X21824742Y-80985388D01*
X21803564Y-80988649D01*
X21782198Y-80991456D01*
X21760642Y-80993807D01*
X21738898Y-80995703D01*
X21716965Y-80997144D01*
X21694843Y-80998131D01*
X21672532Y-80998661D01*
X21657553Y-80998763D01*
X21637028Y-80998574D01*
X21616485Y-80998007D01*
X21595926Y-80997062D01*
X21575350Y-80995740D01*
X21554756Y-80994040D01*
X21534145Y-80991962D01*
X21513517Y-80989506D01*
X21492872Y-80986673D01*
X21472210Y-80983461D01*
X21451530Y-80979872D01*
X21437734Y-80977269D01*
X21417232Y-80973047D01*
X21397125Y-80968259D01*
X21377413Y-80962904D01*
X21358096Y-80956982D01*
X21339173Y-80950493D01*
X21320646Y-80943438D01*
X21302514Y-80935816D01*
X21278952Y-80924771D01*
X21256093Y-80912719D01*
X21239409Y-80903019D01*
X21217832Y-80889059D01*
X21197308Y-80874046D01*
X21177837Y-80857979D01*
X21159419Y-80840860D01*
X21142055Y-80822686D01*
X21125744Y-80803460D01*
X21110487Y-80783180D01*
X21096283Y-80761847D01*
X21083460Y-80739171D01*
X21074965Y-80721252D01*
X21067431Y-80702551D01*
X21060860Y-80683070D01*
X21055250Y-80662807D01*
X21050602Y-80641762D01*
X21046915Y-80619936D01*
X21044190Y-80597329D01*
X21042427Y-80573940D01*
X21041626Y-80549770D01*
X21041572Y-80541540D01*
X21042206Y-80515940D01*
X21044106Y-80491409D01*
X21047274Y-80467947D01*
X21051708Y-80445553D01*
X21057410Y-80424227D01*
X21064378Y-80403970D01*
X21072614Y-80384782D01*
X21082116Y-80366662D01*
X21092649Y-80349336D01*
X21103976Y-80332773D01*
X21116097Y-80316974D01*
X21129011Y-80301938D01*
X21142719Y-80287665D01*
X21157221Y-80274155D01*
X21172517Y-80261409D01*
X21188606Y-80249426D01*
X21205398Y-80237992D01*
X21222800Y-80227138D01*
X21240813Y-80216865D01*
X21259437Y-80207172D01*
X21278671Y-80198058D01*
X21298516Y-80189525D01*
X21318971Y-80181572D01*
X21340037Y-80174199D01*
X21361355Y-80167253D01*
X21382810Y-80160582D01*
X21404403Y-80154186D01*
X21426133Y-80148065D01*
X21448000Y-80142218D01*
X21470005Y-80136646D01*
X21492147Y-80131349D01*
X21514426Y-80126327D01*
X21535431Y-80121351D01*
X21556436Y-80116435D01*
X21577441Y-80111581D01*
X21598446Y-80106788D01*
X21619451Y-80102056D01*
X21640456Y-80097384D01*
X21661461Y-80092774D01*
X21682465Y-80088225D01*
X21703211Y-80083455D01*
X21723437Y-80078425D01*
X21743144Y-80073136D01*
X21762333Y-80067587D01*
X21781002Y-80061778D01*
X21803609Y-80054153D01*
X21825405Y-80046122D01*
X21833896Y-80042796D01*
X21854237Y-80034066D01*
X21873433Y-80024669D01*
X21891484Y-80014603D01*
X21908390Y-80003870D01*
X21927166Y-79990108D01*
X21944294Y-79975385D01*
X21959069Y-79959259D01*
X21970786Y-79941657D01*
X21979448Y-79922577D01*
X21985052Y-79902021D01*
X21987599Y-79879987D01*
X21987769Y-79872315D01*
X21986790Y-79851821D01*
X21983174Y-79829822D01*
X21976893Y-79809880D01*
X21967947Y-79791995D01*
X21959925Y-79780479D01*
X21946759Y-79765579D01*
X21932049Y-79752082D01*
X21915797Y-79739987D01*
X21898002Y-79729295D01*
X21887141Y-79723815D01*
X21867035Y-79715233D01*
X21846041Y-79707867D01*
X21824159Y-79701716D01*
X21804696Y-79697411D01*
X21787978Y-79694506D01*
X21767513Y-79691518D01*
X21747152Y-79689148D01*
X21726893Y-79687396D01*
X21706737Y-79686263D01*
X21686684Y-79685747D01*
X21680023Y-79685713D01*
X21657927Y-79686177D01*
X21635968Y-79687568D01*
X21614146Y-79689886D01*
X21592462Y-79693132D01*
X21570915Y-79697305D01*
X21563763Y-79698902D01*
X21542509Y-79704232D01*
X21521975Y-79710695D01*
X21502163Y-79718291D01*
X21483072Y-79727021D01*
X21464702Y-79736884D01*
X21458739Y-79740423D01*
X21441554Y-79751884D01*
X21425537Y-79764649D01*
X21410688Y-79778720D01*
X21397007Y-79794096D01*
X21384493Y-79810777D01*
X21380581Y-79816627D01*
X21369768Y-79835255D01*
X21360775Y-79855599D01*
X21353602Y-79877661D01*
X21349015Y-79897358D01*
X21345693Y-79918247D01*
X21343945Y-79935818D01*
X21106052Y-79935818D01*
X21107957Y-79910663D01*
X21110557Y-79886307D01*
X21113853Y-79862750D01*
X21117845Y-79839991D01*
X21122532Y-79818030D01*
X21127914Y-79796868D01*
X21133992Y-79776505D01*
X21140765Y-79756940D01*
X21148234Y-79738174D01*
X21156399Y-79720207D01*
X21162228Y-79708672D01*
X21174585Y-79686431D01*
X21187965Y-79665380D01*
X21202368Y-79645520D01*
X21217793Y-79626851D01*
X21234242Y-79609372D01*
X21251713Y-79593084D01*
X21270206Y-79577987D01*
X21289723Y-79564080D01*
X21310003Y-79551150D01*
X21331030Y-79539228D01*
X21352806Y-79528314D01*
X21375330Y-79518407D01*
X21398602Y-79509507D01*
X21422622Y-79501615D01*
X21447389Y-79494730D01*
X21466456Y-79490228D01*
X21472905Y-79488853D01*
X21492494Y-79484925D01*
X21512427Y-79481383D01*
X21532703Y-79478227D01*
X21553322Y-79475458D01*
X21574285Y-79473075D01*
X21595591Y-79471079D01*
X21617241Y-79469469D01*
X21639234Y-79468245D01*
X21661571Y-79467408D01*
X21684251Y-79466957D01*
X21699562Y-79466871D01*
X21723399Y-79467245D01*
X21747281Y-79468367D01*
X21771210Y-79470237D01*
X21795183Y-79472855D01*
X21819203Y-79476221D01*
X21843269Y-79480335D01*
X21867380Y-79485197D01*
X21891537Y-79490807D01*
X21915298Y-79497188D01*
X21938462Y-79504363D01*
X21961032Y-79512331D01*
X21983006Y-79521093D01*
X22004385Y-79530649D01*
X22025169Y-79540999D01*
X22045357Y-79552143D01*
X22064950Y-79564080D01*
X22083695Y-79576880D01*
X22101586Y-79590611D01*
X22118622Y-79605273D01*
X22134803Y-79620867D01*
X22150129Y-79637391D01*
X22164601Y-79654847D01*
X22178217Y-79673234D01*
X22190979Y-79692552D01*
X22202428Y-79712702D01*
X22212350Y-79733829D01*
X22220746Y-79755933D01*
X22227615Y-79779014D01*
X22232958Y-79803072D01*
X22236775Y-79828107D01*
X22239064Y-79854118D01*
X22239780Y-79874269D01*
X22239828Y-79881107D01*
X22239214Y-79906945D01*
X22237372Y-79931700D01*
X22234302Y-79955373D01*
X22230004Y-79977965D01*
X22224479Y-79999474D01*
X22217726Y-80019902D01*
X22209744Y-80039248D01*
X22200535Y-80057512D01*
X22190098Y-80074694D01*
X22178433Y-80090794D01*
X22169974Y-80100926D01*
X22156484Y-80115367D01*
X22142394Y-80129199D01*
X22127702Y-80142421D01*
X22112409Y-80155033D01*
X22096515Y-80167036D01*
X22080020Y-80178429D01*
X22062924Y-80189213D01*
X22045227Y-80199386D01*
X22026929Y-80208950D01*
X22008030Y-80217905D01*
X21995096Y-80223536D01*
X21975245Y-80231516D01*
X21955077Y-80239152D01*
X21934590Y-80246445D01*
X21913786Y-80253394D01*
X21892665Y-80260000D01*
X21871225Y-80266263D01*
X21849468Y-80272182D01*
X21827393Y-80277758D01*
X21805000Y-80282990D01*
X21782290Y-80287879D01*
X21766973Y-80290947D01*
X21743968Y-80295486D01*
X21721298Y-80300129D01*
X21698963Y-80304874D01*
X21676962Y-80309723D01*
X21655297Y-80314675D01*
X21633966Y-80319729D01*
X21612970Y-80324887D01*
X21592309Y-80330148D01*
X21571983Y-80335512D01*
X21551992Y-80340978D01*
X21538851Y-80344680D01*
X21519468Y-80350339D01*
X21500703Y-80356324D01*
X21476645Y-80364811D01*
X21453686Y-80373879D01*
X21431826Y-80383526D01*
X21411066Y-80393754D01*
X21391404Y-80404562D01*
X21372842Y-80415950D01*
X21363973Y-80421861D01*
X21347486Y-80434539D01*
X21333198Y-80448636D01*
X21321108Y-80464153D01*
X21311216Y-80481090D01*
X21303523Y-80499446D01*
X21298027Y-80519222D01*
X21294730Y-80540418D01*
X21293631Y-80563033D01*
X21294454Y-80583527D01*
X21297614Y-80606608D01*
X21303143Y-80628040D01*
X21311043Y-80647824D01*
X21321313Y-80665959D01*
X21327336Y-80674408D01*
X21340611Y-80689973D01*
X21355157Y-80704061D01*
X21370974Y-80716672D01*
X21388061Y-80727806D01*
X21406419Y-80737463D01*
X21412821Y-80740354D01*
X21432582Y-80748299D01*
X21453030Y-80755283D01*
X21474164Y-80761305D01*
X21495986Y-80766366D01*
X21518494Y-80770464D01*
X21526150Y-80771617D01*
X21549025Y-80774439D01*
X21571488Y-80776677D01*
X21593538Y-80778332D01*
X21615177Y-80779402D01*
X21636403Y-80779889D01*
X21643387Y-80779921D01*
X21666036Y-80779575D01*
X21688495Y-80778538D01*
X21710763Y-80776808D01*
X21732840Y-80774387D01*
X21754727Y-80771275D01*
X21776423Y-80767470D01*
X21785047Y-80765755D01*
X21806085Y-80760887D01*
X21826454Y-80755136D01*
X21846156Y-80748503D01*
X21865190Y-80740987D01*
X21883556Y-80732589D01*
X21901254Y-80723308D01*
X21908146Y-80719349D01*
X21924730Y-80708725D01*
X21943277Y-80694529D01*
X21960347Y-80678752D01*
X21975941Y-80661395D01*
X21987807Y-80645725D01*
X21996562Y-80632398D01*
X22006203Y-80614576D01*
X22014365Y-80595609D01*
X22021048Y-80575497D01*
X22026252Y-80554241D01*
X22029978Y-80531839D01*
X22032225Y-80508292D01*
X22032710Y-80498553D01*
G37*
D11*
%TO.C,*%
X214400000Y-96625100D03*
%TD*%
D12*
%TO.C,D27*%
X102870000Y-64452500D03*
D13*
X100330000Y-64452500D03*
%TD*%
D11*
%TO.C,*%
X101468750Y-96875100D03*
%TD*%
%TO.C,*%
X81800000Y-39957500D03*
%TD*%
%TO.C,*%
X203375000Y-97125100D03*
%TD*%
%TO.C,*%
X218900000Y-97125100D03*
%TD*%
D12*
%TO.C,D13*%
X102870000Y-45402500D03*
D13*
X100330000Y-45402500D03*
%TD*%
D11*
%TO.C,*%
X197731250Y-96625100D03*
%TD*%
%TO.C,*%
X128675000Y-41957500D03*
%TD*%
D12*
%TO.C,D1*%
X26670000Y-26352500D03*
D13*
X24130000Y-26352500D03*
%TD*%
D14*
%TO.C,REF\u002A\u002A*%
X142113000Y-95567500D03*
D15*
X142113000Y-80327500D03*
D14*
X118237000Y-95567500D03*
D15*
X118237000Y-80327500D03*
%TD*%
D11*
%TO.C,*%
X205625000Y-96375100D03*
%TD*%
%TO.C,*%
X91325000Y-96375100D03*
%TD*%
%TO.C,*%
X265025000Y-39957500D03*
%TD*%
%TO.C,*%
X130175000Y-41957500D03*
%TD*%
%TO.C,*%
X168275000Y-39957500D03*
%TD*%
%TO.C,*%
X212900000Y-97125100D03*
%TD*%
%TO.C,*%
X185562500Y-97125100D03*
%TD*%
%TO.C,*%
X183312500Y-96375100D03*
%TD*%
D12*
%TO.C,D46*%
X198120000Y-83502500D03*
D13*
X195580000Y-83502500D03*
%TD*%
D12*
%TO.C,D25*%
X64770000Y-64452500D03*
D13*
X62230000Y-64452500D03*
%TD*%
D11*
%TO.C,*%
X112887500Y-97125100D03*
%TD*%
%TO.C,*%
X82550000Y-96375100D03*
%TD*%
D12*
%TO.C,D24*%
X45720000Y-64452500D03*
D13*
X43180000Y-64452500D03*
%TD*%
D11*
%TO.C,*%
X200731250Y-96625100D03*
%TD*%
D16*
%TO.C,REF\u002A\u002A*%
X201481250Y-96875100D03*
%TD*%
D12*
%TO.C,D20*%
X236220000Y-45402500D03*
D13*
X233680000Y-45402500D03*
%TD*%
D16*
%TO.C,REF\u002A\u002A*%
X204125000Y-96875100D03*
%TD*%
%TO.C,REF\u002A\u002A*%
X215900000Y-96375100D03*
%TD*%
D11*
%TO.C,*%
X204875000Y-96625100D03*
%TD*%
%TO.C,*%
X215150000Y-96375100D03*
%TD*%
D12*
%TO.C,D47*%
X217170000Y-83502500D03*
D13*
X214630000Y-83502500D03*
%TD*%
D12*
%TO.C,D31*%
X179070000Y-64452500D03*
D13*
X176530000Y-64452500D03*
%TD*%
D12*
%TO.C,D26*%
X83820000Y-64452500D03*
D13*
X81280000Y-64452500D03*
%TD*%
D12*
%TO.C,D14*%
X121920000Y-45402500D03*
D13*
X119380000Y-45402500D03*
%TD*%
D12*
%TO.C,D3*%
X74295000Y-26352500D03*
D13*
X71755000Y-26352500D03*
%TD*%
D11*
%TO.C,*%
X140450000Y-96375100D03*
%TD*%
%TO.C,*%
X131675000Y-39932500D03*
%TD*%
D12*
%TO.C,D23*%
X26670000Y-64452500D03*
D13*
X24130000Y-64452500D03*
%TD*%
D11*
%TO.C,*%
X217400000Y-39957500D03*
%TD*%
%TO.C,*%
X36425000Y-41957500D03*
%TD*%
%TO.C,*%
X262025000Y-41957500D03*
%TD*%
%TO.C,*%
X219662500Y-97125100D03*
%TD*%
D12*
%TO.C,D7*%
X207645000Y-26352500D03*
D13*
X205105000Y-26352500D03*
%TD*%
D11*
%TO.C,*%
X113637500Y-96875100D03*
%TD*%
%TO.C,*%
X99968750Y-96375100D03*
%TD*%
%TO.C,*%
X216650000Y-96375100D03*
%TD*%
%TO.C,*%
X204125000Y-96875100D03*
%TD*%
D16*
%TO.C,REF\u002A\u002A*%
X89825000Y-96875100D03*
%TD*%
D11*
%TO.C,*%
X81800000Y-41957500D03*
%TD*%
D16*
%TO.C,REF\u002A\u002A*%
X199231250Y-96375100D03*
%TD*%
D11*
%TO.C,*%
X94325000Y-96875100D03*
%TD*%
D14*
%TO.C,REF\u002A\u002A*%
X199263000Y-114617500D03*
D15*
X199263000Y-99377500D03*
D14*
X99187000Y-114617500D03*
D15*
X99187000Y-99377500D03*
%TD*%
D16*
%TO.C,REF\u002A\u002A*%
X82550000Y-96375100D03*
%TD*%
D11*
%TO.C,*%
X161750000Y-97125100D03*
%TD*%
%TO.C,*%
X98468750Y-96375100D03*
%TD*%
D12*
%TO.C,D49*%
X255270000Y-83502500D03*
D13*
X252730000Y-83502500D03*
%TD*%
D11*
%TO.C,*%
X34175000Y-39957500D03*
%TD*%
D12*
%TO.C,D5*%
X112395000Y-26352500D03*
D13*
X109855000Y-26352500D03*
%TD*%
D11*
%TO.C,*%
X158000000Y-96375100D03*
%TD*%
D12*
%TO.C,D39*%
X64770000Y-83502500D03*
D13*
X62230000Y-83502500D03*
%TD*%
D12*
%TO.C,D19*%
X217170000Y-45402500D03*
D13*
X214630000Y-45402500D03*
%TD*%
D11*
%TO.C,*%
X263525000Y-41957500D03*
%TD*%
D17*
%TO.C,REF\u002A\u002A*%
X206375000Y-114632500D03*
D18*
X206375000Y-99392500D03*
D14*
X92075000Y-114632500D03*
D15*
X92075000Y-99392500D03*
%TD*%
D12*
%TO.C,D12*%
X83820000Y-45402500D03*
D13*
X81280000Y-45402500D03*
%TD*%
D11*
%TO.C,*%
X90575000Y-96625100D03*
%TD*%
%TO.C,*%
X198481250Y-96375100D03*
%TD*%
D12*
%TO.C,D35*%
X255270000Y-64452500D03*
D13*
X252730000Y-64452500D03*
%TD*%
D12*
%TO.C,D41*%
X102870000Y-83502500D03*
D13*
X100330000Y-83502500D03*
%TD*%
D12*
%TO.C,D53*%
X26670000Y-45402500D03*
D13*
X24130000Y-45402500D03*
%TD*%
D16*
%TO.C,REF\u002A\u002A*%
X196981250Y-96875100D03*
%TD*%
D11*
%TO.C,*%
X33425000Y-39957500D03*
%TD*%
%TO.C,*%
X199981250Y-96375100D03*
%TD*%
%TO.C,*%
X82550000Y-39957500D03*
%TD*%
%TO.C,*%
X81050000Y-39957500D03*
%TD*%
%TO.C,*%
X215900000Y-39957500D03*
%TD*%
%TO.C,*%
X84050000Y-41957500D03*
%TD*%
%TO.C,*%
X166775000Y-39957500D03*
%TD*%
D19*
%TO.C,J5*%
X131725000Y-35242500D03*
D20*
X131725000Y-32702500D03*
X131725000Y-30162500D03*
X131725000Y-27622500D03*
%TD*%
D11*
%TO.C,*%
X35675000Y-41957500D03*
%TD*%
D12*
%TO.C,D52*%
X169545000Y-83502500D03*
D21*
X167005000Y-83502500D03*
%TD*%
D11*
%TO.C,*%
X161000000Y-96875100D03*
%TD*%
%TO.C,*%
X160250000Y-96625100D03*
%TD*%
%TO.C,*%
X263525000Y-39957500D03*
%TD*%
D12*
%TO.C,D28*%
X121920000Y-64452500D03*
D13*
X119380000Y-64452500D03*
%TD*%
D11*
%TO.C,*%
X80300000Y-96875100D03*
%TD*%
%TO.C,*%
X102218750Y-97125100D03*
%TD*%
%TO.C,*%
X33425000Y-41957500D03*
%TD*%
%TO.C,*%
X81050000Y-41957500D03*
%TD*%
D22*
%TO.C,RE2*%
X275550000Y-23932500D03*
X270550000Y-23932500D03*
X273050000Y-23932500D03*
D23*
X278650000Y-31432500D03*
X267450000Y-31432500D03*
D24*
X270550000Y-38432500D03*
X275550000Y-38432500D03*
%TD*%
D11*
%TO.C,*%
X137450000Y-96875100D03*
%TD*%
%TO.C,*%
X34925000Y-39957500D03*
%TD*%
%TO.C,*%
X34175000Y-41957500D03*
%TD*%
D12*
%TO.C,D50*%
X274320000Y-83502500D03*
D13*
X271780000Y-83502500D03*
%TD*%
D11*
%TO.C,*%
X81800000Y-96375100D03*
%TD*%
D16*
%TO.C,REF\u002A\u002A*%
X96968750Y-96875100D03*
%TD*%
D11*
%TO.C,*%
X83300000Y-41957500D03*
%TD*%
%TO.C,*%
X79550000Y-97125100D03*
%TD*%
D12*
%TO.C,D9*%
X245745000Y-26352500D03*
D13*
X243205000Y-26352500D03*
%TD*%
D11*
%TO.C,*%
X196231250Y-97125100D03*
%TD*%
D12*
%TO.C,D22*%
X274320000Y-45402500D03*
D13*
X271780000Y-45402500D03*
%TD*%
D11*
%TO.C,*%
X34925000Y-41957500D03*
%TD*%
%TO.C,*%
X214400000Y-41957500D03*
%TD*%
D16*
%TO.C,REF\u002A\u002A*%
X213650000Y-96875100D03*
%TD*%
D11*
%TO.C,*%
X213650000Y-96875100D03*
%TD*%
%TO.C,*%
X138950000Y-96375100D03*
%TD*%
%TO.C,*%
X100718750Y-96625100D03*
%TD*%
%TO.C,*%
X215150000Y-39957500D03*
%TD*%
%TO.C,*%
X129425000Y-39932500D03*
%TD*%
%TO.C,*%
X83300000Y-96375100D03*
%TD*%
%TO.C,*%
X208625000Y-96875100D03*
%TD*%
%TO.C,*%
X167525000Y-39957500D03*
%TD*%
%TO.C,*%
X215900000Y-41957500D03*
%TD*%
%TO.C,*%
X217400000Y-96625100D03*
%TD*%
%TO.C,*%
X81050000Y-96625100D03*
%TD*%
%TO.C,*%
X138200000Y-96625100D03*
%TD*%
D14*
%TO.C,REF\u002A\u002A*%
X139731750Y-114617500D03*
D15*
X139731750Y-99377500D03*
D14*
X115855750Y-114617500D03*
D15*
X115855750Y-99377500D03*
%TD*%
D11*
%TO.C,*%
X95075000Y-97125100D03*
%TD*%
%TO.C,*%
X196981250Y-96875100D03*
%TD*%
%TO.C,*%
X184062500Y-96625100D03*
%TD*%
D12*
%TO.C,D29*%
X140970000Y-64452500D03*
D13*
X138430000Y-64452500D03*
%TD*%
D12*
%TO.C,D8*%
X226695000Y-26352500D03*
D13*
X224155000Y-26352500D03*
%TD*%
D11*
%TO.C,*%
X216650000Y-39957500D03*
%TD*%
%TO.C,*%
X96968750Y-96875100D03*
%TD*%
%TO.C,*%
X89075000Y-97125100D03*
%TD*%
D14*
%TO.C,REF\u002A\u002A*%
X182594250Y-114617500D03*
D15*
X182594250Y-99377500D03*
D14*
X158718250Y-114617500D03*
D15*
X158718250Y-99377500D03*
%TD*%
D11*
%TO.C,*%
X262775000Y-39957500D03*
%TD*%
%TO.C,*%
X85550000Y-97125100D03*
%TD*%
D17*
%TO.C,REF\u002A\u002A*%
X215900000Y-114632500D03*
D18*
X215900000Y-99392500D03*
D14*
X82550000Y-114632500D03*
D17*
X82550000Y-114632500D03*
D15*
X82550000Y-99392500D03*
D18*
X82550000Y-99392500D03*
%TD*%
D16*
%TO.C,REF\u002A\u002A*%
X84800000Y-96875100D03*
%TD*%
D11*
%TO.C,*%
X206375000Y-96375100D03*
%TD*%
%TO.C,*%
X264275000Y-39957500D03*
%TD*%
D12*
%TO.C,D18*%
X198120000Y-45402500D03*
D13*
X195580000Y-45402500D03*
%TD*%
D11*
%TO.C,*%
X262775000Y-41957500D03*
%TD*%
%TO.C,*%
X84050000Y-39957500D03*
%TD*%
D16*
%TO.C,REF\u002A\u002A*%
X218150000Y-96875100D03*
%TD*%
D11*
%TO.C,*%
X201481250Y-96875100D03*
%TD*%
D16*
%TO.C,REF\u002A\u002A*%
X208625000Y-96875100D03*
%TD*%
D11*
%TO.C,*%
X114387500Y-96625100D03*
%TD*%
%TO.C,*%
X262025000Y-39957500D03*
%TD*%
%TO.C,*%
X36425000Y-39957500D03*
%TD*%
%TO.C,*%
X97718750Y-96625100D03*
%TD*%
D12*
%TO.C,D54*%
X45720000Y-45402500D03*
D13*
X43180000Y-45402500D03*
%TD*%
D12*
%TO.C,D33*%
X217170000Y-64452500D03*
D13*
X214630000Y-64452500D03*
%TD*%
D11*
%TO.C,*%
X84050000Y-96625100D03*
%TD*%
%TO.C,*%
X184812500Y-96875100D03*
%TD*%
%TO.C,*%
X136700000Y-97125100D03*
%TD*%
D12*
%TO.C,D17*%
X179070000Y-45402500D03*
D13*
X176530000Y-45402500D03*
%TD*%
D11*
%TO.C,*%
X181844250Y-96375100D03*
%TD*%
%TO.C,*%
X215150000Y-41957500D03*
%TD*%
D12*
%TO.C,D11*%
X64770000Y-45402500D03*
D13*
X62230000Y-45402500D03*
%TD*%
D11*
%TO.C,*%
X130175000Y-39932500D03*
%TD*%
%TO.C,*%
X83300000Y-39957500D03*
%TD*%
%TO.C,*%
X35675000Y-39957500D03*
%TD*%
%TO.C,*%
X216650000Y-41957500D03*
%TD*%
D12*
%TO.C,D36*%
X274320000Y-64452500D03*
D13*
X271780000Y-64452500D03*
%TD*%
D16*
%TO.C,REF\u002A\u002A*%
X206375000Y-96375100D03*
%TD*%
D12*
%TO.C,D21*%
X255270000Y-45402500D03*
D13*
X252730000Y-45402500D03*
%TD*%
D11*
%TO.C,*%
X159500000Y-96375100D03*
%TD*%
%TO.C,*%
X115105750Y-96375100D03*
%TD*%
%TO.C,*%
X215900000Y-96375100D03*
%TD*%
%TO.C,*%
X99218750Y-96375100D03*
%TD*%
%TO.C,*%
X96218750Y-97125100D03*
%TD*%
%TO.C,*%
X169775000Y-41957500D03*
%TD*%
%TO.C,*%
X82550000Y-41957500D03*
%TD*%
D16*
%TO.C,REF\u002A\u002A*%
X101468750Y-96875100D03*
%TD*%
D12*
%TO.C,D51*%
X131445000Y-83502500D03*
D21*
X128905000Y-83502500D03*
%TD*%
D11*
%TO.C,*%
X131675000Y-41957500D03*
%TD*%
D12*
%TO.C,D6*%
X188595000Y-26352500D03*
D13*
X186055000Y-26352500D03*
%TD*%
D11*
%TO.C,*%
X78787499Y-97125100D03*
%TD*%
%TO.C,*%
X169025000Y-39957500D03*
%TD*%
%TO.C,*%
X199231250Y-96375100D03*
%TD*%
%TO.C,*%
X265025000Y-41957500D03*
%TD*%
%TO.C,*%
X169775000Y-39957500D03*
%TD*%
D12*
%TO.C,D10*%
X274320000Y-26352500D03*
D13*
X271780000Y-26352500D03*
%TD*%
D11*
%TO.C,*%
X116605750Y-96375100D03*
%TD*%
%TO.C,*%
X130925000Y-39932500D03*
%TD*%
%TO.C,*%
X92075000Y-96375100D03*
%TD*%
D16*
%TO.C,REF\u002A\u002A*%
X94325000Y-96875100D03*
%TD*%
%TO.C,REF\u002A\u002A*%
X80300000Y-96875100D03*
%TD*%
D12*
%TO.C,D38*%
X45720000Y-83502500D03*
D13*
X43180000Y-83502500D03*
%TD*%
D11*
%TO.C,*%
X209375000Y-97125100D03*
%TD*%
%TO.C,*%
X128675000Y-39932500D03*
%TD*%
D12*
%TO.C,D48*%
X236220000Y-83502500D03*
D13*
X233680000Y-83502500D03*
%TD*%
D16*
%TO.C,REF\u002A\u002A*%
X99218750Y-96375100D03*
%TD*%
D12*
%TO.C,D40*%
X83820000Y-83502500D03*
D13*
X81280000Y-83502500D03*
%TD*%
D11*
%TO.C,*%
X92825000Y-96375100D03*
%TD*%
%TO.C,*%
X217400000Y-41957500D03*
%TD*%
%TO.C,*%
X84800000Y-96875100D03*
%TD*%
%TO.C,*%
X214400000Y-39957500D03*
%TD*%
%TO.C,*%
X207125000Y-96375100D03*
%TD*%
%TO.C,*%
X264275000Y-41957500D03*
%TD*%
%TO.C,*%
X130925000Y-41957500D03*
%TD*%
D12*
%TO.C,D32*%
X198120000Y-64452500D03*
D13*
X195580000Y-64452500D03*
%TD*%
D12*
%TO.C,D15*%
X140970000Y-45402500D03*
D13*
X138430000Y-45402500D03*
%TD*%
D12*
%TO.C,D16*%
X160020000Y-45402500D03*
D13*
X157480000Y-45402500D03*
%TD*%
D12*
%TO.C,D30*%
X160020000Y-64452500D03*
D13*
X157480000Y-64452500D03*
%TD*%
D11*
%TO.C,*%
X129425000Y-41957500D03*
%TD*%
D12*
%TO.C,D2*%
X55245000Y-26352500D03*
D13*
X52705000Y-26352500D03*
%TD*%
D11*
%TO.C,*%
X168275000Y-41957500D03*
%TD*%
%TO.C,*%
X218150000Y-96875100D03*
%TD*%
D16*
%TO.C,REF\u002A\u002A*%
X92075000Y-96375100D03*
%TD*%
D12*
%TO.C,D37*%
X26670000Y-83502500D03*
D13*
X24130000Y-83502500D03*
%TD*%
D14*
%TO.C,REF\u002A\u002A*%
X180213000Y-95567500D03*
D15*
X180213000Y-80327500D03*
D14*
X156337000Y-95567500D03*
D15*
X156337000Y-80327500D03*
%TD*%
D11*
%TO.C,*%
X207875000Y-96625100D03*
%TD*%
D22*
%TO.C,RE1*%
X27900000Y-23932500D03*
X22900000Y-23932500D03*
X25400000Y-23932500D03*
D23*
X31000000Y-31432500D03*
X19800000Y-31432500D03*
D24*
X22900000Y-38432500D03*
X27900000Y-38432500D03*
%TD*%
D12*
%TO.C,D4*%
X93345000Y-26352500D03*
D13*
X90805000Y-26352500D03*
%TD*%
D11*
%TO.C,*%
X93575000Y-96625100D03*
%TD*%
%TO.C,*%
X169025000Y-41957500D03*
%TD*%
%TO.C,*%
X167525000Y-41957500D03*
%TD*%
%TO.C,*%
X166775000Y-41957500D03*
%TD*%
%TO.C,*%
X202231250Y-97125100D03*
%TD*%
%TO.C,*%
X89825000Y-96875100D03*
%TD*%
D12*
%TO.C,D34*%
X236220000Y-64452500D03*
D13*
X233680000Y-64452500D03*
%TD*%
D25*
%TO.C,K13*%
X58420000Y-50482500D03*
D26*
X60960000Y-55562500D03*
D18*
X63500000Y-50482500D03*
D26*
X67310000Y-53022500D03*
D25*
X68580000Y-50482500D03*
D27*
X70860000Y-53022500D03*
D28*
X70860000Y-53022500D03*
D27*
X57410000Y-55562500D03*
D28*
X57410000Y-55562500D03*
%TD*%
D29*
%TO.C,KD3*%
X119700000Y-29557500D03*
X121600000Y-29557500D03*
X120650000Y-31432500D03*
%TD*%
%TO.C,KD21*%
X72075000Y-86707500D03*
X73975000Y-86707500D03*
X73025000Y-88582500D03*
%TD*%
D30*
%TO.C,C4*%
X243056411Y-69438089D03*
X242377589Y-70116911D03*
%TD*%
D25*
%TO.C,K11*%
X20320000Y-50482500D03*
D26*
X22860000Y-55562500D03*
D18*
X25400000Y-50482500D03*
D26*
X29210000Y-53022500D03*
D25*
X30480000Y-50482500D03*
D27*
X32760000Y-53022500D03*
D28*
X32760000Y-53022500D03*
D27*
X19310000Y-55562500D03*
D28*
X19310000Y-55562500D03*
%TD*%
D29*
%TO.C,KD1*%
X38737500Y-29557500D03*
X40637500Y-29557500D03*
X39687500Y-31432500D03*
%TD*%
D31*
%TO.C,R23*%
X200915000Y-45402500D03*
X202565000Y-45402500D03*
%TD*%
D25*
%TO.C,K27*%
X58420000Y-69532500D03*
D26*
X60960000Y-74612500D03*
D18*
X63500000Y-69532500D03*
D26*
X67310000Y-72072500D03*
D25*
X68580000Y-69532500D03*
D27*
X70860000Y-72072500D03*
D28*
X70860000Y-72072500D03*
D27*
X57410000Y-74612500D03*
D28*
X57410000Y-74612500D03*
%TD*%
D25*
%TO.C,K5*%
X106045000Y-31432500D03*
D26*
X108585000Y-36512500D03*
D18*
X111125000Y-31432500D03*
D26*
X114935000Y-33972500D03*
D25*
X116205000Y-31432500D03*
D27*
X118485000Y-33972500D03*
D28*
X118485000Y-33972500D03*
D27*
X105035000Y-36512500D03*
D28*
X105035000Y-36512500D03*
%TD*%
D25*
%TO.C,K45A1*%
X125095000Y-88582500D03*
D26*
X127635000Y-93662500D03*
D18*
X130175000Y-88582500D03*
D26*
X133985000Y-91122500D03*
D25*
X135255000Y-88582500D03*
D27*
X137535000Y-91122500D03*
D28*
X137535000Y-91122500D03*
D27*
X124085000Y-93662500D03*
D32*
X124085000Y-93662500D03*
%TD*%
D31*
%TO.C,R15*%
X277115000Y-26352500D03*
X278765000Y-26352500D03*
%TD*%
D29*
%TO.C,KD12*%
X262575000Y-48607500D03*
X264475000Y-48607500D03*
X263525000Y-50482500D03*
%TD*%
%TO.C,KD7*%
X72075000Y-48607500D03*
X73975000Y-48607500D03*
X73025000Y-50482500D03*
%TD*%
D25*
%TO.C,K42*%
X77470000Y-88582500D03*
D26*
X80010000Y-93662500D03*
D18*
X82550000Y-88582500D03*
D26*
X86360000Y-91122500D03*
D25*
X87630000Y-88582500D03*
D27*
X89910000Y-91122500D03*
D28*
X89910000Y-91122500D03*
D27*
X76460000Y-93662500D03*
D28*
X76460000Y-93662500D03*
%TD*%
D31*
%TO.C,R42*%
X277115000Y-64452500D03*
X278765000Y-64452500D03*
%TD*%
%TO.C,R37*%
X181865000Y-64452500D03*
X183515000Y-64452500D03*
%TD*%
D33*
%TO.C,D42*%
X121920000Y-93662500D03*
D13*
X119380000Y-93662500D03*
%TD*%
D29*
%TO.C,KD28*%
X188756250Y-106695000D03*
X190656250Y-106695000D03*
X189706250Y-108570000D03*
%TD*%
D31*
%TO.C,R43*%
X29465000Y-83502500D03*
X31115000Y-83502500D03*
%TD*%
D34*
%TO.C,KD6*%
X30237500Y-58107500D03*
X30237500Y-60007500D03*
X28362500Y-59057500D03*
%TD*%
D35*
%TO.C,R57*%
X129349000Y-85661500D03*
X127699000Y-85661500D03*
%TD*%
D31*
%TO.C,R63*%
X152718000Y-112712500D03*
X154368000Y-112712500D03*
%TD*%
D29*
%TO.C,KD13*%
X33975000Y-67657500D03*
X35875000Y-67657500D03*
X34925000Y-69532500D03*
%TD*%
D25*
%TO.C,K14*%
X77470000Y-50482500D03*
D26*
X80010000Y-55562500D03*
D18*
X82550000Y-50482500D03*
D26*
X86360000Y-53022500D03*
D25*
X87630000Y-50482500D03*
D27*
X89910000Y-53022500D03*
D28*
X89910000Y-53022500D03*
D27*
X76460000Y-55562500D03*
D28*
X76460000Y-55562500D03*
%TD*%
D29*
%TO.C,KD4*%
X214950000Y-29557500D03*
X216850000Y-29557500D03*
X215900000Y-31432500D03*
%TD*%
D31*
%TO.C,R31*%
X67565000Y-64452500D03*
X69215000Y-64452500D03*
%TD*%
D29*
%TO.C,KD2*%
X81600000Y-29557500D03*
X83500000Y-29557500D03*
X82550000Y-31432500D03*
%TD*%
D25*
%TO.C,K25*%
X20320000Y-69532500D03*
D26*
X22860000Y-74612500D03*
D18*
X25400000Y-69532500D03*
D26*
X29210000Y-72072500D03*
D25*
X30480000Y-69532500D03*
D27*
X32760000Y-72072500D03*
D28*
X32760000Y-72072500D03*
D27*
X19310000Y-74612500D03*
D28*
X19310000Y-74612500D03*
%TD*%
D36*
%TO.C,R35*%
X142925000Y-65732500D03*
X142925000Y-67382500D03*
%TD*%
D25*
%TO.C,K36*%
X229870000Y-69532500D03*
D26*
X232410000Y-74612500D03*
D18*
X234950000Y-69532500D03*
D26*
X238760000Y-72072500D03*
D25*
X240030000Y-69532500D03*
D27*
X242310000Y-72072500D03*
D28*
X242310000Y-72072500D03*
D27*
X228860000Y-74612500D03*
D28*
X228860000Y-74612500D03*
%TD*%
D31*
%TO.C,R55*%
X258065000Y-83502500D03*
X259715000Y-83502500D03*
%TD*%
D25*
%TO.C,K32*%
X153670000Y-69532500D03*
D26*
X156210000Y-74612500D03*
D18*
X158750000Y-69532500D03*
D26*
X162560000Y-72072500D03*
D25*
X163830000Y-69532500D03*
D27*
X166110000Y-72072500D03*
D28*
X166110000Y-72072500D03*
D27*
X152660000Y-74612500D03*
D28*
X152660000Y-74612500D03*
%TD*%
D31*
%TO.C,R28*%
X29465000Y-64452500D03*
X31115000Y-64452500D03*
%TD*%
D19*
%TO.C,ISP1*%
X266150000Y-58882500D03*
D20*
X266150000Y-61422500D03*
X268690000Y-58882500D03*
X268690000Y-61422500D03*
X271230000Y-58882500D03*
X271230000Y-61422500D03*
%TD*%
D25*
%TO.C,K15*%
X96520000Y-50482500D03*
D26*
X99060000Y-55562500D03*
D18*
X101600000Y-50482500D03*
D26*
X105410000Y-53022500D03*
D25*
X106680000Y-50482500D03*
D27*
X108960000Y-53022500D03*
D28*
X108960000Y-53022500D03*
D27*
X95510000Y-55562500D03*
D28*
X95510000Y-55562500D03*
%TD*%
D37*
%TO.C,C6*%
X239834411Y-59726911D03*
X239155589Y-59048089D03*
%TD*%
D25*
%TO.C,K21*%
X210820000Y-50482500D03*
D26*
X213360000Y-55562500D03*
D18*
X215900000Y-50482500D03*
D26*
X219710000Y-53022500D03*
D25*
X220980000Y-50482500D03*
D27*
X223260000Y-53022500D03*
D28*
X223260000Y-53022500D03*
D27*
X209810000Y-55562500D03*
D28*
X209810000Y-55562500D03*
%TD*%
D29*
%TO.C,KD24*%
X186375000Y-89088750D03*
X188275000Y-89088750D03*
X187325000Y-90963750D03*
%TD*%
D25*
%TO.C,K44*%
X125730000Y-88582500D03*
D26*
X123190000Y-83502500D03*
D18*
X120650000Y-88582500D03*
D26*
X116840000Y-86042500D03*
D25*
X115570000Y-88582500D03*
D27*
X113290000Y-86042500D03*
D28*
X113290000Y-86042500D03*
D27*
X126740000Y-83502500D03*
D32*
X126740000Y-83502500D03*
%TD*%
D31*
%TO.C,R62*%
X131382000Y-112712500D03*
X133032000Y-112712500D03*
%TD*%
D25*
%TO.C,K7*%
X201295000Y-31432500D03*
D26*
X203835000Y-36512500D03*
D18*
X206375000Y-31432500D03*
D26*
X210185000Y-33972500D03*
D25*
X211455000Y-31432500D03*
D27*
X213735000Y-33972500D03*
D28*
X213735000Y-33972500D03*
D27*
X200285000Y-36512500D03*
D28*
X200285000Y-36512500D03*
%TD*%
D31*
%TO.C,R25*%
X239015000Y-45402500D03*
X240665000Y-45402500D03*
%TD*%
D25*
%TO.C,K19*%
X172720000Y-50482500D03*
D26*
X175260000Y-55562500D03*
D18*
X177800000Y-50482500D03*
D26*
X181610000Y-53022500D03*
D25*
X182880000Y-50482500D03*
D27*
X185160000Y-53022500D03*
D28*
X185160000Y-53022500D03*
D27*
X171710000Y-55562500D03*
D28*
X171710000Y-55562500D03*
%TD*%
D25*
%TO.C,K40*%
X39370000Y-88582500D03*
D26*
X41910000Y-93662500D03*
D18*
X44450000Y-88582500D03*
D26*
X48260000Y-91122500D03*
D25*
X49530000Y-88582500D03*
D27*
X51810000Y-91122500D03*
D28*
X51810000Y-91122500D03*
D27*
X38360000Y-93662500D03*
D28*
X38360000Y-93662500D03*
%TD*%
D25*
%TO.C,K29*%
X96520000Y-69532500D03*
D26*
X99060000Y-74612500D03*
D18*
X101600000Y-69532500D03*
D26*
X105410000Y-72072500D03*
D25*
X106680000Y-69532500D03*
D27*
X108960000Y-72072500D03*
D28*
X108960000Y-72072500D03*
D27*
X95510000Y-74612500D03*
D28*
X95510000Y-74612500D03*
%TD*%
D25*
%TO.C,K48*%
X191770000Y-88582500D03*
D26*
X194310000Y-93662500D03*
D18*
X196850000Y-88582500D03*
D26*
X200660000Y-91122500D03*
D25*
X201930000Y-88582500D03*
D27*
X204210000Y-91122500D03*
D28*
X204210000Y-91122500D03*
D27*
X190760000Y-93662500D03*
D28*
X190760000Y-93662500D03*
%TD*%
D25*
%TO.C,K52*%
X267970000Y-88582500D03*
D26*
X270510000Y-93662500D03*
D18*
X273050000Y-88582500D03*
D26*
X276860000Y-91122500D03*
D25*
X278130000Y-88582500D03*
D27*
X280410000Y-91122500D03*
D28*
X280410000Y-91122500D03*
D27*
X266960000Y-93662500D03*
D28*
X266960000Y-93662500D03*
%TD*%
D31*
%TO.C,R44*%
X48515000Y-83502500D03*
X50165000Y-83502500D03*
%TD*%
D25*
%TO.C,K45*%
X144780000Y-88582500D03*
D26*
X142240000Y-83502500D03*
D18*
X139700000Y-88582500D03*
D26*
X135890000Y-86042500D03*
D25*
X134620000Y-88582500D03*
D27*
X132340000Y-86042500D03*
D28*
X132340000Y-86042500D03*
D27*
X145790000Y-83502500D03*
D28*
X145790000Y-83502500D03*
%TD*%
D35*
%TO.C,R49*%
X141550000Y-91607500D03*
X139900000Y-91607500D03*
%TD*%
D31*
%TO.C,R56*%
X277115000Y-83502500D03*
X278765000Y-83502500D03*
%TD*%
D38*
%TO.C,U1*%
X240347264Y-63657137D03*
X240700818Y-63303584D03*
X241054371Y-62950030D03*
X241407924Y-62596477D03*
X241761478Y-62242924D03*
X242115031Y-61889370D03*
X242468585Y-61535817D03*
X242822138Y-61182263D03*
X243175691Y-60828710D03*
X243529245Y-60475157D03*
X243882798Y-60121603D03*
D39*
X245067202Y-60121603D03*
X245420755Y-60475157D03*
X245774309Y-60828710D03*
X246127862Y-61182263D03*
X246481415Y-61535817D03*
X246834969Y-61889370D03*
X247188522Y-62242924D03*
X247542076Y-62596477D03*
X247895629Y-62950030D03*
X248249182Y-63303584D03*
X248602736Y-63657137D03*
D38*
X248602736Y-64841541D03*
X248249182Y-65195094D03*
X247895629Y-65548648D03*
X247542076Y-65902201D03*
X247188522Y-66255754D03*
X246834969Y-66609308D03*
X246481415Y-66962861D03*
X246127862Y-67316415D03*
X245774309Y-67669968D03*
X245420755Y-68023521D03*
X245067202Y-68377075D03*
D39*
X243882798Y-68377075D03*
X243529245Y-68023521D03*
X243175691Y-67669968D03*
X242822138Y-67316415D03*
X242468585Y-66962861D03*
X242115031Y-66609308D03*
X241761478Y-66255754D03*
X241407924Y-65902201D03*
X241054371Y-65548648D03*
X240700818Y-65195094D03*
X240347264Y-64841541D03*
D40*
X244475000Y-64249339D03*
%TD*%
D31*
%TO.C,R52*%
X200915000Y-83502500D03*
X202565000Y-83502500D03*
%TD*%
D35*
%TO.C,R66*%
X230825000Y-82082500D03*
X229175000Y-82082500D03*
%TD*%
D41*
%TO.C,R2*%
X36675000Y-49827500D03*
X37695000Y-49827500D03*
%TD*%
D25*
%TO.C,K12*%
X39370000Y-50482500D03*
D26*
X41910000Y-55562500D03*
D18*
X44450000Y-50482500D03*
D26*
X48260000Y-53022500D03*
D25*
X49530000Y-50482500D03*
D27*
X51810000Y-53022500D03*
D28*
X51810000Y-53022500D03*
D27*
X38360000Y-55562500D03*
D28*
X38360000Y-55562500D03*
%TD*%
D25*
%TO.C,K10*%
X267970000Y-31432500D03*
D26*
X270510000Y-36512500D03*
D18*
X273050000Y-31432500D03*
D26*
X276860000Y-33972500D03*
D25*
X278130000Y-31432500D03*
D27*
X280410000Y-33972500D03*
D42*
X280410000Y-33972500D03*
D27*
X266960000Y-36512500D03*
D28*
X266960000Y-36512500D03*
%TD*%
D36*
%TO.C,R53*%
X219329000Y-83440000D03*
X219329000Y-85090000D03*
%TD*%
D29*
%TO.C,KD19*%
X262575000Y-67657500D03*
X264475000Y-67657500D03*
X263525000Y-69532500D03*
%TD*%
D37*
%TO.C,C1*%
X241414411Y-60736911D03*
X240735589Y-60058089D03*
%TD*%
D43*
%TO.C,R1*%
X33675000Y-50777500D03*
X33675000Y-49757500D03*
%TD*%
D12*
%TO.C,D57*%
X150495000Y-112712500D03*
D13*
X147955000Y-112712500D03*
%TD*%
D29*
%TO.C,KD11*%
X223967000Y-48465500D03*
X225867000Y-48465500D03*
X224917000Y-50340500D03*
%TD*%
D44*
%TO.C,Q1*%
X227217000Y-81450000D03*
X224917000Y-81450000D03*
D45*
X224917000Y-75150000D03*
D44*
X222617000Y-81450000D03*
%TD*%
D46*
%TO.C,R3*%
X246585624Y-58346876D03*
X245864376Y-59068124D03*
%TD*%
D47*
%TO.C,FB1*%
X41300400Y-49055800D03*
X41300400Y-46930800D03*
%TD*%
D25*
%TO.C,K55*%
X175736250Y-107632500D03*
D26*
X173196250Y-102552500D03*
D18*
X170656250Y-107632500D03*
D26*
X166846250Y-105092500D03*
D25*
X165576250Y-107632500D03*
D27*
X163296250Y-105092500D03*
D28*
X163296250Y-105092500D03*
D27*
X176746250Y-102552500D03*
D28*
X176746250Y-102552500D03*
%TD*%
D29*
%TO.C,KD5*%
X257812500Y-29557500D03*
X259712500Y-29557500D03*
X258762500Y-31432500D03*
%TD*%
D48*
%TO.C,SW1*%
X273875000Y-62057500D03*
X280175000Y-62057500D03*
X273875000Y-58257500D03*
X280175000Y-58257500D03*
%TD*%
D25*
%TO.C,K37*%
X248920000Y-69532500D03*
D26*
X251460000Y-74612500D03*
D18*
X254000000Y-69532500D03*
D26*
X257810000Y-72072500D03*
D25*
X259080000Y-69532500D03*
D27*
X261360000Y-72072500D03*
D28*
X261360000Y-72072500D03*
D27*
X247910000Y-74612500D03*
D28*
X247910000Y-74612500D03*
%TD*%
D29*
%TO.C,KD16*%
X149550000Y-69545000D03*
X151450000Y-69545000D03*
X150500000Y-71420000D03*
%TD*%
D31*
%TO.C,R9*%
X96140000Y-26352500D03*
X97790000Y-26352500D03*
%TD*%
D25*
%TO.C,K51*%
X248920000Y-88582500D03*
D26*
X251460000Y-93662500D03*
D18*
X254000000Y-88582500D03*
D26*
X257810000Y-91122500D03*
D25*
X259080000Y-88582500D03*
D27*
X261360000Y-91122500D03*
D28*
X261360000Y-91122500D03*
D27*
X247910000Y-93662500D03*
D28*
X247910000Y-93662500D03*
%TD*%
D31*
%TO.C,R33*%
X105665000Y-64452500D03*
X107315000Y-64452500D03*
%TD*%
D29*
%TO.C,KD8*%
X110175000Y-48607500D03*
X112075000Y-48607500D03*
X111125000Y-50482500D03*
%TD*%
D31*
%TO.C,R10*%
X115190000Y-26352500D03*
X116840000Y-26352500D03*
%TD*%
D29*
%TO.C,KD27*%
X107793750Y-106695000D03*
X109693750Y-106695000D03*
X108743750Y-108570000D03*
%TD*%
D49*
%TO.C,F1*%
X34712500Y-55547500D03*
X32837500Y-55547500D03*
%TD*%
D25*
%TO.C,K38*%
X267970000Y-69532500D03*
D26*
X270510000Y-74612500D03*
D18*
X273050000Y-69532500D03*
D26*
X276860000Y-72072500D03*
D25*
X278130000Y-69532500D03*
D27*
X280410000Y-72072500D03*
D28*
X280410000Y-72072500D03*
D27*
X266960000Y-74612500D03*
D28*
X266960000Y-74612500D03*
%TD*%
D31*
%TO.C,R8*%
X77090000Y-26352500D03*
X78740000Y-26352500D03*
%TD*%
D25*
%TO.C,K8*%
X220345000Y-31432500D03*
D26*
X222885000Y-36512500D03*
D18*
X225425000Y-31432500D03*
D26*
X229235000Y-33972500D03*
D25*
X230505000Y-31432500D03*
D27*
X232785000Y-33972500D03*
D28*
X232785000Y-33972500D03*
D27*
X219335000Y-36512500D03*
D28*
X219335000Y-36512500D03*
%TD*%
D31*
%TO.C,R18*%
X105665000Y-45402500D03*
X107315000Y-45402500D03*
%TD*%
D12*
%TO.C,D45*%
X179070000Y-93662500D03*
D13*
X176530000Y-93662500D03*
%TD*%
D31*
%TO.C,R17*%
X86615000Y-45402500D03*
X88265000Y-45402500D03*
%TD*%
D25*
%TO.C,K22*%
X229870000Y-50482500D03*
D26*
X232410000Y-55562500D03*
D18*
X234950000Y-50482500D03*
D26*
X238760000Y-53022500D03*
D25*
X240030000Y-50482500D03*
D27*
X242310000Y-53022500D03*
D28*
X242310000Y-53022500D03*
D27*
X228860000Y-55562500D03*
D28*
X228860000Y-55562500D03*
%TD*%
D31*
%TO.C,R27*%
X277115000Y-45402500D03*
X278765000Y-45402500D03*
%TD*%
%TO.C,R47*%
X105665000Y-83502500D03*
X107315000Y-83502500D03*
%TD*%
D29*
%TO.C,KD22*%
X110225000Y-93945000D03*
X112125000Y-93945000D03*
X111175000Y-95820000D03*
%TD*%
D31*
%TO.C,R24*%
X219965000Y-45402500D03*
X221615000Y-45402500D03*
%TD*%
D50*
%TO.C,J4*%
X227933000Y-61707500D03*
X227933000Y-60707500D03*
X227933000Y-59707500D03*
X227933000Y-58707500D03*
D51*
X224058000Y-63007500D03*
X224058000Y-57407500D03*
%TD*%
D25*
%TO.C,K3*%
X67945000Y-31432500D03*
D26*
X70485000Y-36512500D03*
D18*
X73025000Y-31432500D03*
D26*
X76835000Y-33972500D03*
D25*
X78105000Y-31432500D03*
D27*
X80385000Y-33972500D03*
D28*
X80385000Y-33972500D03*
D27*
X66935000Y-36512500D03*
D28*
X66935000Y-36512500D03*
%TD*%
D25*
%TO.C,K41*%
X58420000Y-88582500D03*
D26*
X60960000Y-93662500D03*
D18*
X63500000Y-88582500D03*
D26*
X67310000Y-91122500D03*
D25*
X68580000Y-88582500D03*
D27*
X70860000Y-91122500D03*
D28*
X70860000Y-91122500D03*
D27*
X57410000Y-93662500D03*
D28*
X57410000Y-93662500D03*
%TD*%
D29*
%TO.C,KD25*%
X225950000Y-87445000D03*
X227850000Y-87445000D03*
X226900000Y-89320000D03*
%TD*%
D31*
%TO.C,R32*%
X86615000Y-64452500D03*
X88265000Y-64452500D03*
%TD*%
%TO.C,R30*%
X48515000Y-64452500D03*
X50165000Y-64452500D03*
%TD*%
D25*
%TO.C,K18*%
X153670000Y-50482500D03*
D26*
X156210000Y-55562500D03*
D18*
X158750000Y-50482500D03*
D26*
X162560000Y-53022500D03*
D25*
X163830000Y-50482500D03*
D27*
X166110000Y-53022500D03*
D28*
X166110000Y-53022500D03*
D27*
X152660000Y-55562500D03*
D28*
X152660000Y-55562500D03*
%TD*%
D31*
%TO.C,R12*%
X210440000Y-26352500D03*
X212090000Y-26352500D03*
%TD*%
D25*
%TO.C,K26*%
X39370000Y-69532500D03*
D26*
X41910000Y-74612500D03*
D18*
X44450000Y-69532500D03*
D26*
X48260000Y-72072500D03*
D25*
X49530000Y-69532500D03*
D27*
X51810000Y-72072500D03*
D28*
X51810000Y-72072500D03*
D27*
X38360000Y-74612500D03*
D28*
X38360000Y-74612500D03*
%TD*%
D31*
%TO.C,R61*%
X95568000Y-112712500D03*
X97218000Y-112712500D03*
%TD*%
D25*
%TO.C,K33*%
X172720000Y-69532500D03*
D26*
X175260000Y-74612500D03*
D18*
X177800000Y-69532500D03*
D26*
X181610000Y-72072500D03*
D25*
X182880000Y-69532500D03*
D27*
X185160000Y-72072500D03*
D28*
X185160000Y-72072500D03*
D27*
X171710000Y-74612500D03*
D28*
X171710000Y-74612500D03*
%TD*%
D29*
%TO.C,KD23*%
X148275000Y-89088750D03*
X150175000Y-89088750D03*
X149225000Y-90963750D03*
%TD*%
D25*
%TO.C,K43*%
X96520000Y-88582500D03*
D26*
X99060000Y-93662500D03*
D18*
X101600000Y-88582500D03*
D26*
X105410000Y-91122500D03*
D25*
X106680000Y-88582500D03*
D27*
X108960000Y-91122500D03*
D28*
X108960000Y-91122500D03*
D27*
X95510000Y-93662500D03*
D28*
X95510000Y-93662500D03*
%TD*%
D52*
%TO.C,C3*%
X249477589Y-66160589D03*
X250156411Y-66839411D03*
%TD*%
D25*
%TO.C,K6*%
X182245000Y-31432500D03*
D26*
X184785000Y-36512500D03*
D18*
X187325000Y-31432500D03*
D26*
X191135000Y-33972500D03*
D25*
X192405000Y-31432500D03*
D27*
X194685000Y-33972500D03*
D28*
X194685000Y-33972500D03*
D27*
X181235000Y-36512500D03*
D28*
X181235000Y-36512500D03*
%TD*%
D31*
%TO.C,R59*%
X27075000Y-47482500D03*
X28725000Y-47482500D03*
%TD*%
D29*
%TO.C,KD17*%
X187550000Y-69045000D03*
X189450000Y-69045000D03*
X188500000Y-70920000D03*
%TD*%
D53*
%TO.C,J3*%
X144475000Y-64117500D03*
X144975000Y-64117500D03*
X145475000Y-64117500D03*
X145975000Y-64117500D03*
X146475000Y-64117500D03*
X146975000Y-64117500D03*
X147475000Y-64117500D03*
X147975000Y-64117500D03*
X148475000Y-64117500D03*
X148975000Y-64117500D03*
X149475000Y-64117500D03*
X149975000Y-64117500D03*
X150475000Y-64117500D03*
X150975000Y-64117500D03*
X151475000Y-64117500D03*
X151975000Y-64117500D03*
X152475000Y-64117500D03*
X152975000Y-64117500D03*
X153475000Y-64117500D03*
X153975000Y-64117500D03*
D54*
X142825000Y-60217500D03*
X155625000Y-60217500D03*
%TD*%
D55*
%TO.C,Y1*%
X250942778Y-60458628D03*
X250094250Y-59610100D03*
X249245722Y-58761572D03*
%TD*%
D25*
%TO.C,K47A1*%
X163195000Y-88582500D03*
D26*
X165735000Y-93662500D03*
D18*
X168275000Y-88582500D03*
D26*
X172085000Y-91122500D03*
D25*
X173355000Y-88582500D03*
D27*
X175635000Y-91122500D03*
D28*
X175635000Y-91122500D03*
D27*
X162185000Y-93662500D03*
D32*
X162185000Y-93662500D03*
%TD*%
D25*
%TO.C,K28*%
X77470000Y-69532500D03*
D26*
X80010000Y-74612500D03*
D18*
X82550000Y-69532500D03*
D26*
X86360000Y-72072500D03*
D25*
X87630000Y-69532500D03*
D27*
X89910000Y-72072500D03*
D28*
X89910000Y-72072500D03*
D27*
X76460000Y-74612500D03*
D28*
X76460000Y-74612500D03*
%TD*%
D35*
%TO.C,R58*%
X168338000Y-85598000D03*
X166688000Y-85598000D03*
%TD*%
D31*
%TO.C,R38*%
X200915000Y-64452500D03*
X202565000Y-64452500D03*
%TD*%
%TO.C,R26*%
X258065000Y-45402500D03*
X259715000Y-45402500D03*
%TD*%
D29*
%TO.C,KD10*%
X186375000Y-48465500D03*
X188275000Y-48465500D03*
X187325000Y-50340500D03*
%TD*%
D25*
%TO.C,K34*%
X191770000Y-69532500D03*
D26*
X194310000Y-74612500D03*
D18*
X196850000Y-69532500D03*
D26*
X200660000Y-72072500D03*
D25*
X201930000Y-69532500D03*
D27*
X204210000Y-72072500D03*
D28*
X204210000Y-72072500D03*
D27*
X190760000Y-74612500D03*
D28*
X190760000Y-74612500D03*
%TD*%
D25*
%TO.C,K30*%
X115570000Y-69532500D03*
D26*
X118110000Y-74612500D03*
D18*
X120650000Y-69532500D03*
D26*
X124460000Y-72072500D03*
D25*
X125730000Y-69532500D03*
D27*
X128010000Y-72072500D03*
D28*
X128010000Y-72072500D03*
D27*
X114560000Y-74612500D03*
D28*
X114560000Y-74612500D03*
%TD*%
D29*
%TO.C,KD9*%
X148275000Y-48465500D03*
X150175000Y-48465500D03*
X149225000Y-50340500D03*
%TD*%
D31*
%TO.C,R19*%
X124715000Y-45402500D03*
X126365000Y-45402500D03*
%TD*%
%TO.C,R36*%
X162815000Y-64452500D03*
X164465000Y-64452500D03*
%TD*%
D25*
%TO.C,K47*%
X182880000Y-88582500D03*
D26*
X180340000Y-83502500D03*
D18*
X177800000Y-88582500D03*
D26*
X173990000Y-86042500D03*
D25*
X172720000Y-88582500D03*
D27*
X170440000Y-86042500D03*
D28*
X170440000Y-86042500D03*
D27*
X183890000Y-83502500D03*
D28*
X183890000Y-83502500D03*
%TD*%
D12*
%TO.C,D43*%
X140970000Y-93662500D03*
D13*
X138430000Y-93662500D03*
%TD*%
D25*
%TO.C,K23*%
X248920000Y-50482500D03*
D26*
X251460000Y-55562500D03*
D18*
X254000000Y-50482500D03*
D26*
X257810000Y-53022500D03*
D25*
X259080000Y-50482500D03*
D27*
X261360000Y-53022500D03*
D28*
X261360000Y-53022500D03*
D27*
X247910000Y-55562500D03*
D28*
X247910000Y-55562500D03*
%TD*%
D46*
%TO.C,R29*%
X245085624Y-70246876D03*
X244364376Y-70968124D03*
%TD*%
D29*
%TO.C,KD14*%
X72075000Y-67657500D03*
X73975000Y-67657500D03*
X73025000Y-69532500D03*
%TD*%
D12*
%TO.C,D59*%
X207645000Y-112712500D03*
D13*
X205105000Y-112712500D03*
%TD*%
D31*
%TO.C,R34*%
X124690000Y-64452500D03*
X126340000Y-64452500D03*
%TD*%
%TO.C,R60*%
X48515000Y-45402500D03*
X50165000Y-45402500D03*
%TD*%
D12*
%TO.C,D55*%
X93345000Y-112712500D03*
D13*
X90805000Y-112712500D03*
%TD*%
D25*
%TO.C,K39*%
X20320000Y-88582500D03*
D26*
X22860000Y-93662500D03*
D18*
X25400000Y-88582500D03*
D26*
X29210000Y-91122500D03*
D25*
X30480000Y-88582500D03*
D27*
X32760000Y-91122500D03*
D28*
X32760000Y-91122500D03*
D27*
X19310000Y-93662500D03*
D28*
X19310000Y-93662500D03*
%TD*%
D12*
%TO.C,D58*%
X171926250Y-112712500D03*
D13*
X169386250Y-112712500D03*
%TD*%
D56*
%TO.C,U2*%
X35187500Y-52197500D03*
D57*
X35725000Y-52122500D03*
D56*
X36262500Y-52197500D03*
X36262500Y-53897500D03*
D57*
X35725000Y-53972500D03*
D56*
X35187500Y-53897500D03*
%TD*%
D31*
%TO.C,R65*%
X210122000Y-112712500D03*
X211772000Y-112712500D03*
%TD*%
D25*
%TO.C,K2*%
X48895000Y-31432500D03*
D26*
X51435000Y-36512500D03*
D18*
X53975000Y-31432500D03*
D26*
X57785000Y-33972500D03*
D25*
X59055000Y-31432500D03*
D27*
X61335000Y-33972500D03*
D28*
X61335000Y-33972500D03*
D27*
X47885000Y-36512500D03*
D28*
X47885000Y-36512500D03*
%TD*%
D31*
%TO.C,R46*%
X86615000Y-83502500D03*
X88265000Y-83502500D03*
%TD*%
%TO.C,R50*%
X160150000Y-91382500D03*
X161800000Y-91382500D03*
%TD*%
%TO.C,R20*%
X143740000Y-45402500D03*
X145390000Y-45402500D03*
%TD*%
D29*
%TO.C,KD18*%
X225491000Y-69420500D03*
X227391000Y-69420500D03*
X226441000Y-71295500D03*
%TD*%
D25*
%TO.C,K16*%
X115570000Y-50482500D03*
D26*
X118110000Y-55562500D03*
D18*
X120650000Y-50482500D03*
D26*
X124460000Y-53022500D03*
D25*
X125730000Y-50482500D03*
D27*
X128010000Y-53022500D03*
D28*
X128010000Y-53022500D03*
D27*
X114560000Y-55562500D03*
D28*
X114560000Y-55562500D03*
%TD*%
D25*
%TO.C,K4*%
X86995000Y-31432500D03*
D26*
X89535000Y-36512500D03*
D18*
X92075000Y-31432500D03*
D26*
X95885000Y-33972500D03*
D25*
X97155000Y-31432500D03*
D27*
X99435000Y-33972500D03*
D28*
X99435000Y-33972500D03*
D27*
X85985000Y-36512500D03*
D28*
X85985000Y-36512500D03*
%TD*%
D31*
%TO.C,R48*%
X122150000Y-91382500D03*
X123800000Y-91382500D03*
%TD*%
%TO.C,R14*%
X248540000Y-26352500D03*
X250190000Y-26352500D03*
%TD*%
%TO.C,R13*%
X229490000Y-26352500D03*
X231140000Y-26352500D03*
%TD*%
D25*
%TO.C,K24*%
X267970000Y-50482500D03*
D26*
X270510000Y-55562500D03*
D18*
X273050000Y-50482500D03*
D26*
X276860000Y-53022500D03*
D25*
X278130000Y-50482500D03*
D27*
X280410000Y-53022500D03*
D28*
X280410000Y-53022500D03*
D27*
X266960000Y-55562500D03*
D28*
X266960000Y-55562500D03*
%TD*%
D31*
%TO.C,R11*%
X191390000Y-26352500D03*
X193040000Y-26352500D03*
%TD*%
D25*
%TO.C,K46*%
X163830000Y-88582500D03*
D26*
X161290000Y-83502500D03*
D18*
X158750000Y-88582500D03*
D26*
X154940000Y-86042500D03*
D25*
X153670000Y-88582500D03*
D27*
X151390000Y-86042500D03*
D28*
X151390000Y-86042500D03*
D27*
X164840000Y-83502500D03*
D32*
X164840000Y-83502500D03*
%TD*%
D25*
%TO.C,K49*%
X210820000Y-88582500D03*
D26*
X213360000Y-93662500D03*
D18*
X215900000Y-88582500D03*
D26*
X219710000Y-91122500D03*
D25*
X220980000Y-88582500D03*
D27*
X223260000Y-91122500D03*
D28*
X223260000Y-91122500D03*
D27*
X209810000Y-93662500D03*
D28*
X209810000Y-93662500D03*
%TD*%
D58*
%TO.C,C2*%
X246585589Y-59805072D03*
X247264411Y-59126250D03*
%TD*%
D31*
%TO.C,R45*%
X67565000Y-83502500D03*
X69215000Y-83502500D03*
%TD*%
%TO.C,R41*%
X258065000Y-64452500D03*
X259715000Y-64452500D03*
%TD*%
D29*
%TO.C,KD26*%
X262575000Y-86707500D03*
X264475000Y-86707500D03*
X263525000Y-88582500D03*
%TD*%
%TO.C,KD20*%
X33975000Y-86707500D03*
X35875000Y-86707500D03*
X34925000Y-88582500D03*
%TD*%
D25*
%TO.C,K31*%
X134620000Y-69532500D03*
D26*
X137160000Y-74612500D03*
D18*
X139700000Y-69532500D03*
D26*
X143510000Y-72072500D03*
D25*
X144780000Y-69532500D03*
D27*
X147060000Y-72072500D03*
D28*
X147060000Y-72072500D03*
D27*
X133610000Y-74612500D03*
D28*
X133610000Y-74612500D03*
%TD*%
D12*
%TO.C,D56*%
X129063750Y-112712500D03*
D13*
X126523750Y-112712500D03*
%TD*%
D31*
%TO.C,R16*%
X67565000Y-45402500D03*
X69215000Y-45402500D03*
%TD*%
D29*
%TO.C,KD15*%
X110175000Y-67657500D03*
X112075000Y-67657500D03*
X111125000Y-69532500D03*
%TD*%
D31*
%TO.C,R54*%
X239015000Y-83502500D03*
X240665000Y-83502500D03*
%TD*%
%TO.C,R51*%
X180150000Y-90487500D03*
X181800000Y-90487500D03*
%TD*%
D25*
%TO.C,K50*%
X229870000Y-88582500D03*
D26*
X232410000Y-93662500D03*
D18*
X234950000Y-88582500D03*
D26*
X238760000Y-91122500D03*
D25*
X240030000Y-88582500D03*
D27*
X242310000Y-91122500D03*
D28*
X242310000Y-91122500D03*
D27*
X228860000Y-93662500D03*
D28*
X228860000Y-93662500D03*
%TD*%
D41*
%TO.C,R4*%
X235000000Y-59682500D03*
X236020000Y-59682500D03*
%TD*%
D25*
%TO.C,K55A1*%
X154305000Y-107632500D03*
D26*
X151765000Y-102552500D03*
D18*
X149225000Y-107632500D03*
D26*
X145415000Y-105092500D03*
D25*
X144145000Y-107632500D03*
D27*
X141865000Y-105092500D03*
D28*
X141865000Y-105092500D03*
D27*
X155315000Y-102552500D03*
D28*
X155315000Y-102552500D03*
%TD*%
D59*
%TO.C,R5*%
X236020000Y-60732500D03*
X235000000Y-60732500D03*
%TD*%
D25*
%TO.C,K54*%
X132873750Y-107632500D03*
D26*
X130333750Y-102552500D03*
D18*
X127793750Y-107632500D03*
D26*
X123983750Y-105092500D03*
D25*
X122713750Y-107632500D03*
D27*
X120433750Y-105092500D03*
D28*
X120433750Y-105092500D03*
D27*
X133883750Y-102552500D03*
D28*
X133883750Y-102552500D03*
%TD*%
D25*
%TO.C,K20*%
X191770000Y-50482500D03*
D26*
X194310000Y-55562500D03*
D18*
X196850000Y-50482500D03*
D26*
X200660000Y-53022500D03*
D25*
X201930000Y-50482500D03*
D27*
X204210000Y-53022500D03*
D28*
X204210000Y-53022500D03*
D27*
X190760000Y-55562500D03*
D28*
X190760000Y-55562500D03*
%TD*%
D25*
%TO.C,K53*%
X97155000Y-107632500D03*
D60*
X94615000Y-102552500D03*
D18*
X92075000Y-107632500D03*
D60*
X88265000Y-105092500D03*
D25*
X86995000Y-107632500D03*
D27*
X84715000Y-105092500D03*
D28*
X84715000Y-105092500D03*
D27*
X98165000Y-102552500D03*
D28*
X98165000Y-102552500D03*
%TD*%
D31*
%TO.C,R22*%
X181865000Y-45402500D03*
X183515000Y-45402500D03*
%TD*%
D25*
%TO.C,K9*%
X239395000Y-31432500D03*
D26*
X241935000Y-36512500D03*
D18*
X244475000Y-31432500D03*
D26*
X248285000Y-33972500D03*
D25*
X249555000Y-31432500D03*
D27*
X251835000Y-33972500D03*
D28*
X251835000Y-33972500D03*
D27*
X238385000Y-36512500D03*
D28*
X238385000Y-36512500D03*
%TD*%
D30*
%TO.C,C5*%
X239314411Y-65608089D03*
X238635589Y-66286911D03*
%TD*%
D25*
%TO.C,K1*%
X20320000Y-31432500D03*
D26*
X22860000Y-36512500D03*
D18*
X25400000Y-31432500D03*
D26*
X29210000Y-33972500D03*
D25*
X30480000Y-31432500D03*
D27*
X32760000Y-33972500D03*
D42*
X32760000Y-33972500D03*
D27*
X19310000Y-36512500D03*
D28*
X19310000Y-36512500D03*
%TD*%
D33*
%TO.C,D44*%
X160020000Y-93662500D03*
D13*
X157480000Y-93662500D03*
%TD*%
D31*
%TO.C,R6*%
X29465000Y-26352500D03*
X31115000Y-26352500D03*
%TD*%
%TO.C,R39*%
X219965000Y-64452500D03*
X221615000Y-64452500D03*
%TD*%
D25*
%TO.C,K56*%
X211455000Y-107632500D03*
D60*
X208915000Y-102552500D03*
D18*
X206375000Y-107632500D03*
D60*
X202565000Y-105092500D03*
D25*
X201295000Y-107632500D03*
D27*
X199015000Y-105092500D03*
D28*
X199015000Y-105092500D03*
D27*
X212465000Y-102552500D03*
D28*
X212465000Y-102552500D03*
%TD*%
D31*
%TO.C,R21*%
X162815000Y-45402500D03*
X164465000Y-45402500D03*
%TD*%
%TO.C,R64*%
X174308000Y-112712500D03*
X175958000Y-112712500D03*
%TD*%
D61*
%TO.C,J1*%
X32035000Y-46647500D03*
X37815000Y-46647500D03*
D62*
X31675000Y-48092500D03*
X32475000Y-48092500D03*
D63*
X33675000Y-48092500D03*
X34675000Y-48092500D03*
X35175000Y-48092500D03*
X36175000Y-48092500D03*
D62*
X37375000Y-48092500D03*
X38175000Y-48092500D03*
X38175000Y-48092500D03*
X37375000Y-48092500D03*
D63*
X36675000Y-48092500D03*
X35675000Y-48092500D03*
X34175000Y-48092500D03*
X33175000Y-48092500D03*
D62*
X32475000Y-48092500D03*
X31675000Y-48092500D03*
D64*
X30605000Y-42997500D03*
D65*
X30605000Y-47177500D03*
D64*
X39245000Y-42997500D03*
D65*
X39245000Y-47177500D03*
%TD*%
D35*
%TO.C,R40*%
X231838000Y-63563500D03*
X230188000Y-63563500D03*
%TD*%
D31*
%TO.C,R7*%
X58040000Y-26352500D03*
X59690000Y-26352500D03*
%TD*%
D25*
%TO.C,K17*%
X134620000Y-50482500D03*
D26*
X137160000Y-55562500D03*
D18*
X139700000Y-50482500D03*
D26*
X143510000Y-53022500D03*
D25*
X144780000Y-50482500D03*
D27*
X147060000Y-53022500D03*
D28*
X147060000Y-53022500D03*
D27*
X133610000Y-55562500D03*
D28*
X133610000Y-55562500D03*
%TD*%
D25*
%TO.C,K35*%
X210820000Y-69532500D03*
D26*
X213360000Y-74612500D03*
D18*
X215900000Y-69532500D03*
D26*
X219710000Y-72072500D03*
D25*
X220980000Y-69532500D03*
D27*
X223260000Y-72072500D03*
D28*
X223260000Y-72072500D03*
D27*
X209810000Y-74612500D03*
D28*
X209810000Y-74612500D03*
%TD*%
M02*
