%TF.GenerationSoftware,KiCad,Pcbnew,7.0.1-0*%
%TF.CreationDate,2023-07-02T14:27:39+03:00*%
%TF.ProjectId,30cent,33306365-6e74-42e6-9b69-6361645f7063,rev?*%
%TF.SameCoordinates,Original*%
%TF.FileFunction,Profile,NP*%
%FSLAX46Y46*%
G04 Gerber Fmt 4.6, Leading zero omitted, Abs format (unit mm)*
G04 Created by KiCad (PCBNEW 7.0.1-0) date 2023-07-02 14:27:39*
%MOMM*%
%LPD*%
G01*
G04 APERTURE LIST*
%TA.AperFunction,Profile*%
%ADD10C,0.100000*%
%TD*%
G04 APERTURE END LIST*
D10*
X136731750Y-98607501D02*
X136731749Y-97607502D01*
X203375001Y-98607501D02*
X203375000Y-97607502D01*
X179594198Y-97607502D02*
G75*
G03*
X179094250Y-97107502I-499998J2D01*
G01*
X95074999Y-98607501D02*
G75*
G03*
X95574999Y-99107501I500001J1D01*
G01*
X265025000Y-41457500D02*
G75*
G03*
X265525000Y-41957500I500000J0D01*
G01*
X36924999Y-39957500D02*
X80550000Y-39957500D01*
X142731699Y-98607501D02*
G75*
G03*
X143231749Y-99107501I500001J1D01*
G01*
X95687000Y-99107500D02*
G75*
G03*
X96187000Y-98607501I0J500000D01*
G01*
X128175000Y-41957500D02*
X84550000Y-41957500D01*
X195763001Y-97107502D02*
X186094250Y-97107502D01*
X84550000Y-39957500D02*
G75*
G03*
X84050000Y-40457500I0J-500000D01*
G01*
X279575000Y-22907500D02*
X18875000Y-22907500D01*
X85550000Y-97607502D02*
X85549999Y-98607501D01*
X196262998Y-97607502D02*
G75*
G03*
X195763001Y-97107502I-499998J2D01*
G01*
X95574999Y-99107501D02*
X95687000Y-99107501D01*
X84050000Y-41457500D02*
X84050000Y-40457500D01*
X78787499Y-97607501D02*
G75*
G03*
X78287499Y-97107501I-499999J1D01*
G01*
X132174999Y-39957500D02*
G75*
G03*
X131675000Y-40457499I1J-500000D01*
G01*
X169775000Y-41457500D02*
X169775000Y-40457500D01*
X217400000Y-41457500D02*
X217400000Y-40457500D01*
X89074998Y-97607502D02*
G75*
G03*
X88575000Y-97107502I-499998J2D01*
G01*
X112355750Y-97107502D02*
X102686999Y-97107502D01*
X18875000Y-41957500D02*
G75*
G03*
X16875000Y-43957500I0J-2000000D01*
G01*
X143231749Y-99107501D02*
X155218250Y-99107501D01*
X213900000Y-41957500D02*
G75*
G03*
X214400000Y-41457500I0J500000D01*
G01*
X202875001Y-99107501D02*
G75*
G03*
X203375001Y-98607501I-1J500001D01*
G01*
X128675000Y-40457500D02*
G75*
G03*
X128174999Y-39957500I-500000J0D01*
G01*
X86049999Y-97107500D02*
G75*
G03*
X85550000Y-97607502I1J-500000D01*
G01*
X78787500Y-114132500D02*
G75*
G03*
X80787500Y-116132500I2000000J0D01*
G01*
X112355750Y-99107550D02*
G75*
G03*
X112855750Y-98607501I-50J500050D01*
G01*
X33425000Y-40457500D02*
G75*
G03*
X32925000Y-39957500I-500000J0D01*
G01*
X128675000Y-41457500D02*
X128675000Y-40457500D01*
X36425000Y-41457500D02*
G75*
G03*
X36925000Y-41957500I500000J0D01*
G01*
X88575000Y-99107501D02*
X86049999Y-99107501D01*
X213900000Y-41957500D02*
X170275000Y-41957500D01*
X102686999Y-99107501D02*
X112355750Y-99107501D01*
X162218249Y-97107550D02*
G75*
G03*
X161718250Y-97607502I-49J-499950D01*
G01*
X219662500Y-114132500D02*
X219662500Y-97607500D01*
X162218249Y-99107501D02*
X179094250Y-99107501D01*
X136731698Y-97607502D02*
G75*
G03*
X136231750Y-97107502I-499998J2D01*
G01*
X279575000Y-39958123D02*
G75*
G03*
X281574998Y-37907500I0J2000623D01*
G01*
X281575000Y-24907500D02*
X281575000Y-37907500D01*
X85549999Y-98607501D02*
G75*
G03*
X86049999Y-99107501I500001J1D01*
G01*
X261525000Y-41957500D02*
G75*
G03*
X262025000Y-41457500I0J500000D01*
G01*
X132175000Y-41957500D02*
X166275000Y-41957500D01*
X212400001Y-99107501D02*
X209875000Y-99107501D01*
X203374998Y-97607502D02*
G75*
G03*
X202875001Y-97107502I-499998J2D01*
G01*
X18875000Y-39957500D02*
X32925000Y-39957500D01*
X209875000Y-97107502D02*
X212400001Y-97107502D01*
X155718250Y-98607501D02*
X155718249Y-97607502D01*
X131675000Y-41457500D02*
X131675000Y-40457499D01*
X112855798Y-97607502D02*
G75*
G03*
X112355750Y-97107502I-499998J2D01*
G01*
X262025000Y-41457500D02*
X262025000Y-40457500D01*
X186094250Y-99107501D02*
X195763001Y-99107501D01*
X131675000Y-41457500D02*
G75*
G03*
X132175000Y-41957500I500000J0D01*
G01*
X186094250Y-97107451D02*
G75*
G03*
X185594251Y-97607502I-50J-499949D01*
G01*
X119355749Y-97107450D02*
G75*
G03*
X118855750Y-97607502I51J-500050D01*
G01*
X119355749Y-99107501D02*
X136231750Y-99107501D01*
X81050000Y-40457500D02*
G75*
G03*
X80550000Y-39957500I-500000J0D01*
G01*
X143231749Y-97107502D02*
X155218250Y-97107502D01*
X16875000Y-24907500D02*
X16875000Y-37957500D01*
X214400000Y-41457500D02*
X214400000Y-40457500D01*
X88575000Y-99107500D02*
G75*
G03*
X89075000Y-98607501I0J500000D01*
G01*
X136231750Y-97107502D02*
X119355749Y-97107502D01*
X33425000Y-41457500D02*
X33425000Y-40457500D01*
X32925000Y-41957500D02*
G75*
G03*
X33425000Y-41457500I0J500000D01*
G01*
X95075000Y-97607502D02*
X95074999Y-98607501D01*
X202763000Y-99107501D02*
X202875001Y-99107501D01*
X179094250Y-97107502D02*
X162218249Y-97107502D01*
X170275000Y-39957500D02*
G75*
G03*
X169775000Y-40457500I0J-500000D01*
G01*
X220162500Y-97107500D02*
G75*
G03*
X219662500Y-97607500I0J-500000D01*
G01*
X84550000Y-39957500D02*
X128174999Y-39957500D01*
X89075000Y-98607501D02*
X89074999Y-97607502D01*
X95574999Y-97107500D02*
G75*
G03*
X95075000Y-97607502I1J-500000D01*
G01*
X102187000Y-97607502D02*
X102186999Y-98607501D01*
X78787499Y-97607501D02*
X78787500Y-114132500D01*
X80787500Y-116132500D02*
X217662500Y-116132500D01*
X217900000Y-39957500D02*
X261524999Y-39957500D01*
X209374999Y-98607501D02*
G75*
G03*
X209875000Y-99107501I500001J1D01*
G01*
X118855750Y-97607502D02*
X118855749Y-98607501D01*
X161718199Y-98607501D02*
G75*
G03*
X162218249Y-99107501I500001J1D01*
G01*
X179094250Y-99107450D02*
G75*
G03*
X179594250Y-98607501I50J499950D01*
G01*
X102686999Y-97107500D02*
G75*
G03*
X102187000Y-97607502I1J-500000D01*
G01*
X202763000Y-97107502D02*
X202875001Y-97107502D01*
X81050000Y-41457500D02*
X81050000Y-40457500D01*
X166775000Y-40457500D02*
G75*
G03*
X166275000Y-39957500I-500000J0D01*
G01*
X265525001Y-39957500D02*
X279575000Y-39957500D01*
X16875000Y-37957500D02*
G75*
G03*
X18875000Y-39957500I2000000J0D01*
G01*
X166275000Y-41957500D02*
G75*
G03*
X166775000Y-41457500I0J500000D01*
G01*
X86049999Y-97107502D02*
X88575000Y-97107502D01*
X220162500Y-97107500D02*
X279575000Y-97108124D01*
X281575000Y-95107500D02*
X281575000Y-43957500D01*
X32925000Y-41957500D02*
X18875000Y-41957500D01*
X96186998Y-97607502D02*
G75*
G03*
X95687000Y-97107502I-499998J2D01*
G01*
X209375001Y-97607502D02*
X209375000Y-98607501D01*
X265525001Y-39957500D02*
G75*
G03*
X265025000Y-40457500I-1J-500000D01*
G01*
X217400000Y-41457500D02*
G75*
G03*
X217900000Y-41957500I500000J0D01*
G01*
X118855699Y-98607501D02*
G75*
G03*
X119355749Y-99107501I500001J1D01*
G01*
X262025000Y-40457500D02*
G75*
G03*
X261524999Y-39957500I-500000J0D01*
G01*
X18875000Y-22907500D02*
G75*
G03*
X16875000Y-24907500I0J-2000000D01*
G01*
X217662500Y-116132500D02*
G75*
G03*
X219662500Y-114132500I0J2000000D01*
G01*
X96187000Y-98607501D02*
X96186999Y-97607502D01*
X202263001Y-97607502D02*
X202263000Y-98607501D01*
X142731750Y-97607502D02*
X142731749Y-98607501D01*
X16875000Y-43957500D02*
X16875000Y-95107500D01*
X80550000Y-41957500D02*
X36925000Y-41957500D01*
X16875000Y-95107500D02*
G75*
G03*
X18875000Y-97107500I2000000J0D01*
G01*
X102186999Y-98607501D02*
G75*
G03*
X102686999Y-99107501I500001J1D01*
G01*
X128175000Y-41957500D02*
G75*
G03*
X128675000Y-41457500I0J500000D01*
G01*
X155218250Y-99107450D02*
G75*
G03*
X155718250Y-98607501I50J499950D01*
G01*
X265025000Y-41457500D02*
X265025000Y-40457500D01*
X261525000Y-41957500D02*
X217900000Y-41957500D01*
X84050000Y-41457500D02*
G75*
G03*
X84550000Y-41957500I500000J0D01*
G01*
X143231749Y-97107550D02*
G75*
G03*
X142731750Y-97607502I-49J-499950D01*
G01*
X169775000Y-41457500D02*
G75*
G03*
X170275000Y-41957500I500000J0D01*
G01*
X212900001Y-98607501D02*
X212900000Y-97607502D01*
X166275000Y-39957500D02*
X132174999Y-39957500D01*
X80550000Y-41957500D02*
G75*
G03*
X81050000Y-41457500I0J500000D01*
G01*
X217900000Y-39957500D02*
G75*
G03*
X217400000Y-40457500I0J-500000D01*
G01*
X279575000Y-41957500D02*
X265525000Y-41957500D01*
X185594251Y-97607502D02*
X185594250Y-98607501D01*
X202262999Y-98607501D02*
G75*
G03*
X202763000Y-99107501I500001J1D01*
G01*
X136231750Y-99107450D02*
G75*
G03*
X136731750Y-98607501I50J499950D01*
G01*
X161718250Y-97607502D02*
X161718249Y-98607501D01*
X18875000Y-97107500D02*
X78287499Y-97107501D01*
X279575000Y-97108100D02*
G75*
G03*
X281575000Y-95108124I0J2000000D01*
G01*
X195763001Y-99107501D02*
G75*
G03*
X196263001Y-98607501I-1J500001D01*
G01*
X166775000Y-41457500D02*
X166775000Y-40457500D01*
X212400001Y-99107501D02*
G75*
G03*
X212900001Y-98607501I-1J500001D01*
G01*
X179594250Y-98607501D02*
X179594249Y-97607502D01*
X196263001Y-98607501D02*
X196263000Y-97607502D01*
X212899998Y-97607502D02*
G75*
G03*
X212400001Y-97107502I-499998J2D01*
G01*
X95574999Y-97107502D02*
X95687000Y-97107502D01*
X185594199Y-98607501D02*
G75*
G03*
X186094250Y-99107501I500001J1D01*
G01*
X170275000Y-39957500D02*
X213900000Y-39957500D01*
X112855750Y-98607501D02*
X112855749Y-97607502D01*
X281575000Y-24907500D02*
G75*
G03*
X279575000Y-22907500I-2000000J0D01*
G01*
X209875000Y-97107501D02*
G75*
G03*
X209375001Y-97607502I0J-499999D01*
G01*
X155718198Y-97607502D02*
G75*
G03*
X155218250Y-97107502I-499998J2D01*
G01*
X36425000Y-41457500D02*
X36425000Y-40457499D01*
X202763000Y-97107501D02*
G75*
G03*
X202263001Y-97607502I0J-499999D01*
G01*
X214400000Y-40457500D02*
G75*
G03*
X213900000Y-39957500I-500000J0D01*
G01*
X281575000Y-43957500D02*
G75*
G03*
X279575000Y-41957500I-2000000J0D01*
G01*
X36924999Y-39957500D02*
G75*
G03*
X36425000Y-40457499I1J-500000D01*
G01*
M02*
