0
SECTION
2
HEADER
9
$INSUNITS
70
4
9
$ACADVER
1
AC1014
9
$HANDSEED
5
FFFF
0
ENDSEC
0
SECTION
2
TABLES
0
TABLE
2
VPORT
5
8
100
AcDbSymbolTable
0
ENDTAB
0
TABLE
2
LTYPE
5
5
100
AcDbSymbolTable
0
LTYPE
5
14
100
AcDbSymbolTableRecord
100
AcDbLinetypeTableRecord
2
BYBLOCK
70
0
0
LTYPE
5
15
100
AcDbSymbolTableRecord
100
AcDbLinetypeTableRecord
2
BYLAYER
70
0
0
ENDTAB
0
TABLE
2
LAYER
5
2
100
AcDbSymbolTable
70
2
0
LAYER
5
50
100
AcDbSymbolTableRecord
100
AcDbLayerTableRecord
2
0
70
0
6
CONTINUOUS
0
ENDTAB
0
TABLE
2
STYLE
5
3
100
AcDbSymbolTable
70
1
0
STYLE
5
11
100
AcDbSymbolTableRecord
100
AcDbTextStyleTableRecord
2
STANDARD
70
0
0
ENDTAB
0
TABLE
2
VIEW
5
6
100
AcDbSymbolTable
70
0
0
ENDTAB
0
TABLE
2
UCS
5
7
100
AcDbSymbolTable
70
0
0
ENDTAB
0
TABLE
2
APPID
5
9
100
AcDbSymbolTable
70
2
0
APPID
5
12
100
AcDbSymbolTableRecord
100
AcDbRegAppTableRecord
2
ACAD
70
0
0
ENDTAB
0
TABLE
2
DIMSTYLE
5
A
100
AcDbSymbolTable
70
1
0
ENDTAB
0
TABLE
2
BLOCK_RECORD
5
1
100
AcDbSymbolTable
70
1
0
BLOCK_RECORD
5
1F
100
AcDbSymbolTableRecord
100
AcDbBlockTableRecord
2
*MODEL_SPACE
0
BLOCK_RECORD
5
1B
100
AcDbSymbolTableRecord
100
AcDbBlockTableRecord
2
*PAPER_SPACE
0
ENDTAB
0
ENDSEC
0
SECTION
2
BLOCKS
0
BLOCK
5
20
100
AcDbEntity
100
AcDbBlockBegin
2
*MODEL_SPACE
0
ENDBLK
5
21
100
AcDbEntity
100
AcDbBlockEnd
0
BLOCK
5
1C
100
AcDbEntity
100
AcDbBlockBegin
2
*PAPER_SPACE
0
ENDBLK
5
1D
100
AcDbEntity
100
AcDbBlockEnd
0
ENDSEC
0
SECTION
2
ENTITIES
0
LWPOLYLINE
5
100
100
AcDbEntity
8
0
100
AcDbPolyline
90
8
70
1
43
0.0
10
-124.59682565959633
20
81.700000000000088
42
0.41421356237302742
10
-125.5968256595964
20
82.699999999999989
10
-131.59682565959642
20
82.699999999999989
42
0.41421356237307427
10
-132.59682565959639
20
81.700000000000017
10
-132.59682565959642
20
67.700000000000017
42
0.41421356237310542
10
-131.59682565959642
20
66.700000000000003
10
-125.59682565959642
20
66.700000000000003
42
0.41421356237308726
10
-124.5968256595964
20
67.700000000000003
0
LWPOLYLINE
5
101
100
AcDbEntity
8
0
100
AcDbPolyline
90
8
70
1
43
0.0
10
-57.92425000000015
20
81.700000000000017
42
0.41421356237308204
10
-58.924250000000129
20
82.699999999999989
10
-64.924250000000143
20
82.700000000000017
42
0.41421356237302998
10
-65.924250000000256
20
81.700000000000102
10
-65.924250000000114
20
67.700000000000003
42
0.41421356237308465
10
-64.924250000000143
20
66.700000000000031
10
-58.924250000000129
20
66.700000000000003
42
0.41421356237309243
10
-57.924250000000129
20
67.700000000000003
0
LWPOLYLINE
5
102
100
AcDbEntity
8
0
100
AcDbPolyline
90
8
70
1
43
0.0
10
-110.19682565959641
20
69.200000000000003
42
0.4142135623731002
10
-109.69682565959641
20
69.700000000000003
10
-109.69682565959643
20
82.700000000000017
42
0.41421356237312629
10
-110.19682565959641
20
83.200000000000003
10
-123.19682565959644
20
83.200000000000003
42
0.41421356237308465
10
-123.69682565959643
20
82.700000000000031
10
-123.69682565959644
20
69.700000000000017
42
0.41421356237308982
10
-123.19682565959641
20
69.200000000000003
0
LWPOLYLINE
5
103
100
AcDbEntity
8
0
100
AcDbPolyline
90
8
70
1
43
0.0
10
-66.82425000000012
20
82.700000000000031
42
0.41421356237304818
10
-67.324250000000106
20
83.199999999999989
10
-80.324250000000148
20
83.200000000000003
42
0.41421356237312629
10
-80.824250000000134
20
82.700000000000017
10
-80.82425000000012
20
69.700000000000003
42
0.4142135623731002
10
-80.324250000000148
20
69.200000000000031
10
-67.32425000000012
20
69.200000000000031
42
0.41421356237312629
10
-66.824250000000134
20
69.700000000000017
0
LWPOLYLINE
5
104
100
AcDbEntity
8
0
100
AcDbPolyline
90
8
70
1
43
0.0
10
-82.734325659596436
20
66.700000000000003
42
0.41421356237308726
10
-81.734325659596408
20
67.700000000000003
10
-81.734325659596351
20
81.700000000000088
42
0.41421356237302742
10
-82.734325659596408
20
82.700000000000017
10
-88.734325659596436
20
82.699999999999989
42
0.41421356237307427
10
-89.734325659596408
20
81.700000000000017
10
-89.734325659596422
20
67.700000000000017
42
0.41421356237310542
10
-88.734325659596436
20
66.700000000000003
0
LWPOLYLINE
5
105
100
AcDbEntity
8
0
100
AcDbPolyline
90
8
70
1
43
0.0
10
-101.72082565959643
20
66.700000000000003
42
0.41421356237308726
10
-100.7208256595964
20
67.700000000000003
10
-100.72082565959634
20
81.700000000000088
42
0.41421356237302742
10
-101.72082565959641
20
82.700000000000017
10
-107.72082565959643
20
82.699999999999989
42
0.41421356237307427
10
-108.72082565959641
20
81.700000000000017
10
-108.72082565959643
20
67.700000000000017
42
0.41421356237310542
10
-107.72082565959643
20
66.700000000000003
0
LWPOLYLINE
5
106
100
AcDbEntity
8
0
100
AcDbPolyline
90
10
70
1
43
0.0
10
-158.91557565959641
20
83.200000000000003
42
0.40545250413817441
10
-159.41535060894864
20
82.715000000000046
10
-159.40527494935233
20
82.715000000000018
42
0.0075012661477338021
10
-159.40550000000013
20
82.700000000000017
10
-159.4055000000001
20
69.700000000000003
42
0.4142135623731002
10
-158.90550000000013
20
69.200000000000031
10
-145.90550000000013
20
69.200000000000031
42
0.41421356237308465
10
-145.40550000000013
20
69.700000000000017
10
-145.40550000000013
20
82.700000000000017
42
0.41421356237312629
10
-145.9055000000001
20
83.199999999999989
0
LWPOLYLINE
5
107
100
AcDbEntity
8
0
100
AcDbPolyline
90
8
70
1
43
0.0
10
-31.105500000000134
20
82.700000000000017
42
0.41421356237309509
10
-31.60550000000012
20
83.19999999999996
10
-44.605500000000134
20
83.200000000000003
42
0.41421356237309509
10
-45.105500000000127
20
82.700000000000017
10
-45.105500000000106
20
69.700000000000003
42
0.41421356237310542
10
-44.605500000000134
20
69.200000000000031
10
-31.60550000000012
20
69.200000000000031
42
0.41421356237311585
10
-31.105500000000134
20
69.700000000000017
0
LWPOLYLINE
5
108
100
AcDbEntity
8
0
100
AcDbPolyline
90
34
70
1
43
0.0
10
-143.91840358865909
20
88.657301567296059
10
-146.88278782979836
20
88.65730156729613
42
0.41421356237316787
10
-147.38278782979842
20
88.157301567296059
10
-147.38278782979785
20
85.657301567296159
10
-190.51557565959649
20
85.657301567296116
10
-190.51557565959649
20
80.266151283648412
10
-192.99449999999968
20
80.266151283648441
42
0.4142135623730534
10
-193.49449999999965
20
79.766151283648469
10
-193.49449999999976
20
71.766151283648028
42
0.41421356237306384
10
-192.99449999999976
20
71.266151283648014
10
-190.51557565959641
20
71.266151283648043
10
-190.51557565959641
20
65.964154907525085
10
-167.18731976164469
20
65.964154907537264
10
-24.312498999999992
20
65.875000999999997
10
-0.0055000000001292904
20
65.875000999999997
10
-0.0055000000001470539
20
71.266151283647957
10
2.4944999999998707
20
71.266151283647972
42
0.41421356237310542
10
2.9944999999998867
20
71.766151283647972
10
2.9944999999998423
20
79.766151283648369
42
0.41421356237307427
10
2.4944999999998529
20
80.266151283648355
10
-0.0055000000001470539
20
80.266151283648355
10
-0.0055000000001648175
20
85.657301567296358
10
-43.117212170202052
20
85.657301567296301
10
-43.117212170201512
20
88.157301567296031
42
0.41421356237316265
10
-43.617212170201526
20
88.657301567296145
10
-46.462872532140189
20
88.657301567296088
42
-0.56309250637119201
10
-48.771551808262629
20
88.657301567296031
10
-51.617212170201377
20
88.657301567295946
42
0.41421356237312629
10
-52.117212170201377
20
88.157301567295875
10
-52.117212170201071
20
85.657301567296287
10
-138.38278782979881
20
85.657301567296173
10
-138.38278782979853
20
88.15730156729586
42
0.41421356237311585
10
-138.8827878297985
20
88.657301567295903
10
-141.84717207093794
20
88.657301567296003
42
-0.53108500454394558
0
ENDSEC
0
SECTION
2
OBJECTS
0
DICTIONARY
5
C
100
AcDbDictionary
3
ACAD_GROUP
350
D
3
ACAD_MLINESTYLE
350
17
0
DICTIONARY
5
D
100
AcDbDictionary
0
DICTIONARY
5
1A
330
C
100
AcDbDictionary
0
DICTIONARY
5
17
100
AcDbDictionary
0
ENDSEC
0
EOF
