0
SECTION
2
HEADER
9
$INSUNITS
70
4
9
$ACADVER
1
AC1014
9
$HANDSEED
5
FFFF
0
ENDSEC
0
SECTION
2
TABLES
0
TABLE
2
VPORT
5
8
100
AcDbSymbolTable
0
ENDTAB
0
TABLE
2
LTYPE
5
5
100
AcDbSymbolTable
0
LTYPE
5
14
100
AcDbSymbolTableRecord
100
AcDbLinetypeTableRecord
2
BYBLOCK
70
0
0
LTYPE
5
15
100
AcDbSymbolTableRecord
100
AcDbLinetypeTableRecord
2
BYLAYER
70
0
0
ENDTAB
0
TABLE
2
LAYER
5
2
100
AcDbSymbolTable
70
2
0
LAYER
5
50
100
AcDbSymbolTableRecord
100
AcDbLayerTableRecord
2
0
70
0
6
CONTINUOUS
0
ENDTAB
0
TABLE
2
STYLE
5
3
100
AcDbSymbolTable
70
1
0
STYLE
5
11
100
AcDbSymbolTableRecord
100
AcDbTextStyleTableRecord
2
STANDARD
70
0
0
ENDTAB
0
TABLE
2
VIEW
5
6
100
AcDbSymbolTable
70
0
0
ENDTAB
0
TABLE
2
UCS
5
7
100
AcDbSymbolTable
70
0
0
ENDTAB
0
TABLE
2
APPID
5
9
100
AcDbSymbolTable
70
2
0
APPID
5
12
100
AcDbSymbolTableRecord
100
AcDbRegAppTableRecord
2
ACAD
70
0
0
ENDTAB
0
TABLE
2
DIMSTYLE
5
A
100
AcDbSymbolTable
70
1
0
ENDTAB
0
TABLE
2
BLOCK_RECORD
5
1
100
AcDbSymbolTable
70
1
0
BLOCK_RECORD
5
1F
100
AcDbSymbolTableRecord
100
AcDbBlockTableRecord
2
*MODEL_SPACE
0
BLOCK_RECORD
5
1B
100
AcDbSymbolTableRecord
100
AcDbBlockTableRecord
2
*PAPER_SPACE
0
ENDTAB
0
ENDSEC
0
SECTION
2
BLOCKS
0
BLOCK
5
20
100
AcDbEntity
100
AcDbBlockBegin
2
*MODEL_SPACE
0
ENDBLK
5
21
100
AcDbEntity
100
AcDbBlockEnd
0
BLOCK
5
1C
100
AcDbEntity
100
AcDbBlockBegin
2
*PAPER_SPACE
0
ENDBLK
5
1D
100
AcDbEntity
100
AcDbBlockEnd
0
ENDSEC
0
SECTION
2
ENTITIES
0
LWPOLYLINE
5
100
100
AcDbEntity
8
0
100
AcDbPolyline
90
8
70
1
43
0.0
10
-88.255500000000097
20
82.700000000000017
42
0.41421356237308465
10
-88.755500000000097
20
83.199999999999989
10
-101.75550000000013
20
83.200000000000003
42
0.41421356237312629
10
-102.25550000000011
20
82.700000000000017
10
-102.2555000000001
20
69.700000000000003
42
0.4142135623731002
10
-101.75550000000013
20
69.200000000000031
10
-88.755500000000112
20
69.200000000000031
42
0.41421356237310542
10
-88.255500000000097
20
69.700000000000017
0
LWPOLYLINE
5
101
100
AcDbEntity
8
0
100
AcDbPolyline
90
8
70
1
43
0.0
10
-25.552575659596414
20
66.715000000000003
42
0.4142135623730937
10
-24.552575659596414
20
67.715000000000003
10
-24.552575659596343
20
81.715000000000089
42
0.41421356237303392
10
-25.55257565959641
20
82.715000000000018
10
-31.552575659596425
20
82.715000000000003
42
0.41421356237308465
10
-32.5525756595964
20
81.715000000000018
10
-32.552575659596421
20
67.715000000000003
42
0.41421356237309637
10
-31.552575659596425
20
66.715000000000003
0
LWPOLYLINE
5
102
100
AcDbEntity
8
0
100
AcDbPolyline
90
8
70
1
43
0.0
10
-158.90257565959644
20
66.715000000000003
42
0.41421356237309764
10
-157.90257565959647
20
67.715000000000003
10
-157.90257565959638
20
81.715000000000089
42
0.41421356237302742
10
-158.90257565959644
20
82.715000000000018
10
-164.90257565959644
20
82.715000000000003
42
0.41421356237311063
10
-165.90257565959644
20
81.715000000000018
10
-165.90257565959647
20
67.715000000000003
42
0.41421356237310802
10
-164.90257565959644
20
66.715000000000003
0
LWPOLYLINE
5
103
100
AcDbEntity
8
0
100
AcDbPolyline
90
34
70
1
43
0.0
10
-143.91840358865909
20
88.657301567296059
10
-146.88278782979836
20
88.65730156729613
42
0.41421356237316787
10
-147.38278782979842
20
88.157301567296059
10
-147.38278782979785
20
85.657301567296159
10
-190.51557565959649
20
85.657301567296116
10
-190.51557565959649
20
80.266151283648412
10
-192.99449999999968
20
80.266151283648441
42
0.4142135623730534
10
-193.49449999999965
20
79.766151283648469
10
-193.49449999999976
20
71.766151283648028
42
0.41421356237306384
10
-192.99449999999976
20
71.266151283648014
10
-190.51557565959641
20
71.266151283648043
10
-190.51557565959641
20
65.964154907525085
10
-167.18731976164469
20
65.964154907537264
10
-24.312498999999992
20
65.875000999999997
10
-0.0055000000001292904
20
65.875000999999997
10
-0.0055000000001470539
20
71.266151283647957
10
2.4944999999998707
20
71.266151283647972
42
0.41421356237310542
10
2.9944999999998867
20
71.766151283647972
10
2.9944999999998423
20
79.766151283648369
42
0.41421356237307427
10
2.4944999999998529
20
80.266151283648355
10
-0.0055000000001470539
20
80.266151283648355
10
-0.0055000000001648175
20
85.657301567296358
10
-43.117212170202052
20
85.657301567296301
10
-43.117212170201512
20
88.157301567296031
42
0.41421356237316265
10
-43.617212170201526
20
88.657301567296145
10
-46.462872532140189
20
88.657301567296088
42
-0.56309250637119201
10
-48.771551808262629
20
88.657301567296031
10
-51.617212170201377
20
88.657301567295946
42
0.41421356237312629
10
-52.117212170201377
20
88.157301567295875
10
-52.117212170201071
20
85.657301567296287
10
-138.38278782979881
20
85.657301567296173
10
-138.38278782979853
20
88.15730156729586
42
0.41421356237311585
10
-138.8827878297985
20
88.657301567295903
10
-141.84717207093794
20
88.657301567296003
42
-0.53108500454394558
0
ENDSEC
0
SECTION
2
OBJECTS
0
DICTIONARY
5
C
100
AcDbDictionary
3
ACAD_GROUP
350
D
3
ACAD_MLINESTYLE
350
17
0
DICTIONARY
5
D
100
AcDbDictionary
0
DICTIONARY
5
1A
330
C
100
AcDbDictionary
0
DICTIONARY
5
17
100
AcDbDictionary
0
ENDSEC
0
EOF
