0
SECTION
2
HEADER
9
$INSUNITS
70
4
9
$ACADVER
1
AC1014
9
$HANDSEED
5
FFFF
0
ENDSEC
0
SECTION
2
TABLES
0
TABLE
2
VPORT
5
8
100
AcDbSymbolTable
0
ENDTAB
0
TABLE
2
LTYPE
5
5
100
AcDbSymbolTable
0
LTYPE
5
14
100
AcDbSymbolTableRecord
100
AcDbLinetypeTableRecord
2
BYBLOCK
70
0
0
LTYPE
5
15
100
AcDbSymbolTableRecord
100
AcDbLinetypeTableRecord
2
BYLAYER
70
0
0
ENDTAB
0
TABLE
2
LAYER
5
2
100
AcDbSymbolTable
70
2
0
LAYER
5
50
100
AcDbSymbolTableRecord
100
AcDbLayerTableRecord
2
0
70
0
6
CONTINUOUS
0
ENDTAB
0
TABLE
2
STYLE
5
3
100
AcDbSymbolTable
70
1
0
STYLE
5
11
100
AcDbSymbolTableRecord
100
AcDbTextStyleTableRecord
2
STANDARD
70
0
0
ENDTAB
0
TABLE
2
VIEW
5
6
100
AcDbSymbolTable
70
0
0
ENDTAB
0
TABLE
2
UCS
5
7
100
AcDbSymbolTable
70
0
0
ENDTAB
0
TABLE
2
APPID
5
9
100
AcDbSymbolTable
70
2
0
APPID
5
12
100
AcDbSymbolTableRecord
100
AcDbRegAppTableRecord
2
ACAD
70
0
0
ENDTAB
0
TABLE
2
DIMSTYLE
5
A
100
AcDbSymbolTable
70
1
0
ENDTAB
0
TABLE
2
BLOCK_RECORD
5
1
100
AcDbSymbolTable
70
1
0
BLOCK_RECORD
5
1F
100
AcDbSymbolTableRecord
100
AcDbBlockTableRecord
2
*MODEL_SPACE
0
BLOCK_RECORD
5
1B
100
AcDbSymbolTableRecord
100
AcDbBlockTableRecord
2
*PAPER_SPACE
0
ENDTAB
0
ENDSEC
0
SECTION
2
BLOCKS
0
BLOCK
5
20
100
AcDbEntity
100
AcDbBlockBegin
2
*MODEL_SPACE
0
ENDBLK
5
21
100
AcDbEntity
100
AcDbBlockEnd
0
BLOCK
5
1C
100
AcDbEntity
100
AcDbBlockBegin
2
*PAPER_SPACE
0
ENDBLK
5
1D
100
AcDbEntity
100
AcDbBlockEnd
0
ENDSEC
0
SECTION
2
ENTITIES
0
LWPOLYLINE
5
100
100
AcDbEntity
8
0
100
AcDbPolyline
90
34
70
1
43
0.0
10
-193.49449999999976
20
71.766151283648028
42
0.41421356237307427
10
-192.99449999999976
20
71.266151283648057
10
-190.51557565959641
20
71.266151283648043
10
-190.51557565959641
20
65.964154907525085
10
-167.18731976164469
20
65.964154907537264
10
-24.312498999999992
20
65.875000999999997
10
-0.0055000000001292904
20
65.875000999999997
10
-0.0055000000001470539
20
71.266151283647957
10
2.4944999999998774
20
71.266151283647972
42
0.41421356237309387
10
2.9944999999998734
20
71.766151283647972
10
2.9944999999998445
20
79.766151283648369
42
0.41421356237310725
10
2.4944999999998401
20
80.266151283648369
10
-0.0055000000001470539
20
80.266151283648355
10
-0.0055000000001648175
20
85.657301567296358
10
-43.117212170202052
20
85.657301567296301
10
-43.117212170201512
20
88.157301567296031
42
0.41421356237315743
10
-43.617212170201526
20
88.657301567296145
10
-46.462872532140182
20
88.657301567296088
42
-0.56309250637119423
10
-48.771551808262629
20
88.657301567296031
10
-51.617212170201377
20
88.657301567295946
42
0.41421356237313667
10
-52.11721217020137
20
88.157301567295875
10
-52.117212170201071
20
85.657301567296287
10
-138.38278782979881
20
85.657301567296173
10
-138.38278782979853
20
88.15730156729586
42
0.41421356237309509
10
-138.88278782979853
20
88.657301567295917
10
-141.847172070938
20
88.657301567296045
42
-0.53108500454393792
10
-143.91840358865909
20
88.657301567296059
10
-146.88278782979836
20
88.65730156729613
42
0.4142135623731471
10
-147.38278782979839
20
88.157301567296017
10
-147.38278782979785
20
85.657301567296159
10
-190.51557565959649
20
85.657301567296116
10
-190.51557565959649
20
80.266151283648412
10
-192.99449999999968
20
80.266151283648441
42
0.41421356237312629
10
-193.49449999999968
20
79.766151283648441
0
LWPOLYLINE
5
101
100
AcDbEntity
8
0
100
AcDbPolyline
90
20
70
1
43
0.0
10
-41.143500000000145
20
66.715000000000018
10
-42.255500000000126
20
66.700000000000017
10
-48.25550000000014
20
66.700000000000031
42
-0.41421356237308465
10
-49.255500000000119
20
67.700000000000017
10
-49.255500000000232
20
81.700000000000088
42
-0.41421356237304041
10
-48.25550000000014
20
82.700000000000017
10
-45.105500000000127
20
82.700000000000017
42
-0.41421356237309509
10
-44.605500000000134
20
83.200000000000003
10
-31.60550000000012
20
83.199999999999989
42
-0.40545250413812323
10
-31.105725050647926
20
82.715000000000032
10
-25.618500000000122
20
82.715000000000003
42
-0.41421356237308465
10
-24.618500000000143
20
81.715000000000018
10
-24.618500000000122
20
67.715000000000018
42
-0.41421356237309637
10
-25.618500000000122
20
66.715000000000018
10
-31.618500000000136
20
66.715000000000032
42
-0.41421356237308982
10
-32.618500000000111
20
67.715000000000018
10
-32.618500000000125
20
69.200000000000031
10
-34.143500000000131
20
69.200000000000017
10
-34.143500000000124
20
67.715000000000018
42
-0.41421356237309637
10
-35.143500000000131
20
66.715000000000018
0
LWPOLYLINE
5
102
100
AcDbEntity
8
0
100
AcDbPolyline
90
8
70
1
43
0.0
10
-65.924250000000114
20
67.700000000000003
42
0.41421356237308465
10
-64.924250000000143
20
66.700000000000031
10
-58.924250000000129
20
66.700000000000003
42
0.41421356237309509
10
-57.924250000000129
20
67.700000000000003
10
-57.92425000000015
20
81.700000000000017
42
0.41421356237308204
10
-58.924250000000129
20
82.699999999999989
10
-64.924250000000143
20
82.700000000000031
42
0.41421356237302481
10
-65.924250000000256
20
81.700000000000102
0
LWPOLYLINE
5
103
100
AcDbEntity
8
0
100
AcDbPolyline
90
20
70
1
43
0.0
10
-142.26557565959641
20
66.700000000000017
42
0.41421356237309764
10
-141.26557565959644
20
67.700000000000017
10
-141.26557565959635
20
81.700000000000088
42
0.41421356237302742
10
-142.26557565959641
20
82.699999999999989
10
-145.41557565959641
20
82.700000000000017
42
0.41421356237309509
10
-145.91557565959641
20
83.200000000000003
10
-158.91557565959641
20
83.200000000000003
42
0.40545250413810263
10
-159.41535060894861
20
82.715000000000032
10
-164.90257565959644
20
82.715000000000003
42
0.41421356237311063
10
-165.90257565959638
20
81.715000000000018
10
-165.90257565959647
20
67.715000000000018
42
0.41421356237310542
10
-164.90257565959644
20
66.715000000000018
10
-158.90257565959641
20
66.715000000000018
42
0.41421356237309509
10
-157.90257565959644
20
67.715000000000018
10
-157.90257565959644
20
69.200000000000031
10
-156.37757565959643
20
69.200000000000017
10
-156.37757565959643
20
67.715000000000018
42
0.41421356237309509
10
-155.37757565959643
20
66.715000000000018
10
-149.3775756595964
20
66.715000000000018
10
-148.26557565959644
20
66.700000000000017
0
LWPOLYLINE
5
104
100
AcDbEntity
8
0
100
AcDbPolyline
90
18
70
1
43
0.0
10
-89.800250000000133
20
69.200000000000031
10
-100.72082565959641
20
69.200000000000003
10
-100.72082565959644
20
67.700000000000017
42
-0.41421356237309764
10
-101.72082565959641
20
66.700000000000017
10
-107.72082565959643
20
66.700000000000003
42
-0.41421356237309764
10
-108.72082565959643
20
67.700000000000017
10
-108.72082565959641
20
81.700000000000017
42
-0.41421356237307427
10
-107.72082565959643
20
82.699999999999989
10
-102.25550000000013
20
82.700000000000017
42
-0.41421356237312629
10
-101.75550000000013
20
83.200000000000003
10
-88.755500000000112
20
83.199999999999989
42
-0.4142135623730534
10
-88.255500000000126
20
82.700000000000031
10
-82.800250000000119
20
82.699999999999989
42
-0.41421356237307427
10
-81.800250000000148
20
81.700000000000017
10
-81.800250000000148
20
67.700000000000017
42
-0.41421356237309764
10
-82.800250000000119
20
66.700000000000017
10
-88.800250000000148
20
66.700000000000045
42
-0.41421356237308204
10
-89.800250000000119
20
67.700000000000017
0
LWPOLYLINE
5
105
100
AcDbEntity
8
0
100
AcDbPolyline
90
8
70
1
43
0.0
10
-132.59682565959642
20
67.700000000000003
42
0.41421356237309764
10
-131.59682565959642
20
66.700000000000003
10
-125.5968256595964
20
66.700000000000003
42
0.41421356237309764
10
-124.59682565959642
20
67.700000000000003
10
-124.59682565959633
20
81.700000000000088
42
0.41421356237302742
10
-125.5968256595964
20
82.700000000000017
10
-131.59682565959642
20
82.699999999999989
42
0.41421356237307427
10
-132.59682565959639
20
81.700000000000017
0
LWPOLYLINE
5
106
100
AcDbEntity
8
0
100
AcDbPolyline
90
8
70
1
43
0.0
10
-80.324250000000148
20
83.200000000000003
10
-67.32425000000012
20
83.19999999999996
42
-0.41421356237305862
10
-66.824250000000134
20
82.700000000000031
10
-66.824250000000134
20
69.700000000000017
42
-0.41421356237312629
10
-67.32425000000012
20
69.200000000000031
10
-80.324250000000148
20
69.200000000000031
42
-0.4142135623731002
10
-80.82425000000012
20
69.700000000000003
10
-80.824250000000148
20
82.700000000000017
42
-0.41421356237312629
0
LWPOLYLINE
5
107
100
AcDbEntity
8
0
100
AcDbPolyline
90
8
70
1
43
0.0
10
-123.19682565959641
20
83.200000000000003
42
0.41421356237309509
10
-123.69682565959643
20
82.700000000000031
10
-123.69682565959643
20
69.700000000000017
42
0.41421356237310542
10
-123.19682565959641
20
69.200000000000003
10
-110.19682565959641
20
69.200000000000003
42
0.4142135623731002
10
-109.69682565959644
20
69.700000000000003
10
-109.69682565959643
20
82.700000000000017
42
0.41421356237312629
10
-110.19682565959641
20
83.200000000000003
0
ENDSEC
0
SECTION
2
OBJECTS
0
DICTIONARY
5
C
100
AcDbDictionary
3
ACAD_GROUP
350
D
3
ACAD_MLINESTYLE
350
17
0
DICTIONARY
5
D
100
AcDbDictionary
0
DICTIONARY
5
1A
330
C
100
AcDbDictionary
0
DICTIONARY
5
17
100
AcDbDictionary
0
ENDSEC
0
EOF
