0
SECTION
2
HEADER
9
$INSUNITS
70
4
9
$ACADVER
1
AC1014
9
$HANDSEED
5
FFFF
0
ENDSEC
0
SECTION
2
TABLES
0
TABLE
2
VPORT
5
8
100
AcDbSymbolTable
0
ENDTAB
0
TABLE
2
LTYPE
5
5
100
AcDbSymbolTable
0
LTYPE
5
14
100
AcDbSymbolTableRecord
100
AcDbLinetypeTableRecord
2
BYBLOCK
70
0
0
LTYPE
5
15
100
AcDbSymbolTableRecord
100
AcDbLinetypeTableRecord
2
BYLAYER
70
0
0
ENDTAB
0
TABLE
2
LAYER
5
2
100
AcDbSymbolTable
70
2
0
LAYER
5
50
100
AcDbSymbolTableRecord
100
AcDbLayerTableRecord
2
0
70
0
6
CONTINUOUS
0
ENDTAB
0
TABLE
2
STYLE
5
3
100
AcDbSymbolTable
70
1
0
STYLE
5
11
100
AcDbSymbolTableRecord
100
AcDbTextStyleTableRecord
2
STANDARD
70
0
0
ENDTAB
0
TABLE
2
VIEW
5
6
100
AcDbSymbolTable
70
0
0
ENDTAB
0
TABLE
2
UCS
5
7
100
AcDbSymbolTable
70
0
0
ENDTAB
0
TABLE
2
APPID
5
9
100
AcDbSymbolTable
70
2
0
APPID
5
12
100
AcDbSymbolTableRecord
100
AcDbRegAppTableRecord
2
ACAD
70
0
0
ENDTAB
0
TABLE
2
DIMSTYLE
5
A
100
AcDbSymbolTable
70
1
0
ENDTAB
0
TABLE
2
BLOCK_RECORD
5
1
100
AcDbSymbolTable
70
1
0
BLOCK_RECORD
5
1F
100
AcDbSymbolTableRecord
100
AcDbBlockTableRecord
2
*MODEL_SPACE
0
BLOCK_RECORD
5
1B
100
AcDbSymbolTableRecord
100
AcDbBlockTableRecord
2
*PAPER_SPACE
0
ENDTAB
0
ENDSEC
0
SECTION
2
BLOCKS
0
BLOCK
5
20
100
AcDbEntity
100
AcDbBlockBegin
2
*MODEL_SPACE
0
ENDBLK
5
21
100
AcDbEntity
100
AcDbBlockEnd
0
BLOCK
5
1C
100
AcDbEntity
100
AcDbBlockBegin
2
*PAPER_SPACE
0
ENDBLK
5
1D
100
AcDbEntity
100
AcDbBlockEnd
0
ENDSEC
0
SECTION
2
ENTITIES
0
LWPOLYLINE
5
100
100
AcDbEntity
8
0
100
AcDbPolyline
90
50
70
1
43
0.0
10
-231.59999999999997
20
19.637500250000084
42
0.41421356237307683
10
-231.09999999999997
20
19.137500250000109
10
-228.59999999999999
20
19.137500250000077
10
-228.59999999999999
20
9.6249999999998401
10
38.100000000000023
20
9.6250000000000036
10
38.100000000000037
20
19.137500250000016
10
40.600000000000037
20
19.137500250000013
42
0.41421356237309637
10
41.100000000000037
20
19.637500250000013
10
41.100000000000065
20
22.633316361937506
42
-0.56309250637149599
10
41.100000000000058
20
24.941995638060604
10
41.100000000000051
20
27.637500250000009
42
0.41421356237309509
10
40.600000000000051
20
28.137500250000009
10
38.100000000000037
20
28.137500250000009
10
38.100000000000023
20
47.162500749998166
10
40.599999999997607
20
47.162500749998173
42
0.41421356237301177
10
41.099999999997607
20
47.662500749998031
10
41.099999999998673
20
51.358628361936439
42
-0.56309250637090957
10
41.099999999999326
20
53.667307638058276
10
41.099999999999888
20
55.662500749998031
42
0.41421356237318868
10
40.599999999999888
20
56.162500749998173
10
38.100000000000023
20
56.162500749998173
10
38.100000000000023
20
65.675001000000037
10
23.544499999999875
20
65.675001000000037
10
23.544499999999875
20
68.175001000000023
42
0.41421356237309764
10
23.044499999999879
20
68.675001000000009
10
15.044499999999839
20
68.675001000000023
42
0.4142135623730937
10
14.544499999999843
20
68.175001000000023
10
14.544499999999854
20
65.675001000000023
10
-23.112499
20
65.675001000000009
10
-167.38749975024703
20
65.675748800006971
10
-205.04449999999977
20
65.675748799987701
10
-205.04449999999977
20
68.175001000000066
42
0.41421356237307427
10
-205.54449999999977
20
68.675001000000037
10
-213.5444999999998
20
68.67500100000008
42
0.4142135623730222
10
-214.04449999999974
20
68.17500100000008
10
-214.04449999999974
20
65.675748799983083
10
-228.59999999999999
20
65.675748799975636
10
-228.59999999999999
20
56.16250074999823
10
-231.09999999999974
20
56.162500749998244
42
0.4142135623731783
10
-231.59999999999974
20
55.662500749998102
10
-231.59999999999923
20
53.66730763805797
42
-0.56309250637083752
10
-231.59999999999857
20
51.358628361936319
10
-231.59999999999752
20
47.662500749998102
42
0.41421356237299617
10
-231.09999999999746
20
47.162500749998266
10
-228.59999999999999
20
47.162500749998237
10
-228.59999999999999
20
28.137500250000073
10
-231.09999999999997
20
28.137500250000077
42
0.41421356237308204
10
-231.59999999999997
20
27.637500250000077
10
-231.59999999999997
20
24.94199563806038
42
-0.56309250637148944
10
-231.59999999999999
20
22.633316361937371
0
LWPOLYLINE
5
101
100
AcDbEntity
8
0
100
AcDbPolyline
90
8
70
1
43
0.0
10
-60.180500000000109
20
12.050000000000036
42
0.4142135623731002
10
-59.68050000000013
20
12.550000000000026
10
-59.680500000000137
20
25.55000000000004
42
0.41421356237306384
10
-60.180500000000109
20
26.049999999999976
10
-73.180500000000137
20
26.050000000000011
42
0.41421356237308204
10
-73.680500000000123
20
25.550000000000026
10
-73.680500000000109
20
12.550000000000017
42
0.41421356237309637
10
-73.180500000000137
20
12.050000000000045
0
LWPOLYLINE
5
102
100
AcDbEntity
8
0
100
AcDbPolyline
90
8
70
1
43
0.0
10
-41.130500000000097
20
31.100000000000037
42
0.41421356237309243
10
-40.630500000000126
20
31.60000000000003
10
-40.630500000000126
20
44.600000000000044
42
0.41421356237305862
10
-41.130500000000097
20
45.09999999999998
10
-54.130500000000126
20
45.100000000000016
42
0.41421356237307427
10
-54.630500000000112
20
44.600000000000023
10
-54.630500000000097
20
31.600000000000019
42
0.41421356237310281
10
-54.130500000000126
20
31.100000000000048
0
LWPOLYLINE
5
103
100
AcDbEntity
8
0
100
AcDbPolyline
90
8
70
1
43
0.0
10
-41.130500000000097
20
50.150000000000041
42
0.41421356237308982
10
-40.630500000000119
20
50.650000000000034
10
-40.630500000000126
20
63.650000000000048
42
0.41421356237306384
10
-41.130500000000097
20
64.149999999999977
10
-54.130500000000126
20
64.15000000000002
42
0.41421356237308465
10
-54.630500000000112
20
63.650000000000027
10
-54.630500000000097
20
50.65000000000002
42
0.41421356237310542
10
-54.130500000000126
20
50.150000000000048
0
LWPOLYLINE
5
104
100
AcDbEntity
8
0
100
AcDbPolyline
90
8
70
1
43
0.0
10
-22.0805000000001
20
50.150000000000041
42
0.41421356237309243
10
-21.580500000000114
20
50.650000000000034
10
-21.580500000000129
20
63.650000000000048
42
0.41421356237307161
10
-22.0805000000001
20
64.149999999999977
10
-35.080500000000121
20
64.15000000000002
42
0.41421356237309243
10
-35.580500000000114
20
63.650000000000027
10
-35.580500000000093
20
50.65000000000002
42
0.41421356237310281
10
-35.080500000000121
20
50.150000000000048
0
LWPOLYLINE
5
105
100
AcDbEntity
8
0
100
AcDbPolyline
90
8
70
1
43
0.0
10
-60.180500000000109
20
31.100000000000037
42
0.41421356237309243
10
-59.680500000000137
20
31.60000000000003
10
-59.680500000000137
20
44.600000000000044
42
0.41421356237305862
10
-60.180500000000109
20
45.09999999999998
10
-73.180500000000137
20
45.100000000000016
42
0.41421356237307427
10
-73.680500000000123
20
44.600000000000023
10
-73.680500000000109
20
31.600000000000019
42
0.41421356237310281
10
-73.180500000000137
20
31.100000000000048
0
LWPOLYLINE
5
106
100
AcDbEntity
8
0
100
AcDbPolyline
90
8
70
1
43
0.0
10
16.019499999999898
20
50.150000000000041
42
0.41421356237309243
10
16.519499999999883
20
50.650000000000034
10
16.519499999999869
20
63.650000000000048
42
0.41421356237307289
10
16.019499999999898
20
64.149999999999977
10
3.0194999999998906
20
64.15000000000002
42
0.4142135623730957
10
2.5194999999998835
20
63.650000000000027
10
2.519499999999919
20
50.65000000000002
42
0.41421356237309637
10
3.0194999999998906
20
50.150000000000048
0
LWPOLYLINE
5
107
100
AcDbEntity
8
0
100
AcDbPolyline
90
20
70
1
43
0.0
10
-92.730500000000106
20
50.65000000000002
10
-92.73050000000012
20
63.650000000000027
42
-0.4142135623731002
10
-92.230500000000134
20
64.15000000000002
10
-60.180500000000109
20
64.149999999999977
42
-0.41421356237306384
10
-59.680500000000137
20
63.650000000000048
10
-59.68050000000013
20
50.650000000000034
42
-0.41421356237308982
10
-60.180500000000109
20
50.150000000000041
10
-60.305500000000116
20
50.150000000000041
10
-60.305500000000116
20
48.650000000000006
42
-0.41421356237309509
10
-61.305500000000109
20
47.650000000000006
10
-67.305500000000123
20
47.65000000000002
42
-0.41421356237308465
10
-68.305500000000109
20
48.650000000000006
10
-68.305500000000109
20
50.15000000000002
10
-84.181500000000128
20
50.150000000000034
10
-84.181500000000142
20
48.650000000000006
42
-0.41421356237309764
10
-85.181500000000128
20
47.650000000000006
10
-91.181500000000142
20
47.650000000000034
42
-0.41421356237308204
10
-92.181500000000113
20
48.650000000000006
10
-92.181500000000113
20
50.150000000000013
10
-92.23050000000012
20
50.150000000000041
42
-0.4142135623731002
0
LWPOLYLINE
5
108
100
AcDbEntity
8
0
100
AcDbPolyline
90
8
70
1
43
0.0
10
16.019499999999898
20
31.100000000000037
42
0.4142135623731002
10
16.51949999999988
20
31.60000000000003
10
16.519499999999869
20
44.600000000000044
42
0.41421356237306772
10
16.019499999999898
20
45.09999999999998
10
3.0194999999998906
20
45.100000000000016
42
0.41421356237308526
10
2.5194999999998835
20
44.600000000000023
10
2.519499999999919
20
31.600000000000019
42
0.41421356237309892
10
3.0194999999998906
20
31.100000000000048
0
LWPOLYLINE
5
109
100
AcDbEntity
8
0
100
AcDbPolyline
90
8
70
1
43
0.0
10
-79.230500000000106
20
31.100000000000037
42
0.41421356237309243
10
-78.730500000000134
20
31.60000000000003
10
-78.730500000000134
20
44.600000000000044
42
0.41421356237305862
10
-79.230500000000106
20
45.09999999999998
10
-92.230500000000134
20
45.100000000000016
42
0.41421356237309509
10
-92.73050000000012
20
44.600000000000023
10
-92.730500000000106
20
31.600000000000019
42
0.41421356237309764
10
-92.230500000000134
20
31.100000000000048
0
LWPOLYLINE
5
110
100
AcDbEntity
8
0
100
AcDbPolyline
90
8
70
1
43
0.0
10
-79.230500000000106
20
12.050000000000036
42
0.4142135623731002
10
-78.73050000000012
20
12.550000000000026
10
-78.730500000000134
20
25.55000000000004
42
0.41421356237306384
10
-79.230500000000106
20
26.049999999999976
10
-92.230500000000134
20
26.050000000000011
42
0.41421356237309764
10
-92.73050000000012
20
25.550000000000026
10
-92.730500000000106
20
12.550000000000017
42
0.41421356237309637
10
-92.230500000000134
20
12.050000000000045
0
LWPOLYLINE
5
111
100
AcDbEntity
8
0
100
AcDbPolyline
90
8
70
1
43
0.0
10
-22.0805000000001
20
12.050000000000036
42
0.41421356237310414
10
-21.580500000000118
20
12.550000000000026
10
-21.580500000000129
20
25.55000000000004
42
0.41421356237307161
10
-22.0805000000001
20
26.049999999999976
10
-35.080500000000121
20
26.050000000000011
42
0.41421356237308465
10
-35.580500000000114
20
25.550000000000026
10
-35.580500000000093
20
12.550000000000017
42
0.41421356237309637
10
-35.080500000000121
20
12.050000000000045
0
LWPOLYLINE
5
112
100
AcDbEntity
8
0
100
AcDbPolyline
90
8
70
1
43
0.0
10
22.069499999999884
20
26.050000000000011
10
35.069499999999906
20
26.049999999999983
42
-0.41421356237307161
10
35.569499999999877
20
25.55000000000004
10
35.569499999999891
20
12.550000000000026
42
-0.41421356237310414
10
35.069499999999906
20
12.050000000000036
10
22.069499999999884
20
12.050000000000043
42
-0.41421356237309637
10
21.569499999999913
20
12.550000000000017
10
21.569499999999895
20
25.550000000000026
42
-0.41421356237308465
0
LWPOLYLINE
5
113
100
AcDbEntity
8
0
100
AcDbPolyline
90
8
70
1
43
0.0
10
-3.0305000000000959
20
50.150000000000041
42
0.41421356237309082
10
-2.5305000000001137
20
50.650000000000034
10
-2.5305000000001243
20
63.650000000000048
42
0.414213562373072
10
-3.0305000000000959
20
64.149999999999977
10
-16.030500000000121
20
64.15000000000002
42
0.41421356237309509
10
-16.53050000000011
20
63.650000000000027
10
-16.530500000000092
20
50.65000000000002
42
0.41421356237309637
10
-16.030500000000121
20
50.150000000000048
0
LWPOLYLINE
5
114
100
AcDbEntity
8
0
100
AcDbPolyline
90
8
70
1
43
0.0
10
-3.0305000000000959
20
31.100000000000037
42
0.41421356237309598
10
-2.5305000000001137
20
31.60000000000003
10
-2.5305000000001243
20
44.600000000000044
42
0.41421356237306678
10
-3.0305000000000959
20
45.09999999999998
10
-16.030500000000121
20
45.100000000000016
42
0.41421356237308465
10
-16.53050000000011
20
44.600000000000023
10
-16.530500000000092
20
31.600000000000019
42
0.41421356237309637
10
-16.030500000000121
20
31.100000000000048
0
LWPOLYLINE
5
115
100
AcDbEntity
8
0
100
AcDbPolyline
90
8
70
1
43
0.0
10
-149.89057565959646
20
12.550000000000026
42
0.41421356237306384
10
-149.39057565959646
20
12.050000000000001
10
-136.39057565959644
20
12.05000000000001
42
0.41421356237309637
10
-135.89057565959644
20
12.550000000000017
10
-135.89057565959644
20
25.550000000000026
42
0.41421356237311319
10
-136.39057565959644
20
26.050000000000011
10
-149.39057565959646
20
26.050000000000011
42
0.41421356237307427
10
-149.89057565959646
20
25.55000000000004
0
LWPOLYLINE
5
116
100
AcDbEntity
8
0
100
AcDbPolyline
90
8
70
1
43
0.0
10
-135.89057565959644
20
63.650000000000027
42
0.41421356237311585
10
-136.39057565959644
20
64.15000000000002
10
-149.39057565959646
20
64.15000000000002
42
0.41421356237307427
10
-149.89057565959644
20
63.650000000000048
10
-149.89057565959646
20
50.650000000000034
42
0.41421356237306384
10
-149.39057565959646
20
50.150000000000041
10
-136.39057565959644
20
50.150000000000013
42
0.41421356237309509
10
-135.89057565959644
20
50.65000000000002
0
LWPOLYLINE
5
117
100
AcDbEntity
8
0
100
AcDbPolyline
90
8
70
1
43
0.0
10
35.069499999999906
20
31.100000000000037
42
0.4142135623731002
10
35.569499999999891
20
31.60000000000003
10
35.569499999999877
20
44.600000000000044
42
0.41421356237306645
10
35.069499999999906
20
45.09999999999998
10
22.069499999999884
20
45.100000000000016
42
0.41421356237308204
10
21.569499999999895
20
44.600000000000023
10
21.569499999999913
20
31.600000000000019
42
0.4142135623731002
10
22.069499999999884
20
31.100000000000048
0
LWPOLYLINE
5
118
100
AcDbEntity
8
0
100
AcDbPolyline
90
8
70
1
43
0.0
10
-3.0305000000000959
20
12.050000000000036
42
0.41421356237310092
10
-2.5305000000001145
20
12.550000000000026
10
-2.5305000000001243
20
25.55000000000004
42
0.41421356237306933
10
-3.0305000000000959
20
26.049999999999976
10
-16.030500000000121
20
26.050000000000011
42
0.41421356237308982
10
-16.53050000000011
20
25.550000000000026
10
-16.530500000000092
20
12.550000000000017
42
0.41421356237309509
10
-16.030500000000121
20
12.050000000000045
0
LWPOLYLINE
5
119
100
AcDbEntity
8
0
100
AcDbPolyline
90
8
70
1
43
0.0
10
-117.34057565959642
20
31.100000000000012
42
0.41421356237309243
10
-116.84057565959641
20
31.600000000000019
10
-116.84057565959642
20
44.600000000000023
42
0.41421356237311063
10
-117.34057565959642
20
45.100000000000016
10
-130.34057565959645
20
45.100000000000016
42
0.41421356237307427
10
-130.84057565959642
20
44.600000000000044
10
-130.84057565959645
20
31.60000000000003
42
0.41421356237307944
10
-130.34057565959645
20
31.100000000000012
0
LWPOLYLINE
5
120
100
AcDbEntity
8
0
100
AcDbPolyline
90
8
70
1
43
0.0
10
-149.89057565959646
20
31.60000000000003
42
0.414213562373069
10
-149.39057565959646
20
31.100000000000012
10
-136.39057565959644
20
31.100000000000012
42
0.41421356237309243
10
-135.89057565959644
20
31.600000000000019
10
-135.89057565959644
20
44.600000000000023
42
0.41421356237311063
10
-136.39057565959644
20
45.100000000000016
10
-149.39057565959646
20
45.100000000000016
42
0.41421356237307427
10
-149.89057565959646
20
44.600000000000044
0
LWPOLYLINE
5
121
100
AcDbEntity
8
0
100
AcDbPolyline
90
8
70
1
43
0.0
10
-116.84057565959642
20
25.550000000000026
42
0.41421356237311319
10
-117.34057565959642
20
26.050000000000008
10
-130.34057565959645
20
26.050000000000011
42
0.41421356237307427
10
-130.84057565959645
20
25.55000000000004
10
-130.84057565959645
20
12.550000000000026
42
0.41421356237306384
10
-130.34057565959645
20
12.050000000000036
10
-117.34057565959642
20
12.05000000000001
42
0.41421356237309637
10
-116.84057565959641
20
12.550000000000017
0
LWPOLYLINE
5
122
100
AcDbEntity
8
0
100
AcDbPolyline
90
8
70
1
43
0.0
10
35.069499999999906
20
50.150000000000041
42
0.41421356237309243
10
35.569499999999891
20
50.650000000000034
10
35.569499999999877
20
63.650000000000048
42
0.41421356237307161
10
35.069499999999906
20
64.149999999999977
10
22.069499999999884
20
64.15000000000002
42
0.41421356237309243
10
21.569499999999895
20
63.650000000000027
10
21.569499999999913
20
50.65000000000002
42
0.41421356237310281
10
22.069499999999884
20
50.150000000000048
0
LWPOLYLINE
5
123
100
AcDbEntity
8
0
100
AcDbPolyline
90
8
70
1
43
0.0
10
16.019499999999898
20
12.050000000000036
42
0.41421356237310281
10
16.51949999999988
20
12.550000000000026
10
16.519499999999869
20
25.55000000000004
42
0.41421356237307289
10
16.019499999999898
20
26.049999999999976
10
3.0194999999998906
20
26.050000000000011
42
0.41421356237309048
10
2.5194999999998835
20
25.550000000000026
10
2.519499999999919
20
12.550000000000017
42
0.41421356237309437
10
3.0194999999998906
20
12.050000000000045
0
LWPOLYLINE
5
124
100
AcDbEntity
8
0
100
AcDbPolyline
90
20
70
1
43
0.0
10
-98.290575659596428
20
50.150000000000013
10
-98.339575659596434
20
50.150000000000013
10
-98.339575659596434
20
48.650000000000006
42
-0.41421356237309764
10
-99.33957565959642
20
47.650000000000006
10
-105.33957565959642
20
47.649999999999999
42
-0.41421356237309764
10
-106.33957565959642
20
48.650000000000006
10
-106.33957565959642
20
50.150000000000034
10
-122.21557565959644
20
50.15000000000002
10
-122.21557565959645
20
48.650000000000006
42
-0.41421356237309764
10
-123.21557565959644
20
47.650000000000006
10
-129.21557565959645
20
47.649999999999999
42
-0.41421356237309764
10
-130.21557565959645
20
48.650000000000006
10
-130.21557565959642
20
50.150000000000041
10
-130.34057565959645
20
50.150000000000006
42
-0.41421356237306384
10
-130.84057565959645
20
50.650000000000034
10
-130.84057565959645
20
63.650000000000048
42
-0.41421356237307427
10
-130.34057565959645
20
64.15000000000002
10
-98.290575659596442
20
64.150000000000034
42
-0.4142135623731002
10
-97.790575659596442
20
63.650000000000027
10
-97.790575659596414
20
50.65000000000002
42
-0.41421356237307427
0
LWPOLYLINE
5
125
100
AcDbEntity
8
0
100
AcDbPolyline
90
8
70
1
43
0.0
10
-212.59057565959642
20
12.05000000000001
42
0.41421356237312362
10
-212.0905756595964
20
12.550000000000017
10
-212.09057565959648
20
25.550000000000026
42
0.41421356237307427
10
-212.59057565959642
20
26.050000000000011
10
-225.59057565959648
20
26.050000000000011
42
0.4142135623730378
10
-226.09057565959645
20
25.55000000000004
10
-226.09057565959648
20
12.550000000000026
42
0.41421356237310281
10
-225.59057565959648
20
12.05000000000001
0
LWPOLYLINE
5
126
100
AcDbEntity
8
0
100
AcDbPolyline
90
8
70
1
43
0.0
10
-173.99057565959646
20
44.600000000000023
42
0.41421356237307427
10
-174.4905756595964
20
45.100000000000037
10
-187.49057565959646
20
45.100000000000016
42
0.4142135623730378
10
-187.99057565959646
20
44.600000000000044
10
-187.99057565959646
20
31.600000000000044
42
0.4142135623731002
10
-187.49057565959646
20
31.100000000000037
10
-174.4905756595964
20
31.100000000000012
42
0.4142135623731002
10
-173.99057565959646
20
31.600000000000019
0
LWPOLYLINE
5
127
100
AcDbEntity
8
0
100
AcDbPolyline
90
8
70
1
43
0.0
10
-206.54057565959647
20
26.050000000000011
42
0.4142135623730378
10
-207.04057565959647
20
25.55000000000004
10
-207.04057565959647
20
12.550000000000026
42
0.41421356237310281
10
-206.54057565959647
20
12.05000000000001
10
-193.54057565959641
20
12.05000000000001
42
0.41421356237312362
10
-193.04057565959647
20
12.550000000000017
10
-193.04057565959641
20
25.550000000000026
42
0.4142135623731002
10
-193.54057565959641
20
26.050000000000011
0
LWPOLYLINE
5
128
100
AcDbEntity
8
0
100
AcDbPolyline
90
8
70
1
43
0.0
10
-155.44057565959645
20
12.05000000000001
42
0.41421356237309637
10
-154.94057565959645
20
12.550000000000017
10
-154.94057565959645
20
25.550000000000026
42
0.41421356237311319
10
-155.44057565959645
20
26.050000000000011
10
-168.44057565959645
20
26.050000000000011
42
0.4142135623730378
10
-168.94057565959645
20
25.55000000000004
10
-168.94057565959645
20
12.550000000000026
42
0.41421356237310281
10
-168.44057565959645
20
12.050000000000036
0
LWPOLYLINE
5
129
100
AcDbEntity
8
0
100
AcDbPolyline
90
8
70
1
43
0.0
10
-212.59057565959642
20
50.150000000000013
42
0.41421356237312101
10
-212.0905756595964
20
50.65000000000002
10
-212.09057565959648
20
63.650000000000027
42
0.41421356237308465
10
-212.59057565959642
20
64.15000000000002
10
-225.59057565959648
20
64.15000000000002
42
0.4142135623730378
10
-226.09057565959645
20
63.650000000000048
10
-226.09057565959648
20
50.650000000000034
42
0.41421356237310542
10
-225.59057565959648
20
50.150000000000013
0
LWPOLYLINE
5
130
100
AcDbEntity
8
0
100
AcDbPolyline
90
8
70
1
43
0.0
10
-154.94057565959645
20
44.600000000000023
42
0.41421356237311063
10
-155.44057565959645
20
45.100000000000009
10
-168.44057565959645
20
45.100000000000016
42
0.4142135623730378
10
-168.94057565959645
20
44.600000000000044
10
-168.94057565959645
20
31.60000000000003
42
0.41421356237310802
10
-168.44057565959645
20
31.100000000000037
10
-155.44057565959645
20
31.100000000000012
42
0.41421356237309243
10
-154.94057565959648
20
31.600000000000019
0
LWPOLYLINE
5
131
100
AcDbEntity
8
0
100
AcDbPolyline
90
8
70
1
43
0.0
10
-187.99057565959646
20
50.650000000000048
42
0.41421356237307944
10
-187.49057565959649
20
50.150000000000034
10
-174.4905756595964
20
50.150000000000013
42
0.41421356237312101
10
-173.99057565959646
20
50.65000000000002
10
-173.99057565959646
20
63.650000000000027
42
0.41421356237308465
10
-174.4905756595964
20
64.15000000000002
10
-187.49057565959646
20
64.15000000000002
42
0.4142135623730378
10
-187.99057565959646
20
63.650000000000048
0
LWPOLYLINE
5
132
100
AcDbEntity
8
0
100
AcDbPolyline
90
8
70
1
43
0.0
10
-41.130500000000097
20
12.050000000000036
42
0.4142135623731002
10
-40.630500000000119
20
12.550000000000026
10
-40.630500000000126
20
25.55000000000004
42
0.41421356237306384
10
-41.130500000000097
20
26.049999999999976
10
-54.130500000000126
20
26.050000000000011
42
0.41421356237308204
10
-54.630500000000112
20
25.550000000000026
10
-54.630500000000097
20
12.550000000000017
42
0.41421356237309637
10
-54.130500000000126
20
12.050000000000045
0
LWPOLYLINE
5
133
100
AcDbEntity
8
0
100
AcDbPolyline
90
8
70
1
43
0.0
10
-193.54057565959641
20
31.100000000000012
42
0.4142135623731002
10
-193.04057565959641
20
31.600000000000019
10
-193.04057565959641
20
44.600000000000023
42
0.41421356237312629
10
-193.54057565959641
20
45.100000000000037
10
-206.54057565959647
20
45.100000000000016
42
0.4142135623730378
10
-207.04057565959644
20
44.600000000000044
10
-207.04057565959647
20
31.60000000000003
42
0.41421356237310802
10
-206.54057565959647
20
31.100000000000037
0
LWPOLYLINE
5
134
100
AcDbEntity
8
0
100
AcDbPolyline
90
8
70
1
43
0.0
10
-168.94057565959645
20
50.650000000000034
42
0.41421356237310542
10
-168.44057565959645
20
50.150000000000006
10
-155.44057565959645
20
50.150000000000013
42
0.41421356237309509
10
-154.94057565959648
20
50.65000000000002
10
-154.94057565959645
20
63.650000000000027
42
0.41421356237311585
10
-155.44057565959645
20
64.15000000000002
10
-168.44057565959645
20
64.15000000000002
42
0.4142135623730378
10
-168.94057565959645
20
63.650000000000048
0
LWPOLYLINE
5
135
100
AcDbEntity
8
0
100
AcDbPolyline
90
8
70
1
43
0.0
10
-206.54057565959647
20
64.15000000000002
42
0.4142135623730378
10
-207.04057565959647
20
63.650000000000048
10
-207.04057565959647
20
50.650000000000034
42
0.41421356237310542
10
-206.54057565959647
20
50.150000000000013
10
-193.54057565959641
20
50.150000000000013
42
0.41421356237312101
10
-193.04057565959647
20
50.65000000000002
10
-193.04057565959641
20
63.650000000000027
42
0.41421356237312101
10
-193.54057565959641
20
64.150000000000034
0
LWPOLYLINE
5
136
100
AcDbEntity
8
0
100
AcDbPolyline
90
8
70
1
43
0.0
10
-173.99057565959646
20
25.550000000000026
42
0.41421356237307427
10
-174.4905756595964
20
26.050000000000033
10
-187.49057565959646
20
26.050000000000011
42
0.4142135623730378
10
-187.99057565959646
20
25.55000000000004
10
-187.99057565959646
20
12.550000000000043
42
0.4142135623731002
10
-187.49057565959646
20
12.050000000000036
10
-174.4905756595964
20
12.05000000000001
42
0.41421356237312362
10
-173.99057565959646
20
12.550000000000017
0
LWPOLYLINE
5
137
100
AcDbEntity
8
0
100
AcDbPolyline
90
8
70
1
43
0.0
10
-22.0805000000001
20
31.100000000000037
42
0.4142135623731002
10
-21.580500000000118
20
31.60000000000003
10
-21.580500000000129
20
44.600000000000044
42
0.41421356237306645
10
-22.0805000000001
20
45.09999999999998
10
-35.080500000000121
20
45.100000000000016
42
0.41421356237308204
10
-35.580500000000114
20
44.600000000000023
10
-35.580500000000093
20
31.600000000000019
42
0.4142135623731002
10
-35.080500000000121
20
31.100000000000048
0
LWPOLYLINE
5
138
100
AcDbEntity
8
0
100
AcDbPolyline
90
8
70
1
43
0.0
10
-226.09057565959648
20
31.60000000000003
42
0.41421356237310802
10
-225.59057565959648
20
31.099999999999998
10
-212.59057565959642
20
31.100000000000012
42
0.4142135623731002
10
-212.09057565959648
20
31.600000000000019
10
-212.09057565959648
20
44.600000000000023
42
0.41421356237307427
10
-212.59057565959642
20
45.100000000000016
10
-225.59057565959648
20
45.100000000000016
42
0.4142135623730378
10
-226.09057565959645
20
44.600000000000044
0
LWPOLYLINE
5
139
100
AcDbEntity
8
0
100
AcDbPolyline
90
8
70
1
43
0.0
10
-111.29057565959644
20
45.100000000000016
42
0.41421356237309509
10
-111.79057565959646
20
44.600000000000044
10
-111.79057565959646
20
31.60000000000003
42
0.4142135623731002
10
-111.29057565959644
20
31.100000000000012
10
-98.290575659596428
20
31.100000000000012
42
0.41421356237307161
10
-97.790575659596456
20
31.600000000000019
10
-97.790575659596442
20
44.600000000000023
42
0.41421356237309509
10
-98.290575659596428
20
45.100000000000016
0
LWPOLYLINE
5
140
100
AcDbEntity
8
0
100
AcDbPolyline
90
8
70
1
43
0.0
10
-98.290575659596428
20
12.05000000000001
42
0.41421356237307549
10
-97.790575659596414
20
12.550000000000017
10
-97.790575659596442
20
25.550000000000026
42
0.41421356237309764
10
-98.290575659596428
20
26.050000000000011
10
-111.29057565959644
20
26.050000000000011
42
0.41421356237309509
10
-111.79057565959641
20
25.55000000000004
10
-111.79057565959646
20
12.550000000000026
42
0.41421356237309509
10
-111.29057565959644
20
12.05000000000001
0
ENDSEC
0
SECTION
2
OBJECTS
0
DICTIONARY
5
C
100
AcDbDictionary
3
ACAD_GROUP
350
D
3
ACAD_MLINESTYLE
350
17
0
DICTIONARY
5
D
100
AcDbDictionary
0
DICTIONARY
5
1A
330
C
100
AcDbDictionary
0
DICTIONARY
5
17
100
AcDbDictionary
0
ENDSEC
0
EOF
