0
SECTION
2
HEADER
9
$INSUNITS
70
4
9
$ACADVER
1
AC1014
9
$HANDSEED
5
FFFF
0
ENDSEC
0
SECTION
2
TABLES
0
TABLE
2
VPORT
5
8
100
AcDbSymbolTable
0
ENDTAB
0
TABLE
2
LTYPE
5
5
100
AcDbSymbolTable
0
LTYPE
5
14
100
AcDbSymbolTableRecord
100
AcDbLinetypeTableRecord
2
BYBLOCK
70
0
0
LTYPE
5
15
100
AcDbSymbolTableRecord
100
AcDbLinetypeTableRecord
2
BYLAYER
70
0
0
ENDTAB
0
TABLE
2
LAYER
5
2
100
AcDbSymbolTable
70
2
0
LAYER
5
50
100
AcDbSymbolTableRecord
100
AcDbLayerTableRecord
2
0
70
0
6
CONTINUOUS
0
ENDTAB
0
TABLE
2
STYLE
5
3
100
AcDbSymbolTable
70
1
0
STYLE
5
11
100
AcDbSymbolTableRecord
100
AcDbTextStyleTableRecord
2
STANDARD
70
0
0
ENDTAB
0
TABLE
2
VIEW
5
6
100
AcDbSymbolTable
70
0
0
ENDTAB
0
TABLE
2
UCS
5
7
100
AcDbSymbolTable
70
0
0
ENDTAB
0
TABLE
2
APPID
5
9
100
AcDbSymbolTable
70
2
0
APPID
5
12
100
AcDbSymbolTableRecord
100
AcDbRegAppTableRecord
2
ACAD
70
0
0
ENDTAB
0
TABLE
2
DIMSTYLE
5
A
100
AcDbSymbolTable
70
1
0
ENDTAB
0
TABLE
2
BLOCK_RECORD
5
1
100
AcDbSymbolTable
70
1
0
BLOCK_RECORD
5
1F
100
AcDbSymbolTableRecord
100
AcDbBlockTableRecord
2
*MODEL_SPACE
0
BLOCK_RECORD
5
1B
100
AcDbSymbolTableRecord
100
AcDbBlockTableRecord
2
*PAPER_SPACE
0
ENDTAB
0
ENDSEC
0
SECTION
2
BLOCKS
0
BLOCK
5
20
100
AcDbEntity
100
AcDbBlockBegin
2
*MODEL_SPACE
0
ENDBLK
5
21
100
AcDbEntity
100
AcDbBlockEnd
0
BLOCK
5
1C
100
AcDbEntity
100
AcDbBlockBegin
2
*PAPER_SPACE
0
ENDBLK
5
1D
100
AcDbEntity
100
AcDbBlockEnd
0
ENDSEC
0
SECTION
2
ENTITIES
0
LWPOLYLINE
5
100
100
AcDbEntity
8
0
100
AcDbPolyline
90
8
70
1
43
0.0
10
-6.5055000000001328
20
7.0000000000000107
10
6.494499999999892
20
6.9999999999999751
42
-0.41421356237307427
10
6.9944999999998636
20
6.5000000000000391
10
6.9944999999998734
20
-6.4999999999999769
42
-0.41421356237309959
10
6.494499999999892
20
-6.9999999999999662
10
-6.5055000000001328
20
-6.9999999999999574
42
-0.41421356237309243
10
-7.0055000000001044
20
-6.4999999999999858
10
-7.0055000000001222
20
6.5000000000000213
42
-0.41421356237309637
0
LWPOLYLINE
5
101
100
AcDbEntity
8
0
100
AcDbPolyline
90
8
70
1
43
0.0
10
-25.555500000000137
20
7.0000000000000107
10
-12.555500000000119
20
6.9999999999999911
42
-0.41421356237307289
10
-12.05550000000013
20
6.5000000000000391
10
-12.055500000000139
20
-6.4999999999999769
42
-0.4142135623731022
10
-12.555500000000119
20
-6.9999999999999662
10
-25.555500000000137
20
-6.9999999999999591
42
-0.41421356237309637
10
-26.055500000000109
20
-6.4999999999999858
10
-26.055500000000123
20
6.5000000000000213
42
-0.41421356237309048
0
LWPOLYLINE
5
102
100
AcDbEntity
8
0
100
AcDbPolyline
90
8
70
1
43
0.0
10
-44.605500000000134
20
7.0000000000000107
10
-31.60550000000012
20
6.9999999999999911
42
-0.4142135623730781
10
-31.105500000000134
20
6.5000000000000391
10
-31.105500000000134
20
-6.4999999999999769
42
-0.4142135623731048
10
-31.60550000000012
20
-6.9999999999999662
10
-44.605500000000134
20
-6.9999999999999591
42
-0.41421356237309637
10
-45.105500000000106
20
-6.4999999999999858
10
-45.105500000000127
20
6.5000000000000213
42
-0.41421356237308526
0
LWPOLYLINE
5
103
100
AcDbEntity
8
0
100
AcDbPolyline
90
8
70
1
43
0.0
10
22.069499999999884
20
7.0000000000000107
10
35.069499999999906
20
6.9999999999999769
42
-0.41421356237307549
10
35.569499999999877
20
6.5000000000000391
10
35.569499999999891
20
-6.4999999999999769
42
-0.41421356237310092
10
35.069499999999906
20
-6.9999999999999662
10
22.069499999999884
20
-6.9999999999999591
42
-0.41421356237309637
10
21.569499999999913
20
-6.4999999999999858
10
21.569499999999895
20
6.5000000000000213
42
-0.41421356237309048
0
LWPOLYLINE
5
104
100
AcDbEntity
8
0
100
AcDbPolyline
90
8
70
1
43
0.0
10
-177.96557565959645
20
7.0000000000000107
42
0.41421356237303653
10
-178.46557565959645
20
6.5000000000000391
10
-178.46557565959645
20
-6.499999999999968
42
0.41421356237310675
10
-177.96557565959645
20
-6.9999999999999929
10
-164.96557565959642
20
-6.9999999999999929
42
0.41421356237310153
10
-164.46557565959642
20
-6.4999999999999858
10
-164.46557565959642
20
6.5000000000000213
42
0.41421356237307483
10
-164.96557565959642
20
7.0000000000000107
0
LWPOLYLINE
5
105
100
AcDbEntity
8
0
100
AcDbPolyline
90
8
70
1
43
0.0
10
-159.41557565959644
20
-6.4999999999999591
42
0.41421356237310153
10
-158.91557565959644
20
-6.9999999999999769
10
-145.91557565959641
20
-6.9999999999999929
42
0.41421356237307289
10
-145.41557565959641
20
-6.4999999999999858
10
-145.41557565959641
20
6.5000000000000213
42
0.41421356237309959
10
-145.91557565959641
20
7.0000000000000107
10
-158.91557565959644
20
7.0000000000000107
42
0.41421356237309637
10
-159.41557565959644
20
6.5000000000000391
0
LWPOLYLINE
5
106
100
AcDbEntity
8
0
100
AcDbPolyline
90
8
70
1
43
0.0
10
-183.51557565959644
20
6.5000000000000213
42
0.41421356237307483
10
-184.01557565959644
20
7.0000000000000293
10
-197.01557565959646
20
7.0000000000000107
42
0.41421356237303653
10
-197.51557565959644
20
6.5000000000000391
10
-197.51557565959646
20
-6.499999999999968
42
0.41421356237310675
10
-197.01557565959646
20
-6.9999999999999751
10
-184.01557565959644
20
-6.9999999999999929
42
0.41421356237310153
10
-183.51557565959641
20
-6.4999999999999858
0
LWPOLYLINE
5
107
100
AcDbEntity
8
0
100
AcDbPolyline
90
8
70
1
43
0.0
10
-63.655500000000131
20
7.0000000000000107
10
-50.655500000000117
20
6.9999999999999947
42
-0.41421356237307549
10
-50.155500000000124
20
6.5000000000000391
10
-50.155500000000124
20
-6.4999999999999769
42
-0.41421356237311457
10
-50.655500000000117
20
-6.9999999999999662
10
-63.655500000000131
20
-6.9999999999999591
42
-0.41421356237309637
10
-64.155500000000103
20
-6.4999999999999858
10
-64.155500000000117
20
6.5000000000000213
42
-0.41421356237308526
0
LWPOLYLINE
5
108
100
AcDbEntity
8
0
100
AcDbPolyline
90
8
70
1
43
0.0
10
-140.36557565959643
20
-6.4999999999999591
42
0.41421356237313273
10
-139.86557565959646
20
-6.9999999999999769
10
-126.86557565959643
20
-6.9999999999999929
42
0.4142135623730937
10
-126.36557565959642
20
-6.4999999999999858
10
-126.36557565959643
20
6.5000000000000213
42
0.41421356237311519
10
-126.86557565959643
20
7.0000000000000107
10
-139.86557565959643
20
7.0000000000000107
42
0.41421356237309637
10
-140.36557565959643
20
6.5000000000000391
0
LWPOLYLINE
5
109
100
AcDbEntity
8
0
100
AcDbPolyline
90
8
70
1
43
0.0
10
-212.09057565959648
20
6.5000000000000213
42
0.41421356237307483
10
-212.59057565959642
20
7.0000000000000293
10
-225.59057565959648
20
7.0000000000000107
42
0.41421356237303653
10
-226.09057565959645
20
6.5000000000000391
10
-226.09057565959648
20
-6.499999999999968
42
0.41421356237310675
10
-225.59057565959648
20
-6.9999999999999751
10
-212.59057565959642
20
-6.9999999999999929
42
0.41421356237310153
10
-212.09057565959648
20
-6.4999999999999858
0
LWPOLYLINE
5
110
100
AcDbEntity
8
0
100
AcDbPolyline
90
4
70
1
43
0.0
10
-76.279999999999987
20
-5.2800000000000047
10
-79.219999999999985
20
-5.2800000000000047
10
-79.219999999999985
20
5.2800000000000002
10
-76.279999999999987
20
5.2800000000000002
0
LWPOLYLINE
5
111
100
AcDbEntity
8
0
100
AcDbPolyline
90
33
70
1
43
0.0
10
-157.92500000000001
20
-12.524999999999835
42
0.41421356237309764
10
-157.42500000000001
20
-12.024999999999824
10
-157.42500000000004
20
-9.5249999999998192
10
-33.074999999999903
20
-9.5249999999998636
10
-33.07499999999996
20
-12.024999999999849
42
0.41421356237309892
10
-32.57499999999996
20
-12.524999999999864
10
-29.729339638061553
20
-12.524999999999878
42
-0.56309250637155728
10
-27.420660361938339
20
-12.524999999999878
10
-24.574999999999918
20
-12.524999999999862
42
0.4142135623730937
10
-24.074999999999918
20
-12.024999999999867
10
-24.074999999999882
20
-9.5249999999998636
10
38.100000000000037
20
-9.5249999999998813
10
38.100000000000037
20
-4.5499999999994234
10
40.599999999999966
20
-4.5499999999998524
42
0.41421356237315127
10
41.100000000000051
20
-4.0499999999998515
10
41.100000000000051
20
3.9500000000000579
42
0.41421356237309437
10
40.600000000000051
20
4.4500000000000552
10
38.100000000000037
20
4.4500000000000561
10
38.100000000000037
20
9.4250000000000078
10
-228.59999999999999
20
9.4250000000005585
10
-228.59999999999999
20
4.4500000000001183
10
-231.09999999999997
20
4.4500000000001183
42
0.41421356237307744
10
-231.59999999999999
20
3.9500000000001196
10
-231.59999999999997
20
-4.0499999999997813
42
0.41421356237313345
10
-231.09999999999988
20
-4.5499999999997822
10
-228.59999999999999
20
-4.5499999999993523
10
-228.59999999999999
20
-9.0249999999998014
42
0.41421356237307744
10
-228.09999999999999
20
-9.5249999999997783
10
-166.42500000000007
20
-9.5249999999998192
10
-166.42500000000001
20
-12.024999999999832
42
0.41421356237304435
10
-165.92500000000001
20
-12.524999999999824
10
-163.07933963806147
20
-12.524999999999856
42
-0.56309250637143615
10
-160.77066036193852
20
-12.52499999999986
0
ENDSEC
0
SECTION
2
OBJECTS
0
DICTIONARY
5
C
100
AcDbDictionary
3
ACAD_GROUP
350
D
3
ACAD_MLINESTYLE
350
17
0
DICTIONARY
5
D
100
AcDbDictionary
0
DICTIONARY
5
1A
330
C
100
AcDbDictionary
0
DICTIONARY
5
17
100
AcDbDictionary
0
ENDSEC
0
EOF
